ISO-10303-21;
HEADER;
/* Generated by software containing ST-Developer
 * from STEP Tools, Inc. (www.steptools.com) 
 */
/* OPTION: using custom renumber hook */

FILE_DESCRIPTION(
/* description */ ('STEP AP242 Edition 2',
'CAx-IF Rec.Pracs.---Representation and Presentation of Product Manufa
cturing Information (PMI)---4.0---2014-10-13',
'CAx-IF Rec.Pracs.---3D Tessellated Geometry---0.4---2014-09-14','2;1',
'CAx-IF Rec.Pracs.---User Defined Attributes---1.5---2016-08-15'),
/* implementation_level */ '2;1');

FILE_NAME(
/* name */ 'gearbox cover',
/* time_stamp */ '2026-08-19T18:12:19Z',
/* author */ (''),
/* organization */ (''),
/* preprocessor_version */ 'ST-DEVELOPER v20',
/* originating_system */ 'ONSHAPE BY PTC INC, 1.219',
/* authorisation */ '  ');

FILE_SCHEMA (('AP242_MANAGED_MODEL_BASED_3D_ENGINEERING_MIM_LF { 1 0 10303 442 3 1 4 }'));
ENDSEC;

DATA;
#10=SHAPE_REPRESENTATION_RELATIONSHIP('','',#489,#11);
#11=ADVANCED_BREP_SHAPE_REPRESENTATION('',(#487),#791);
#12=CIRCLE('',#498,0.00175);
#13=CIRCLE('',#499,0.00175);
#14=CIRCLE('',#501,0.00175);
#15=CIRCLE('',#502,0.00175);
#16=CIRCLE('',#504,0.00175);
#17=CIRCLE('',#505,0.00175);
#18=CIRCLE('',#508,0.0291);
#19=CIRCLE('',#509,0.0291);
#20=CIRCLE('',#511,0.003);
#21=CIRCLE('',#512,0.003);
#22=CIRCLE('',#513,0.003);
#23=CIRCLE('',#522,0.003);
#24=CIRCLE('',#525,0.003);
#25=CIRCLE('',#528,0.003);
#26=CYLINDRICAL_SURFACE('',#497,0.00175);
#27=CYLINDRICAL_SURFACE('',#500,0.00175);
#28=CYLINDRICAL_SURFACE('',#503,0.00175);
#29=CYLINDRICAL_SURFACE('',#507,0.0291);
#30=CYLINDRICAL_SURFACE('',#521,0.003);
#31=CYLINDRICAL_SURFACE('',#524,0.003);
#32=CYLINDRICAL_SURFACE('',#527,0.003);
#33=ORIENTED_EDGE('',*,*,#157,.F.);
#34=ORIENTED_EDGE('',*,*,#158,.F.);
#35=ORIENTED_EDGE('',*,*,#159,.T.);
#36=ORIENTED_EDGE('',*,*,#160,.F.);
#37=ORIENTED_EDGE('',*,*,#161,.T.);
#38=ORIENTED_EDGE('',*,*,#162,.T.);
#39=ORIENTED_EDGE('',*,*,#163,.F.);
#40=ORIENTED_EDGE('',*,*,#157,.T.);
#41=ORIENTED_EDGE('',*,*,#164,.T.);
#42=ORIENTED_EDGE('',*,*,#165,.F.);
#43=ORIENTED_EDGE('',*,*,#166,.F.);
#44=ORIENTED_EDGE('',*,*,#167,.T.);
#45=ORIENTED_EDGE('',*,*,#168,.F.);
#46=ORIENTED_EDGE('',*,*,#169,.F.);
#47=ORIENTED_EDGE('',*,*,#170,.T.);
#48=ORIENTED_EDGE('',*,*,#171,.F.);
#49=ORIENTED_EDGE('',*,*,#165,.T.);
#50=ORIENTED_EDGE('',*,*,#172,.T.);
#51=ORIENTED_EDGE('',*,*,#173,.F.);
#52=ORIENTED_EDGE('',*,*,#168,.T.);
#53=ORIENTED_EDGE('',*,*,#174,.T.);
#54=ORIENTED_EDGE('',*,*,#175,.F.);
#55=ORIENTED_EDGE('',*,*,#176,.F.);
#56=ORIENTED_EDGE('',*,*,#177,.T.);
#57=ORIENTED_EDGE('',*,*,#178,.F.);
#58=ORIENTED_EDGE('',*,*,#179,.F.);
#59=ORIENTED_EDGE('',*,*,#180,.T.);
#60=ORIENTED_EDGE('',*,*,#181,.F.);
#61=ORIENTED_EDGE('',*,*,#175,.T.);
#62=ORIENTED_EDGE('',*,*,#182,.T.);
#63=ORIENTED_EDGE('',*,*,#183,.F.);
#64=ORIENTED_EDGE('',*,*,#178,.T.);
#65=ORIENTED_EDGE('',*,*,#184,.T.);
#66=ORIENTED_EDGE('',*,*,#161,.F.);
#67=ORIENTED_EDGE('',*,*,#185,.F.);
#68=ORIENTED_EDGE('',*,*,#186,.T.);
#69=ORIENTED_EDGE('',*,*,#187,.F.);
#70=ORIENTED_EDGE('',*,*,#188,.T.);
#71=ORIENTED_EDGE('',*,*,#189,.F.);
#72=ORIENTED_EDGE('',*,*,#190,.T.);
#73=ORIENTED_EDGE('',*,*,#191,.F.);
#74=ORIENTED_EDGE('',*,*,#192,.T.);
#75=ORIENTED_EDGE('',*,*,#191,.T.);
#76=ORIENTED_EDGE('',*,*,#189,.T.);
#77=ORIENTED_EDGE('',*,*,#187,.T.);
#78=ORIENTED_EDGE('',*,*,#162,.F.);
#79=ORIENTED_EDGE('',*,*,#184,.F.);
#80=ORIENTED_EDGE('',*,*,#182,.F.);
#81=ORIENTED_EDGE('',*,*,#174,.F.);
#82=ORIENTED_EDGE('',*,*,#172,.F.);
#83=ORIENTED_EDGE('',*,*,#164,.F.);
#84=ORIENTED_EDGE('',*,*,#193,.T.);
#85=ORIENTED_EDGE('',*,*,#194,.T.);
#86=ORIENTED_EDGE('',*,*,#195,.T.);
#87=ORIENTED_EDGE('',*,*,#196,.T.);
#88=ORIENTED_EDGE('',*,*,#197,.T.);
#89=ORIENTED_EDGE('',*,*,#198,.T.);
#90=ORIENTED_EDGE('',*,*,#199,.F.);
#91=ORIENTED_EDGE('',*,*,#200,.T.);
#92=ORIENTED_EDGE('',*,*,#201,.F.);
#93=ORIENTED_EDGE('',*,*,#185,.T.);
#94=ORIENTED_EDGE('',*,*,#160,.T.);
#95=ORIENTED_EDGE('',*,*,#202,.F.);
#96=ORIENTED_EDGE('',*,*,#166,.T.);
#97=ORIENTED_EDGE('',*,*,#171,.T.);
#98=ORIENTED_EDGE('',*,*,#203,.F.);
#99=ORIENTED_EDGE('',*,*,#176,.T.);
#100=ORIENTED_EDGE('',*,*,#181,.T.);
#101=ORIENTED_EDGE('',*,*,#200,.F.);
#102=ORIENTED_EDGE('',*,*,#193,.F.);
#103=ORIENTED_EDGE('',*,*,#204,.F.);
#104=ORIENTED_EDGE('',*,*,#205,.T.);
#105=ORIENTED_EDGE('',*,*,#206,.T.);
#106=ORIENTED_EDGE('',*,*,#194,.F.);
#107=ORIENTED_EDGE('',*,*,#206,.F.);
#108=ORIENTED_EDGE('',*,*,#207,.T.);
#109=ORIENTED_EDGE('',*,*,#208,.T.);
#110=ORIENTED_EDGE('',*,*,#195,.F.);
#111=ORIENTED_EDGE('',*,*,#208,.F.);
#112=ORIENTED_EDGE('',*,*,#209,.T.);
#113=ORIENTED_EDGE('',*,*,#210,.T.);
#114=ORIENTED_EDGE('',*,*,#196,.F.);
#115=ORIENTED_EDGE('',*,*,#210,.F.);
#116=ORIENTED_EDGE('',*,*,#211,.T.);
#117=ORIENTED_EDGE('',*,*,#212,.T.);
#118=ORIENTED_EDGE('',*,*,#197,.F.);
#119=ORIENTED_EDGE('',*,*,#212,.F.);
#120=ORIENTED_EDGE('',*,*,#213,.T.);
#121=ORIENTED_EDGE('',*,*,#214,.T.);
#122=ORIENTED_EDGE('',*,*,#198,.F.);
#123=ORIENTED_EDGE('',*,*,#214,.F.);
#124=ORIENTED_EDGE('',*,*,#215,.T.);
#125=ORIENTED_EDGE('',*,*,#204,.T.);
#126=ORIENTED_EDGE('',*,*,#199,.T.);
#127=ORIENTED_EDGE('',*,*,#205,.F.);
#128=ORIENTED_EDGE('',*,*,#215,.F.);
#129=ORIENTED_EDGE('',*,*,#213,.F.);
#130=ORIENTED_EDGE('',*,*,#211,.F.);
#131=ORIENTED_EDGE('',*,*,#209,.F.);
#132=ORIENTED_EDGE('',*,*,#207,.F.);
#133=ORIENTED_EDGE('',*,*,#216,.F.);
#134=ORIENTED_EDGE('',*,*,#186,.F.);
#135=ORIENTED_EDGE('',*,*,#201,.T.);
#136=ORIENTED_EDGE('',*,*,#180,.F.);
#137=ORIENTED_EDGE('',*,*,#192,.F.);
#138=ORIENTED_EDGE('',*,*,#179,.T.);
#139=ORIENTED_EDGE('',*,*,#183,.T.);
#140=ORIENTED_EDGE('',*,*,#216,.T.);
#141=ORIENTED_EDGE('',*,*,#217,.F.);
#142=ORIENTED_EDGE('',*,*,#167,.F.);
#143=ORIENTED_EDGE('',*,*,#202,.T.);
#144=ORIENTED_EDGE('',*,*,#159,.F.);
#145=ORIENTED_EDGE('',*,*,#190,.F.);
#146=ORIENTED_EDGE('',*,*,#158,.T.);
#147=ORIENTED_EDGE('',*,*,#163,.T.);
#148=ORIENTED_EDGE('',*,*,#217,.T.);
#149=ORIENTED_EDGE('',*,*,#218,.F.);
#150=ORIENTED_EDGE('',*,*,#177,.F.);
#151=ORIENTED_EDGE('',*,*,#203,.T.);
#152=ORIENTED_EDGE('',*,*,#170,.F.);
#153=ORIENTED_EDGE('',*,*,#188,.F.);
#154=ORIENTED_EDGE('',*,*,#169,.T.);
#155=ORIENTED_EDGE('',*,*,#173,.T.);
#156=ORIENTED_EDGE('',*,*,#218,.T.);
#157=EDGE_CURVE('',#219,#220,#263,.T.);
#158=EDGE_CURVE('',#221,#219,#264,.T.);
#159=EDGE_CURVE('',#221,#222,#265,.T.);
#160=EDGE_CURVE('',#223,#222,#266,.T.);
#161=EDGE_CURVE('',#223,#224,#267,.T.);
#162=EDGE_CURVE('',#224,#220,#268,.T.);
#163=EDGE_CURVE('',#219,#225,#269,.T.);
#164=EDGE_CURVE('',#220,#226,#270,.T.);
#165=EDGE_CURVE('',#227,#226,#271,.T.);
#166=EDGE_CURVE('',#228,#227,#272,.T.);
#167=EDGE_CURVE('',#228,#225,#273,.F.);
#168=EDGE_CURVE('',#229,#230,#274,.T.);
#169=EDGE_CURVE('',#231,#229,#275,.T.);
#170=EDGE_CURVE('',#231,#232,#276,.T.);
#171=EDGE_CURVE('',#227,#232,#277,.T.);
#172=EDGE_CURVE('',#226,#230,#278,.T.);
#173=EDGE_CURVE('',#229,#233,#279,.T.);
#174=EDGE_CURVE('',#230,#234,#280,.T.);
#175=EDGE_CURVE('',#235,#234,#281,.T.);
#176=EDGE_CURVE('',#236,#235,#282,.T.);
#177=EDGE_CURVE('',#236,#233,#283,.F.);
#178=EDGE_CURVE('',#237,#238,#284,.T.);
#179=EDGE_CURVE('',#239,#237,#285,.T.);
#180=EDGE_CURVE('',#239,#240,#286,.T.);
#181=EDGE_CURVE('',#235,#240,#287,.T.);
#182=EDGE_CURVE('',#234,#238,#288,.T.);
#183=EDGE_CURVE('',#237,#241,#289,.T.);
#184=EDGE_CURVE('',#238,#224,#290,.T.);
#185=EDGE_CURVE('',#242,#223,#291,.T.);
#186=EDGE_CURVE('',#242,#241,#292,.F.);
#187=EDGE_CURVE('',#243,#243,#12,.T.);
#188=EDGE_CURVE('',#244,#244,#13,.T.);
#189=EDGE_CURVE('',#245,#245,#14,.T.);
#190=EDGE_CURVE('',#246,#246,#15,.T.);
#191=EDGE_CURVE('',#247,#247,#16,.T.);
#192=EDGE_CURVE('',#248,#248,#17,.T.);
#193=EDGE_CURVE('',#249,#250,#293,.T.);
#194=EDGE_CURVE('',#250,#251,#294,.T.);
#195=EDGE_CURVE('',#251,#252,#295,.T.);
#196=EDGE_CURVE('',#252,#253,#296,.T.);
#197=EDGE_CURVE('',#253,#254,#297,.T.);
#198=EDGE_CURVE('',#254,#249,#298,.T.);
#199=EDGE_CURVE('',#255,#255,#18,.T.);
#200=EDGE_CURVE('',#256,#256,#19,.T.);
#201=EDGE_CURVE('',#242,#240,#20,.T.);
#202=EDGE_CURVE('',#228,#222,#21,.T.);
#203=EDGE_CURVE('',#236,#232,#22,.T.);
#204=EDGE_CURVE('',#257,#249,#299,.T.);
#205=EDGE_CURVE('',#257,#258,#300,.T.);
#206=EDGE_CURVE('',#258,#250,#301,.T.);
#207=EDGE_CURVE('',#258,#259,#302,.T.);
#208=EDGE_CURVE('',#259,#251,#303,.T.);
#209=EDGE_CURVE('',#259,#260,#304,.T.);
#210=EDGE_CURVE('',#260,#252,#305,.T.);
#211=EDGE_CURVE('',#260,#261,#306,.T.);
#212=EDGE_CURVE('',#261,#253,#307,.T.);
#213=EDGE_CURVE('',#261,#262,#308,.T.);
#214=EDGE_CURVE('',#262,#254,#309,.T.);
#215=EDGE_CURVE('',#262,#257,#310,.T.);
#216=EDGE_CURVE('',#241,#239,#23,.T.);
#217=EDGE_CURVE('',#225,#221,#24,.T.);
#218=EDGE_CURVE('',#233,#231,#25,.T.);
#219=VERTEX_POINT('',#661);
#220=VERTEX_POINT('',#662);
#221=VERTEX_POINT('',#664);
#222=VERTEX_POINT('',#666);
#223=VERTEX_POINT('',#668);
#224=VERTEX_POINT('',#670);
#225=VERTEX_POINT('',#674);
#226=VERTEX_POINT('',#676);
#227=VERTEX_POINT('',#678);
#228=VERTEX_POINT('',#680);
#229=VERTEX_POINT('',#684);
#230=VERTEX_POINT('',#685);
#231=VERTEX_POINT('',#687);
#232=VERTEX_POINT('',#689);
#233=VERTEX_POINT('',#694);
#234=VERTEX_POINT('',#696);
#235=VERTEX_POINT('',#698);
#236=VERTEX_POINT('',#700);
#237=VERTEX_POINT('',#704);
#238=VERTEX_POINT('',#705);
#239=VERTEX_POINT('',#707);
#240=VERTEX_POINT('',#709);
#241=VERTEX_POINT('',#714);
#242=VERTEX_POINT('',#717);
#243=VERTEX_POINT('',#721);
#244=VERTEX_POINT('',#723);
#245=VERTEX_POINT('',#726);
#246=VERTEX_POINT('',#728);
#247=VERTEX_POINT('',#731);
#248=VERTEX_POINT('',#733);
#249=VERTEX_POINT('',#736);
#250=VERTEX_POINT('',#737);
#251=VERTEX_POINT('',#739);
#252=VERTEX_POINT('',#741);
#253=VERTEX_POINT('',#743);
#254=VERTEX_POINT('',#745);
#255=VERTEX_POINT('',#749);
#256=VERTEX_POINT('',#751);
#257=VERTEX_POINT('',#758);
#258=VERTEX_POINT('',#760);
#259=VERTEX_POINT('',#764);
#260=VERTEX_POINT('',#768);
#261=VERTEX_POINT('',#772);
#262=VERTEX_POINT('',#776);
#263=LINE('',#660,#311);
#264=LINE('',#663,#312);
#265=LINE('',#665,#313);
#266=LINE('',#667,#314);
#267=LINE('',#669,#315);
#268=LINE('',#671,#316);
#269=LINE('',#673,#317);
#270=LINE('',#675,#318);
#271=LINE('',#677,#319);
#272=LINE('',#679,#320);
#273=LINE('',#681,#321);
#274=LINE('',#683,#322);
#275=LINE('',#686,#323);
#276=LINE('',#688,#324);
#277=LINE('',#690,#325);
#278=LINE('',#691,#326);
#279=LINE('',#693,#327);
#280=LINE('',#695,#328);
#281=LINE('',#697,#329);
#282=LINE('',#699,#330);
#283=LINE('',#701,#331);
#284=LINE('',#703,#332);
#285=LINE('',#706,#333);
#286=LINE('',#708,#334);
#287=LINE('',#710,#335);
#288=LINE('',#711,#336);
#289=LINE('',#713,#337);
#290=LINE('',#715,#338);
#291=LINE('',#716,#339);
#292=LINE('',#718,#340);
#293=LINE('',#735,#341);
#294=LINE('',#738,#342);
#295=LINE('',#740,#343);
#296=LINE('',#742,#344);
#297=LINE('',#744,#345);
#298=LINE('',#746,#346);
#299=LINE('',#757,#347);
#300=LINE('',#759,#348);
#301=LINE('',#761,#349);
#302=LINE('',#763,#350);
#303=LINE('',#765,#351);
#304=LINE('',#767,#352);
#305=LINE('',#769,#353);
#306=LINE('',#771,#354);
#307=LINE('',#773,#355);
#308=LINE('',#775,#356);
#309=LINE('',#777,#357);
#310=LINE('',#779,#358);
#311=VECTOR('',#534,1.);
#312=VECTOR('',#535,1.);
#313=VECTOR('',#536,1.);
#314=VECTOR('',#537,1.);
#315=VECTOR('',#538,1.);
#316=VECTOR('',#539,1.);
#317=VECTOR('',#542,1.);
#318=VECTOR('',#543,1.);
#319=VECTOR('',#544,1.);
#320=VECTOR('',#545,1.);
#321=VECTOR('',#546,1.);
#322=VECTOR('',#549,1.);
#323=VECTOR('',#550,1.);
#324=VECTOR('',#551,1.);
#325=VECTOR('',#552,1.);
#326=VECTOR('',#553,1.);
#327=VECTOR('',#556,1.);
#328=VECTOR('',#557,1.);
#329=VECTOR('',#558,1.);
#330=VECTOR('',#559,1.);
#331=VECTOR('',#560,1.);
#332=VECTOR('',#563,1.);
#333=VECTOR('',#564,1.);
#334=VECTOR('',#565,1.);
#335=VECTOR('',#566,1.);
#336=VECTOR('',#567,1.);
#337=VECTOR('',#570,1.);
#338=VECTOR('',#571,1.);
#339=VECTOR('',#572,1.);
#340=VECTOR('',#573,1.);
#341=VECTOR('',#594,1.);
#342=VECTOR('',#595,1.);
#343=VECTOR('',#596,1.);
#344=VECTOR('',#597,1.);
#345=VECTOR('',#598,1.);
#346=VECTOR('',#599,1.);
#347=VECTOR('',#616,1.);
#348=VECTOR('',#617,1.);
#349=VECTOR('',#618,1.);
#350=VECTOR('',#621,1.);
#351=VECTOR('',#622,1.);
#352=VECTOR('',#625,1.);
#353=VECTOR('',#626,1.);
#354=VECTOR('',#629,1.);
#355=VECTOR('',#630,1.);
#356=VECTOR('',#633,1.);
#357=VECTOR('',#634,1.);
#358=VECTOR('',#637,1.);
#359=EDGE_LOOP('',(#33,#34,#35,#36,#37,#38));
#360=EDGE_LOOP('',(#39,#40,#41,#42,#43,#44));
#361=EDGE_LOOP('',(#45,#46,#47,#48,#49,#50));
#362=EDGE_LOOP('',(#51,#52,#53,#54,#55,#56));
#363=EDGE_LOOP('',(#57,#58,#59,#60,#61,#62));
#364=EDGE_LOOP('',(#63,#64,#65,#66,#67,#68));
#365=EDGE_LOOP('',(#69));
#366=EDGE_LOOP('',(#70));
#367=EDGE_LOOP('',(#71));
#368=EDGE_LOOP('',(#72));
#369=EDGE_LOOP('',(#73));
#370=EDGE_LOOP('',(#74));
#371=EDGE_LOOP('',(#75));
#372=EDGE_LOOP('',(#76));
#373=EDGE_LOOP('',(#77));
#374=EDGE_LOOP('',(#78,#79,#80,#81,#82,#83));
#375=EDGE_LOOP('',(#84,#85,#86,#87,#88,#89));
#376=EDGE_LOOP('',(#90));
#377=EDGE_LOOP('',(#91));
#378=EDGE_LOOP('',(#92,#93,#94,#95,#96,#97,#98,#99,#100));
#379=EDGE_LOOP('',(#101));
#380=EDGE_LOOP('',(#102,#103,#104,#105));
#381=EDGE_LOOP('',(#106,#107,#108,#109));
#382=EDGE_LOOP('',(#110,#111,#112,#113));
#383=EDGE_LOOP('',(#114,#115,#116,#117));
#384=EDGE_LOOP('',(#118,#119,#120,#121));
#385=EDGE_LOOP('',(#122,#123,#124,#125));
#386=EDGE_LOOP('',(#126));
#387=EDGE_LOOP('',(#127,#128,#129,#130,#131,#132));
#388=EDGE_LOOP('',(#133,#134,#135,#136));
#389=EDGE_LOOP('',(#137));
#390=EDGE_LOOP('',(#138,#139,#140));
#391=EDGE_LOOP('',(#141,#142,#143,#144));
#392=EDGE_LOOP('',(#145));
#393=EDGE_LOOP('',(#146,#147,#148));
#394=EDGE_LOOP('',(#149,#150,#151,#152));
#395=EDGE_LOOP('',(#153));
#396=EDGE_LOOP('',(#154,#155,#156));
#397=FACE_BOUND('',#359,.T.);
#398=FACE_BOUND('',#360,.T.);
#399=FACE_BOUND('',#361,.T.);
#400=FACE_BOUND('',#362,.T.);
#401=FACE_BOUND('',#363,.T.);
#402=FACE_BOUND('',#364,.T.);
#403=FACE_BOUND('',#365,.T.);
#404=FACE_BOUND('',#366,.T.);
#405=FACE_BOUND('',#367,.T.);
#406=FACE_BOUND('',#368,.T.);
#407=FACE_BOUND('',#369,.T.);
#408=FACE_BOUND('',#370,.T.);
#409=FACE_BOUND('',#371,.T.);
#410=FACE_BOUND('',#372,.T.);
#411=FACE_BOUND('',#373,.T.);
#412=FACE_BOUND('',#374,.T.);
#413=FACE_BOUND('',#375,.T.);
#414=FACE_BOUND('',#376,.T.);
#415=FACE_BOUND('',#377,.T.);
#416=FACE_BOUND('',#378,.T.);
#417=FACE_BOUND('',#379,.T.);
#418=FACE_BOUND('',#380,.T.);
#419=FACE_BOUND('',#381,.T.);
#420=FACE_BOUND('',#382,.T.);
#421=FACE_BOUND('',#383,.T.);
#422=FACE_BOUND('',#384,.T.);
#423=FACE_BOUND('',#385,.T.);
#424=FACE_BOUND('',#386,.T.);
#425=FACE_BOUND('',#387,.T.);
#426=FACE_BOUND('',#388,.T.);
#427=FACE_BOUND('',#389,.T.);
#428=FACE_BOUND('',#390,.T.);
#429=FACE_BOUND('',#391,.T.);
#430=FACE_BOUND('',#392,.T.);
#431=FACE_BOUND('',#393,.T.);
#432=FACE_BOUND('',#394,.T.);
#433=FACE_BOUND('',#395,.T.);
#434=FACE_BOUND('',#396,.T.);
#435=PLANE('',#491);
#436=PLANE('',#492);
#437=PLANE('',#493);
#438=PLANE('',#494);
#439=PLANE('',#495);
#440=PLANE('',#496);
#441=PLANE('',#506);
#442=PLANE('',#510);
#443=PLANE('',#514);
#444=PLANE('',#515);
#445=PLANE('',#516);
#446=PLANE('',#517);
#447=PLANE('',#518);
#448=PLANE('',#519);
#449=PLANE('',#520);
#450=PLANE('',#523);
#451=PLANE('',#526);
#452=PLANE('',#529);
#453=ADVANCED_FACE('',(#397),#435,.F.);
#454=ADVANCED_FACE('',(#398),#436,.F.);
#455=ADVANCED_FACE('',(#399),#437,.F.);
#456=ADVANCED_FACE('',(#400),#438,.F.);
#457=ADVANCED_FACE('',(#401),#439,.F.);
#458=ADVANCED_FACE('',(#402),#440,.F.);
#459=ADVANCED_FACE('',(#403,#404),#26,.F.);
#460=ADVANCED_FACE('',(#405,#406),#27,.F.);
#461=ADVANCED_FACE('',(#407,#408),#28,.F.);
#462=ADVANCED_FACE('',(#409,#410,#411,#412,#413),#441,.F.);
#463=ADVANCED_FACE('',(#414,#415),#29,.F.);
#464=ADVANCED_FACE('',(#416,#417),#442,.T.);
#465=ADVANCED_FACE('',(#418),#443,.T.);
#466=ADVANCED_FACE('',(#419),#444,.T.);
#467=ADVANCED_FACE('',(#420),#445,.T.);
#468=ADVANCED_FACE('',(#421),#446,.T.);
#469=ADVANCED_FACE('',(#422),#447,.T.);
#470=ADVANCED_FACE('',(#423),#448,.T.);
#471=ADVANCED_FACE('',(#424,#425),#449,.F.);
#472=ADVANCED_FACE('',(#426),#30,.F.);
#473=ADVANCED_FACE('',(#427,#428),#450,.T.);
#474=ADVANCED_FACE('',(#429),#31,.F.);
#475=ADVANCED_FACE('',(#430,#431),#451,.T.);
#476=ADVANCED_FACE('',(#432),#32,.F.);
#477=ADVANCED_FACE('',(#433,#434),#452,.T.);
#478=CLOSED_SHELL('',(#453,#454,#455,#456,#457,#458,#459,#460,#461,#462,
#463,#464,#465,#466,#467,#468,#469,#470,#471,#472,#473,#474,#475,#476,#477));
#479=STYLED_ITEM('',(#480),#487);
#480=PRESENTATION_STYLE_ASSIGNMENT((#481));
#481=SURFACE_STYLE_USAGE(.BOTH.,#482);
#482=SURFACE_SIDE_STYLE('',(#483));
#483=SURFACE_STYLE_FILL_AREA(#484);
#484=FILL_AREA_STYLE('',(#485));
#485=FILL_AREA_STYLE_COLOUR('',#486);
#486=COLOUR_RGB('',0.615686274509804,0.811764705882353,0.929411764705882);
#487=MANIFOLD_SOLID_BREP('Part 1',#478);
#488=SHAPE_DEFINITION_REPRESENTATION(#796,#489);
#489=SHAPE_REPRESENTATION('Part 1',(#490),#791);
#490=AXIS2_PLACEMENT_3D('',#658,#530,#531);
#491=AXIS2_PLACEMENT_3D('',#659,#532,#533);
#492=AXIS2_PLACEMENT_3D('',#672,#540,#541);
#493=AXIS2_PLACEMENT_3D('',#682,#547,#548);
#494=AXIS2_PLACEMENT_3D('',#692,#554,#555);
#495=AXIS2_PLACEMENT_3D('',#702,#561,#562);
#496=AXIS2_PLACEMENT_3D('',#712,#568,#569);
#497=AXIS2_PLACEMENT_3D('',#719,#574,#575);
#498=AXIS2_PLACEMENT_3D('',#720,#576,#577);
#499=AXIS2_PLACEMENT_3D('',#722,#578,#579);
#500=AXIS2_PLACEMENT_3D('',#724,#580,#581);
#501=AXIS2_PLACEMENT_3D('',#725,#582,#583);
#502=AXIS2_PLACEMENT_3D('',#727,#584,#585);
#503=AXIS2_PLACEMENT_3D('',#729,#586,#587);
#504=AXIS2_PLACEMENT_3D('',#730,#588,#589);
#505=AXIS2_PLACEMENT_3D('',#732,#590,#591);
#506=AXIS2_PLACEMENT_3D('',#734,#592,#593);
#507=AXIS2_PLACEMENT_3D('',#747,#600,#601);
#508=AXIS2_PLACEMENT_3D('',#748,#602,#603);
#509=AXIS2_PLACEMENT_3D('',#750,#604,#605);
#510=AXIS2_PLACEMENT_3D('',#752,#606,#607);
#511=AXIS2_PLACEMENT_3D('',#753,#608,#609);
#512=AXIS2_PLACEMENT_3D('',#754,#610,#611);
#513=AXIS2_PLACEMENT_3D('',#755,#612,#613);
#514=AXIS2_PLACEMENT_3D('',#756,#614,#615);
#515=AXIS2_PLACEMENT_3D('',#762,#619,#620);
#516=AXIS2_PLACEMENT_3D('',#766,#623,#624);
#517=AXIS2_PLACEMENT_3D('',#770,#627,#628);
#518=AXIS2_PLACEMENT_3D('',#774,#631,#632);
#519=AXIS2_PLACEMENT_3D('',#778,#635,#636);
#520=AXIS2_PLACEMENT_3D('',#780,#638,#639);
#521=AXIS2_PLACEMENT_3D('',#781,#640,#641);
#522=AXIS2_PLACEMENT_3D('',#782,#642,#643);
#523=AXIS2_PLACEMENT_3D('',#783,#644,#645);
#524=AXIS2_PLACEMENT_3D('',#784,#646,#647);
#525=AXIS2_PLACEMENT_3D('',#785,#648,#649);
#526=AXIS2_PLACEMENT_3D('',#786,#650,#651);
#527=AXIS2_PLACEMENT_3D('',#787,#652,#653);
#528=AXIS2_PLACEMENT_3D('',#788,#654,#655);
#529=AXIS2_PLACEMENT_3D('',#789,#656,#657);
#530=DIRECTION('',(0.,0.,1.));
#531=DIRECTION('',(1.,0.,0.));
#532=DIRECTION('',(0.866025403784439,0.5,0.));
#533=DIRECTION('',(-0.5,0.866025403784439,0.));
#534=DIRECTION('',(0.,0.,-1.));
#535=DIRECTION('',(0.5,-0.866025403784439,0.));
#536=DIRECTION('',(0.,0.,1.));
#537=DIRECTION('',(0.5,-0.866025403784439,0.));
#538=DIRECTION('',(0.,0.,-1.));
#539=DIRECTION('',(0.5,-0.866025403784439,0.));
#540=DIRECTION('',(0.,1.,0.));
#541=DIRECTION('',(0.,0.,1.));
#542=DIRECTION('',(1.,0.,0.));
#543=DIRECTION('',(1.,0.,0.));
#544=DIRECTION('',(0.,0.,-1.));
#545=DIRECTION('',(1.,0.,0.));
#546=DIRECTION('',(0.,0.,1.));
#547=DIRECTION('',(-0.866025403784439,0.5,0.));
#548=DIRECTION('',(-0.5,-0.866025403784439,0.));
#549=DIRECTION('',(0.,0.,-1.));
#550=DIRECTION('',(0.5,0.866025403784439,0.));
#551=DIRECTION('',(0.,0.,1.));
#552=DIRECTION('',(0.5,0.866025403784439,0.));
#553=DIRECTION('',(0.5,0.866025403784439,0.));
#554=DIRECTION('',(-0.866025403784439,-0.5,0.));
#555=DIRECTION('',(0.5,-0.866025403784439,0.));
#556=DIRECTION('',(-0.5,0.866025403784439,0.));
#557=DIRECTION('',(-0.5,0.866025403784439,0.));
#558=DIRECTION('',(0.,0.,-1.));
#559=DIRECTION('',(-0.5,0.866025403784439,0.));
#560=DIRECTION('',(0.,0.,1.));
#561=DIRECTION('',(-5.65577260701048E-16,-1.,0.));
#562=DIRECTION('',(1.,-5.65577260701048E-16,0.));
#563=DIRECTION('',(0.,0.,-1.));
#564=DIRECTION('',(-1.,5.65577260701048E-16,0.));
#565=DIRECTION('',(0.,0.,1.));
#566=DIRECTION('',(-1.,5.65577260701048E-16,0.));
#567=DIRECTION('',(-1.,5.65577260701048E-16,0.));
#568=DIRECTION('',(0.866025403784439,-0.5,0.));
#569=DIRECTION('',(0.5,0.866025403784439,0.));
#570=DIRECTION('',(-0.5,-0.866025403784439,0.));
#571=DIRECTION('',(-0.5,-0.866025403784439,0.));
#572=DIRECTION('',(-0.5,-0.866025403784439,0.));
#573=DIRECTION('',(0.,0.,1.));
#574=DIRECTION('',(0.,0.,-1.));
#575=DIRECTION('',(-1.,0.,0.));
#576=DIRECTION('',(0.,0.,1.));
#577=DIRECTION('',(1.,0.,0.));
#578=DIRECTION('',(0.,0.,1.));
#579=DIRECTION('',(1.,0.,0.));
#580=DIRECTION('',(0.,0.,-1.));
#581=DIRECTION('',(-1.,0.,0.));
#582=DIRECTION('',(0.,0.,1.));
#583=DIRECTION('',(1.,0.,0.));
#584=DIRECTION('',(0.,0.,1.));
#585=DIRECTION('',(1.,0.,0.));
#586=DIRECTION('',(0.,0.,-1.));
#587=DIRECTION('',(-1.,0.,0.));
#588=DIRECTION('',(0.,0.,1.));
#589=DIRECTION('',(1.,0.,0.));
#590=DIRECTION('',(0.,0.,1.));
#591=DIRECTION('',(1.,0.,0.));
#592=DIRECTION('',(0.,0.,1.));
#593=DIRECTION('',(1.,0.,0.));
#594=DIRECTION('',(-1.,6.58548865199851E-16,0.));
#595=DIRECTION('',(-0.5,-0.866025403784438,0.));
#596=DIRECTION('',(0.5,-0.866025403784439,0.));
#597=DIRECTION('',(1.,-6.1738956112486E-16,0.));
#598=DIRECTION('',(0.5,0.866025403784438,0.));
#599=DIRECTION('',(-0.5,0.866025403784439,0.));
#600=DIRECTION('',(0.,0.,-1.));
#601=DIRECTION('',(-1.,0.,0.));
#602=DIRECTION('',(0.,0.,1.));
#603=DIRECTION('',(1.,0.,0.));
#604=DIRECTION('',(0.,0.,1.));
#605=DIRECTION('',(1.,0.,0.));
#606=DIRECTION('',(0.,0.,1.));
#607=DIRECTION('',(1.,0.,0.));
#608=DIRECTION('',(0.,0.,1.));
#609=DIRECTION('',(1.,0.,0.));
#610=DIRECTION('',(0.,0.,1.));
#611=DIRECTION('',(1.,0.,0.));
#612=DIRECTION('',(0.,0.,1.));
#613=DIRECTION('',(1.,0.,0.));
#614=DIRECTION('',(-6.58548865199851E-16,-1.,0.));
#615=DIRECTION('',(1.,-6.58548865199851E-16,0.));
#616=DIRECTION('',(0.,0.,-1.));
#617=DIRECTION('',(-1.,6.58548865199851E-16,0.));
#618=DIRECTION('',(0.,0.,-1.));
#619=DIRECTION('',(0.866025403784438,-0.5,0.));
#620=DIRECTION('',(0.5,0.866025403784438,0.));
#621=DIRECTION('',(-0.5,-0.866025403784438,0.));
#622=DIRECTION('',(0.,0.,-1.));
#623=DIRECTION('',(0.866025403784439,0.5,0.));
#624=DIRECTION('',(-0.5,0.866025403784439,0.));
#625=DIRECTION('',(0.5,-0.866025403784439,0.));
#626=DIRECTION('',(0.,0.,-1.));
#627=DIRECTION('',(6.1738956112486E-16,1.,0.));
#628=DIRECTION('',(-1.,6.1738956112486E-16,0.));
#629=DIRECTION('',(1.,-6.1738956112486E-16,0.));
#630=DIRECTION('',(0.,0.,-1.));
#631=DIRECTION('',(-0.866025403784438,0.5,0.));
#632=DIRECTION('',(-0.5,-0.866025403784438,0.));
#633=DIRECTION('',(0.5,0.866025403784438,0.));
#634=DIRECTION('',(0.,0.,-1.));
#635=DIRECTION('',(-0.866025403784439,-0.5,0.));
#636=DIRECTION('',(0.5,-0.866025403784439,0.));
#637=DIRECTION('',(-0.5,0.866025403784439,0.));
#638=DIRECTION('',(0.,0.,1.));
#639=DIRECTION('',(1.,0.,0.));
#640=DIRECTION('',(0.,0.,1.));
#641=DIRECTION('',(1.,0.,0.));
#642=DIRECTION('',(0.,0.,1.));
#643=DIRECTION('',(1.,0.,0.));
#644=DIRECTION('',(0.,0.,1.));
#645=DIRECTION('',(1.,0.,0.));
#646=DIRECTION('',(0.,0.,1.));
#647=DIRECTION('',(1.,0.,0.));
#648=DIRECTION('',(0.,0.,1.));
#649=DIRECTION('',(1.,0.,0.));
#650=DIRECTION('',(0.,0.,1.));
#651=DIRECTION('',(1.,0.,0.));
#652=DIRECTION('',(0.,0.,1.));
#653=DIRECTION('',(1.,0.,0.));
#654=DIRECTION('',(0.,0.,1.));
#655=DIRECTION('',(1.,0.,0.));
#656=DIRECTION('',(0.,0.,1.));
#657=DIRECTION('',(1.,0.,0.));
#658=CARTESIAN_POINT('',(0.,0.,0.));
#659=CARTESIAN_POINT('',(-0.164271387373394,0.0083215220272541,0.022));
#660=CARTESIAN_POINT('',(-0.152002694153114,-0.0129284779727459,0.022));
#661=CARTESIAN_POINT('',(-0.152002694153114,-0.0129284779727459,0.012));
#662=CARTESIAN_POINT('',(-0.152002694153114,-0.0129284779727459,0.));
#663=CARTESIAN_POINT('',(-0.164271387373394,0.0083215220272541,0.012));
#664=CARTESIAN_POINT('',(-0.153139922285441,-0.0109587410677591,0.012));
#665=CARTESIAN_POINT('',(-0.153139922285441,-0.010958741067759,0.012));
#666=CARTESIAN_POINT('',(-0.153139922285441,-0.0109587410677591,0.022));
#667=CARTESIAN_POINT('',(-0.164271387373394,0.0083215220272541,0.022));
#668=CARTESIAN_POINT('',(-0.176540080593673,0.0295715220272541,0.022));
#669=CARTESIAN_POINT('',(-0.176540080593673,0.0295715220272541,0.022));
#670=CARTESIAN_POINT('',(-0.176540080593673,0.0295715220272541,0.));
#671=CARTESIAN_POINT('',(-0.164271387373394,0.0083215220272541,0.));
#672=CARTESIAN_POINT('',(-0.127465307712555,-0.0129284779727459,0.022));
#673=CARTESIAN_POINT('',(-0.127465307712555,-0.0129284779727459,0.012));
#674=CARTESIAN_POINT('',(-0.14972823788846,-0.0129284779727459,0.012));
#675=CARTESIAN_POINT('',(-0.127465307712555,-0.0129284779727459,0.));
#676=CARTESIAN_POINT('',(-0.102927921271996,-0.0129284779727459,0.));
#677=CARTESIAN_POINT('',(-0.102927921271996,-0.0129284779727459,0.022));
#678=CARTESIAN_POINT('',(-0.102927921271996,-0.0129284779727459,0.022));
#679=CARTESIAN_POINT('',(-0.127465307712555,-0.0129284779727459,0.022));
#680=CARTESIAN_POINT('',(-0.14972823788846,-0.0129284779727459,0.022));
#681=CARTESIAN_POINT('',(-0.14972823788846,-0.0129284779727459,0.012));
#682=CARTESIAN_POINT('',(-0.0906592280517163,0.0083215220272541,0.022));
#683=CARTESIAN_POINT('',(-0.0783905348314367,0.029571522027254,0.022));
#684=CARTESIAN_POINT('',(-0.0783905348314367,0.029571522027254,0.012));
#685=CARTESIAN_POINT('',(-0.0783905348314367,0.029571522027254,0.));
#686=CARTESIAN_POINT('',(-0.0906592280517163,0.0083215220272541,0.012));
#687=CARTESIAN_POINT('',(-0.0795277629637637,0.0276017851222673,0.012));
#688=CARTESIAN_POINT('',(-0.0795277629637637,0.0276017851222673,0.012));
#689=CARTESIAN_POINT('',(-0.0795277629637636,0.0276017851222673,0.022));
#690=CARTESIAN_POINT('',(-0.0906592280517163,0.0083215220272541,0.022));
#691=CARTESIAN_POINT('',(-0.0906592280517163,0.0083215220272541,0.));
#692=CARTESIAN_POINT('',(-0.0906592280517163,0.0508215220272541,0.022));
#693=CARTESIAN_POINT('',(-0.0906592280517163,0.0508215220272541,0.012));
#694=CARTESIAN_POINT('',(-0.0795277629637637,0.0315412589322411,0.012));
#695=CARTESIAN_POINT('',(-0.0906592280517163,0.0508215220272541,0.));
#696=CARTESIAN_POINT('',(-0.102927921271996,0.0720715220272541,0.));
#697=CARTESIAN_POINT('',(-0.102927921271996,0.0720715220272541,0.022));
#698=CARTESIAN_POINT('',(-0.102927921271996,0.0720715220272541,0.022));
#699=CARTESIAN_POINT('',(-0.0906592280517163,0.0508215220272541,0.022));
#700=CARTESIAN_POINT('',(-0.0795277629637637,0.0315412589322411,0.022));
#701=CARTESIAN_POINT('',(-0.0795277629637637,0.0315412589322411,0.012));
#702=CARTESIAN_POINT('',(-0.127465307712555,0.0720715220272541,0.022));
#703=CARTESIAN_POINT('',(-0.152002694153114,0.0720715220272541,0.022));
#704=CARTESIAN_POINT('',(-0.152002694153114,0.0720715220272541,0.012));
#705=CARTESIAN_POINT('',(-0.152002694153114,0.0720715220272541,0.));
#706=CARTESIAN_POINT('',(-0.127465307712555,0.0720715220272541,0.012));
#707=CARTESIAN_POINT('',(-0.14972823788846,0.0720715220272541,0.012));
#708=CARTESIAN_POINT('',(-0.14972823788846,0.0720715220272541,0.012));
#709=CARTESIAN_POINT('',(-0.14972823788846,0.0720715220272541,0.022));
#710=CARTESIAN_POINT('',(-0.127465307712555,0.0720715220272541,0.022));
#711=CARTESIAN_POINT('',(-0.127465307712555,0.0720715220272541,0.));
#712=CARTESIAN_POINT('',(-0.164271387373394,0.0508215220272541,0.022));
#713=CARTESIAN_POINT('',(-0.164271387373394,0.0508215220272541,0.012));
#714=CARTESIAN_POINT('',(-0.153139922285441,0.0701017851222672,0.012));
#715=CARTESIAN_POINT('',(-0.164271387373394,0.0508215220272541,0.));
#716=CARTESIAN_POINT('',(-0.164271387373394,0.0508215220272541,0.022));
#717=CARTESIAN_POINT('',(-0.153139922285441,0.0701017851222672,0.022));
#718=CARTESIAN_POINT('',(-0.153139922285441,0.0701017851222673,0.012));
#719=CARTESIAN_POINT('',(-0.0817905348314367,0.0295715220272541,0.025));
#720=CARTESIAN_POINT('',(-0.0817905348314367,0.0295715220272541,0.));
#721=CARTESIAN_POINT('',(-0.0800405348314367,0.0295715220272541,0.));
#722=CARTESIAN_POINT('',(-0.0817905348314367,0.0295715220272541,0.012));
#723=CARTESIAN_POINT('',(-0.0800405348314367,0.0295715220272541,0.012));
#724=CARTESIAN_POINT('',(-0.150302694153114,-0.0099839915998788,0.025));
#725=CARTESIAN_POINT('',(-0.150302694153114,-0.0099839915998788,0.));
#726=CARTESIAN_POINT('',(-0.148552694153114,-0.0099839915998788,0.));
#727=CARTESIAN_POINT('',(-0.150302694153114,-0.0099839915998788,0.012));
#728=CARTESIAN_POINT('',(-0.148552694153114,-0.0099839915998788,0.012));
#729=CARTESIAN_POINT('',(-0.150302694153114,0.069127035654387,0.025));
#730=CARTESIAN_POINT('',(-0.150302694153114,0.069127035654387,0.));
#731=CARTESIAN_POINT('',(-0.148552694153114,0.069127035654387,0.));
#732=CARTESIAN_POINT('',(-0.150302694153114,0.069127035654387,0.012));
#733=CARTESIAN_POINT('',(-0.148552694153114,0.069127035654387,0.012));
#734=CARTESIAN_POINT('',(-0.127465307712555,0.0295715220272541,0.));
#735=CARTESIAN_POINT('',(-0.127465307712555,0.0660715220272541,0.));
#736=CARTESIAN_POINT('',(-0.106392022887134,0.0660715220272541,0.));
#737=CARTESIAN_POINT('',(-0.148538592537976,0.0660715220272541,0.));
#738=CARTESIAN_POINT('',(-0.159075234950687,0.0478215220272541,0.));
#739=CARTESIAN_POINT('',(-0.169611877363398,0.0295715220272541,0.));
#740=CARTESIAN_POINT('',(-0.159075234950687,0.0113215220272541,0.));
#741=CARTESIAN_POINT('',(-0.148538592537976,-0.00692847797274588,0.));
#742=CARTESIAN_POINT('',(-0.127465307712555,-0.0069284779727459,0.));
#743=CARTESIAN_POINT('',(-0.106392022887134,-0.00692847797274591,0.));
#744=CARTESIAN_POINT('',(-0.0958553804744229,0.0113215220272541,0.));
#745=CARTESIAN_POINT('',(-0.0853187380617122,0.029571522027254,0.));
#746=CARTESIAN_POINT('',(-0.0958553804744229,0.0478215220272541,0.));
#747=CARTESIAN_POINT('',(-0.127465307712555,0.0295715220272541,0.022));
#748=CARTESIAN_POINT('',(-0.127465307712555,0.0295715220272541,0.015));
#749=CARTESIAN_POINT('',(-0.098365307712555,0.0295715220272541,0.015));
#750=CARTESIAN_POINT('',(-0.127465307712555,0.0295715220272541,0.022));
#751=CARTESIAN_POINT('',(-0.098365307712555,0.0295715220272541,0.022));
#752=CARTESIAN_POINT('',(-0.127465307712555,0.0295715220272541,0.022));
#753=CARTESIAN_POINT('',(-0.150302694153114,0.069127035654387,0.022));
#754=CARTESIAN_POINT('',(-0.150302694153114,-0.0099839915998788,0.022));
#755=CARTESIAN_POINT('',(-0.0817905348314367,0.0295715220272541,0.022));
#756=CARTESIAN_POINT('',(-0.127465307712555,0.0660715220272541,0.015));
#757=CARTESIAN_POINT('',(-0.106392022887134,0.0660715220272541,0.015));
#758=CARTESIAN_POINT('',(-0.106392022887134,0.0660715220272541,0.015));
#759=CARTESIAN_POINT('',(-0.127465307712555,0.0660715220272541,0.015));
#760=CARTESIAN_POINT('',(-0.148538592537976,0.0660715220272541,0.015));
#761=CARTESIAN_POINT('',(-0.148538592537976,0.0660715220272541,0.015));
#762=CARTESIAN_POINT('',(-0.159075234950687,0.0478215220272541,0.015));
#763=CARTESIAN_POINT('',(-0.159075234950687,0.0478215220272541,0.015));
#764=CARTESIAN_POINT('',(-0.169611877363398,0.0295715220272541,0.015));
#765=CARTESIAN_POINT('',(-0.169611877363398,0.0295715220272541,0.015));
#766=CARTESIAN_POINT('',(-0.159075234950687,0.0113215220272541,0.015));
#767=CARTESIAN_POINT('',(-0.159075234950687,0.0113215220272541,0.015));
#768=CARTESIAN_POINT('',(-0.148538592537976,-0.00692847797274588,0.015));
#769=CARTESIAN_POINT('',(-0.148538592537976,-0.00692847797274588,0.015));
#770=CARTESIAN_POINT('',(-0.127465307712555,-0.0069284779727459,0.015));
#771=CARTESIAN_POINT('',(-0.127465307712555,-0.0069284779727459,0.015));
#772=CARTESIAN_POINT('',(-0.106392022887134,-0.00692847797274591,0.015));
#773=CARTESIAN_POINT('',(-0.106392022887134,-0.00692847797274591,0.015));
#774=CARTESIAN_POINT('',(-0.0958553804744229,0.0113215220272541,0.015));
#775=CARTESIAN_POINT('',(-0.0958553804744229,0.0113215220272541,0.015));
#776=CARTESIAN_POINT('',(-0.0853187380617122,0.029571522027254,0.015));
#777=CARTESIAN_POINT('',(-0.0853187380617122,0.029571522027254,0.015));
#778=CARTESIAN_POINT('',(-0.0958553804744229,0.0478215220272541,0.015));
#779=CARTESIAN_POINT('',(-0.0958553804744229,0.0478215220272541,0.015));
#780=CARTESIAN_POINT('',(-0.127465307712555,0.0295715220272541,0.015));
#781=CARTESIAN_POINT('',(-0.150302694153114,0.069127035654387,0.012));
#782=CARTESIAN_POINT('',(-0.150302694153114,0.069127035654387,0.012));
#783=CARTESIAN_POINT('',(-0.127465307712555,0.0295715220272541,0.012));
#784=CARTESIAN_POINT('',(-0.150302694153114,-0.0099839915998788,0.012));
#785=CARTESIAN_POINT('',(-0.150302694153114,-0.0099839915998788,0.012));
#786=CARTESIAN_POINT('',(-0.127465307712555,0.0295715220272541,0.012));
#787=CARTESIAN_POINT('',(-0.0817905348314367,0.0295715220272541,0.012));
#788=CARTESIAN_POINT('',(-0.0817905348314367,0.0295715220272541,0.012));
#789=CARTESIAN_POINT('',(-0.127465307712555,0.0295715220272541,0.012));
#790=MECHANICAL_DESIGN_GEOMETRIC_PRESENTATION_REPRESENTATION('',(#479),
#791);
#791=(
GEOMETRIC_REPRESENTATION_CONTEXT(3)
GLOBAL_UNCERTAINTY_ASSIGNED_CONTEXT((#792))
GLOBAL_UNIT_ASSIGNED_CONTEXT((#795,#794,#793))
REPRESENTATION_CONTEXT('Part 1','TOP_LEVEL_ASSEMBLY_PART')
);
#792=UNCERTAINTY_MEASURE_WITH_UNIT(LENGTH_MEASURE(1.E-8),#795,
'DISTANCE_ACCURACY_VALUE','Maximum Tolerance applied to model');
#793=(
NAMED_UNIT(*)
SI_UNIT($,.STERADIAN.)
SOLID_ANGLE_UNIT()
);
#794=(
NAMED_UNIT(*)
PLANE_ANGLE_UNIT()
SI_UNIT($,.RADIAN.)
);
#795=(
LENGTH_UNIT()
NAMED_UNIT(*)
SI_UNIT($,.METRE.)
);
#796=PRODUCT_DEFINITION_SHAPE('','',#797);
#797=PRODUCT_DEFINITION('','',#799,#798);
#798=PRODUCT_DEFINITION_CONTEXT('',#805,'design');
#799=PRODUCT_DEFINITION_FORMATION_WITH_SPECIFIED_SOURCE('','',#801,
 .NOT_KNOWN.);
#800=PRODUCT_RELATED_PRODUCT_CATEGORY('','',(#801));
#801=PRODUCT('Part 1','Part 1','Part 1',(#803));
#802=PRODUCT_CATEGORY('','');
#803=PRODUCT_CONTEXT('',#805,'mechanical');
#804=APPLICATION_PROTOCOL_DEFINITION('international standard',
'ap242_managed_model_based_3d_engineering',2020,#805);
#805=APPLICATION_CONTEXT('managed model based 3d engineering');
ENDSEC;
END-ISO-10303-21;
