ISO-10303-21;
HEADER;
/* Generated by software containing ST-Developer
 * from STEP Tools, Inc. (www.steptools.com) 
 */
/* OPTION: using custom renumber hook */

FILE_DESCRIPTION(
/* description */ ('STEP AP242 Edition 2',
'CAx-IF Rec.Pracs.---Representation and Presentation of Product Manufa
cturing Information (PMI)---4.0---2014-10-13',
'CAx-IF Rec.Pracs.---3D Tessellated Geometry---0.4---2014-09-14','2;1',
'CAx-IF Rec.Pracs.---User Defined Attributes---1.5---2016-08-15'),
/* implementation_level */ '2;1');

FILE_NAME(
/* name */ 'J6 holster',
/* time_stamp */ '2026-08-19T18:12:03Z',
/* author */ (''),
/* organization */ (''),
/* preprocessor_version */ 'ST-DEVELOPER v20',
/* originating_system */ 'ONSHAPE BY PTC INC, 1.219',
/* authorisation */ '  ');

FILE_SCHEMA (('AP242_MANAGED_MODEL_BASED_3D_ENGINEERING_MIM_LF { 1 0 10303 442 3 1 4 }'));
ENDSEC;

DATA;
#10=SHAPE_REPRESENTATION_RELATIONSHIP('','',#550,#11);
#11=ADVANCED_BREP_SHAPE_REPRESENTATION('',(#548),#989);
#12=SPHERICAL_SURFACE('',#614,0.0045);
#13=SPHERICAL_SURFACE('',#616,0.0045);
#14=TOROIDAL_SURFACE('',#582,0.0305,0.0095);
#15=B_SPLINE_CURVE_WITH_KNOTS('',3,(#827,#828,#829,#830,#831,#832,#833,
#834,#835,#836,#837,#838,#839,#840),.UNSPECIFIED.,.F.,.F.,(4,1,1,1,1,1,
1,1,1,1,1,4),(0.,0.00495926920802876,0.00991853841605752,0.0148778076240863,
0.0173574422281007,0.019837076832115,0.0223167114361294,0.0247963460401438,
0.0272759806441582,0.0297556152481726,0.0347148844562013,0.0396741536642301),
 .UNSPECIFIED.);
#16=B_SPLINE_CURVE_WITH_KNOTS('',3,(#863,#864,#865,#866,#867,#868,#869,
#870,#871,#872,#873,#874,#875),.UNSPECIFIED.,.F.,.F.,(4,1,1,1,1,1,1,1,1,
1,4),(0.00258181244666658,0.00721835509886203,0.0118548977510575,0.0164914404032529,
0.0188097117293507,0.0211279830554484,0.0234462543815461,0.0257645257076438,
0.0304010683598393,0.0350376110120347,0.0396741536642302),.UNSPECIFIED.);
#17=B_SPLINE_CURVE_WITH_KNOTS('',3,(#888,#889,#890,#891,#892,#893,#894,
#895,#896,#897,#898,#899,#900),.UNSPECIFIED.,.F.,.F.,(4,1,1,1,1,1,1,1,1,
1,4),(0.00258181244666658,0.00754516804420774,0.0125085236417489,0.0149902014405195,
0.0174718792392901,0.0199535570380606,0.0224352348368312,0.0273985904343724,
0.0323619460319136,0.0373253016294547,0.0422886572269959),.UNSPECIFIED.);
#18=B_SPLINE_CURVE_WITH_KNOTS('',3,(#903,#904,#905,#906,#907,#908,#909,
#910,#911,#912,#913,#914,#915,#916),.UNSPECIFIED.,.F.,.F.,(4,1,1,1,1,1,
1,1,1,1,1,4),(0.,0.00528608215337448,0.010572164306749,0.0132152053834362,
0.0158582464601234,0.0185012875368107,0.0211443286134979,0.0237873696901852,
0.0264304107668724,0.0317164929202469,0.0370025750736214,0.0422886572269958),
 .UNSPECIFIED.);
#19=B_SPLINE_CURVE_WITH_KNOTS('',3,(#925,#926,#927,#928,#929),
 .UNSPECIFIED.,.F.,.F.,(4,1,4),(0.,0.00351912812309164,0.00703825624618327),
 .UNSPECIFIED.);
#20=B_SPLINE_CURVE_WITH_KNOTS('',3,(#930,#931,#932,#933,#934),
 .UNSPECIFIED.,.F.,.F.,(4,1,4),(0.,0.00351912812309163,0.00703825624618326),
 .UNSPECIFIED.);
#21=CYLINDRICAL_SURFACE('',#556,0.00175);
#22=CYLINDRICAL_SURFACE('',#559,0.00175);
#23=CYLINDRICAL_SURFACE('',#562,0.00175);
#24=CYLINDRICAL_SURFACE('',#583,0.003);
#25=CYLINDRICAL_SURFACE('',#586,0.003);
#26=CYLINDRICAL_SURFACE('',#589,0.003);
#27=CYLINDRICAL_SURFACE('',#601,0.002);
#28=CYLINDRICAL_SURFACE('',#602,0.0111);
#29=CYLINDRICAL_SURFACE('',#603,0.002);
#30=CYLINDRICAL_SURFACE('',#604,0.002);
#31=CYLINDRICAL_SURFACE('',#605,0.002);
#32=CYLINDRICAL_SURFACE('',#606,0.0045);
#33=CYLINDRICAL_SURFACE('',#608,0.0045);
#34=CYLINDRICAL_SURFACE('',#610,0.0045);
#35=CYLINDRICAL_SURFACE('',#612,0.0045);
#36=CYLINDRICAL_SURFACE('',#618,0.0045);
#37=CYLINDRICAL_SURFACE('',#619,0.0045);
#38=LINE('',#790,#62);
#39=LINE('',#793,#63);
#40=LINE('',#795,#64);
#41=LINE('',#797,#65);
#42=LINE('',#814,#66);
#43=LINE('',#819,#67);
#44=LINE('',#823,#68);
#45=LINE('',#825,#69);
#46=LINE('',#842,#70);
#47=LINE('',#844,#71);
#48=LINE('',#846,#72);
#49=LINE('',#858,#73);
#50=LINE('',#861,#74);
#51=LINE('',#877,#75);
#52=LINE('',#879,#76);
#53=LINE('',#882,#77);
#54=LINE('',#884,#78);
#55=LINE('',#886,#79);
#56=LINE('',#902,#80);
#57=LINE('',#918,#81);
#58=LINE('',#948,#82);
#59=LINE('',#951,#83);
#60=LINE('',#953,#84);
#61=LINE('',#955,#85);
#62=VECTOR('',#630,1.);
#63=VECTOR('',#631,1.);
#64=VECTOR('',#632,1.);
#65=VECTOR('',#633,1.);
#66=VECTOR('',#654,1.);
#67=VECTOR('',#657,1.);
#68=VECTOR('',#662,1.);
#69=VECTOR('',#663,1.);
#70=VECTOR('',#664,1.);
#71=VECTOR('',#665,1.);
#72=VECTOR('',#666,1.);
#73=VECTOR('',#679,1.);
#74=VECTOR('',#680,1.);
#75=VECTOR('',#681,1.);
#76=VECTOR('',#684,1.);
#77=VECTOR('',#687,1.);
#78=VECTOR('',#688,1.);
#79=VECTOR('',#689,1.);
#80=VECTOR('',#692,1.);
#81=VECTOR('',#693,1.);
#82=VECTOR('',#724,1.);
#83=VECTOR('',#725,1.);
#84=VECTOR('',#726,1.);
#85=VECTOR('',#727,1.);
#86=ORIENTED_EDGE('',*,*,#216,.F.);
#87=ORIENTED_EDGE('',*,*,#217,.F.);
#88=ORIENTED_EDGE('',*,*,#218,.F.);
#89=ORIENTED_EDGE('',*,*,#219,.T.);
#90=ORIENTED_EDGE('',*,*,#220,.T.);
#91=ORIENTED_EDGE('',*,*,#221,.F.);
#92=ORIENTED_EDGE('',*,*,#222,.T.);
#93=ORIENTED_EDGE('',*,*,#223,.F.);
#94=ORIENTED_EDGE('',*,*,#224,.T.);
#95=ORIENTED_EDGE('',*,*,#225,.F.);
#96=ORIENTED_EDGE('',*,*,#226,.T.);
#97=ORIENTED_EDGE('',*,*,#227,.F.);
#98=ORIENTED_EDGE('',*,*,#228,.T.);
#99=ORIENTED_EDGE('',*,*,#229,.F.);
#100=ORIENTED_EDGE('',*,*,#230,.T.);
#101=ORIENTED_EDGE('',*,*,#231,.T.);
#102=ORIENTED_EDGE('',*,*,#221,.T.);
#103=ORIENTED_EDGE('',*,*,#232,.T.);
#104=ORIENTED_EDGE('',*,*,#233,.T.);
#105=ORIENTED_EDGE('',*,*,#234,.F.);
#106=ORIENTED_EDGE('',*,*,#235,.T.);
#107=ORIENTED_EDGE('',*,*,#236,.T.);
#108=ORIENTED_EDGE('',*,*,#237,.T.);
#109=ORIENTED_EDGE('',*,*,#238,.F.);
#110=ORIENTED_EDGE('',*,*,#239,.F.);
#111=ORIENTED_EDGE('',*,*,#240,.F.);
#112=ORIENTED_EDGE('',*,*,#241,.F.);
#113=ORIENTED_EDGE('',*,*,#242,.F.);
#114=ORIENTED_EDGE('',*,*,#243,.F.);
#115=ORIENTED_EDGE('',*,*,#244,.T.);
#116=ORIENTED_EDGE('',*,*,#245,.T.);
#117=ORIENTED_EDGE('',*,*,#246,.T.);
#118=ORIENTED_EDGE('',*,*,#247,.T.);
#119=ORIENTED_EDGE('',*,*,#248,.F.);
#120=ORIENTED_EDGE('',*,*,#249,.T.);
#121=ORIENTED_EDGE('',*,*,#219,.F.);
#122=ORIENTED_EDGE('',*,*,#250,.T.);
#123=ORIENTED_EDGE('',*,*,#251,.T.);
#124=ORIENTED_EDGE('',*,*,#252,.T.);
#125=ORIENTED_EDGE('',*,*,#253,.T.);
#126=ORIENTED_EDGE('',*,*,#229,.T.);
#127=ORIENTED_EDGE('',*,*,#233,.F.);
#128=ORIENTED_EDGE('',*,*,#254,.T.);
#129=ORIENTED_EDGE('',*,*,#248,.T.);
#130=ORIENTED_EDGE('',*,*,#231,.F.);
#131=ORIENTED_EDGE('',*,*,#255,.T.);
#132=ORIENTED_EDGE('',*,*,#256,.F.);
#133=ORIENTED_EDGE('',*,*,#256,.T.);
#134=ORIENTED_EDGE('',*,*,#257,.T.);
#135=ORIENTED_EDGE('',*,*,#234,.T.);
#136=ORIENTED_EDGE('',*,*,#258,.T.);
#137=ORIENTED_EDGE('',*,*,#225,.T.);
#138=ORIENTED_EDGE('',*,*,#223,.T.);
#139=ORIENTED_EDGE('',*,*,#227,.T.);
#140=ORIENTED_EDGE('',*,*,#258,.F.);
#141=ORIENTED_EDGE('',*,*,#246,.F.);
#142=ORIENTED_EDGE('',*,*,#259,.T.);
#143=ORIENTED_EDGE('',*,*,#235,.F.);
#144=ORIENTED_EDGE('',*,*,#257,.F.);
#145=ORIENTED_EDGE('',*,*,#255,.F.);
#146=ORIENTED_EDGE('',*,*,#230,.F.);
#147=ORIENTED_EDGE('',*,*,#253,.F.);
#148=ORIENTED_EDGE('',*,*,#260,.T.);
#149=ORIENTED_EDGE('',*,*,#261,.F.);
#150=ORIENTED_EDGE('',*,*,#218,.T.);
#151=ORIENTED_EDGE('',*,*,#224,.F.);
#152=ORIENTED_EDGE('',*,*,#261,.T.);
#153=ORIENTED_EDGE('',*,*,#262,.F.);
#154=ORIENTED_EDGE('',*,*,#217,.T.);
#155=ORIENTED_EDGE('',*,*,#228,.F.);
#156=ORIENTED_EDGE('',*,*,#262,.T.);
#157=ORIENTED_EDGE('',*,*,#263,.F.);
#158=ORIENTED_EDGE('',*,*,#216,.T.);
#159=ORIENTED_EDGE('',*,*,#226,.F.);
#160=ORIENTED_EDGE('',*,*,#263,.T.);
#161=ORIENTED_EDGE('',*,*,#264,.T.);
#162=ORIENTED_EDGE('',*,*,#265,.T.);
#163=ORIENTED_EDGE('',*,*,#266,.F.);
#164=ORIENTED_EDGE('',*,*,#267,.T.);
#165=ORIENTED_EDGE('',*,*,#268,.T.);
#166=ORIENTED_EDGE('',*,*,#269,.T.);
#167=ORIENTED_EDGE('',*,*,#270,.T.);
#168=ORIENTED_EDGE('',*,*,#271,.T.);
#169=ORIENTED_EDGE('',*,*,#272,.T.);
#170=ORIENTED_EDGE('',*,*,#266,.T.);
#171=ORIENTED_EDGE('',*,*,#273,.T.);
#172=ORIENTED_EDGE('',*,*,#250,.F.);
#173=ORIENTED_EDGE('',*,*,#222,.F.);
#174=ORIENTED_EDGE('',*,*,#238,.T.);
#175=ORIENTED_EDGE('',*,*,#274,.T.);
#176=ORIENTED_EDGE('',*,*,#243,.T.);
#177=ORIENTED_EDGE('',*,*,#272,.F.);
#178=ORIENTED_EDGE('',*,*,#242,.T.);
#179=ORIENTED_EDGE('',*,*,#271,.F.);
#180=ORIENTED_EDGE('',*,*,#241,.T.);
#181=ORIENTED_EDGE('',*,*,#270,.F.);
#182=ORIENTED_EDGE('',*,*,#240,.T.);
#183=ORIENTED_EDGE('',*,*,#269,.F.);
#184=ORIENTED_EDGE('',*,*,#239,.T.);
#185=ORIENTED_EDGE('',*,*,#268,.F.);
#186=ORIENTED_EDGE('',*,*,#259,.F.);
#187=ORIENTED_EDGE('',*,*,#245,.F.);
#188=ORIENTED_EDGE('',*,*,#275,.F.);
#189=ORIENTED_EDGE('',*,*,#236,.F.);
#190=ORIENTED_EDGE('',*,*,#274,.F.);
#191=ORIENTED_EDGE('',*,*,#237,.F.);
#192=ORIENTED_EDGE('',*,*,#276,.F.);
#193=ORIENTED_EDGE('',*,*,#267,.F.);
#194=ORIENTED_EDGE('',*,*,#273,.F.);
#195=ORIENTED_EDGE('',*,*,#265,.F.);
#196=ORIENTED_EDGE('',*,*,#277,.F.);
#197=ORIENTED_EDGE('',*,*,#251,.F.);
#198=ORIENTED_EDGE('',*,*,#260,.F.);
#199=ORIENTED_EDGE('',*,*,#252,.F.);
#200=ORIENTED_EDGE('',*,*,#278,.F.);
#201=ORIENTED_EDGE('',*,*,#247,.F.);
#202=ORIENTED_EDGE('',*,*,#276,.T.);
#203=ORIENTED_EDGE('',*,*,#275,.T.);
#204=ORIENTED_EDGE('',*,*,#279,.F.);
#205=ORIENTED_EDGE('',*,*,#278,.T.);
#206=ORIENTED_EDGE('',*,*,#277,.T.);
#207=ORIENTED_EDGE('',*,*,#280,.F.);
#208=ORIENTED_EDGE('',*,*,#279,.T.);
#209=ORIENTED_EDGE('',*,*,#244,.F.);
#210=ORIENTED_EDGE('',*,*,#280,.T.);
#211=ORIENTED_EDGE('',*,*,#264,.F.);
#212=ORIENTED_EDGE('',*,*,#232,.F.);
#213=ORIENTED_EDGE('',*,*,#220,.F.);
#214=ORIENTED_EDGE('',*,*,#249,.F.);
#215=ORIENTED_EDGE('',*,*,#254,.F.);
#216=EDGE_CURVE('',#281,#281,#330,.T.);
#217=EDGE_CURVE('',#282,#282,#331,.T.);
#218=EDGE_CURVE('',#283,#283,#332,.T.);
#219=EDGE_CURVE('',#284,#285,#38,.T.);
#220=EDGE_CURVE('',#285,#286,#39,.F.);
#221=EDGE_CURVE('',#287,#286,#40,.T.);
#222=EDGE_CURVE('',#287,#284,#41,.T.);
#223=EDGE_CURVE('',#288,#288,#333,.T.);
#224=EDGE_CURVE('',#289,#289,#334,.T.);
#225=EDGE_CURVE('',#290,#290,#335,.T.);
#226=EDGE_CURVE('',#291,#291,#336,.T.);
#227=EDGE_CURVE('',#292,#292,#337,.T.);
#228=EDGE_CURVE('',#293,#293,#338,.T.);
#229=EDGE_CURVE('',#294,#295,#42,.T.);
#230=EDGE_CURVE('',#294,#296,#339,.T.);
#231=EDGE_CURVE('',#296,#295,#43,.T.);
#232=EDGE_CURVE('',#286,#297,#340,.T.);
#233=EDGE_CURVE('',#297,#298,#44,.T.);
#234=EDGE_CURVE('',#299,#298,#45,.T.);
#235=EDGE_CURVE('',#299,#300,#15,.T.);
#236=EDGE_CURVE('',#300,#301,#46,.F.);
#237=EDGE_CURVE('',#301,#302,#47,.F.);
#238=EDGE_CURVE('',#287,#302,#48,.T.);
#239=EDGE_CURVE('',#303,#303,#341,.T.);
#240=EDGE_CURVE('',#304,#304,#342,.T.);
#241=EDGE_CURVE('',#305,#305,#343,.T.);
#242=EDGE_CURVE('',#306,#306,#344,.T.);
#243=EDGE_CURVE('',#307,#307,#345,.T.);
#244=EDGE_CURVE('',#308,#309,#49,.F.);
#245=EDGE_CURVE('',#309,#310,#50,.T.);
#246=EDGE_CURVE('',#310,#311,#16,.T.);
#247=EDGE_CURVE('',#311,#308,#51,.F.);
#248=EDGE_CURVE('',#312,#295,#52,.T.);
#249=EDGE_CURVE('',#312,#285,#346,.F.);
#250=EDGE_CURVE('',#284,#313,#53,.T.);
#251=EDGE_CURVE('',#313,#314,#54,.T.);
#252=EDGE_CURVE('',#314,#315,#55,.T.);
#253=EDGE_CURVE('',#315,#294,#17,.T.);
#254=EDGE_CURVE('',#297,#312,#56,.T.);
#255=EDGE_CURVE('',#296,#316,#18,.T.);
#256=EDGE_CURVE('',#298,#316,#57,.T.);
#257=EDGE_CURVE('',#316,#299,#347,.T.);
#258=EDGE_CURVE('',#317,#317,#348,.F.);
#259=EDGE_CURVE('',#310,#300,#19,.T.);
#260=EDGE_CURVE('',#315,#311,#20,.T.);
#261=EDGE_CURVE('',#318,#318,#349,.T.);
#262=EDGE_CURVE('',#319,#319,#350,.T.);
#263=EDGE_CURVE('',#320,#320,#351,.T.);
#264=EDGE_CURVE('',#321,#322,#58,.T.);
#265=EDGE_CURVE('',#322,#323,#59,.F.);
#266=EDGE_CURVE('',#324,#323,#60,.T.);
#267=EDGE_CURVE('',#324,#321,#61,.T.);
#268=EDGE_CURVE('',#325,#325,#352,.T.);
#269=EDGE_CURVE('',#326,#326,#353,.T.);
#270=EDGE_CURVE('',#327,#327,#354,.T.);
#271=EDGE_CURVE('',#328,#328,#355,.T.);
#272=EDGE_CURVE('',#329,#329,#356,.T.);
#273=EDGE_CURVE('',#323,#313,#357,.F.);
#274=EDGE_CURVE('',#302,#324,#358,.F.);
#275=EDGE_CURVE('',#301,#309,#359,.T.);
#276=EDGE_CURVE('',#321,#301,#360,.T.);
#277=EDGE_CURVE('',#314,#322,#361,.T.);
#278=EDGE_CURVE('',#308,#314,#362,.T.);
#279=EDGE_CURVE('',#321,#309,#363,.F.);
#280=EDGE_CURVE('',#308,#322,#364,.F.);
#281=VERTEX_POINT('',#785);
#282=VERTEX_POINT('',#787);
#283=VERTEX_POINT('',#789);
#284=VERTEX_POINT('',#791);
#285=VERTEX_POINT('',#792);
#286=VERTEX_POINT('',#794);
#287=VERTEX_POINT('',#796);
#288=VERTEX_POINT('',#800);
#289=VERTEX_POINT('',#802);
#290=VERTEX_POINT('',#805);
#291=VERTEX_POINT('',#807);
#292=VERTEX_POINT('',#810);
#293=VERTEX_POINT('',#812);
#294=VERTEX_POINT('',#815);
#295=VERTEX_POINT('',#816);
#296=VERTEX_POINT('',#818);
#297=VERTEX_POINT('',#822);
#298=VERTEX_POINT('',#824);
#299=VERTEX_POINT('',#826);
#300=VERTEX_POINT('',#841);
#301=VERTEX_POINT('',#843);
#302=VERTEX_POINT('',#845);
#303=VERTEX_POINT('',#849);
#304=VERTEX_POINT('',#851);
#305=VERTEX_POINT('',#853);
#306=VERTEX_POINT('',#855);
#307=VERTEX_POINT('',#857);
#308=VERTEX_POINT('',#859);
#309=VERTEX_POINT('',#860);
#310=VERTEX_POINT('',#862);
#311=VERTEX_POINT('',#876);
#312=VERTEX_POINT('',#880);
#313=VERTEX_POINT('',#883);
#314=VERTEX_POINT('',#885);
#315=VERTEX_POINT('',#887);
#316=VERTEX_POINT('',#917);
#317=VERTEX_POINT('',#923);
#318=VERTEX_POINT('',#937);
#319=VERTEX_POINT('',#941);
#320=VERTEX_POINT('',#945);
#321=VERTEX_POINT('',#949);
#322=VERTEX_POINT('',#950);
#323=VERTEX_POINT('',#952);
#324=VERTEX_POINT('',#954);
#325=VERTEX_POINT('',#958);
#326=VERTEX_POINT('',#960);
#327=VERTEX_POINT('',#962);
#328=VERTEX_POINT('',#964);
#329=VERTEX_POINT('',#966);
#330=CIRCLE('',#553,0.003);
#331=CIRCLE('',#554,0.003);
#332=CIRCLE('',#555,0.003);
#333=CIRCLE('',#557,0.00175);
#334=CIRCLE('',#558,0.00175);
#335=CIRCLE('',#560,0.00175);
#336=CIRCLE('',#561,0.00175);
#337=CIRCLE('',#563,0.00175);
#338=CIRCLE('',#564,0.00175);
#339=CIRCLE('',#566,0.0305);
#340=CIRCLE('',#568,0.0045);
#341=CIRCLE('',#570,0.002);
#342=CIRCLE('',#571,0.002);
#343=CIRCLE('',#572,0.002);
#344=CIRCLE('',#573,0.0111);
#345=CIRCLE('',#574,0.002);
#346=CIRCLE('',#576,0.0045);
#347=CIRCLE('',#579,0.0305);
#348=CIRCLE('',#581,0.0216682391336721);
#349=CIRCLE('',#584,0.003);
#350=CIRCLE('',#587,0.003);
#351=CIRCLE('',#590,0.003);
#352=CIRCLE('',#594,0.002);
#353=CIRCLE('',#595,0.002);
#354=CIRCLE('',#596,0.002);
#355=CIRCLE('',#597,0.0111);
#356=CIRCLE('',#598,0.002);
#357=CIRCLE('',#599,0.0045);
#358=CIRCLE('',#600,0.0045);
#359=CIRCLE('',#607,0.0045);
#360=CIRCLE('',#609,0.0045);
#361=CIRCLE('',#611,0.0045);
#362=CIRCLE('',#613,0.0045);
#363=CIRCLE('',#615,0.0045);
#364=CIRCLE('',#617,0.0045);
#365=EDGE_LOOP('',(#86));
#366=EDGE_LOOP('',(#87));
#367=EDGE_LOOP('',(#88));
#368=EDGE_LOOP('',(#89,#90,#91,#92));
#369=EDGE_LOOP('',(#93));
#370=EDGE_LOOP('',(#94));
#371=EDGE_LOOP('',(#95));
#372=EDGE_LOOP('',(#96));
#373=EDGE_LOOP('',(#97));
#374=EDGE_LOOP('',(#98));
#375=EDGE_LOOP('',(#99,#100,#101));
#376=EDGE_LOOP('',(#102,#103,#104,#105,#106,#107,#108,#109));
#377=EDGE_LOOP('',(#110));
#378=EDGE_LOOP('',(#111));
#379=EDGE_LOOP('',(#112));
#380=EDGE_LOOP('',(#113));
#381=EDGE_LOOP('',(#114));
#382=EDGE_LOOP('',(#115,#116,#117,#118));
#383=EDGE_LOOP('',(#119,#120,#121,#122,#123,#124,#125,#126));
#384=EDGE_LOOP('',(#127,#128,#129,#130,#131,#132));
#385=EDGE_LOOP('',(#133,#134,#135));
#386=EDGE_LOOP('',(#136));
#387=EDGE_LOOP('',(#137));
#388=EDGE_LOOP('',(#138));
#389=EDGE_LOOP('',(#139));
#390=EDGE_LOOP('',(#140));
#391=EDGE_LOOP('',(#141,#142,#143,#144,#145,#146,#147,#148));
#392=EDGE_LOOP('',(#149));
#393=EDGE_LOOP('',(#150));
#394=EDGE_LOOP('',(#151));
#395=EDGE_LOOP('',(#152));
#396=EDGE_LOOP('',(#153));
#397=EDGE_LOOP('',(#154));
#398=EDGE_LOOP('',(#155));
#399=EDGE_LOOP('',(#156));
#400=EDGE_LOOP('',(#157));
#401=EDGE_LOOP('',(#158));
#402=EDGE_LOOP('',(#159));
#403=EDGE_LOOP('',(#160));
#404=EDGE_LOOP('',(#161,#162,#163,#164));
#405=EDGE_LOOP('',(#165));
#406=EDGE_LOOP('',(#166));
#407=EDGE_LOOP('',(#167));
#408=EDGE_LOOP('',(#168));
#409=EDGE_LOOP('',(#169));
#410=EDGE_LOOP('',(#170,#171,#172,#173,#174,#175));
#411=EDGE_LOOP('',(#176));
#412=EDGE_LOOP('',(#177));
#413=EDGE_LOOP('',(#178));
#414=EDGE_LOOP('',(#179));
#415=EDGE_LOOP('',(#180));
#416=EDGE_LOOP('',(#181));
#417=EDGE_LOOP('',(#182));
#418=EDGE_LOOP('',(#183));
#419=EDGE_LOOP('',(#184));
#420=EDGE_LOOP('',(#185));
#421=EDGE_LOOP('',(#186,#187,#188,#189));
#422=EDGE_LOOP('',(#190,#191,#192,#193));
#423=EDGE_LOOP('',(#194,#195,#196,#197));
#424=EDGE_LOOP('',(#198,#199,#200,#201));
#425=EDGE_LOOP('',(#202,#203,#204));
#426=EDGE_LOOP('',(#205,#206,#207));
#427=EDGE_LOOP('',(#208,#209,#210,#211));
#428=EDGE_LOOP('',(#212,#213,#214,#215));
#429=FACE_BOUND('',#365,.T.);
#430=FACE_BOUND('',#366,.T.);
#431=FACE_BOUND('',#367,.T.);
#432=FACE_BOUND('',#368,.T.);
#433=FACE_BOUND('',#369,.T.);
#434=FACE_BOUND('',#370,.T.);
#435=FACE_BOUND('',#371,.T.);
#436=FACE_BOUND('',#372,.T.);
#437=FACE_BOUND('',#373,.T.);
#438=FACE_BOUND('',#374,.T.);
#439=FACE_BOUND('',#375,.T.);
#440=FACE_BOUND('',#376,.T.);
#441=FACE_BOUND('',#377,.T.);
#442=FACE_BOUND('',#378,.T.);
#443=FACE_BOUND('',#379,.T.);
#444=FACE_BOUND('',#380,.T.);
#445=FACE_BOUND('',#381,.T.);
#446=FACE_BOUND('',#382,.T.);
#447=FACE_BOUND('',#383,.T.);
#448=FACE_BOUND('',#384,.T.);
#449=FACE_BOUND('',#385,.T.);
#450=FACE_BOUND('',#386,.T.);
#451=FACE_BOUND('',#387,.T.);
#452=FACE_BOUND('',#388,.T.);
#453=FACE_BOUND('',#389,.T.);
#454=FACE_BOUND('',#390,.T.);
#455=FACE_BOUND('',#391,.T.);
#456=FACE_BOUND('',#392,.T.);
#457=FACE_BOUND('',#393,.T.);
#458=FACE_BOUND('',#394,.T.);
#459=FACE_BOUND('',#395,.T.);
#460=FACE_BOUND('',#396,.T.);
#461=FACE_BOUND('',#397,.T.);
#462=FACE_BOUND('',#398,.T.);
#463=FACE_BOUND('',#399,.T.);
#464=FACE_BOUND('',#400,.T.);
#465=FACE_BOUND('',#401,.T.);
#466=FACE_BOUND('',#402,.T.);
#467=FACE_BOUND('',#403,.T.);
#468=FACE_BOUND('',#404,.T.);
#469=FACE_BOUND('',#405,.T.);
#470=FACE_BOUND('',#406,.T.);
#471=FACE_BOUND('',#407,.T.);
#472=FACE_BOUND('',#408,.T.);
#473=FACE_BOUND('',#409,.T.);
#474=FACE_BOUND('',#410,.T.);
#475=FACE_BOUND('',#411,.T.);
#476=FACE_BOUND('',#412,.T.);
#477=FACE_BOUND('',#413,.T.);
#478=FACE_BOUND('',#414,.T.);
#479=FACE_BOUND('',#415,.T.);
#480=FACE_BOUND('',#416,.T.);
#481=FACE_BOUND('',#417,.T.);
#482=FACE_BOUND('',#418,.T.);
#483=FACE_BOUND('',#419,.T.);
#484=FACE_BOUND('',#420,.T.);
#485=FACE_BOUND('',#421,.T.);
#486=FACE_BOUND('',#422,.T.);
#487=FACE_BOUND('',#423,.T.);
#488=FACE_BOUND('',#424,.T.);
#489=FACE_BOUND('',#425,.T.);
#490=FACE_BOUND('',#426,.T.);
#491=FACE_BOUND('',#427,.T.);
#492=FACE_BOUND('',#428,.T.);
#493=PLANE('',#552);
#494=PLANE('',#565);
#495=PLANE('',#567);
#496=PLANE('',#569);
#497=PLANE('',#575);
#498=PLANE('',#577);
#499=PLANE('',#578);
#500=PLANE('',#580);
#501=PLANE('',#585);
#502=PLANE('',#588);
#503=PLANE('',#591);
#504=PLANE('',#592);
#505=PLANE('',#593);
#506=ADVANCED_FACE('',(#429,#430,#431,#432),#493,.T.);
#507=ADVANCED_FACE('',(#433,#434),#21,.F.);
#508=ADVANCED_FACE('',(#435,#436),#22,.F.);
#509=ADVANCED_FACE('',(#437,#438),#23,.F.);
#510=ADVANCED_FACE('',(#439),#494,.F.);
#511=ADVANCED_FACE('',(#440),#495,.T.);
#512=ADVANCED_FACE('',(#441,#442,#443,#444,#445,#446),#496,.F.);
#513=ADVANCED_FACE('',(#447),#497,.F.);
#514=ADVANCED_FACE('',(#448),#498,.T.);
#515=ADVANCED_FACE('',(#449),#499,.F.);
#516=ADVANCED_FACE('',(#450,#451,#452,#453),#500,.F.);
#517=ADVANCED_FACE('',(#454,#455),#14,.F.);
#518=ADVANCED_FACE('',(#456,#457),#24,.F.);
#519=ADVANCED_FACE('',(#458,#459),#501,.T.);
#520=ADVANCED_FACE('',(#460,#461),#25,.F.);
#521=ADVANCED_FACE('',(#462,#463),#502,.T.);
#522=ADVANCED_FACE('',(#464,#465),#26,.F.);
#523=ADVANCED_FACE('',(#466,#467),#503,.T.);
#524=ADVANCED_FACE('',(#468),#504,.F.);
#525=ADVANCED_FACE('',(#469,#470,#471,#472,#473,#474),#505,.F.);
#526=ADVANCED_FACE('',(#475,#476),#27,.F.);
#527=ADVANCED_FACE('',(#477,#478),#28,.F.);
#528=ADVANCED_FACE('',(#479,#480),#29,.F.);
#529=ADVANCED_FACE('',(#481,#482),#30,.F.);
#530=ADVANCED_FACE('',(#483,#484),#31,.F.);
#531=ADVANCED_FACE('',(#485),#32,.T.);
#532=ADVANCED_FACE('',(#486),#33,.T.);
#533=ADVANCED_FACE('',(#487),#34,.T.);
#534=ADVANCED_FACE('',(#488),#35,.T.);
#535=ADVANCED_FACE('',(#489),#12,.T.);
#536=ADVANCED_FACE('',(#490),#13,.T.);
#537=ADVANCED_FACE('',(#491),#36,.T.);
#538=ADVANCED_FACE('',(#492),#37,.T.);
#539=CLOSED_SHELL('',(#506,#507,#508,#509,#510,#511,#512,#513,#514,#515,
#516,#517,#518,#519,#520,#521,#522,#523,#524,#525,#526,#527,#528,#529,#530,
#531,#532,#533,#534,#535,#536,#537,#538));
#540=STYLED_ITEM('',(#541),#548);
#541=PRESENTATION_STYLE_ASSIGNMENT((#542));
#542=SURFACE_STYLE_USAGE(.BOTH.,#543);
#543=SURFACE_SIDE_STYLE('',(#544));
#544=SURFACE_STYLE_FILL_AREA(#545);
#545=FILL_AREA_STYLE('',(#546));
#546=FILL_AREA_STYLE_COLOUR('',#547);
#547=COLOUR_RGB('',0.647058823529412,0.647058823529412,0.647058823529412);
#548=MANIFOLD_SOLID_BREP('Part 1',#539);
#549=SHAPE_DEFINITION_REPRESENTATION(#994,#550);
#550=SHAPE_REPRESENTATION('Part 1',(#551),#989);
#551=AXIS2_PLACEMENT_3D('',#782,#620,#621);
#552=AXIS2_PLACEMENT_3D('',#783,#622,#623);
#553=AXIS2_PLACEMENT_3D('',#784,#624,#625);
#554=AXIS2_PLACEMENT_3D('',#786,#626,#627);
#555=AXIS2_PLACEMENT_3D('',#788,#628,#629);
#556=AXIS2_PLACEMENT_3D('',#798,#634,#635);
#557=AXIS2_PLACEMENT_3D('',#799,#636,#637);
#558=AXIS2_PLACEMENT_3D('',#801,#638,#639);
#559=AXIS2_PLACEMENT_3D('',#803,#640,#641);
#560=AXIS2_PLACEMENT_3D('',#804,#642,#643);
#561=AXIS2_PLACEMENT_3D('',#806,#644,#645);
#562=AXIS2_PLACEMENT_3D('',#808,#646,#647);
#563=AXIS2_PLACEMENT_3D('',#809,#648,#649);
#564=AXIS2_PLACEMENT_3D('',#811,#650,#651);
#565=AXIS2_PLACEMENT_3D('',#813,#652,#653);
#566=AXIS2_PLACEMENT_3D('',#817,#655,#656);
#567=AXIS2_PLACEMENT_3D('',#820,#658,#659);
#568=AXIS2_PLACEMENT_3D('',#821,#660,#661);
#569=AXIS2_PLACEMENT_3D('',#847,#667,#668);
#570=AXIS2_PLACEMENT_3D('',#848,#669,#670);
#571=AXIS2_PLACEMENT_3D('',#850,#671,#672);
#572=AXIS2_PLACEMENT_3D('',#852,#673,#674);
#573=AXIS2_PLACEMENT_3D('',#854,#675,#676);
#574=AXIS2_PLACEMENT_3D('',#856,#677,#678);
#575=AXIS2_PLACEMENT_3D('',#878,#682,#683);
#576=AXIS2_PLACEMENT_3D('',#881,#685,#686);
#577=AXIS2_PLACEMENT_3D('',#901,#690,#691);
#578=AXIS2_PLACEMENT_3D('',#919,#694,#695);
#579=AXIS2_PLACEMENT_3D('',#920,#696,#697);
#580=AXIS2_PLACEMENT_3D('',#921,#698,#699);
#581=AXIS2_PLACEMENT_3D('',#922,#700,#701);
#582=AXIS2_PLACEMENT_3D('',#924,#702,#703);
#583=AXIS2_PLACEMENT_3D('',#935,#704,#705);
#584=AXIS2_PLACEMENT_3D('',#936,#706,#707);
#585=AXIS2_PLACEMENT_3D('',#938,#708,#709);
#586=AXIS2_PLACEMENT_3D('',#939,#710,#711);
#587=AXIS2_PLACEMENT_3D('',#940,#712,#713);
#588=AXIS2_PLACEMENT_3D('',#942,#714,#715);
#589=AXIS2_PLACEMENT_3D('',#943,#716,#717);
#590=AXIS2_PLACEMENT_3D('',#944,#718,#719);
#591=AXIS2_PLACEMENT_3D('',#946,#720,#721);
#592=AXIS2_PLACEMENT_3D('',#947,#722,#723);
#593=AXIS2_PLACEMENT_3D('',#956,#728,#729);
#594=AXIS2_PLACEMENT_3D('',#957,#730,#731);
#595=AXIS2_PLACEMENT_3D('',#959,#732,#733);
#596=AXIS2_PLACEMENT_3D('',#961,#734,#735);
#597=AXIS2_PLACEMENT_3D('',#963,#736,#737);
#598=AXIS2_PLACEMENT_3D('',#965,#738,#739);
#599=AXIS2_PLACEMENT_3D('',#967,#740,#741);
#600=AXIS2_PLACEMENT_3D('',#968,#742,#743);
#601=AXIS2_PLACEMENT_3D('',#969,#744,#745);
#602=AXIS2_PLACEMENT_3D('',#970,#746,#747);
#603=AXIS2_PLACEMENT_3D('',#971,#748,#749);
#604=AXIS2_PLACEMENT_3D('',#972,#750,#751);
#605=AXIS2_PLACEMENT_3D('',#973,#752,#753);
#606=AXIS2_PLACEMENT_3D('',#974,#754,#755);
#607=AXIS2_PLACEMENT_3D('',#975,#756,#757);
#608=AXIS2_PLACEMENT_3D('',#976,#758,#759);
#609=AXIS2_PLACEMENT_3D('',#977,#760,#761);
#610=AXIS2_PLACEMENT_3D('',#978,#762,#763);
#611=AXIS2_PLACEMENT_3D('',#979,#764,#765);
#612=AXIS2_PLACEMENT_3D('',#980,#766,#767);
#613=AXIS2_PLACEMENT_3D('',#981,#768,#769);
#614=AXIS2_PLACEMENT_3D('',#982,#770,#771);
#615=AXIS2_PLACEMENT_3D('',#983,#772,#773);
#616=AXIS2_PLACEMENT_3D('',#984,#774,#775);
#617=AXIS2_PLACEMENT_3D('',#985,#776,#777);
#618=AXIS2_PLACEMENT_3D('',#986,#778,#779);
#619=AXIS2_PLACEMENT_3D('',#987,#780,#781);
#620=DIRECTION('',(0.,0.,1.));
#621=DIRECTION('',(1.,0.,0.));
#622=DIRECTION('',(0.,-1.,0.));
#623=DIRECTION('',(1.,0.,0.));
#624=DIRECTION('',(0.,-1.,0.));
#625=DIRECTION('',(0.,0.,-1.));
#626=DIRECTION('',(0.,-1.,0.));
#627=DIRECTION('',(0.,0.,-1.));
#628=DIRECTION('',(0.,-1.,0.));
#629=DIRECTION('',(0.,0.,-1.));
#630=DIRECTION('',(0.,0.,-1.));
#631=DIRECTION('',(-1.,0.,0.));
#632=DIRECTION('',(3.08395284618099E-16,0.,-1.));
#633=DIRECTION('',(-1.,0.,0.));
#634=DIRECTION('',(0.,1.,0.));
#635=DIRECTION('',(0.,0.,1.));
#636=DIRECTION('',(0.,-1.,0.));
#637=DIRECTION('',(0.,0.,-1.));
#638=DIRECTION('',(0.,-1.,0.));
#639=DIRECTION('',(0.,0.,-1.));
#640=DIRECTION('',(0.,1.,0.));
#641=DIRECTION('',(0.,0.,1.));
#642=DIRECTION('',(0.,-1.,0.));
#643=DIRECTION('',(0.,0.,-1.));
#644=DIRECTION('',(0.,-1.,0.));
#645=DIRECTION('',(0.,0.,-1.));
#646=DIRECTION('',(0.,1.,0.));
#647=DIRECTION('',(0.,0.,1.));
#648=DIRECTION('',(0.,-1.,0.));
#649=DIRECTION('',(0.,0.,-1.));
#650=DIRECTION('',(0.,-1.,0.));
#651=DIRECTION('',(0.,0.,-1.));
#652=DIRECTION('',(0.,-1.,0.));
#653=DIRECTION('',(1.,0.,0.));
#654=DIRECTION('',(0.,0.,-1.));
#655=DIRECTION('',(0.,-1.,0.));
#656=DIRECTION('',(0.,0.,-1.));
#657=DIRECTION('',(-1.,0.,0.));
#658=DIRECTION('',(1.,0.,3.08395284618099E-16));
#659=DIRECTION('',(3.08395284618099E-16,0.,-1.));
#660=DIRECTION('',(1.,0.,3.08395284618099E-16));
#661=DIRECTION('',(3.08395284618099E-16,0.,-1.));
#662=DIRECTION('',(0.,1.,0.));
#663=DIRECTION('',(3.08395284618099E-16,0.,-1.));
#664=DIRECTION('',(0.,1.,0.));
#665=DIRECTION('',(-3.08395284618099E-16,0.,1.));
#666=DIRECTION('',(0.,-1.,0.));
#667=DIRECTION('',(0.,0.,-1.));
#668=DIRECTION('',(-1.,0.,0.));
#669=DIRECTION('',(0.,0.,1.));
#670=DIRECTION('',(1.,0.,0.));
#671=DIRECTION('',(0.,0.,1.));
#672=DIRECTION('',(1.,0.,0.));
#673=DIRECTION('',(0.,0.,1.));
#674=DIRECTION('',(1.,0.,0.));
#675=DIRECTION('',(0.,0.,1.));
#676=DIRECTION('',(1.,0.,0.));
#677=DIRECTION('',(0.,0.,1.));
#678=DIRECTION('',(1.,0.,0.));
#679=DIRECTION('',(-1.,0.,0.));
#680=DIRECTION('',(0.,1.,0.));
#681=DIRECTION('',(0.,1.,0.));
#682=DIRECTION('',(1.,0.,0.));
#683=DIRECTION('',(0.,0.,-1.));
#684=DIRECTION('',(0.,1.,0.));
#685=DIRECTION('',(1.,0.,0.));
#686=DIRECTION('',(0.,0.,-1.));
#687=DIRECTION('',(0.,-1.,0.));
#688=DIRECTION('',(0.,0.,1.));
#689=DIRECTION('',(0.,1.,0.));
#690=DIRECTION('',(0.,0.,-1.));
#691=DIRECTION('',(-1.,0.,0.));
#692=DIRECTION('',(-1.,0.,0.));
#693=DIRECTION('',(-1.,0.,0.));
#694=DIRECTION('',(0.,-1.,0.));
#695=DIRECTION('',(1.,0.,0.));
#696=DIRECTION('',(0.,-1.,0.));
#697=DIRECTION('',(0.,0.,-1.));
#698=DIRECTION('',(0.,-1.,0.));
#699=DIRECTION('',(1.,0.,0.));
#700=DIRECTION('',(0.,-1.,0.));
#701=DIRECTION('',(0.,0.,-1.));
#702=DIRECTION('',(0.,-1.,0.));
#703=DIRECTION('',(0.,0.,-1.));
#704=DIRECTION('',(0.,-1.,0.));
#705=DIRECTION('',(0.,0.,-1.));
#706=DIRECTION('',(0.,-1.,0.));
#707=DIRECTION('',(0.,0.,-1.));
#708=DIRECTION('',(0.,-1.,0.));
#709=DIRECTION('',(1.,0.,0.));
#710=DIRECTION('',(0.,-1.,0.));
#711=DIRECTION('',(0.,0.,-1.));
#712=DIRECTION('',(0.,-1.,0.));
#713=DIRECTION('',(0.,0.,-1.));
#714=DIRECTION('',(0.,-1.,0.));
#715=DIRECTION('',(1.,0.,0.));
#716=DIRECTION('',(0.,-1.,0.));
#717=DIRECTION('',(0.,0.,-1.));
#718=DIRECTION('',(0.,-1.,0.));
#719=DIRECTION('',(0.,0.,-1.));
#720=DIRECTION('',(0.,-1.,0.));
#721=DIRECTION('',(1.,0.,0.));
#722=DIRECTION('',(0.,1.,0.));
#723=DIRECTION('',(0.,0.,1.));
#724=DIRECTION('',(-1.,0.,0.));
#725=DIRECTION('',(0.,0.,1.));
#726=DIRECTION('',(-1.,0.,0.));
#727=DIRECTION('',(-3.08395284618099E-16,0.,1.));
#728=DIRECTION('',(0.,0.,1.));
#729=DIRECTION('',(1.,0.,0.));
#730=DIRECTION('',(0.,0.,1.));
#731=DIRECTION('',(1.,0.,0.));
#732=DIRECTION('',(0.,0.,1.));
#733=DIRECTION('',(1.,0.,0.));
#734=DIRECTION('',(0.,0.,1.));
#735=DIRECTION('',(1.,0.,0.));
#736=DIRECTION('',(0.,0.,1.));
#737=DIRECTION('',(1.,0.,0.));
#738=DIRECTION('',(0.,0.,1.));
#739=DIRECTION('',(1.,0.,0.));
#740=DIRECTION('',(0.,0.,1.));
#741=DIRECTION('',(1.,0.,0.));
#742=DIRECTION('',(0.,0.,1.));
#743=DIRECTION('',(1.,0.,0.));
#744=DIRECTION('',(0.,0.,1.));
#745=DIRECTION('',(1.,0.,0.));
#746=DIRECTION('',(0.,0.,1.));
#747=DIRECTION('',(1.,0.,0.));
#748=DIRECTION('',(0.,0.,1.));
#749=DIRECTION('',(1.,0.,0.));
#750=DIRECTION('',(0.,0.,1.));
#751=DIRECTION('',(1.,0.,0.));
#752=DIRECTION('',(0.,0.,1.));
#753=DIRECTION('',(1.,0.,0.));
#754=DIRECTION('',(0.,-1.,0.));
#755=DIRECTION('',(0.,0.,-1.));
#756=DIRECTION('',(0.,-1.,0.));
#757=DIRECTION('',(0.,0.,-1.));
#758=DIRECTION('',(3.08395284618099E-16,0.,-1.));
#759=DIRECTION('',(-1.,0.,-3.08395284618099E-16));
#760=DIRECTION('',(0.,0.,1.));
#761=DIRECTION('',(1.,0.,0.));
#762=DIRECTION('',(0.,0.,1.));
#763=DIRECTION('',(1.,0.,0.));
#764=DIRECTION('',(0.,0.,1.));
#765=DIRECTION('',(1.,0.,0.));
#766=DIRECTION('',(0.,1.,0.));
#767=DIRECTION('',(0.,0.,1.));
#768=DIRECTION('',(0.,-1.,0.));
#769=DIRECTION('',(0.,0.,-1.));
#770=DIRECTION('',(1.,0.,0.));
#771=DIRECTION('',(0.,0.,-1.));
#772=DIRECTION('',(1.,1.5419764230905E-15,0.));
#773=DIRECTION('',(-1.5419764230905E-15,1.,0.));
#774=DIRECTION('',(-1.,0.,0.));
#775=DIRECTION('',(0.,0.,1.));
#776=DIRECTION('',(-1.,0.,0.));
#777=DIRECTION('',(0.,0.,1.));
#778=DIRECTION('',(-1.,0.,0.));
#779=DIRECTION('',(0.,0.,1.));
#780=DIRECTION('',(-1.,0.,0.));
#781=DIRECTION('',(0.,0.,1.));
#782=CARTESIAN_POINT('',(0.,0.,0.));
#783=CARTESIAN_POINT('',(0.0293620148523838,-0.01,0.0332771354288842));
#784=CARTESIAN_POINT('',(0.043720125925233,-0.01,0.0331142472741505));
#785=CARTESIAN_POINT('',(0.043720125925233,-0.01,0.0301142472741505));
#786=CARTESIAN_POINT('',(0.0223240245959343,-0.01,0.045793068445697));
#787=CARTESIAN_POINT('',(0.0223240245959343,-0.01,0.042793068445697));
#788=CARTESIAN_POINT('',(0.0220418940359844,-0.01,0.0209240905668051));
#789=CARTESIAN_POINT('',(0.0220418940359844,-0.01,0.0179240905668051));
#790=CARTESIAN_POINT('',(0.00686201485238387,-0.01,0.0332771354288842));
#791=CARTESIAN_POINT('',(0.00686201485238387,-0.01,0.0492771354288842));
#792=CARTESIAN_POINT('',(0.00686201485238387,-0.01,0.0152771354288842));
#793=CARTESIAN_POINT('',(0.0293620148523838,-0.01,0.0152771354288842));
#794=CARTESIAN_POINT('',(0.0518620148523839,-0.01,0.0152771354288842));
#795=CARTESIAN_POINT('',(0.0518620148523839,-0.01,0.0332771354288842));
#796=CARTESIAN_POINT('',(0.0518620148523839,-0.01,0.0492771354288842));
#797=CARTESIAN_POINT('',(0.0293620148523838,-0.01,0.0492771354288842));
#798=CARTESIAN_POINT('',(0.0220418940359844,-0.01,0.0209240905668051));
#799=CARTESIAN_POINT('',(0.0220418940359844,0.006,0.0209240905668051));
#800=CARTESIAN_POINT('',(0.0220418940359844,0.006,0.019174090566805));
#801=CARTESIAN_POINT('',(0.0220418940359844,-0.004,0.0209240905668051));
#802=CARTESIAN_POINT('',(0.0220418940359844,-0.004,0.019174090566805));
#803=CARTESIAN_POINT('',(0.043720125925233,-0.01,0.0331142472741505));
#804=CARTESIAN_POINT('',(0.043720125925233,0.006,0.0331142472741505));
#805=CARTESIAN_POINT('',(0.043720125925233,0.006,0.0313642472741505));
#806=CARTESIAN_POINT('',(0.043720125925233,-0.004,0.0331142472741505));
#807=CARTESIAN_POINT('',(0.043720125925233,-0.004,0.0313642472741505));
#808=CARTESIAN_POINT('',(0.0223240245959343,-0.01,0.045793068445697));
#809=CARTESIAN_POINT('',(0.0223240245959343,0.006,0.045793068445697));
#810=CARTESIAN_POINT('',(0.0223240245959343,0.006,0.044043068445697));
#811=CARTESIAN_POINT('',(0.0223240245959343,-0.004,0.045793068445697));
#812=CARTESIAN_POINT('',(0.0223240245959343,-0.004,0.044043068445697));
#813=CARTESIAN_POINT('',(0.0293620148523838,0.,0.0332771354288842));
#814=CARTESIAN_POINT('',(0.00686201485238387,0.,0.0332771354288842));
#815=CARTESIAN_POINT('',(0.00686201485238387,0.,0.0126858751469102));
#816=CARTESIAN_POINT('',(0.00686201485238387,0.,0.0107771354288842));
#817=CARTESIAN_POINT('',(0.0293620148523838,0.,0.0332771354288842));
#818=CARTESIAN_POINT('',(0.00877075457040986,0.,0.0107771354288842));
#819=CARTESIAN_POINT('',(0.0293620148523839,0.,0.0107771354288842));
#820=CARTESIAN_POINT('',(0.0518620148523839,-0.01,0.0332771354288842));
#821=CARTESIAN_POINT('',(0.0518620148523839,-0.0055,0.0152771354288842));
#822=CARTESIAN_POINT('',(0.0518620148523839,-0.0055,0.0107771354288842));
#823=CARTESIAN_POINT('',(0.0518620148523839,-0.01,0.0107771354288842));
#824=CARTESIAN_POINT('',(0.0518620148523839,0.,0.0107771354288842));
#825=CARTESIAN_POINT('',(0.0518620148523839,0.,0.0332771354288842));
#826=CARTESIAN_POINT('',(0.0518620148523839,0.,0.0126858751469102));
#827=CARTESIAN_POINT('',(0.0518620148523839,0.,0.0126858751469102));
#828=CARTESIAN_POINT('',(0.0518620148523839,-4.8933384704052E-18,0.0143607355826157));
#829=CARTESIAN_POINT('',(0.0518620148523839,0.000394925218338701,0.0176452725481895));
#830=CARTESIAN_POINT('',(0.0518620148523839,0.00172126400958269,0.0224578454300196));
#831=CARTESIAN_POINT('',(0.0518620148523839,0.00309081403446403,0.0264025289229639));
#832=CARTESIAN_POINT('',(0.0518620148523839,0.00398444336926529,0.0296059936069158));
#833=CARTESIAN_POINT('',(0.0518620148523839,0.00440105897766877,0.0320873575034332));
#834=CARTESIAN_POINT('',(0.0518620148523839,0.00438315237605313,0.0346331479278955));
#835=CARTESIAN_POINT('',(0.0518620148523839,0.00395825421873778,0.0370486918798444));
#836=CARTESIAN_POINT('',(0.0518620148523839,0.00329369604966478,0.039419769612724));
#837=CARTESIAN_POINT('',(0.0518620148523839,0.00227121363706145,0.0425461344806766));
#838=CARTESIAN_POINT('',(0.0518620148523839,0.00100047446307486,0.0464604185842941));
#839=CARTESIAN_POINT('',(0.0518620148523839,0.000333637564008545,0.0496540642779747));
#840=CARTESIAN_POINT('',(0.0518620148523839,0.000150796655579839,0.0512771354288842));
#841=CARTESIAN_POINT('',(0.0518620148523839,0.000150796655579848,0.0512771354288842));
#842=CARTESIAN_POINT('',(0.0518620148523839,-0.055,0.0512771354288842));
#843=CARTESIAN_POINT('',(0.0518620148523839,-0.0505,0.0512771354288842));
#844=CARTESIAN_POINT('',(0.0518620148523839,-0.0505,0.0492771354288842));
#845=CARTESIAN_POINT('',(0.0518620148523839,-0.0505,0.0492771354288842));
#846=CARTESIAN_POINT('',(0.0518620148523839,-0.0325,0.0492771354288842));
#847=CARTESIAN_POINT('',(0.0293620148523838,-0.01,0.0557771354288842));
#848=CARTESIAN_POINT('',(0.0451245779853074,-0.0167374368670765,0.0557771354288842));
#849=CARTESIAN_POINT('',(0.0471245779853074,-0.0167374368670765,0.0557771354288842));
#850=CARTESIAN_POINT('',(0.0135994517194603,-0.0167374368670765,0.0557771354288842));
#851=CARTESIAN_POINT('',(0.0155994517194603,-0.0167374368670765,0.0557771354288842));
#852=CARTESIAN_POINT('',(0.0135994517194603,-0.0482625631329236,0.0557771354288842));
#853=CARTESIAN_POINT('',(0.0155994517194603,-0.0482625631329236,0.0557771354288842));
#854=CARTESIAN_POINT('',(0.0293620148523838,-0.0325,0.0557771354288842));
#855=CARTESIAN_POINT('',(0.0404620148523838,-0.0325,0.0557771354288842));
#856=CARTESIAN_POINT('',(0.0451245779853074,-0.0482625631329236,0.0557771354288842));
#857=CARTESIAN_POINT('',(0.0471245779853074,-0.0482625631329236,0.0557771354288842));
#858=CARTESIAN_POINT('',(0.0293620148523838,-0.0505,0.0557771354288842));
#859=CARTESIAN_POINT('',(0.0113620148523839,-0.0505,0.0557771354288842));
#860=CARTESIAN_POINT('',(0.0473620148523839,-0.0505,0.0557771354288842));
#861=CARTESIAN_POINT('',(0.0473620148523839,0.,0.0557771354288842));
#862=CARTESIAN_POINT('',(0.0473620148523839,0.00015079665557985,0.0557771354288842));
#863=CARTESIAN_POINT('',(0.0473620148523839,0.000150796655579841,0.0557771354288842));
#864=CARTESIAN_POINT('',(0.0458243516151026,0.000324016260280723,0.0557771354288842));
#865=CARTESIAN_POINT('',(0.0427918482688287,0.000942546784634661,0.0557771354288842));
#866=CARTESIAN_POINT('',(0.0383309865746542,0.00235556817772646,0.0557771354288842));
#867=CARTESIAN_POINT('',(0.0346330954126011,0.00360011963535917,0.0557771354288842));
#868=CARTESIAN_POINT('',(0.0315977727210902,0.00426332084560987,0.0557771354288842));
#869=CARTESIAN_POINT('',(0.0292086782254617,0.00444228293416327,0.0557771354288842));
#870=CARTESIAN_POINT('',(0.0269003396976523,0.00422262212579717,0.0557771354288842));
#871=CARTESIAN_POINT('',(0.0239136461662621,0.00354492410680396,0.0557771354288842));
#872=CARTESIAN_POINT('',(0.020267566199225,0.00231225436756309,0.0557771354288842));
#873=CARTESIAN_POINT('',(0.015868165127768,0.000927814259988151,0.0557771354288842));
#874=CARTESIAN_POINT('',(0.0128794639568923,0.000321739114021795,0.0557771354288842));
#875=CARTESIAN_POINT('',(0.0113620148523839,0.000150796655579849,0.0557771354288842));
#876=CARTESIAN_POINT('',(0.0113620148523839,0.00015079665557985,0.0557771354288842));
#877=CARTESIAN_POINT('',(0.0113620148523839,-0.01,0.0557771354288842));
#878=CARTESIAN_POINT('',(0.00686201485238387,-0.01,0.0332771354288842));
#879=CARTESIAN_POINT('',(0.00686201485238387,-0.01,0.0107771354288842));
#880=CARTESIAN_POINT('',(0.00686201485238387,-0.0055,0.0107771354288842));
#881=CARTESIAN_POINT('',(0.00686201485238387,-0.0055,0.0152771354288842));
#882=CARTESIAN_POINT('',(0.00686201485238387,-0.0325,0.0492771354288842));
#883=CARTESIAN_POINT('',(0.00686201485238387,-0.0505,0.0492771354288842));
#884=CARTESIAN_POINT('',(0.00686201485238387,-0.0505,0.0332771354288842));
#885=CARTESIAN_POINT('',(0.00686201485238387,-0.0505,0.0512771354288842));
#886=CARTESIAN_POINT('',(0.00686201485238387,-0.01,0.0512771354288842));
#887=CARTESIAN_POINT('',(0.00686201485238387,0.000150796655579849,0.0512771354288842));
#888=CARTESIAN_POINT('',(0.00686201485238387,0.00015079665557985,0.0512771354288842));
#889=CARTESIAN_POINT('',(0.00686201485238387,0.000336225877111741,0.049631087930048));
#890=CARTESIAN_POINT('',(0.00686201485238387,0.00101793181912251,0.0463873687362606));
#891=CARTESIAN_POINT('',(0.00686201485238387,0.0023156717085491,0.0424164707918526));
#892=CARTESIAN_POINT('',(0.00686201485238387,0.00334897258831085,0.0392427526093437));
#893=CARTESIAN_POINT('',(0.00686201485238387,0.00401026610232621,0.036836770948978));
#894=CARTESIAN_POINT('',(0.00686201485238387,0.00441156075495091,0.0343454301246));
#895=CARTESIAN_POINT('',(0.00686201485238387,0.00435612550200387,0.0309591850635213));
#896=CARTESIAN_POINT('',(0.00686201485238387,0.00329928197592352,0.0270138271093606));
#897=CARTESIAN_POINT('',(0.00686201485238387,0.00168220659874755,0.0223305618919559));
#898=CARTESIAN_POINT('',(0.00686201485238387,0.00038612081862473,0.0175874624375454));
#899=CARTESIAN_POINT('',(0.00686201485238387,-7.15596816919132E-19,0.0143423294977874));
#900=CARTESIAN_POINT('',(0.00686201485238387,4.94293814386383E-19,0.0126858751469102));
#901=CARTESIAN_POINT('',(0.0293620148523839,-0.01,0.0107771354288842));
#902=CARTESIAN_POINT('',(0.0293620148523839,-0.0055,0.0107771354288842));
#903=CARTESIAN_POINT('',(0.00877075457040986,0.,0.0107771354288842));
#904=CARTESIAN_POINT('',(0.0105559873309631,6.51975827329389E-19,0.0107771354288842));
#905=CARTESIAN_POINT('',(0.0140529408228865,0.000446810627679686,0.0107771354288842));
#906=CARTESIAN_POINT('',(0.0183179468427932,0.00168076417127499,0.0107771354288842));
#907=CARTESIAN_POINT('',(0.0216914551522306,0.00280030181473485,0.0107771354288842));
#908=CARTESIAN_POINT('',(0.0242346035359579,0.00360287849479936,0.0107771354288842));
#909=CARTESIAN_POINT('',(0.0268127027491022,0.00422714771101421,0.0107771354288842));
#910=CARTESIAN_POINT('',(0.0295344099247319,0.00446262929007749,0.0107771354288842));
#911=CARTESIAN_POINT('',(0.0321604586888647,0.00417638752416521,0.0107771354288842));
#912=CARTESIAN_POINT('',(0.0355472371403649,0.00332749774434347,0.0107771354288842));
#913=CARTESIAN_POINT('',(0.0396953626340305,0.00187708826062966,0.0107771354288842));
#914=CARTESIAN_POINT('',(0.0447378503359434,0.000437284228753755,0.0107771354288842));
#915=CARTESIAN_POINT('',(0.0481891150595913,-4.67242866420587E-18,0.0107771354288842));
#916=CARTESIAN_POINT('',(0.0499532751343579,-8.06748794211809E-19,0.0107771354288842));
#917=CARTESIAN_POINT('',(0.0499532751343579,0.,0.0107771354288842));
#918=CARTESIAN_POINT('',(0.0293620148523839,0.,0.0107771354288842));
#919=CARTESIAN_POINT('',(0.0293620148523838,0.,0.0332771354288842));
#920=CARTESIAN_POINT('',(0.0293620148523838,0.,0.0332771354288842));
#921=CARTESIAN_POINT('',(0.0293620148523838,0.006,0.0332771354288842));
#922=CARTESIAN_POINT('',(0.0293620148523838,0.006,0.0332771354288842));
#923=CARTESIAN_POINT('',(0.0293620148523838,0.006,0.011608896295212));
#924=CARTESIAN_POINT('',(0.0293620148523838,0.0095,0.0332771354288842));
#925=CARTESIAN_POINT('',(0.0473620148523839,0.00015079665557985,0.0557771354288842));
#926=CARTESIAN_POINT('',(0.0485448322211887,1.75508628144819E-5,0.0557771354288842));
#927=CARTESIAN_POINT('',(0.0508825722745067,1.36373480949809E-5,0.0548017391632575));
#928=CARTESIAN_POINT('',(0.0518620148523839,1.75637251254551E-5,0.0524598386194887));
#929=CARTESIAN_POINT('',(0.0518620148523839,0.000150796655579848,0.0512771354288842));
#930=CARTESIAN_POINT('',(0.00686201485238387,0.000150796655579849,0.0512771354288842));
#931=CARTESIAN_POINT('',(0.00686201485238387,1.75508628144777E-5,0.052459952797689));
#932=CARTESIAN_POINT('',(0.00783741111801054,1.36373480949864E-5,0.054797692851007));
#933=CARTESIAN_POINT('',(0.0101793116617794,1.75637251254539E-5,0.0557771354288842));
#934=CARTESIAN_POINT('',(0.0113620148523839,0.00015079665557985,0.0557771354288842));
#935=CARTESIAN_POINT('',(0.0220418940359844,-0.004,0.0209240905668051));
#936=CARTESIAN_POINT('',(0.0220418940359844,-0.004,0.0209240905668051));
#937=CARTESIAN_POINT('',(0.0220418940359844,-0.004,0.0179240905668051));
#938=CARTESIAN_POINT('',(0.0293620148523839,-0.004,0.0332771354288842));
#939=CARTESIAN_POINT('',(0.0223240245959343,-0.004,0.045793068445697));
#940=CARTESIAN_POINT('',(0.0223240245959343,-0.004,0.045793068445697));
#941=CARTESIAN_POINT('',(0.0223240245959343,-0.004,0.042793068445697));
#942=CARTESIAN_POINT('',(0.0293620148523839,-0.004,0.0332771354288842));
#943=CARTESIAN_POINT('',(0.043720125925233,-0.004,0.0331142472741505));
#944=CARTESIAN_POINT('',(0.043720125925233,-0.004,0.0331142472741505));
#945=CARTESIAN_POINT('',(0.043720125925233,-0.004,0.0301142472741505));
#946=CARTESIAN_POINT('',(0.0293620148523839,-0.004,0.0332771354288842));
#947=CARTESIAN_POINT('',(0.0293620148523839,-0.055,0.0492771354288842));
#948=CARTESIAN_POINT('',(0.0293620148523839,-0.055,0.0512771354288842));
#949=CARTESIAN_POINT('',(0.0473620148523839,-0.055,0.0512771354288842));
#950=CARTESIAN_POINT('',(0.0113620148523839,-0.055,0.0512771354288842));
#951=CARTESIAN_POINT('',(0.0113620148523839,-0.055,0.0492771354288842));
#952=CARTESIAN_POINT('',(0.0113620148523839,-0.055,0.0492771354288842));
#953=CARTESIAN_POINT('',(0.0293620148523839,-0.055,0.0492771354288842));
#954=CARTESIAN_POINT('',(0.0473620148523839,-0.055,0.0492771354288842));
#955=CARTESIAN_POINT('',(0.0473620148523839,-0.055,0.0557771354288842));
#956=CARTESIAN_POINT('',(0.0293620148523838,-0.0236666887366164,0.0492771354288842));
#957=CARTESIAN_POINT('',(0.0451245779853074,-0.0167374368670765,0.0492771354288842));
#958=CARTESIAN_POINT('',(0.0471245779853074,-0.0167374368670765,0.0492771354288842));
#959=CARTESIAN_POINT('',(0.0135994517194603,-0.0167374368670765,0.0492771354288842));
#960=CARTESIAN_POINT('',(0.0155994517194603,-0.0167374368670765,0.0492771354288842));
#961=CARTESIAN_POINT('',(0.0135994517194603,-0.0482625631329236,0.0492771354288842));
#962=CARTESIAN_POINT('',(0.0155994517194603,-0.0482625631329236,0.0492771354288842));
#963=CARTESIAN_POINT('',(0.0293620148523838,-0.0325,0.0492771354288842));
#964=CARTESIAN_POINT('',(0.0404620148523838,-0.0325,0.0492771354288842));
#965=CARTESIAN_POINT('',(0.0451245779853074,-0.0482625631329236,0.0492771354288842));
#966=CARTESIAN_POINT('',(0.0471245779853074,-0.0482625631329236,0.0492771354288842));
#967=CARTESIAN_POINT('',(0.0113620148523839,-0.0505,0.0492771354288842));
#968=CARTESIAN_POINT('',(0.0473620148523839,-0.0505,0.0492771354288842));
#969=CARTESIAN_POINT('',(0.0451245779853074,-0.0482625631329236,0.0307771354288842));
#970=CARTESIAN_POINT('',(0.0293620148523838,-0.0325,0.0307771354288842));
#971=CARTESIAN_POINT('',(0.0135994517194603,-0.0482625631329236,0.0307771354288842));
#972=CARTESIAN_POINT('',(0.0135994517194603,-0.0167374368670765,0.0307771354288842));
#973=CARTESIAN_POINT('',(0.0451245779853074,-0.0167374368670765,0.0307771354288842));
#974=CARTESIAN_POINT('',(0.0473620148523839,-0.01,0.0512771354288842));
#975=CARTESIAN_POINT('',(0.0473620148523839,-0.0505,0.0512771354288842));
#976=CARTESIAN_POINT('',(0.0473620148523839,-0.0505,0.0492771354288842));
#977=CARTESIAN_POINT('',(0.0473620148523839,-0.0505,0.0512771354288842));
#978=CARTESIAN_POINT('',(0.0113620148523839,-0.0505,0.0332771354288842));
#979=CARTESIAN_POINT('',(0.0113620148523839,-0.0505,0.0512771354288842));
#980=CARTESIAN_POINT('',(0.0113620148523839,-0.01,0.0512771354288842));
#981=CARTESIAN_POINT('',(0.0113620148523839,-0.0505,0.0512771354288842));
#982=CARTESIAN_POINT('',(0.0473620148523839,-0.0505,0.0512771354288842));
#983=CARTESIAN_POINT('',(0.0473620148523839,-0.0505,0.0512771354288842));
#984=CARTESIAN_POINT('',(0.0113620148523839,-0.0505,0.0512771354288842));
#985=CARTESIAN_POINT('',(0.0113620148523839,-0.0505,0.0512771354288842));
#986=CARTESIAN_POINT('',(0.0293620148523839,-0.0505,0.0512771354288842));
#987=CARTESIAN_POINT('',(0.0293620148523839,-0.0055,0.0152771354288842));
#988=MECHANICAL_DESIGN_GEOMETRIC_PRESENTATION_REPRESENTATION('',(#540),
#989);
#989=(
GEOMETRIC_REPRESENTATION_CONTEXT(3)
GLOBAL_UNCERTAINTY_ASSIGNED_CONTEXT((#990))
GLOBAL_UNIT_ASSIGNED_CONTEXT((#993,#992,#991))
REPRESENTATION_CONTEXT('Part 1','TOP_LEVEL_ASSEMBLY_PART')
);
#990=UNCERTAINTY_MEASURE_WITH_UNIT(LENGTH_MEASURE(2.E-5),#993,
'DISTANCE_ACCURACY_VALUE','Maximum Tolerance applied to model');
#991=(
NAMED_UNIT(*)
SI_UNIT($,.STERADIAN.)
SOLID_ANGLE_UNIT()
);
#992=(
NAMED_UNIT(*)
PLANE_ANGLE_UNIT()
SI_UNIT($,.RADIAN.)
);
#993=(
LENGTH_UNIT()
NAMED_UNIT(*)
SI_UNIT($,.METRE.)
);
#994=PRODUCT_DEFINITION_SHAPE('','',#995);
#995=PRODUCT_DEFINITION('','',#997,#996);
#996=PRODUCT_DEFINITION_CONTEXT('',#1003,'design');
#997=PRODUCT_DEFINITION_FORMATION_WITH_SPECIFIED_SOURCE('','',#999,
 .NOT_KNOWN.);
#998=PRODUCT_RELATED_PRODUCT_CATEGORY('','',(#999));
#999=PRODUCT('Part 1','Part 1','Part 1',(#1001));
#1000=PRODUCT_CATEGORY('','');
#1001=PRODUCT_CONTEXT('',#1003,'mechanical');
#1002=APPLICATION_PROTOCOL_DEFINITION('international standard',
'ap242_managed_model_based_3d_engineering',2020,#1003);
#1003=APPLICATION_CONTEXT('managed model based 3d engineering');
ENDSEC;
END-ISO-10303-21;
