ISO-10303-21;
HEADER;
/* Generated by software containing ST-Developer
 * from STEP Tools, Inc. (www.steptools.com) 
 */
/* OPTION: using custom renumber hook */

FILE_DESCRIPTION(
/* description */ ('STEP AP242 Edition 2',
'CAx-IF Rec.Pracs.---Representation and Presentation of Product Manufa
cturing Information (PMI)---4.0---2014-10-13',
'CAx-IF Rec.Pracs.---3D Tessellated Geometry---0.4---2014-09-14','2;1',
'CAx-IF Rec.Pracs.---User Defined Attributes---1.5---2016-08-15'),
/* implementation_level */ '2;1');

FILE_NAME(
/* name */ 'nema17 bracket',
/* time_stamp */ '2026-08-19T18:12:41Z',
/* author */ (''),
/* organization */ (''),
/* preprocessor_version */ 'ST-DEVELOPER v20',
/* originating_system */ 'ONSHAPE BY PTC INC, 1.219',
/* authorisation */ '  ');

FILE_SCHEMA (('AP242_MANAGED_MODEL_BASED_3D_ENGINEERING_MIM_LF { 1 0 10303 442 3 1 4 }'));
ENDSEC;

DATA;
#10=SHAPE_REPRESENTATION_RELATIONSHIP('','',#912,#11);
#11=ADVANCED_BREP_SHAPE_REPRESENTATION('',(#910),#1546);
#12=TOROIDAL_SURFACE('',#981,0.0168578643762691,0.01);
#13=(
BOUNDED_SURFACE()
B_SPLINE_SURFACE(3,2,((#1483,#1484,#1485),(#1486,#1487,#1488),(#1489,#1490,
#1491),(#1492,#1493,#1494),(#1495,#1496,#1497),(#1498,#1499,#1500),(#1501,
#1502,#1503),(#1504,#1505,#1506),(#1507,#1508,#1509),(#1510,#1511,#1512),
(#1513,#1514,#1515),(#1516,#1517,#1518),(#1519,#1520,#1521),(#1522,#1523,
#1524),(#1525,#1526,#1527)),.UNSPECIFIED.,.F.,.F.,.F.)
B_SPLINE_SURFACE_WITH_KNOTS((4,1,1,1,1,1,1,1,1,1,1,1,4),(3,3),(0.0475633935073931,
0.0523223240569024,0.0570812546064117,0.0594607198811663,0.061840185155921,
0.0642196504306756,0.0665991157054303,0.0689785809801849,0.0713580462549396,
0.0737375115296942,0.0761169768044489,0.0808759073539582,0.0856348379034675),
(0.,1.),.UNSPECIFIED.)
GEOMETRIC_REPRESENTATION_ITEM()
RATIONAL_B_SPLINE_SURFACE(((1.,0.837137899384228,1.),(1.,0.843162747345101,
1.),(1.,0.856648863337839,1.),(1.,0.877827914646757,1.),(1.,0.896632940617783,
1.),(1.,0.910203762155969,1.),(1.,0.921074551447162,1.),(1.,0.925344339754336,
1.),(1.,0.92081639460004,1.),(1.,0.909788268796296,1.),(1.,0.896210935618697,
1.),(1.,0.877444286662431,1.),(1.,0.856434475877485,1.),(1.,0.843112870948172,
1.),(1.,0.837146314270297,1.)))
REPRESENTATION_ITEM('')
SURFACE()
);
#14=CONICAL_SURFACE('',#976,0.021,0.785398163397448);
#15=B_SPLINE_CURVE_WITH_KNOTS('',3,(#1420,#1421,#1422,#1423,#1424,#1425,
#1426),.UNSPECIFIED.,.F.,.F.,(4,1,1,1,4),(0.,0.00444588466479626,0.00889176932959251,
0.0133376539943888,0.017783538659185),.UNSPECIFIED.);
#16=B_SPLINE_CURVE_WITH_KNOTS('',3,(#1430,#1431,#1432,#1433,#1434,#1435,
#1436),.UNSPECIFIED.,.F.,.F.,(4,1,1,1,4),(0.,0.00446519341944962,0.00893038683889924,
0.0133955802583489,0.0178607736777985),.UNSPECIFIED.);
#17=B_SPLINE_CURVE_WITH_KNOTS('',3,(#1457,#1458,#1459,#1460),
 .UNSPECIFIED.,.F.,.F.,(4,4),(4.10510499419787E-17,0.00550327385817136),
 .UNSPECIFIED.);
#18=B_SPLINE_CURVE_WITH_KNOTS('',3,(#1464,#1465,#1466,#1467),
 .UNSPECIFIED.,.F.,.F.,(4,4),(0.0430951187979143,0.0485875083360525),
 .UNSPECIFIED.);
#19=B_SPLINE_CURVE_WITH_KNOTS('',3,(#1469,#1470,#1471,#1472,#1473,#1474,
#1475),.UNSPECIFIED.,.F.,.F.,(4,1,1,1,4),(0.,0.0030793139483947,0.0061586278967894,
0.0092379418451841,0.0123172557935788),.UNSPECIFIED.);
#20=B_SPLINE_CURVE_WITH_KNOTS('',3,(#1528,#1529,#1530,#1531,#1532,#1533,
#1534,#1535,#1536,#1537,#1538,#1539,#1540),.UNSPECIFIED.,.F.,.F.,(4,1,1,
1,1,1,1,1,1,1,4),(-2.63086706791265E-5,0.00229205878883872,0.00461042624835657,
0.00692879370787442,0.00924716116739226,0.013883896086428,0.0185206310054637,
0.0231573659244993,0.027794100843535,0.0324308357625707,0.0370675706816064),
 .UNSPECIFIED.);
#21=CYLINDRICAL_SURFACE('',#921,0.002);
#22=CYLINDRICAL_SURFACE('',#924,0.002);
#23=CYLINDRICAL_SURFACE('',#927,0.002);
#24=CYLINDRICAL_SURFACE('',#930,0.002);
#25=CYLINDRICAL_SURFACE('',#933,0.0111);
#26=CYLINDRICAL_SURFACE('',#967,0.005);
#27=CYLINDRICAL_SURFACE('',#968,0.00175);
#28=CYLINDRICAL_SURFACE('',#970,0.00175);
#29=CYLINDRICAL_SURFACE('',#972,0.00175);
#30=CYLINDRICAL_SURFACE('',#982,0.01);
#31=CYLINDRICAL_SURFACE('',#983,0.01);
#32=CYLINDRICAL_SURFACE('',#984,0.01);
#33=LINE('',#1223,#119);
#34=LINE('',#1228,#120);
#35=LINE('',#1230,#121);
#36=LINE('',#1232,#122);
#37=LINE('',#1234,#123);
#38=LINE('',#1238,#124);
#39=LINE('',#1267,#125);
#40=LINE('',#1270,#126);
#41=LINE('',#1272,#127);
#42=LINE('',#1274,#128);
#43=LINE('',#1276,#129);
#44=LINE('',#1277,#130);
#45=LINE('',#1280,#131);
#46=LINE('',#1282,#132);
#47=LINE('',#1284,#133);
#48=LINE('',#1286,#134);
#49=LINE('',#1288,#135);
#50=LINE('',#1289,#136);
#51=LINE('',#1292,#137);
#52=LINE('',#1294,#138);
#53=LINE('',#1296,#139);
#54=LINE('',#1298,#140);
#55=LINE('',#1300,#141);
#56=LINE('',#1301,#142);
#57=LINE('',#1304,#143);
#58=LINE('',#1306,#144);
#59=LINE('',#1308,#145);
#60=LINE('',#1310,#146);
#61=LINE('',#1312,#147);
#62=LINE('',#1314,#148);
#63=LINE('',#1316,#149);
#64=LINE('',#1318,#150);
#65=LINE('',#1320,#151);
#66=LINE('',#1323,#152);
#67=LINE('',#1325,#153);
#68=LINE('',#1327,#154);
#69=LINE('',#1329,#155);
#70=LINE('',#1331,#156);
#71=LINE('',#1333,#157);
#72=LINE('',#1336,#158);
#73=LINE('',#1338,#159);
#74=LINE('',#1340,#160);
#75=LINE('',#1342,#161);
#76=LINE('',#1344,#162);
#77=LINE('',#1346,#163);
#78=LINE('',#1348,#164);
#79=LINE('',#1350,#165);
#80=LINE('',#1352,#166);
#81=LINE('',#1354,#167);
#82=LINE('',#1356,#168);
#83=LINE('',#1358,#169);
#84=LINE('',#1360,#170);
#85=LINE('',#1362,#171);
#86=LINE('',#1364,#172);
#87=LINE('',#1366,#173);
#88=LINE('',#1368,#174);
#89=LINE('',#1370,#175);
#90=LINE('',#1372,#176);
#91=LINE('',#1374,#177);
#92=LINE('',#1376,#178);
#93=LINE('',#1378,#179);
#94=LINE('',#1380,#180);
#95=LINE('',#1382,#181);
#96=LINE('',#1384,#182);
#97=LINE('',#1386,#183);
#98=LINE('',#1388,#184);
#99=LINE('',#1390,#185);
#100=LINE('',#1392,#186);
#101=LINE('',#1394,#187);
#102=LINE('',#1396,#188);
#103=LINE('',#1398,#189);
#104=LINE('',#1400,#190);
#105=LINE('',#1402,#191);
#106=LINE('',#1404,#192);
#107=LINE('',#1406,#193);
#108=LINE('',#1408,#194);
#109=LINE('',#1410,#195);
#110=LINE('',#1414,#196);
#111=LINE('',#1418,#197);
#112=LINE('',#1438,#198);
#113=LINE('',#1442,#199);
#114=LINE('',#1476,#200);
#115=LINE('',#1477,#201);
#116=LINE('',#1479,#202);
#117=LINE('',#1480,#203);
#118=LINE('',#1482,#204);
#119=VECTOR('',#995,1.);
#120=VECTOR('',#998,1.);
#121=VECTOR('',#999,1.);
#122=VECTOR('',#1000,1.);
#123=VECTOR('',#1001,1.);
#124=VECTOR('',#1004,1.);
#125=VECTOR('',#1039,1.);
#126=VECTOR('',#1040,1.);
#127=VECTOR('',#1041,1.);
#128=VECTOR('',#1042,1.);
#129=VECTOR('',#1043,1.);
#130=VECTOR('',#1044,1.);
#131=VECTOR('',#1045,1.);
#132=VECTOR('',#1046,1.);
#133=VECTOR('',#1047,1.);
#134=VECTOR('',#1048,1.);
#135=VECTOR('',#1049,1.);
#136=VECTOR('',#1050,1.);
#137=VECTOR('',#1051,1.);
#138=VECTOR('',#1052,1.);
#139=VECTOR('',#1053,1.);
#140=VECTOR('',#1054,1.);
#141=VECTOR('',#1055,1.);
#142=VECTOR('',#1056,1.);
#143=VECTOR('',#1057,1.);
#144=VECTOR('',#1058,1.);
#145=VECTOR('',#1059,1.);
#146=VECTOR('',#1060,1.);
#147=VECTOR('',#1061,1.);
#148=VECTOR('',#1064,1.);
#149=VECTOR('',#1065,1.);
#150=VECTOR('',#1066,1.);
#151=VECTOR('',#1069,1.);
#152=VECTOR('',#1070,1.);
#153=VECTOR('',#1073,1.);
#154=VECTOR('',#1076,1.);
#155=VECTOR('',#1077,1.);
#156=VECTOR('',#1078,1.);
#157=VECTOR('',#1079,1.);
#158=VECTOR('',#1084,1.);
#159=VECTOR('',#1087,1.);
#160=VECTOR('',#1088,1.);
#161=VECTOR('',#1089,1.);
#162=VECTOR('',#1092,1.);
#163=VECTOR('',#1093,1.);
#164=VECTOR('',#1096,1.);
#165=VECTOR('',#1097,1.);
#166=VECTOR('',#1100,1.);
#167=VECTOR('',#1101,1.);
#168=VECTOR('',#1104,1.);
#169=VECTOR('',#1105,1.);
#170=VECTOR('',#1108,1.);
#171=VECTOR('',#1111,1.);
#172=VECTOR('',#1112,1.);
#173=VECTOR('',#1113,1.);
#174=VECTOR('',#1116,1.);
#175=VECTOR('',#1117,1.);
#176=VECTOR('',#1120,1.);
#177=VECTOR('',#1121,1.);
#178=VECTOR('',#1124,1.);
#179=VECTOR('',#1125,1.);
#180=VECTOR('',#1128,1.);
#181=VECTOR('',#1129,1.);
#182=VECTOR('',#1132,1.);
#183=VECTOR('',#1135,1.);
#184=VECTOR('',#1136,1.);
#185=VECTOR('',#1137,1.);
#186=VECTOR('',#1140,1.);
#187=VECTOR('',#1141,1.);
#188=VECTOR('',#1144,1.);
#189=VECTOR('',#1145,1.);
#190=VECTOR('',#1148,1.);
#191=VECTOR('',#1149,1.);
#192=VECTOR('',#1152,1.);
#193=VECTOR('',#1153,1.);
#194=VECTOR('',#1156,1.);
#195=VECTOR('',#1159,1.);
#196=VECTOR('',#1164,1.);
#197=VECTOR('',#1167,1.);
#198=VECTOR('',#1170,1.);
#199=VECTOR('',#1173,1.);
#200=VECTOR('',#1198,1.);
#201=VECTOR('',#1199,1.);
#202=VECTOR('',#1202,1.);
#203=VECTOR('',#1203,1.);
#204=VECTOR('',#1206,1.);
#205=ORIENTED_EDGE('',*,*,#443,.T.);
#206=ORIENTED_EDGE('',*,*,#444,.T.);
#207=ORIENTED_EDGE('',*,*,#445,.T.);
#208=ORIENTED_EDGE('',*,*,#446,.T.);
#209=ORIENTED_EDGE('',*,*,#447,.T.);
#210=ORIENTED_EDGE('',*,*,#448,.T.);
#211=ORIENTED_EDGE('',*,*,#449,.T.);
#212=ORIENTED_EDGE('',*,*,#450,.F.);
#213=ORIENTED_EDGE('',*,*,#451,.T.);
#214=ORIENTED_EDGE('',*,*,#452,.T.);
#215=ORIENTED_EDGE('',*,*,#453,.F.);
#216=ORIENTED_EDGE('',*,*,#454,.T.);
#217=ORIENTED_EDGE('',*,*,#455,.T.);
#218=ORIENTED_EDGE('',*,*,#456,.F.);
#219=ORIENTED_EDGE('',*,*,#457,.T.);
#220=ORIENTED_EDGE('',*,*,#458,.F.);
#221=ORIENTED_EDGE('',*,*,#459,.T.);
#222=ORIENTED_EDGE('',*,*,#460,.F.);
#223=ORIENTED_EDGE('',*,*,#461,.T.);
#224=ORIENTED_EDGE('',*,*,#462,.F.);
#225=ORIENTED_EDGE('',*,*,#463,.T.);
#226=ORIENTED_EDGE('',*,*,#464,.F.);
#227=ORIENTED_EDGE('',*,*,#465,.T.);
#228=ORIENTED_EDGE('',*,*,#466,.T.);
#229=ORIENTED_EDGE('',*,*,#467,.T.);
#230=ORIENTED_EDGE('',*,*,#468,.T.);
#231=ORIENTED_EDGE('',*,*,#469,.T.);
#232=ORIENTED_EDGE('',*,*,#470,.F.);
#233=ORIENTED_EDGE('',*,*,#471,.F.);
#234=ORIENTED_EDGE('',*,*,#472,.F.);
#235=ORIENTED_EDGE('',*,*,#473,.F.);
#236=ORIENTED_EDGE('',*,*,#474,.F.);
#237=ORIENTED_EDGE('',*,*,#475,.F.);
#238=ORIENTED_EDGE('',*,*,#476,.F.);
#239=ORIENTED_EDGE('',*,*,#477,.F.);
#240=ORIENTED_EDGE('',*,*,#478,.F.);
#241=ORIENTED_EDGE('',*,*,#479,.F.);
#242=ORIENTED_EDGE('',*,*,#480,.F.);
#243=ORIENTED_EDGE('',*,*,#481,.F.);
#244=ORIENTED_EDGE('',*,*,#482,.F.);
#245=ORIENTED_EDGE('',*,*,#483,.F.);
#246=ORIENTED_EDGE('',*,*,#484,.F.);
#247=ORIENTED_EDGE('',*,*,#485,.F.);
#248=ORIENTED_EDGE('',*,*,#486,.F.);
#249=ORIENTED_EDGE('',*,*,#487,.F.);
#250=ORIENTED_EDGE('',*,*,#461,.F.);
#251=ORIENTED_EDGE('',*,*,#459,.F.);
#252=ORIENTED_EDGE('',*,*,#457,.F.);
#253=ORIENTED_EDGE('',*,*,#455,.F.);
#254=ORIENTED_EDGE('',*,*,#463,.F.);
#255=ORIENTED_EDGE('',*,*,#469,.F.);
#256=ORIENTED_EDGE('',*,*,#488,.F.);
#257=ORIENTED_EDGE('',*,*,#489,.T.);
#258=ORIENTED_EDGE('',*,*,#490,.T.);
#259=ORIENTED_EDGE('',*,*,#491,.T.);
#260=ORIENTED_EDGE('',*,*,#492,.T.);
#261=ORIENTED_EDGE('',*,*,#450,.T.);
#262=ORIENTED_EDGE('',*,*,#493,.T.);
#263=ORIENTED_EDGE('',*,*,#465,.F.);
#264=ORIENTED_EDGE('',*,*,#490,.F.);
#265=ORIENTED_EDGE('',*,*,#494,.T.);
#266=ORIENTED_EDGE('',*,*,#448,.F.);
#267=ORIENTED_EDGE('',*,*,#495,.T.);
#268=ORIENTED_EDGE('',*,*,#496,.F.);
#269=ORIENTED_EDGE('',*,*,#497,.T.);
#270=ORIENTED_EDGE('',*,*,#498,.T.);
#271=ORIENTED_EDGE('',*,*,#467,.F.);
#272=ORIENTED_EDGE('',*,*,#499,.T.);
#273=ORIENTED_EDGE('',*,*,#468,.F.);
#274=ORIENTED_EDGE('',*,*,#498,.F.);
#275=ORIENTED_EDGE('',*,*,#500,.T.);
#276=ORIENTED_EDGE('',*,*,#488,.T.);
#277=ORIENTED_EDGE('',*,*,#482,.T.);
#278=ORIENTED_EDGE('',*,*,#501,.T.);
#279=ORIENTED_EDGE('',*,*,#502,.F.);
#280=ORIENTED_EDGE('',*,*,#503,.F.);
#281=ORIENTED_EDGE('',*,*,#483,.T.);
#282=ORIENTED_EDGE('',*,*,#503,.T.);
#283=ORIENTED_EDGE('',*,*,#504,.F.);
#284=ORIENTED_EDGE('',*,*,#505,.F.);
#285=ORIENTED_EDGE('',*,*,#484,.T.);
#286=ORIENTED_EDGE('',*,*,#505,.T.);
#287=ORIENTED_EDGE('',*,*,#506,.F.);
#288=ORIENTED_EDGE('',*,*,#507,.F.);
#289=ORIENTED_EDGE('',*,*,#485,.T.);
#290=ORIENTED_EDGE('',*,*,#507,.T.);
#291=ORIENTED_EDGE('',*,*,#508,.F.);
#292=ORIENTED_EDGE('',*,*,#509,.F.);
#293=ORIENTED_EDGE('',*,*,#486,.T.);
#294=ORIENTED_EDGE('',*,*,#509,.T.);
#295=ORIENTED_EDGE('',*,*,#510,.F.);
#296=ORIENTED_EDGE('',*,*,#511,.F.);
#297=ORIENTED_EDGE('',*,*,#487,.T.);
#298=ORIENTED_EDGE('',*,*,#511,.T.);
#299=ORIENTED_EDGE('',*,*,#512,.F.);
#300=ORIENTED_EDGE('',*,*,#501,.F.);
#301=ORIENTED_EDGE('',*,*,#476,.T.);
#302=ORIENTED_EDGE('',*,*,#513,.T.);
#303=ORIENTED_EDGE('',*,*,#514,.F.);
#304=ORIENTED_EDGE('',*,*,#515,.F.);
#305=ORIENTED_EDGE('',*,*,#477,.T.);
#306=ORIENTED_EDGE('',*,*,#515,.T.);
#307=ORIENTED_EDGE('',*,*,#516,.F.);
#308=ORIENTED_EDGE('',*,*,#517,.F.);
#309=ORIENTED_EDGE('',*,*,#478,.T.);
#310=ORIENTED_EDGE('',*,*,#517,.T.);
#311=ORIENTED_EDGE('',*,*,#518,.F.);
#312=ORIENTED_EDGE('',*,*,#519,.F.);
#313=ORIENTED_EDGE('',*,*,#479,.T.);
#314=ORIENTED_EDGE('',*,*,#519,.T.);
#315=ORIENTED_EDGE('',*,*,#520,.F.);
#316=ORIENTED_EDGE('',*,*,#521,.F.);
#317=ORIENTED_EDGE('',*,*,#480,.T.);
#318=ORIENTED_EDGE('',*,*,#521,.T.);
#319=ORIENTED_EDGE('',*,*,#522,.F.);
#320=ORIENTED_EDGE('',*,*,#523,.F.);
#321=ORIENTED_EDGE('',*,*,#481,.T.);
#322=ORIENTED_EDGE('',*,*,#523,.T.);
#323=ORIENTED_EDGE('',*,*,#524,.F.);
#324=ORIENTED_EDGE('',*,*,#513,.F.);
#325=ORIENTED_EDGE('',*,*,#470,.T.);
#326=ORIENTED_EDGE('',*,*,#525,.T.);
#327=ORIENTED_EDGE('',*,*,#526,.F.);
#328=ORIENTED_EDGE('',*,*,#527,.F.);
#329=ORIENTED_EDGE('',*,*,#471,.T.);
#330=ORIENTED_EDGE('',*,*,#527,.T.);
#331=ORIENTED_EDGE('',*,*,#528,.F.);
#332=ORIENTED_EDGE('',*,*,#529,.F.);
#333=ORIENTED_EDGE('',*,*,#472,.T.);
#334=ORIENTED_EDGE('',*,*,#529,.T.);
#335=ORIENTED_EDGE('',*,*,#530,.F.);
#336=ORIENTED_EDGE('',*,*,#531,.F.);
#337=ORIENTED_EDGE('',*,*,#473,.T.);
#338=ORIENTED_EDGE('',*,*,#531,.T.);
#339=ORIENTED_EDGE('',*,*,#532,.F.);
#340=ORIENTED_EDGE('',*,*,#533,.F.);
#341=ORIENTED_EDGE('',*,*,#474,.T.);
#342=ORIENTED_EDGE('',*,*,#533,.T.);
#343=ORIENTED_EDGE('',*,*,#534,.F.);
#344=ORIENTED_EDGE('',*,*,#535,.F.);
#345=ORIENTED_EDGE('',*,*,#475,.T.);
#346=ORIENTED_EDGE('',*,*,#535,.T.);
#347=ORIENTED_EDGE('',*,*,#536,.F.);
#348=ORIENTED_EDGE('',*,*,#525,.F.);
#349=ORIENTED_EDGE('',*,*,#526,.T.);
#350=ORIENTED_EDGE('',*,*,#536,.T.);
#351=ORIENTED_EDGE('',*,*,#534,.T.);
#352=ORIENTED_EDGE('',*,*,#532,.T.);
#353=ORIENTED_EDGE('',*,*,#530,.T.);
#354=ORIENTED_EDGE('',*,*,#528,.T.);
#355=ORIENTED_EDGE('',*,*,#514,.T.);
#356=ORIENTED_EDGE('',*,*,#524,.T.);
#357=ORIENTED_EDGE('',*,*,#522,.T.);
#358=ORIENTED_EDGE('',*,*,#520,.T.);
#359=ORIENTED_EDGE('',*,*,#518,.T.);
#360=ORIENTED_EDGE('',*,*,#516,.T.);
#361=ORIENTED_EDGE('',*,*,#502,.T.);
#362=ORIENTED_EDGE('',*,*,#512,.T.);
#363=ORIENTED_EDGE('',*,*,#510,.T.);
#364=ORIENTED_EDGE('',*,*,#508,.T.);
#365=ORIENTED_EDGE('',*,*,#506,.T.);
#366=ORIENTED_EDGE('',*,*,#504,.T.);
#367=ORIENTED_EDGE('',*,*,#462,.T.);
#368=ORIENTED_EDGE('',*,*,#460,.T.);
#369=ORIENTED_EDGE('',*,*,#458,.T.);
#370=ORIENTED_EDGE('',*,*,#456,.T.);
#371=ORIENTED_EDGE('',*,*,#464,.T.);
#372=ORIENTED_EDGE('',*,*,#489,.F.);
#373=ORIENTED_EDGE('',*,*,#500,.F.);
#374=ORIENTED_EDGE('',*,*,#497,.F.);
#375=ORIENTED_EDGE('',*,*,#537,.T.);
#376=ORIENTED_EDGE('',*,*,#494,.F.);
#377=ORIENTED_EDGE('',*,*,#496,.T.);
#378=ORIENTED_EDGE('',*,*,#538,.T.);
#379=ORIENTED_EDGE('',*,*,#539,.T.);
#380=ORIENTED_EDGE('',*,*,#540,.T.);
#381=ORIENTED_EDGE('',*,*,#541,.T.);
#382=ORIENTED_EDGE('',*,*,#542,.T.);
#383=ORIENTED_EDGE('',*,*,#543,.T.);
#384=ORIENTED_EDGE('',*,*,#544,.T.);
#385=ORIENTED_EDGE('',*,*,#545,.T.);
#386=ORIENTED_EDGE('',*,*,#546,.T.);
#387=ORIENTED_EDGE('',*,*,#547,.T.);
#388=ORIENTED_EDGE('',*,*,#491,.F.);
#389=ORIENTED_EDGE('',*,*,#537,.F.);
#390=ORIENTED_EDGE('',*,*,#499,.F.);
#391=ORIENTED_EDGE('',*,*,#466,.F.);
#392=ORIENTED_EDGE('',*,*,#493,.F.);
#393=ORIENTED_EDGE('',*,*,#449,.F.);
#394=ORIENTED_EDGE('',*,*,#443,.F.);
#395=ORIENTED_EDGE('',*,*,#548,.T.);
#396=ORIENTED_EDGE('',*,*,#444,.F.);
#397=ORIENTED_EDGE('',*,*,#549,.T.);
#398=ORIENTED_EDGE('',*,*,#445,.F.);
#399=ORIENTED_EDGE('',*,*,#550,.T.);
#400=ORIENTED_EDGE('',*,*,#551,.T.);
#401=ORIENTED_EDGE('',*,*,#549,.F.);
#402=ORIENTED_EDGE('',*,*,#548,.F.);
#403=ORIENTED_EDGE('',*,*,#550,.F.);
#404=ORIENTED_EDGE('',*,*,#543,.F.);
#405=ORIENTED_EDGE('',*,*,#552,.T.);
#406=ORIENTED_EDGE('',*,*,#553,.T.);
#407=ORIENTED_EDGE('',*,*,#554,.T.);
#408=ORIENTED_EDGE('',*,*,#545,.F.);
#409=ORIENTED_EDGE('',*,*,#555,.T.);
#410=ORIENTED_EDGE('',*,*,#541,.F.);
#411=ORIENTED_EDGE('',*,*,#556,.T.);
#412=ORIENTED_EDGE('',*,*,#453,.T.);
#413=ORIENTED_EDGE('',*,*,#557,.T.);
#414=ORIENTED_EDGE('',*,*,#539,.F.);
#415=ORIENTED_EDGE('',*,*,#558,.T.);
#416=ORIENTED_EDGE('',*,*,#446,.F.);
#417=ORIENTED_EDGE('',*,*,#559,.T.);
#418=ORIENTED_EDGE('',*,*,#547,.F.);
#419=ORIENTED_EDGE('',*,*,#560,.T.);
#420=ORIENTED_EDGE('',*,*,#451,.F.);
#421=ORIENTED_EDGE('',*,*,#492,.F.);
#422=ORIENTED_EDGE('',*,*,#561,.F.);
#423=ORIENTED_EDGE('',*,*,#552,.F.);
#424=ORIENTED_EDGE('',*,*,#542,.F.);
#425=ORIENTED_EDGE('',*,*,#555,.F.);
#426=ORIENTED_EDGE('',*,*,#544,.F.);
#427=ORIENTED_EDGE('',*,*,#554,.F.);
#428=ORIENTED_EDGE('',*,*,#553,.F.);
#429=ORIENTED_EDGE('',*,*,#561,.T.);
#430=ORIENTED_EDGE('',*,*,#551,.F.);
#431=ORIENTED_EDGE('',*,*,#447,.F.);
#432=ORIENTED_EDGE('',*,*,#558,.F.);
#433=ORIENTED_EDGE('',*,*,#538,.F.);
#434=ORIENTED_EDGE('',*,*,#495,.F.);
#435=ORIENTED_EDGE('',*,*,#540,.F.);
#436=ORIENTED_EDGE('',*,*,#559,.F.);
#437=ORIENTED_EDGE('',*,*,#454,.F.);
#438=ORIENTED_EDGE('',*,*,#556,.F.);
#439=ORIENTED_EDGE('',*,*,#452,.F.);
#440=ORIENTED_EDGE('',*,*,#560,.F.);
#441=ORIENTED_EDGE('',*,*,#546,.F.);
#442=ORIENTED_EDGE('',*,*,#557,.F.);
#443=EDGE_CURVE('',#562,#562,#647,.T.);
#444=EDGE_CURVE('',#563,#563,#648,.T.);
#445=EDGE_CURVE('',#564,#564,#649,.T.);
#446=EDGE_CURVE('',#565,#566,#33,.F.);
#447=EDGE_CURVE('',#566,#567,#650,.F.);
#448=EDGE_CURVE('',#567,#568,#34,.T.);
#449=EDGE_CURVE('',#568,#569,#35,.T.);
#450=EDGE_CURVE('',#570,#569,#36,.T.);
#451=EDGE_CURVE('',#570,#571,#37,.F.);
#452=EDGE_CURVE('',#571,#572,#651,.F.);
#453=EDGE_CURVE('',#573,#572,#38,.T.);
#454=EDGE_CURVE('',#573,#565,#652,.F.);
#455=EDGE_CURVE('',#574,#574,#653,.T.);
#456=EDGE_CURVE('',#575,#575,#654,.T.);
#457=EDGE_CURVE('',#576,#576,#655,.T.);
#458=EDGE_CURVE('',#577,#577,#656,.T.);
#459=EDGE_CURVE('',#578,#578,#657,.T.);
#460=EDGE_CURVE('',#579,#579,#658,.T.);
#461=EDGE_CURVE('',#580,#580,#659,.T.);
#462=EDGE_CURVE('',#581,#581,#660,.T.);
#463=EDGE_CURVE('',#582,#582,#661,.T.);
#464=EDGE_CURVE('',#583,#583,#662,.T.);
#465=EDGE_CURVE('',#584,#585,#39,.T.);
#466=EDGE_CURVE('',#585,#586,#40,.F.);
#467=EDGE_CURVE('',#586,#587,#41,.T.);
#468=EDGE_CURVE('',#587,#588,#42,.T.);
#469=EDGE_CURVE('',#588,#584,#43,.T.);
#470=EDGE_CURVE('',#589,#590,#44,.T.);
#471=EDGE_CURVE('',#591,#589,#45,.T.);
#472=EDGE_CURVE('',#592,#591,#46,.T.);
#473=EDGE_CURVE('',#593,#592,#47,.T.);
#474=EDGE_CURVE('',#594,#593,#48,.T.);
#475=EDGE_CURVE('',#590,#594,#49,.T.);
#476=EDGE_CURVE('',#595,#596,#50,.T.);
#477=EDGE_CURVE('',#597,#595,#51,.T.);
#478=EDGE_CURVE('',#598,#597,#52,.T.);
#479=EDGE_CURVE('',#599,#598,#53,.T.);
#480=EDGE_CURVE('',#600,#599,#54,.T.);
#481=EDGE_CURVE('',#596,#600,#55,.T.);
#482=EDGE_CURVE('',#601,#602,#56,.T.);
#483=EDGE_CURVE('',#603,#601,#57,.T.);
#484=EDGE_CURVE('',#604,#603,#58,.T.);
#485=EDGE_CURVE('',#605,#604,#59,.T.);
#486=EDGE_CURVE('',#606,#605,#60,.T.);
#487=EDGE_CURVE('',#602,#606,#61,.T.);
#488=EDGE_CURVE('',#607,#588,#62,.T.);
#489=EDGE_CURVE('',#607,#608,#63,.T.);
#490=EDGE_CURVE('',#608,#584,#64,.T.);
#491=EDGE_CURVE('',#609,#610,#65,.T.);
#492=EDGE_CURVE('',#610,#570,#66,.T.);
#493=EDGE_CURVE('',#569,#585,#663,.F.);
#494=EDGE_CURVE('',#608,#609,#67,.T.);
#495=EDGE_CURVE('',#567,#611,#68,.F.);
#496=EDGE_CURVE('',#612,#611,#69,.T.);
#497=EDGE_CURVE('',#612,#613,#70,.T.);
#498=EDGE_CURVE('',#613,#587,#71,.T.);
#499=EDGE_CURVE('',#586,#568,#664,.F.);
#500=EDGE_CURVE('',#613,#607,#72,.T.);
#501=EDGE_CURVE('',#602,#614,#73,.T.);
#502=EDGE_CURVE('',#615,#614,#74,.T.);
#503=EDGE_CURVE('',#601,#615,#75,.T.);
#504=EDGE_CURVE('',#616,#615,#76,.T.);
#505=EDGE_CURVE('',#603,#616,#77,.T.);
#506=EDGE_CURVE('',#617,#616,#78,.T.);
#507=EDGE_CURVE('',#604,#617,#79,.T.);
#508=EDGE_CURVE('',#618,#617,#80,.T.);
#509=EDGE_CURVE('',#605,#618,#81,.T.);
#510=EDGE_CURVE('',#619,#618,#82,.T.);
#511=EDGE_CURVE('',#606,#619,#83,.T.);
#512=EDGE_CURVE('',#614,#619,#84,.T.);
#513=EDGE_CURVE('',#596,#620,#85,.T.);
#514=EDGE_CURVE('',#621,#620,#86,.T.);
#515=EDGE_CURVE('',#595,#621,#87,.T.);
#516=EDGE_CURVE('',#622,#621,#88,.T.);
#517=EDGE_CURVE('',#597,#622,#89,.T.);
#518=EDGE_CURVE('',#623,#622,#90,.T.);
#519=EDGE_CURVE('',#598,#623,#91,.T.);
#520=EDGE_CURVE('',#624,#623,#92,.T.);
#521=EDGE_CURVE('',#599,#624,#93,.T.);
#522=EDGE_CURVE('',#625,#624,#94,.T.);
#523=EDGE_CURVE('',#600,#625,#95,.T.);
#524=EDGE_CURVE('',#620,#625,#96,.T.);
#525=EDGE_CURVE('',#590,#626,#97,.T.);
#526=EDGE_CURVE('',#627,#626,#98,.T.);
#527=EDGE_CURVE('',#589,#627,#99,.T.);
#528=EDGE_CURVE('',#628,#627,#100,.T.);
#529=EDGE_CURVE('',#591,#628,#101,.T.);
#530=EDGE_CURVE('',#629,#628,#102,.T.);
#531=EDGE_CURVE('',#592,#629,#103,.T.);
#532=EDGE_CURVE('',#630,#629,#104,.T.);
#533=EDGE_CURVE('',#593,#630,#105,.T.);
#534=EDGE_CURVE('',#631,#630,#106,.T.);
#535=EDGE_CURVE('',#594,#631,#107,.T.);
#536=EDGE_CURVE('',#626,#631,#108,.T.);
#537=EDGE_CURVE('',#612,#609,#109,.T.);
#538=EDGE_CURVE('',#611,#632,#665,.F.);
#539=EDGE_CURVE('',#632,#633,#110,.F.);
#540=EDGE_CURVE('',#633,#634,#666,.F.);
#541=EDGE_CURVE('',#634,#635,#111,.T.);
#542=EDGE_CURVE('',#635,#636,#15,.T.);
#543=EDGE_CURVE('',#636,#637,#667,.T.);
#544=EDGE_CURVE('',#637,#638,#16,.T.);
#545=EDGE_CURVE('',#638,#639,#112,.T.);
#546=EDGE_CURVE('',#639,#640,#668,.F.);
#547=EDGE_CURVE('',#640,#610,#113,.F.);
#548=EDGE_CURVE('',#641,#641,#669,.T.);
#549=EDGE_CURVE('',#642,#642,#670,.T.);
#550=EDGE_CURVE('',#643,#643,#671,.T.);
#551=EDGE_CURVE('',#644,#644,#672,.T.);
#552=EDGE_CURVE('',#636,#645,#17,.T.);
#553=EDGE_CURVE('',#645,#646,#673,.T.);
#554=EDGE_CURVE('',#646,#637,#18,.T.);
#555=EDGE_CURVE('',#638,#635,#19,.T.);
#556=EDGE_CURVE('',#634,#573,#114,.F.);
#557=EDGE_CURVE('',#572,#639,#115,.F.);
#558=EDGE_CURVE('',#632,#566,#116,.F.);
#559=EDGE_CURVE('',#565,#633,#117,.F.);
#560=EDGE_CURVE('',#640,#571,#118,.F.);
#561=EDGE_CURVE('',#645,#646,#20,.T.);
#562=VERTEX_POINT('',#1218);
#563=VERTEX_POINT('',#1220);
#564=VERTEX_POINT('',#1222);
#565=VERTEX_POINT('',#1224);
#566=VERTEX_POINT('',#1225);
#567=VERTEX_POINT('',#1227);
#568=VERTEX_POINT('',#1229);
#569=VERTEX_POINT('',#1231);
#570=VERTEX_POINT('',#1233);
#571=VERTEX_POINT('',#1235);
#572=VERTEX_POINT('',#1237);
#573=VERTEX_POINT('',#1239);
#574=VERTEX_POINT('',#1243);
#575=VERTEX_POINT('',#1245);
#576=VERTEX_POINT('',#1248);
#577=VERTEX_POINT('',#1250);
#578=VERTEX_POINT('',#1253);
#579=VERTEX_POINT('',#1255);
#580=VERTEX_POINT('',#1258);
#581=VERTEX_POINT('',#1260);
#582=VERTEX_POINT('',#1263);
#583=VERTEX_POINT('',#1265);
#584=VERTEX_POINT('',#1268);
#585=VERTEX_POINT('',#1269);
#586=VERTEX_POINT('',#1271);
#587=VERTEX_POINT('',#1273);
#588=VERTEX_POINT('',#1275);
#589=VERTEX_POINT('',#1278);
#590=VERTEX_POINT('',#1279);
#591=VERTEX_POINT('',#1281);
#592=VERTEX_POINT('',#1283);
#593=VERTEX_POINT('',#1285);
#594=VERTEX_POINT('',#1287);
#595=VERTEX_POINT('',#1290);
#596=VERTEX_POINT('',#1291);
#597=VERTEX_POINT('',#1293);
#598=VERTEX_POINT('',#1295);
#599=VERTEX_POINT('',#1297);
#600=VERTEX_POINT('',#1299);
#601=VERTEX_POINT('',#1302);
#602=VERTEX_POINT('',#1303);
#603=VERTEX_POINT('',#1305);
#604=VERTEX_POINT('',#1307);
#605=VERTEX_POINT('',#1309);
#606=VERTEX_POINT('',#1311);
#607=VERTEX_POINT('',#1315);
#608=VERTEX_POINT('',#1317);
#609=VERTEX_POINT('',#1321);
#610=VERTEX_POINT('',#1322);
#611=VERTEX_POINT('',#1328);
#612=VERTEX_POINT('',#1330);
#613=VERTEX_POINT('',#1332);
#614=VERTEX_POINT('',#1339);
#615=VERTEX_POINT('',#1341);
#616=VERTEX_POINT('',#1345);
#617=VERTEX_POINT('',#1349);
#618=VERTEX_POINT('',#1353);
#619=VERTEX_POINT('',#1357);
#620=VERTEX_POINT('',#1363);
#621=VERTEX_POINT('',#1365);
#622=VERTEX_POINT('',#1369);
#623=VERTEX_POINT('',#1373);
#624=VERTEX_POINT('',#1377);
#625=VERTEX_POINT('',#1381);
#626=VERTEX_POINT('',#1387);
#627=VERTEX_POINT('',#1389);
#628=VERTEX_POINT('',#1393);
#629=VERTEX_POINT('',#1397);
#630=VERTEX_POINT('',#1401);
#631=VERTEX_POINT('',#1405);
#632=VERTEX_POINT('',#1413);
#633=VERTEX_POINT('',#1415);
#634=VERTEX_POINT('',#1417);
#635=VERTEX_POINT('',#1419);
#636=VERTEX_POINT('',#1427);
#637=VERTEX_POINT('',#1429);
#638=VERTEX_POINT('',#1437);
#639=VERTEX_POINT('',#1439);
#640=VERTEX_POINT('',#1441);
#641=VERTEX_POINT('',#1446);
#642=VERTEX_POINT('',#1449);
#643=VERTEX_POINT('',#1452);
#644=VERTEX_POINT('',#1455);
#645=VERTEX_POINT('',#1461);
#646=VERTEX_POINT('',#1463);
#647=CIRCLE('',#915,0.00175);
#648=CIRCLE('',#916,0.00175);
#649=CIRCLE('',#917,0.00175);
#650=CIRCLE('',#918,0.01);
#651=CIRCLE('',#919,0.01);
#652=CIRCLE('',#920,0.01);
#653=CIRCLE('',#922,0.002);
#654=CIRCLE('',#923,0.002);
#655=CIRCLE('',#925,0.002);
#656=CIRCLE('',#926,0.002);
#657=CIRCLE('',#928,0.002);
#658=CIRCLE('',#929,0.002);
#659=CIRCLE('',#931,0.002);
#660=CIRCLE('',#932,0.002);
#661=CIRCLE('',#934,0.0111);
#662=CIRCLE('',#935,0.0111);
#663=CIRCLE('',#939,0.005);
#664=CIRCLE('',#941,0.005);
#665=CIRCLE('',#963,0.01);
#666=CIRCLE('',#964,0.01);
#667=CIRCLE('',#965,0.027);
#668=CIRCLE('',#966,0.01);
#669=CIRCLE('',#969,0.00175);
#670=CIRCLE('',#971,0.00175);
#671=CIRCLE('',#973,0.00175);
#672=CIRCLE('',#975,0.0168578643762691);
#673=CIRCLE('',#977,0.0239289321881345);
#674=EDGE_LOOP('',(#205));
#675=EDGE_LOOP('',(#206));
#676=EDGE_LOOP('',(#207));
#677=EDGE_LOOP('',(#208,#209,#210,#211,#212,#213,#214,#215,#216));
#678=EDGE_LOOP('',(#217));
#679=EDGE_LOOP('',(#218));
#680=EDGE_LOOP('',(#219));
#681=EDGE_LOOP('',(#220));
#682=EDGE_LOOP('',(#221));
#683=EDGE_LOOP('',(#222));
#684=EDGE_LOOP('',(#223));
#685=EDGE_LOOP('',(#224));
#686=EDGE_LOOP('',(#225));
#687=EDGE_LOOP('',(#226));
#688=EDGE_LOOP('',(#227,#228,#229,#230,#231));
#689=EDGE_LOOP('',(#232,#233,#234,#235,#236,#237));
#690=EDGE_LOOP('',(#238,#239,#240,#241,#242,#243));
#691=EDGE_LOOP('',(#244,#245,#246,#247,#248,#249));
#692=EDGE_LOOP('',(#250));
#693=EDGE_LOOP('',(#251));
#694=EDGE_LOOP('',(#252));
#695=EDGE_LOOP('',(#253));
#696=EDGE_LOOP('',(#254));
#697=EDGE_LOOP('',(#255,#256,#257,#258));
#698=EDGE_LOOP('',(#259,#260,#261,#262,#263,#264,#265));
#699=EDGE_LOOP('',(#266,#267,#268,#269,#270,#271,#272));
#700=EDGE_LOOP('',(#273,#274,#275,#276));
#701=EDGE_LOOP('',(#277,#278,#279,#280));
#702=EDGE_LOOP('',(#281,#282,#283,#284));
#703=EDGE_LOOP('',(#285,#286,#287,#288));
#704=EDGE_LOOP('',(#289,#290,#291,#292));
#705=EDGE_LOOP('',(#293,#294,#295,#296));
#706=EDGE_LOOP('',(#297,#298,#299,#300));
#707=EDGE_LOOP('',(#301,#302,#303,#304));
#708=EDGE_LOOP('',(#305,#306,#307,#308));
#709=EDGE_LOOP('',(#309,#310,#311,#312));
#710=EDGE_LOOP('',(#313,#314,#315,#316));
#711=EDGE_LOOP('',(#317,#318,#319,#320));
#712=EDGE_LOOP('',(#321,#322,#323,#324));
#713=EDGE_LOOP('',(#325,#326,#327,#328));
#714=EDGE_LOOP('',(#329,#330,#331,#332));
#715=EDGE_LOOP('',(#333,#334,#335,#336));
#716=EDGE_LOOP('',(#337,#338,#339,#340));
#717=EDGE_LOOP('',(#341,#342,#343,#344));
#718=EDGE_LOOP('',(#345,#346,#347,#348));
#719=EDGE_LOOP('',(#349,#350,#351,#352,#353,#354));
#720=EDGE_LOOP('',(#355,#356,#357,#358,#359,#360));
#721=EDGE_LOOP('',(#361,#362,#363,#364,#365,#366));
#722=EDGE_LOOP('',(#367));
#723=EDGE_LOOP('',(#368));
#724=EDGE_LOOP('',(#369));
#725=EDGE_LOOP('',(#370));
#726=EDGE_LOOP('',(#371));
#727=EDGE_LOOP('',(#372,#373,#374,#375,#376));
#728=EDGE_LOOP('',(#377,#378,#379,#380,#381,#382,#383,#384,#385,#386,#387,
#388,#389));
#729=EDGE_LOOP('',(#390,#391,#392,#393));
#730=EDGE_LOOP('',(#394));
#731=EDGE_LOOP('',(#395));
#732=EDGE_LOOP('',(#396));
#733=EDGE_LOOP('',(#397));
#734=EDGE_LOOP('',(#398));
#735=EDGE_LOOP('',(#399));
#736=EDGE_LOOP('',(#400));
#737=EDGE_LOOP('',(#401));
#738=EDGE_LOOP('',(#402));
#739=EDGE_LOOP('',(#403));
#740=EDGE_LOOP('',(#404,#405,#406,#407));
#741=EDGE_LOOP('',(#408,#409,#410,#411,#412,#413));
#742=EDGE_LOOP('',(#414,#415,#416,#417));
#743=EDGE_LOOP('',(#418,#419,#420,#421));
#744=EDGE_LOOP('',(#422,#423,#424,#425,#426,#427));
#745=EDGE_LOOP('',(#428,#429));
#746=EDGE_LOOP('',(#430));
#747=EDGE_LOOP('',(#431,#432,#433,#434));
#748=EDGE_LOOP('',(#435,#436,#437,#438));
#749=EDGE_LOOP('',(#439,#440,#441,#442));
#750=FACE_BOUND('',#674,.T.);
#751=FACE_BOUND('',#675,.T.);
#752=FACE_BOUND('',#676,.T.);
#753=FACE_BOUND('',#677,.T.);
#754=FACE_BOUND('',#678,.T.);
#755=FACE_BOUND('',#679,.T.);
#756=FACE_BOUND('',#680,.T.);
#757=FACE_BOUND('',#681,.T.);
#758=FACE_BOUND('',#682,.T.);
#759=FACE_BOUND('',#683,.T.);
#760=FACE_BOUND('',#684,.T.);
#761=FACE_BOUND('',#685,.T.);
#762=FACE_BOUND('',#686,.T.);
#763=FACE_BOUND('',#687,.T.);
#764=FACE_BOUND('',#688,.T.);
#765=FACE_BOUND('',#689,.T.);
#766=FACE_BOUND('',#690,.T.);
#767=FACE_BOUND('',#691,.T.);
#768=FACE_BOUND('',#692,.T.);
#769=FACE_BOUND('',#693,.T.);
#770=FACE_BOUND('',#694,.T.);
#771=FACE_BOUND('',#695,.T.);
#772=FACE_BOUND('',#696,.T.);
#773=FACE_BOUND('',#697,.T.);
#774=FACE_BOUND('',#698,.T.);
#775=FACE_BOUND('',#699,.T.);
#776=FACE_BOUND('',#700,.T.);
#777=FACE_BOUND('',#701,.T.);
#778=FACE_BOUND('',#702,.T.);
#779=FACE_BOUND('',#703,.T.);
#780=FACE_BOUND('',#704,.T.);
#781=FACE_BOUND('',#705,.T.);
#782=FACE_BOUND('',#706,.T.);
#783=FACE_BOUND('',#707,.T.);
#784=FACE_BOUND('',#708,.T.);
#785=FACE_BOUND('',#709,.T.);
#786=FACE_BOUND('',#710,.T.);
#787=FACE_BOUND('',#711,.T.);
#788=FACE_BOUND('',#712,.T.);
#789=FACE_BOUND('',#713,.T.);
#790=FACE_BOUND('',#714,.T.);
#791=FACE_BOUND('',#715,.T.);
#792=FACE_BOUND('',#716,.T.);
#793=FACE_BOUND('',#717,.T.);
#794=FACE_BOUND('',#718,.T.);
#795=FACE_BOUND('',#719,.T.);
#796=FACE_BOUND('',#720,.T.);
#797=FACE_BOUND('',#721,.T.);
#798=FACE_BOUND('',#722,.T.);
#799=FACE_BOUND('',#723,.T.);
#800=FACE_BOUND('',#724,.T.);
#801=FACE_BOUND('',#725,.T.);
#802=FACE_BOUND('',#726,.T.);
#803=FACE_BOUND('',#727,.T.);
#804=FACE_BOUND('',#728,.T.);
#805=FACE_BOUND('',#729,.T.);
#806=FACE_BOUND('',#730,.T.);
#807=FACE_BOUND('',#731,.T.);
#808=FACE_BOUND('',#732,.T.);
#809=FACE_BOUND('',#733,.T.);
#810=FACE_BOUND('',#734,.T.);
#811=FACE_BOUND('',#735,.T.);
#812=FACE_BOUND('',#736,.T.);
#813=FACE_BOUND('',#737,.T.);
#814=FACE_BOUND('',#738,.T.);
#815=FACE_BOUND('',#739,.T.);
#816=FACE_BOUND('',#740,.T.);
#817=FACE_BOUND('',#741,.T.);
#818=FACE_BOUND('',#742,.T.);
#819=FACE_BOUND('',#743,.T.);
#820=FACE_BOUND('',#744,.T.);
#821=FACE_BOUND('',#745,.T.);
#822=FACE_BOUND('',#746,.T.);
#823=FACE_BOUND('',#747,.T.);
#824=FACE_BOUND('',#748,.T.);
#825=FACE_BOUND('',#749,.T.);
#826=PLANE('',#914);
#827=PLANE('',#936);
#828=PLANE('',#937);
#829=PLANE('',#938);
#830=PLANE('',#940);
#831=PLANE('',#942);
#832=PLANE('',#943);
#833=PLANE('',#944);
#834=PLANE('',#945);
#835=PLANE('',#946);
#836=PLANE('',#947);
#837=PLANE('',#948);
#838=PLANE('',#949);
#839=PLANE('',#950);
#840=PLANE('',#951);
#841=PLANE('',#952);
#842=PLANE('',#953);
#843=PLANE('',#954);
#844=PLANE('',#955);
#845=PLANE('',#956);
#846=PLANE('',#957);
#847=PLANE('',#958);
#848=PLANE('',#959);
#849=PLANE('',#960);
#850=PLANE('',#961);
#851=PLANE('',#962);
#852=PLANE('',#974);
#853=PLANE('',#978);
#854=PLANE('',#979);
#855=PLANE('',#980);
#856=ADVANCED_FACE('',(#750,#751,#752,#753),#826,.F.);
#857=ADVANCED_FACE('',(#754,#755),#21,.F.);
#858=ADVANCED_FACE('',(#756,#757),#22,.F.);
#859=ADVANCED_FACE('',(#758,#759),#23,.F.);
#860=ADVANCED_FACE('',(#760,#761),#24,.F.);
#861=ADVANCED_FACE('',(#762,#763),#25,.F.);
#862=ADVANCED_FACE('',(#764,#765,#766,#767,#768,#769,#770,#771,#772),#827,
 .T.);
#863=ADVANCED_FACE('',(#773),#828,.T.);
#864=ADVANCED_FACE('',(#774),#829,.T.);
#865=ADVANCED_FACE('',(#775),#830,.T.);
#866=ADVANCED_FACE('',(#776),#831,.T.);
#867=ADVANCED_FACE('',(#777),#832,.F.);
#868=ADVANCED_FACE('',(#778),#833,.F.);
#869=ADVANCED_FACE('',(#779),#834,.F.);
#870=ADVANCED_FACE('',(#780),#835,.F.);
#871=ADVANCED_FACE('',(#781),#836,.F.);
#872=ADVANCED_FACE('',(#782),#837,.F.);
#873=ADVANCED_FACE('',(#783),#838,.F.);
#874=ADVANCED_FACE('',(#784),#839,.F.);
#875=ADVANCED_FACE('',(#785),#840,.F.);
#876=ADVANCED_FACE('',(#786),#841,.F.);
#877=ADVANCED_FACE('',(#787),#842,.F.);
#878=ADVANCED_FACE('',(#788),#843,.F.);
#879=ADVANCED_FACE('',(#789),#844,.F.);
#880=ADVANCED_FACE('',(#790),#845,.F.);
#881=ADVANCED_FACE('',(#791),#846,.F.);
#882=ADVANCED_FACE('',(#792),#847,.F.);
#883=ADVANCED_FACE('',(#793),#848,.F.);
#884=ADVANCED_FACE('',(#794),#849,.F.);
#885=ADVANCED_FACE('',(#795,#796,#797,#798,#799,#800,#801,#802,#803),#850,
 .F.);
#886=ADVANCED_FACE('',(#804),#851,.F.);
#887=ADVANCED_FACE('',(#805),#26,.F.);
#888=ADVANCED_FACE('',(#806,#807),#27,.F.);
#889=ADVANCED_FACE('',(#808,#809),#28,.F.);
#890=ADVANCED_FACE('',(#810,#811),#29,.F.);
#891=ADVANCED_FACE('',(#812,#813,#814,#815),#852,.T.);
#892=ADVANCED_FACE('',(#816),#14,.T.);
#893=ADVANCED_FACE('',(#817),#853,.T.);
#894=ADVANCED_FACE('',(#818),#854,.F.);
#895=ADVANCED_FACE('',(#819),#855,.F.);
#896=ADVANCED_FACE('',(#820),#13,.T.);
#897=ADVANCED_FACE('',(#821,#822),#12,.T.);
#898=ADVANCED_FACE('',(#823),#30,.T.);
#899=ADVANCED_FACE('',(#824),#31,.T.);
#900=ADVANCED_FACE('',(#825),#32,.T.);
#901=CLOSED_SHELL('',(#856,#857,#858,#859,#860,#861,#862,#863,#864,#865,
#866,#867,#868,#869,#870,#871,#872,#873,#874,#875,#876,#877,#878,#879,#880,
#881,#882,#883,#884,#885,#886,#887,#888,#889,#890,#891,#892,#893,#894,#895,
#896,#897,#898,#899,#900));
#902=STYLED_ITEM('',(#903),#910);
#903=PRESENTATION_STYLE_ASSIGNMENT((#904));
#904=SURFACE_STYLE_USAGE(.BOTH.,#905);
#905=SURFACE_SIDE_STYLE('',(#906));
#906=SURFACE_STYLE_FILL_AREA(#907);
#907=FILL_AREA_STYLE('',(#908));
#908=FILL_AREA_STYLE_COLOUR('',#909);
#909=COLOUR_RGB('',0.615686274509804,0.811764705882353,0.929411764705882);
#910=MANIFOLD_SOLID_BREP('Part 1',#901);
#911=SHAPE_DEFINITION_REPRESENTATION(#1551,#912);
#912=SHAPE_REPRESENTATION('Part 1',(#913),#1546);
#913=AXIS2_PLACEMENT_3D('',#1215,#985,#986);
#914=AXIS2_PLACEMENT_3D('',#1216,#987,#988);
#915=AXIS2_PLACEMENT_3D('',#1217,#989,#990);
#916=AXIS2_PLACEMENT_3D('',#1219,#991,#992);
#917=AXIS2_PLACEMENT_3D('',#1221,#993,#994);
#918=AXIS2_PLACEMENT_3D('',#1226,#996,#997);
#919=AXIS2_PLACEMENT_3D('',#1236,#1002,#1003);
#920=AXIS2_PLACEMENT_3D('',#1240,#1005,#1006);
#921=AXIS2_PLACEMENT_3D('',#1241,#1007,#1008);
#922=AXIS2_PLACEMENT_3D('',#1242,#1009,#1010);
#923=AXIS2_PLACEMENT_3D('',#1244,#1011,#1012);
#924=AXIS2_PLACEMENT_3D('',#1246,#1013,#1014);
#925=AXIS2_PLACEMENT_3D('',#1247,#1015,#1016);
#926=AXIS2_PLACEMENT_3D('',#1249,#1017,#1018);
#927=AXIS2_PLACEMENT_3D('',#1251,#1019,#1020);
#928=AXIS2_PLACEMENT_3D('',#1252,#1021,#1022);
#929=AXIS2_PLACEMENT_3D('',#1254,#1023,#1024);
#930=AXIS2_PLACEMENT_3D('',#1256,#1025,#1026);
#931=AXIS2_PLACEMENT_3D('',#1257,#1027,#1028);
#932=AXIS2_PLACEMENT_3D('',#1259,#1029,#1030);
#933=AXIS2_PLACEMENT_3D('',#1261,#1031,#1032);
#934=AXIS2_PLACEMENT_3D('',#1262,#1033,#1034);
#935=AXIS2_PLACEMENT_3D('',#1264,#1035,#1036);
#936=AXIS2_PLACEMENT_3D('',#1266,#1037,#1038);
#937=AXIS2_PLACEMENT_3D('',#1313,#1062,#1063);
#938=AXIS2_PLACEMENT_3D('',#1319,#1067,#1068);
#939=AXIS2_PLACEMENT_3D('',#1324,#1071,#1072);
#940=AXIS2_PLACEMENT_3D('',#1326,#1074,#1075);
#941=AXIS2_PLACEMENT_3D('',#1334,#1080,#1081);
#942=AXIS2_PLACEMENT_3D('',#1335,#1082,#1083);
#943=AXIS2_PLACEMENT_3D('',#1337,#1085,#1086);
#944=AXIS2_PLACEMENT_3D('',#1343,#1090,#1091);
#945=AXIS2_PLACEMENT_3D('',#1347,#1094,#1095);
#946=AXIS2_PLACEMENT_3D('',#1351,#1098,#1099);
#947=AXIS2_PLACEMENT_3D('',#1355,#1102,#1103);
#948=AXIS2_PLACEMENT_3D('',#1359,#1106,#1107);
#949=AXIS2_PLACEMENT_3D('',#1361,#1109,#1110);
#950=AXIS2_PLACEMENT_3D('',#1367,#1114,#1115);
#951=AXIS2_PLACEMENT_3D('',#1371,#1118,#1119);
#952=AXIS2_PLACEMENT_3D('',#1375,#1122,#1123);
#953=AXIS2_PLACEMENT_3D('',#1379,#1126,#1127);
#954=AXIS2_PLACEMENT_3D('',#1383,#1130,#1131);
#955=AXIS2_PLACEMENT_3D('',#1385,#1133,#1134);
#956=AXIS2_PLACEMENT_3D('',#1391,#1138,#1139);
#957=AXIS2_PLACEMENT_3D('',#1395,#1142,#1143);
#958=AXIS2_PLACEMENT_3D('',#1399,#1146,#1147);
#959=AXIS2_PLACEMENT_3D('',#1403,#1150,#1151);
#960=AXIS2_PLACEMENT_3D('',#1407,#1154,#1155);
#961=AXIS2_PLACEMENT_3D('',#1409,#1157,#1158);
#962=AXIS2_PLACEMENT_3D('',#1411,#1160,#1161);
#963=AXIS2_PLACEMENT_3D('',#1412,#1162,#1163);
#964=AXIS2_PLACEMENT_3D('',#1416,#1165,#1166);
#965=AXIS2_PLACEMENT_3D('',#1428,#1168,#1169);
#966=AXIS2_PLACEMENT_3D('',#1440,#1171,#1172);
#967=AXIS2_PLACEMENT_3D('',#1443,#1174,#1175);
#968=AXIS2_PLACEMENT_3D('',#1444,#1176,#1177);
#969=AXIS2_PLACEMENT_3D('',#1445,#1178,#1179);
#970=AXIS2_PLACEMENT_3D('',#1447,#1180,#1181);
#971=AXIS2_PLACEMENT_3D('',#1448,#1182,#1183);
#972=AXIS2_PLACEMENT_3D('',#1450,#1184,#1185);
#973=AXIS2_PLACEMENT_3D('',#1451,#1186,#1187);
#974=AXIS2_PLACEMENT_3D('',#1453,#1188,#1189);
#975=AXIS2_PLACEMENT_3D('',#1454,#1190,#1191);
#976=AXIS2_PLACEMENT_3D('',#1456,#1192,#1193);
#977=AXIS2_PLACEMENT_3D('',#1462,#1194,#1195);
#978=AXIS2_PLACEMENT_3D('',#1468,#1196,#1197);
#979=AXIS2_PLACEMENT_3D('',#1478,#1200,#1201);
#980=AXIS2_PLACEMENT_3D('',#1481,#1204,#1205);
#981=AXIS2_PLACEMENT_3D('',#1541,#1207,#1208);
#982=AXIS2_PLACEMENT_3D('',#1542,#1209,#1210);
#983=AXIS2_PLACEMENT_3D('',#1543,#1211,#1212);
#984=AXIS2_PLACEMENT_3D('',#1544,#1213,#1214);
#985=DIRECTION('',(0.,0.,1.));
#986=DIRECTION('',(1.,0.,0.));
#987=DIRECTION('',(1.,3.26536183713282E-16,0.));
#988=DIRECTION('',(-3.26536183713282E-16,1.,0.));
#989=DIRECTION('',(1.,3.26536183713282E-16,0.));
#990=DIRECTION('',(-3.26536183713282E-16,1.,0.));
#991=DIRECTION('',(1.,3.26536183713282E-16,0.));
#992=DIRECTION('',(-3.26536183713282E-16,1.,0.));
#993=DIRECTION('',(1.,3.26536183713282E-16,0.));
#994=DIRECTION('',(-3.26536183713282E-16,1.,0.));
#995=DIRECTION('',(1.38000154356349E-16,-0.422618261740699,0.90630778703665));
#996=DIRECTION('',(1.,3.26536183713282E-16,0.));
#997=DIRECTION('',(-3.26536183713282E-16,1.,0.));
#998=DIRECTION('',(0.,0.,-1.));
#999=DIRECTION('',(3.26536183713282E-16,-1.,0.));
#1000=DIRECTION('',(0.,0.,-1.));
#1001=DIRECTION('',(1.38000154356349E-16,-0.422618261740699,-0.90630778703665));
#1002=DIRECTION('',(1.,3.26536183713282E-16,0.));
#1003=DIRECTION('',(-3.26536183713282E-16,1.,0.));
#1004=DIRECTION('',(3.26536183713282E-16,-1.,0.));
#1005=DIRECTION('',(1.,3.26536183713282E-16,0.));
#1006=DIRECTION('',(-3.26536183713282E-16,1.,0.));
#1007=DIRECTION('',(0.,0.,-1.));
#1008=DIRECTION('',(-1.,0.,0.));
#1009=DIRECTION('',(0.,0.,1.));
#1010=DIRECTION('',(1.,0.,0.));
#1011=DIRECTION('',(0.,0.,1.));
#1012=DIRECTION('',(1.,0.,0.));
#1013=DIRECTION('',(0.,0.,-1.));
#1014=DIRECTION('',(-1.,0.,0.));
#1015=DIRECTION('',(0.,0.,1.));
#1016=DIRECTION('',(1.,0.,0.));
#1017=DIRECTION('',(0.,0.,1.));
#1018=DIRECTION('',(1.,0.,0.));
#1019=DIRECTION('',(0.,0.,-1.));
#1020=DIRECTION('',(-1.,0.,0.));
#1021=DIRECTION('',(0.,0.,1.));
#1022=DIRECTION('',(1.,0.,0.));
#1023=DIRECTION('',(0.,0.,1.));
#1024=DIRECTION('',(1.,0.,0.));
#1025=DIRECTION('',(0.,0.,-1.));
#1026=DIRECTION('',(-1.,0.,0.));
#1027=DIRECTION('',(0.,0.,1.));
#1028=DIRECTION('',(1.,0.,0.));
#1029=DIRECTION('',(0.,0.,1.));
#1030=DIRECTION('',(1.,0.,0.));
#1031=DIRECTION('',(0.,0.,-1.));
#1032=DIRECTION('',(-1.,0.,0.));
#1033=DIRECTION('',(0.,0.,1.));
#1034=DIRECTION('',(1.,0.,0.));
#1035=DIRECTION('',(0.,0.,1.));
#1036=DIRECTION('',(1.,0.,0.));
#1037=DIRECTION('',(0.,0.,1.));
#1038=DIRECTION('',(1.,0.,0.));
#1039=DIRECTION('',(1.,1.27254883657736E-15,0.));
#1040=DIRECTION('',(3.26536183713282E-16,-1.,0.));
#1041=DIRECTION('',(-1.,-1.1311545214021E-15,0.));
#1042=DIRECTION('',(-0.5,-0.866025403784439,0.));
#1043=DIRECTION('',(0.5,-0.866025403784438,0.));
#1044=DIRECTION('',(0.866025403784441,0.5,0.));
#1045=DIRECTION('',(0.866025403784436,-0.5,0.));
#1046=DIRECTION('',(-4.07407348810077E-15,-1.,0.));
#1047=DIRECTION('',(-0.866025403784441,-0.5,0.));
#1048=DIRECTION('',(-0.866025403784437,0.5,0.));
#1049=DIRECTION('',(4.07407348810077E-15,1.,0.));
#1050=DIRECTION('',(0.68863314278696,-0.725109919015976,0.));
#1051=DIRECTION('',(-0.283647039010426,-0.958928755049413,0.));
#1052=DIRECTION('',(-0.972280181797392,-0.233818836033436,0.));
#1053=DIRECTION('',(-0.688633142786959,0.725109919015976,0.));
#1054=DIRECTION('',(0.283647039010431,0.958928755049412,0.));
#1055=DIRECTION('',(0.972280181797392,0.233818836033436,0.));
#1056=DIRECTION('',(-0.5,-0.866025403784439,0.));
#1057=DIRECTION('',(-1.,0.,0.));
#1058=DIRECTION('',(-0.5,0.866025403784439,0.));
#1059=DIRECTION('',(0.5,0.866025403784439,0.));
#1060=DIRECTION('',(1.,0.,0.));
#1061=DIRECTION('',(0.5,-0.866025403784439,0.));
#1062=DIRECTION('',(-0.866025403784438,-0.5,0.));
#1063=DIRECTION('',(0.5,-0.866025403784438,0.));
#1064=DIRECTION('',(0.,0.,1.));
#1065=DIRECTION('',(0.5,-0.866025403784438,0.));
#1066=DIRECTION('',(0.,0.,1.));
#1067=DIRECTION('',(1.27254883657736E-15,-1.,0.));
#1068=DIRECTION('',(1.,1.27254883657736E-15,0.));
#1069=DIRECTION('',(0.,0.,1.));
#1070=DIRECTION('',(-1.,-1.27254883657736E-15,0.));
#1071=DIRECTION('',(1.27254883657736E-15,-1.,0.));
#1072=DIRECTION('',(1.,1.27254883657736E-15,0.));
#1073=DIRECTION('',(1.,1.27254883657736E-15,0.));
#1074=DIRECTION('',(-1.1311545214021E-15,1.,0.));
#1075=DIRECTION('',(-1.,-1.1311545214021E-15,0.));
#1076=DIRECTION('',(-1.,-1.1311545214021E-15,4.93038065763132E-32));
#1077=DIRECTION('',(0.,0.,1.));
#1078=DIRECTION('',(-1.,-1.1311545214021E-15,0.));
#1079=DIRECTION('',(0.,0.,1.));
#1080=DIRECTION('',(-1.1311545214021E-15,1.,0.));
#1081=DIRECTION('',(-1.,-1.1311545214021E-15,0.));
#1082=DIRECTION('',(-0.866025403784439,0.5,0.));
#1083=DIRECTION('',(-0.5,-0.866025403784439,0.));
#1084=DIRECTION('',(-0.5,-0.866025403784439,0.));
#1085=DIRECTION('',(-0.866025403784439,0.5,0.));
#1086=DIRECTION('',(-0.5,-0.866025403784439,0.));
#1087=DIRECTION('',(0.,0.,-1.));
#1088=DIRECTION('',(-0.5,-0.866025403784439,0.));
#1089=DIRECTION('',(0.,0.,-1.));
#1090=DIRECTION('',(0.,1.,0.));
#1091=DIRECTION('',(0.,0.,1.));
#1092=DIRECTION('',(-1.,0.,0.));
#1093=DIRECTION('',(0.,0.,-1.));
#1094=DIRECTION('',(0.866025403784439,0.5,0.));
#1095=DIRECTION('',(-0.5,0.866025403784439,0.));
#1096=DIRECTION('',(-0.5,0.866025403784439,0.));
#1097=DIRECTION('',(0.,0.,-1.));
#1098=DIRECTION('',(0.866025403784439,-0.5,0.));
#1099=DIRECTION('',(0.5,0.866025403784439,0.));
#1100=DIRECTION('',(0.5,0.866025403784439,0.));
#1101=DIRECTION('',(0.,0.,-1.));
#1102=DIRECTION('',(0.,-1.,0.));
#1103=DIRECTION('',(0.,0.,-1.));
#1104=DIRECTION('',(1.,0.,0.));
#1105=DIRECTION('',(0.,0.,-1.));
#1106=DIRECTION('',(-0.866025403784439,-0.5,0.));
#1107=DIRECTION('',(0.5,-0.866025403784439,0.));
#1108=DIRECTION('',(0.5,-0.866025403784439,0.));
#1109=DIRECTION('',(-0.725109919015976,-0.68863314278696,0.));
#1110=DIRECTION('',(0.68863314278696,-0.725109919015976,0.));
#1111=DIRECTION('',(0.,0.,-1.));
#1112=DIRECTION('',(0.68863314278696,-0.725109919015976,0.));
#1113=DIRECTION('',(0.,0.,-1.));
#1114=DIRECTION('',(-0.958928755049413,0.283647039010426,0.));
#1115=DIRECTION('',(-0.283647039010426,-0.958928755049413,0.));
#1116=DIRECTION('',(-0.283647039010426,-0.958928755049413,0.));
#1117=DIRECTION('',(0.,0.,-1.));
#1118=DIRECTION('',(-0.233818836033436,0.972280181797392,0.));
#1119=DIRECTION('',(-0.972280181797392,-0.233818836033436,0.));
#1120=DIRECTION('',(-0.972280181797392,-0.233818836033436,0.));
#1121=DIRECTION('',(0.,0.,-1.));
#1122=DIRECTION('',(0.725109919015976,0.688633142786959,0.));
#1123=DIRECTION('',(-0.688633142786959,0.725109919015976,0.));
#1124=DIRECTION('',(-0.688633142786959,0.725109919015976,0.));
#1125=DIRECTION('',(0.,0.,-1.));
#1126=DIRECTION('',(0.958928755049412,-0.283647039010431,0.));
#1127=DIRECTION('',(0.283647039010431,0.958928755049412,0.));
#1128=DIRECTION('',(0.283647039010431,0.958928755049412,0.));
#1129=DIRECTION('',(0.,0.,-1.));
#1130=DIRECTION('',(0.233818836033436,-0.972280181797392,0.));
#1131=DIRECTION('',(0.972280181797392,0.233818836033436,0.));
#1132=DIRECTION('',(0.972280181797392,0.233818836033436,0.));
#1133=DIRECTION('',(0.5,-0.866025403784441,0.));
#1134=DIRECTION('',(0.866025403784441,0.5,0.));
#1135=DIRECTION('',(0.,0.,-1.));
#1136=DIRECTION('',(0.866025403784441,0.5,0.));
#1137=DIRECTION('',(0.,0.,-1.));
#1138=DIRECTION('',(-0.5,-0.866025403784436,0.));
#1139=DIRECTION('',(0.866025403784436,-0.5,0.));
#1140=DIRECTION('',(0.866025403784436,-0.5,0.));
#1141=DIRECTION('',(0.,0.,-1.));
#1142=DIRECTION('',(-1.,4.07407348810077E-15,0.));
#1143=DIRECTION('',(-4.07407348810077E-15,-1.,0.));
#1144=DIRECTION('',(-4.07407348810077E-15,-1.,0.));
#1145=DIRECTION('',(0.,0.,-1.));
#1146=DIRECTION('',(-0.5,0.866025403784441,0.));
#1147=DIRECTION('',(-0.866025403784441,-0.5,0.));
#1148=DIRECTION('',(-0.866025403784441,-0.5,0.));
#1149=DIRECTION('',(0.,0.,-1.));
#1150=DIRECTION('',(0.5,0.866025403784437,0.));
#1151=DIRECTION('',(-0.866025403784437,0.5,0.));
#1152=DIRECTION('',(-0.866025403784437,0.5,0.));
#1153=DIRECTION('',(0.,0.,-1.));
#1154=DIRECTION('',(1.,-4.07407348810077E-15,0.));
#1155=DIRECTION('',(4.07407348810077E-15,1.,0.));
#1156=DIRECTION('',(4.07407348810077E-15,1.,0.));
#1157=DIRECTION('',(0.,0.,1.));
#1158=DIRECTION('',(1.,0.,0.));
#1159=DIRECTION('',(9.79608551139843E-16,-1.,0.));
#1160=DIRECTION('',(-1.,-9.79608551139843E-16,0.));
#1161=DIRECTION('',(9.79608551139843E-16,-1.,0.));
#1162=DIRECTION('',(-1.,-9.79608551139843E-16,0.));
#1163=DIRECTION('',(9.79608551139843E-16,-1.,0.));
#1164=DIRECTION('',(-4.14000463069046E-16,0.422618261740699,-0.90630778703665));
#1165=DIRECTION('',(-1.,-9.79608551139843E-16,0.));
#1166=DIRECTION('',(9.79608551139843E-16,-1.,0.));
#1167=DIRECTION('',(9.79608551139843E-16,-1.,0.));
#1168=DIRECTION('',(-1.,-9.79608551139843E-16,0.));
#1169=DIRECTION('',(9.79608551139843E-16,-1.,0.));
#1170=DIRECTION('',(9.79608551139843E-16,-1.,0.));
#1171=DIRECTION('',(-1.,-9.79608551139843E-16,0.));
#1172=DIRECTION('',(9.79608551139843E-16,-1.,0.));
#1173=DIRECTION('',(-4.14000463069046E-16,0.422618261740699,0.90630778703665));
#1174=DIRECTION('',(3.26536183713282E-16,-1.,0.));
#1175=DIRECTION('',(1.,3.26536183713282E-16,0.));
#1176=DIRECTION('',(1.,9.79608551139843E-16,0.));
#1177=DIRECTION('',(-9.79608551139843E-16,1.,0.));
#1178=DIRECTION('',(1.,9.79608551139843E-16,0.));
#1179=DIRECTION('',(-9.79608551139843E-16,1.,0.));
#1180=DIRECTION('',(1.,9.79608551139843E-16,0.));
#1181=DIRECTION('',(-9.79608551139843E-16,1.,0.));
#1182=DIRECTION('',(1.,9.79608551139843E-16,0.));
#1183=DIRECTION('',(-9.79608551139843E-16,1.,0.));
#1184=DIRECTION('',(1.,9.79608551139843E-16,0.));
#1185=DIRECTION('',(-9.79608551139843E-16,1.,0.));
#1186=DIRECTION('',(1.,9.79608551139843E-16,0.));
#1187=DIRECTION('',(-9.79608551139843E-16,1.,0.));
#1188=DIRECTION('',(1.,9.79608551139843E-16,0.));
#1189=DIRECTION('',(-9.79608551139843E-16,1.,0.));
#1190=DIRECTION('',(1.,9.79608551139843E-16,0.));
#1191=DIRECTION('',(-9.79608551139843E-16,1.,0.));
#1192=DIRECTION('',(-1.,-1.15648231731787E-15,0.));
#1193=DIRECTION('',(1.15648231731787E-15,-1.,0.));
#1194=DIRECTION('',(-1.,-1.15648231731787E-15,0.));
#1195=DIRECTION('',(1.15648231731787E-15,-1.,0.));
#1196=DIRECTION('',(0.,0.,1.));
#1197=DIRECTION('',(1.,0.,0.));
#1198=DIRECTION('',(1.,1.1311545214021E-15,0.));
#1199=DIRECTION('',(-1.,-1.27254883657736E-15,0.));
#1200=DIRECTION('',(1.02517415108843E-15,-0.90630778703665,-0.422618261740699));
#1201=DIRECTION('',(-1.,-1.1311545214021E-15,0.));
#1202=DIRECTION('',(1.,1.1311545214021E-15,-7.2331653425416E-33));
#1203=DIRECTION('',(-1.,-1.1311545214021E-15,7.2331653425416E-33));
#1204=DIRECTION('',(-1.15332091997449E-15,0.90630778703665,-0.422618261740699));
#1205=DIRECTION('',(1.,1.27254883657736E-15,0.));
#1206=DIRECTION('',(1.,1.27254883657736E-15,1.18721425337428E-31));
#1207=DIRECTION('',(1.,9.79608551139843E-16,0.));
#1208=DIRECTION('',(-9.79608551139843E-16,1.,0.));
#1209=DIRECTION('',(-1.,-1.1311545214021E-15,4.93038065763132E-32));
#1210=DIRECTION('',(1.1311545214021E-15,-1.,0.));
#1211=DIRECTION('',(1.,1.1311545214021E-15,0.));
#1212=DIRECTION('',(-1.1311545214021E-15,1.,0.));
#1213=DIRECTION('',(-1.,-1.27254883657736E-15,0.));
#1214=DIRECTION('',(1.27254883657736E-15,-1.,0.));
#1215=CARTESIAN_POINT('',(0.,0.,0.));
#1216=CARTESIAN_POINT('',(0.0156257078879315,0.021,0.063));
#1217=CARTESIAN_POINT('',(0.0156257078879315,0.00741229412950455,0.0258571414723117));
#1218=CARTESIAN_POINT('',(0.0156257078879315,0.00916229412950455,0.0258571414723117));
#1219=CARTESIAN_POINT('',(0.0156257078879315,0.031814686366403,0.0210541308008441));
#1220=CARTESIAN_POINT('',(0.0156257078879315,0.033564686366403,0.0210541308008441));
#1221=CARTESIAN_POINT('',(0.0156257078879315,0.0237730195040925,0.0445887277268441));
#1222=CARTESIAN_POINT('',(0.0156257078879315,0.0255230195040925,0.0445887277268441));
#1223=CARTESIAN_POINT('',(0.0156257078879315,0.0448476936738001,0.0519));
#1224=CARTESIAN_POINT('',(0.0156257078879315,0.0475400689360917,0.046126182617407));
#1225=CARTESIAN_POINT('',(0.0156257078879315,0.0625630778703666,0.0139092359909776));
#1226=CARTESIAN_POINT('',(0.0156257078879315,0.0535,0.0096830533735706));
#1227=CARTESIAN_POINT('',(0.0156257078879315,0.0635,0.0096830533735706));
#1228=CARTESIAN_POINT('',(0.0156257078879315,0.0635,0.063));
#1229=CARTESIAN_POINT('',(0.0156257078879315,0.0635,0.008));
#1230=CARTESIAN_POINT('',(0.0156257078879315,0.021,0.008));
#1231=CARTESIAN_POINT('',(0.0156257078879315,-0.0215,0.008));
#1232=CARTESIAN_POINT('',(0.0156257078879315,-0.0215,0.063));
#1233=CARTESIAN_POINT('',(0.0156257078879315,-0.0215,0.0119));
#1234=CARTESIAN_POINT('',(0.0156257078879315,-0.00284769367379999,0.0519));
#1235=CARTESIAN_POINT('',(0.0156257078879315,-0.00554006893609155,0.046126182617407));
#1236=CARTESIAN_POINT('',(0.0156257078879315,0.00352300893427495,0.0419));
#1237=CARTESIAN_POINT('',(0.0156257078879315,0.00352300893427495,0.0519));
#1238=CARTESIAN_POINT('',(0.0156257078879315,0.021,0.0519));
#1239=CARTESIAN_POINT('',(0.0156257078879315,0.0384769910657252,0.0519));
#1240=CARTESIAN_POINT('',(0.0156257078879315,0.0384769910657252,0.0419));
#1241=CARTESIAN_POINT('',(-0.0586742416855511,0.0367625631329236,0.003));
#1242=CARTESIAN_POINT('',(-0.0586742416855511,0.0367625631329236,0.003));
#1243=CARTESIAN_POINT('',(-0.0566742416855511,0.0367625631329236,0.003));
#1244=CARTESIAN_POINT('',(-0.0586742416855511,0.0367625631329236,-0.002));
#1245=CARTESIAN_POINT('',(-0.0566742416855511,0.0367625631329236,-0.002));
#1246=CARTESIAN_POINT('',(-0.0271491154197041,0.0367625631329236,0.003));
#1247=CARTESIAN_POINT('',(-0.0271491154197041,0.0367625631329236,0.003));
#1248=CARTESIAN_POINT('',(-0.025149115419704,0.0367625631329236,0.003));
#1249=CARTESIAN_POINT('',(-0.0271491154197041,0.0367625631329236,-0.002));
#1250=CARTESIAN_POINT('',(-0.025149115419704,0.0367625631329236,-0.002));
#1251=CARTESIAN_POINT('',(-0.0271491154197041,0.00523743686707646,0.003));
#1252=CARTESIAN_POINT('',(-0.0271491154197041,0.00523743686707646,0.003));
#1253=CARTESIAN_POINT('',(-0.025149115419704,0.00523743686707646,0.003));
#1254=CARTESIAN_POINT('',(-0.0271491154197041,0.00523743686707646,-0.002));
#1255=CARTESIAN_POINT('',(-0.025149115419704,0.00523743686707646,-0.002));
#1256=CARTESIAN_POINT('',(-0.0586742416855511,0.00523743686707646,0.003));
#1257=CARTESIAN_POINT('',(-0.0586742416855511,0.00523743686707646,0.003));
#1258=CARTESIAN_POINT('',(-0.0566742416855511,0.00523743686707646,0.003));
#1259=CARTESIAN_POINT('',(-0.0586742416855511,0.00523743686707646,-0.002));
#1260=CARTESIAN_POINT('',(-0.0566742416855511,0.00523743686707646,-0.002));
#1261=CARTESIAN_POINT('',(-0.0429116785526275,0.021,0.003));
#1262=CARTESIAN_POINT('',(-0.0429116785526275,0.021,0.003));
#1263=CARTESIAN_POINT('',(-0.0318116785526276,0.021,0.003));
#1264=CARTESIAN_POINT('',(-0.0429116785526275,0.021,-0.002));
#1265=CARTESIAN_POINT('',(-0.0318116785526276,0.021,-0.002));
#1266=CARTESIAN_POINT('',(-0.0429116785526275,0.021,0.003));
#1267=CARTESIAN_POINT('',(-0.0429116785526275,-0.0215,0.003));
#1268=CARTESIAN_POINT('',(-0.0674490649931866,-0.0215,0.003));
#1269=CARTESIAN_POINT('',(0.0106257078879315,-0.0215,0.003));
#1270=CARTESIAN_POINT('',(0.0106257078879315,0.021,0.003));
#1271=CARTESIAN_POINT('',(0.0106257078879315,0.0635,0.003));
#1272=CARTESIAN_POINT('',(-0.0429116785526276,0.0635,0.003));
#1273=CARTESIAN_POINT('',(-0.0674490649931867,0.0635,0.003));
#1274=CARTESIAN_POINT('',(-0.0797177582134662,0.04225,0.003));
#1275=CARTESIAN_POINT('',(-0.0919864514337458,0.021,0.003));
#1276=CARTESIAN_POINT('',(-0.0797177582134662,-0.00025000000000004,0.003));
#1277=CARTESIAN_POINT('',(-0.0203992921120686,-0.0179925971146731,0.003));
#1278=CARTESIAN_POINT('',(-0.0218742921120685,-0.0188441887617277,0.003));
#1279=CARTESIAN_POINT('',(-0.0189242921120685,-0.0171410054676183,0.003));
#1280=CARTESIAN_POINT('',(-0.0549053717729071,0.000226313972081675,0.003));
#1281=CARTESIAN_POINT('',(-0.0248242921120684,-0.0171410054676183,0.003));
#1282=CARTESIAN_POINT('',(-0.0248242921120683,0.021,0.003));
#1283=CARTESIAN_POINT('',(-0.0248242921120684,-0.0137346388793995,0.003));
#1284=CARTESIAN_POINT('',(-0.0233492921120686,-0.0128830472323449,0.003));
#1285=CARTESIAN_POINT('',(-0.0218742921120685,-0.0120314555852901,0.003));
#1286=CARTESIAN_POINT('',(-0.0519553717729071,0.00533586385440983,0.003));
#1287=CARTESIAN_POINT('',(-0.0189242921120685,-0.0137346388793995,0.003));
#1288=CARTESIAN_POINT('',(-0.0189242921120683,0.021,0.003));
#1289=CARTESIAN_POINT('',(-0.067173011803285,-0.00204086280777231,0.003));
#1290=CARTESIAN_POINT('',(-0.0882983941594077,0.0202035273292395,0.003));
#1291=CARTESIAN_POINT('',(-0.0859526572302781,0.0177335371283174,0.003));
#1292=CARTESIAN_POINT('',(-0.0844301383658776,0.0332809834706593,0.003));
#1293=CARTESIAN_POINT('',(-0.0873321883628754,0.023469990200922,0.003));
#1294=CARTESIAN_POINT('',(-0.045901724465189,0.0334333968672742,0.003));
#1295=CARTESIAN_POINT('',(-0.0840202456372134,0.0242664628716825,0.003));
#1296=CARTESIAN_POINT('',(-0.0628948632810908,0.00202207273467074,0.003));
#1297=CARTESIAN_POINT('',(-0.0816745087080839,0.0217964726707604,0.003));
#1298=CARTESIAN_POINT('',(-0.078772458711086,0.031607465940498,0.003));
#1299=CARTESIAN_POINT('',(-0.0826407145046162,0.0185300097990779,0.003));
#1300=CARTESIAN_POINT('',(-0.0445221933325918,0.0276969437946697,0.003));
#1301=CARTESIAN_POINT('',(-0.0454664534937917,0.022475,0.003));
#1302=CARTESIAN_POINT('',(-0.0235774754061779,0.060387822173509,0.003));
#1303=CARTESIAN_POINT('',(-0.0252806587002873,0.057437822173509,0.003));
#1304=CARTESIAN_POINT('',(-0.0429116785526275,0.060387822173509,0.003));
#1305=CARTESIAN_POINT('',(-0.0201711088179591,0.060387822173509,0.003));
#1306=CARTESIAN_POINT('',(-0.00880082395062485,0.0406939110867545,0.003));
#1307=CARTESIAN_POINT('',(-0.0184679255238497,0.057437822173509,0.003));
#1308=CARTESIAN_POINT('',(-0.0403569036114635,0.019525,0.003));
#1309=CARTESIAN_POINT('',(-0.0201711088179591,0.054487822173509,0.003));
#1310=CARTESIAN_POINT('',(-0.0429116785526275,0.054487822173509,0.003));
#1311=CARTESIAN_POINT('',(-0.0235774754061779,0.054487822173509,0.003));
#1312=CARTESIAN_POINT('',(-0.013910373832953,0.0377439110867544,0.003));
#1313=CARTESIAN_POINT('',(-0.0797177582134662,-0.00025000000000004,0.));
#1314=CARTESIAN_POINT('',(-0.0919864514337458,0.021,0.));
#1315=CARTESIAN_POINT('',(-0.0919864514337458,0.021,-0.002));
#1316=CARTESIAN_POINT('',(-0.0797177582134662,-0.00025000000000004,-0.002));
#1317=CARTESIAN_POINT('',(-0.0674490649931866,-0.0215,-0.002));
#1318=CARTESIAN_POINT('',(-0.0674490649931866,-0.0215,0.));
#1319=CARTESIAN_POINT('',(-0.0429116785526275,-0.0215,0.));
#1320=CARTESIAN_POINT('',(0.0216257078879316,-0.0215,-0.002));
#1321=CARTESIAN_POINT('',(0.0216257078879316,-0.0215,-0.002));
#1322=CARTESIAN_POINT('',(0.0216257078879316,-0.0215,0.0119));
#1323=CARTESIAN_POINT('',(-0.0429116785526275,-0.0215,0.0119));
#1324=CARTESIAN_POINT('',(0.0106257078879315,-0.0215,0.008));
#1325=CARTESIAN_POINT('',(-0.0429116785526275,-0.0215,-0.002));
#1326=CARTESIAN_POINT('',(-0.0429116785526276,0.0635,0.));
#1327=CARTESIAN_POINT('',(-0.0429116785526276,0.0635,0.0096830533735706));
#1328=CARTESIAN_POINT('',(0.0216257078879315,0.0635,0.0096830533735706));
#1329=CARTESIAN_POINT('',(0.0216257078879315,0.0635,-0.002));
#1330=CARTESIAN_POINT('',(0.0216257078879315,0.0635,-0.002));
#1331=CARTESIAN_POINT('',(-0.0429116785526276,0.0635,-0.002));
#1332=CARTESIAN_POINT('',(-0.0674490649931867,0.0635,-0.002));
#1333=CARTESIAN_POINT('',(-0.0674490649931867,0.0635,0.));
#1334=CARTESIAN_POINT('',(0.0106257078879315,0.0635,0.008));
#1335=CARTESIAN_POINT('',(-0.0797177582134662,0.04225,0.));
#1336=CARTESIAN_POINT('',(-0.0797177582134662,0.04225,-0.002));
#1337=CARTESIAN_POINT('',(-0.0244290670532326,0.058912822173509,0.025));
#1338=CARTESIAN_POINT('',(-0.0252806587002873,0.057437822173509,0.025));
#1339=CARTESIAN_POINT('',(-0.0252806587002873,0.057437822173509,-0.002));
#1340=CARTESIAN_POINT('',(-0.0454664534937917,0.022475,-0.002));
#1341=CARTESIAN_POINT('',(-0.0235774754061779,0.060387822173509,-0.002));
#1342=CARTESIAN_POINT('',(-0.0235774754061779,0.060387822173509,0.025));
#1343=CARTESIAN_POINT('',(-0.0218742921120685,0.060387822173509,0.025));
#1344=CARTESIAN_POINT('',(-0.0429116785526275,0.060387822173509,-0.002));
#1345=CARTESIAN_POINT('',(-0.0201711088179591,0.060387822173509,-0.002));
#1346=CARTESIAN_POINT('',(-0.0201711088179591,0.060387822173509,0.025));
#1347=CARTESIAN_POINT('',(-0.0193195171709044,0.058912822173509,0.025));
#1348=CARTESIAN_POINT('',(-0.00880082395062485,0.0406939110867545,-0.002));
#1349=CARTESIAN_POINT('',(-0.0184679255238497,0.057437822173509,-0.002));
#1350=CARTESIAN_POINT('',(-0.0184679255238497,0.057437822173509,0.025));
#1351=CARTESIAN_POINT('',(-0.0193195171709044,0.055962822173509,0.025));
#1352=CARTESIAN_POINT('',(-0.0403569036114635,0.019525,-0.002));
#1353=CARTESIAN_POINT('',(-0.0201711088179591,0.054487822173509,-0.002));
#1354=CARTESIAN_POINT('',(-0.0201711088179591,0.054487822173509,0.025));
#1355=CARTESIAN_POINT('',(-0.0218742921120685,0.054487822173509,0.025));
#1356=CARTESIAN_POINT('',(-0.0429116785526275,0.054487822173509,-0.002));
#1357=CARTESIAN_POINT('',(-0.0235774754061779,0.054487822173509,-0.002));
#1358=CARTESIAN_POINT('',(-0.0235774754061779,0.054487822173509,0.025));
#1359=CARTESIAN_POINT('',(-0.0244290670532326,0.055962822173509,0.025));
#1360=CARTESIAN_POINT('',(-0.013910373832953,0.0377439110867544,-0.002));
#1361=CARTESIAN_POINT('',(-0.0871255256948429,0.0189685322287784,0.025));
#1362=CARTESIAN_POINT('',(-0.0859526572302781,0.0177335371283174,0.025));
#1363=CARTESIAN_POINT('',(-0.0859526572302781,0.0177335371283174,-0.002));
#1364=CARTESIAN_POINT('',(-0.067173011803285,-0.00204086280777231,-0.002));
#1365=CARTESIAN_POINT('',(-0.0882983941594077,0.0202035273292395,-0.002));
#1366=CARTESIAN_POINT('',(-0.0882983941594077,0.0202035273292395,0.025));
#1367=CARTESIAN_POINT('',(-0.0881805975485936,0.0206017636646197,0.025));
#1368=CARTESIAN_POINT('',(-0.0844301383658776,0.0332809834706593,-0.002));
#1369=CARTESIAN_POINT('',(-0.0873321883628754,0.023469990200922,-0.002));
#1370=CARTESIAN_POINT('',(-0.0873321883628754,0.023469990200922,0.025));
#1371=CARTESIAN_POINT('',(-0.0856762170000444,0.0238682265363022,0.025));
#1372=CARTESIAN_POINT('',(-0.045901724465189,0.0334333968672742,-0.002));
#1373=CARTESIAN_POINT('',(-0.0840202456372134,0.0242664628716825,-0.002));
#1374=CARTESIAN_POINT('',(-0.0840202456372134,0.0242664628716825,0.025));
#1375=CARTESIAN_POINT('',(-0.0828473771726487,0.0230314677712215,0.025));
#1376=CARTESIAN_POINT('',(-0.0628948632810908,0.00202207273467074,-0.002));
#1377=CARTESIAN_POINT('',(-0.0816745087080839,0.0217964726707604,-0.002));
#1378=CARTESIAN_POINT('',(-0.0816745087080839,0.0217964726707604,0.025));
#1379=CARTESIAN_POINT('',(-0.08215761160635,0.0201632412349192,0.025));
#1380=CARTESIAN_POINT('',(-0.078772458711086,0.031607465940498,-0.002));
#1381=CARTESIAN_POINT('',(-0.0826407145046162,0.0185300097990779,-0.002));
#1382=CARTESIAN_POINT('',(-0.0826407145046162,0.0185300097990779,0.025));
#1383=CARTESIAN_POINT('',(-0.0842966858674471,0.0181317734636977,0.025));
#1384=CARTESIAN_POINT('',(-0.0445221933325918,0.0276969437946697,-0.002));
#1385=CARTESIAN_POINT('',(-0.0196617921120684,-0.0175668012911456,0.025));
#1386=CARTESIAN_POINT('',(-0.0189242921120685,-0.0171410054676183,0.025));
#1387=CARTESIAN_POINT('',(-0.0189242921120685,-0.0171410054676183,-0.002));
#1388=CARTESIAN_POINT('',(-0.0203992921120686,-0.0179925971146731,-0.002));
#1389=CARTESIAN_POINT('',(-0.0218742921120685,-0.0188441887617277,-0.002));
#1390=CARTESIAN_POINT('',(-0.0218742921120685,-0.0188441887617277,0.025));
#1391=CARTESIAN_POINT('',(-0.0233492921120684,-0.017992597114673,0.025));
#1392=CARTESIAN_POINT('',(-0.0549053717729071,0.000226313972081675,-0.002));
#1393=CARTESIAN_POINT('',(-0.0248242921120684,-0.0171410054676183,-0.002));
#1394=CARTESIAN_POINT('',(-0.0248242921120684,-0.0171410054676183,0.025));
#1395=CARTESIAN_POINT('',(-0.0248242921120684,-0.0154378221735089,0.025));
#1396=CARTESIAN_POINT('',(-0.0248242921120683,0.021,-0.002));
#1397=CARTESIAN_POINT('',(-0.0248242921120684,-0.0137346388793995,-0.002));
#1398=CARTESIAN_POINT('',(-0.0248242921120684,-0.0137346388793995,0.025));
#1399=CARTESIAN_POINT('',(-0.0233492921120684,-0.0128830472323448,0.025));
#1400=CARTESIAN_POINT('',(-0.0233492921120686,-0.0128830472323449,-0.002));
#1401=CARTESIAN_POINT('',(-0.0218742921120685,-0.0120314555852901,-0.002));
#1402=CARTESIAN_POINT('',(-0.0218742921120685,-0.0120314555852901,0.025));
#1403=CARTESIAN_POINT('',(-0.0203992921120685,-0.0128830472323448,0.025));
#1404=CARTESIAN_POINT('',(-0.0519553717729071,0.00533586385440983,-0.002));
#1405=CARTESIAN_POINT('',(-0.0189242921120685,-0.0137346388793995,-0.002));
#1406=CARTESIAN_POINT('',(-0.0189242921120685,-0.0137346388793995,0.025));
#1407=CARTESIAN_POINT('',(-0.0189242921120685,-0.0154378221735089,0.025));
#1408=CARTESIAN_POINT('',(-0.0189242921120683,0.021,-0.002));
#1409=CARTESIAN_POINT('',(-0.0429116785526275,0.021,-0.002));
#1410=CARTESIAN_POINT('',(0.0216257078879316,0.021,-0.002));
#1411=CARTESIAN_POINT('',(0.0216257078879316,0.021,-0.002));
#1412=CARTESIAN_POINT('',(0.0216257078879315,0.0535,0.0096830533735706));
#1413=CARTESIAN_POINT('',(0.0216257078879315,0.0625630778703666,0.0139092359909776));
#1414=CARTESIAN_POINT('',(0.0216257078879315,0.0448476936738001,0.0519));
#1415=CARTESIAN_POINT('',(0.0216257078879315,0.0475400689360917,0.046126182617407));
#1416=CARTESIAN_POINT('',(0.0216257078879315,0.0384769910657252,0.0419));
#1417=CARTESIAN_POINT('',(0.0216257078879315,0.0384769910657252,0.0519));
#1418=CARTESIAN_POINT('',(0.0216257078879316,0.021,0.0519));
#1419=CARTESIAN_POINT('',(0.0216257078879315,0.0269468206899593,0.0519));
#1420=CARTESIAN_POINT('',(0.0216257078879315,0.0269468206899593,0.0519));
#1421=CARTESIAN_POINT('',(0.0216257078879315,0.0284401858677392,0.0519));
#1422=CARTESIAN_POINT('',(0.0216257078879316,0.0314059362090088,0.0517763960156655));
#1423=CARTESIAN_POINT('',(0.0216257078879315,0.0358053699022443,0.0509240886899568));
#1424=CARTESIAN_POINT('',(0.0216257078879316,0.039971718241709,0.0491572437142937));
#1425=CARTESIAN_POINT('',(0.0216257078879315,0.0422818021611271,0.04718437861588));
#1426=CARTESIAN_POINT('',(0.0216257078879315,0.0431462328479417,0.0459448816973376));
#1427=CARTESIAN_POINT('',(0.0216257078879315,0.0431462328479417,0.0459448816973376));
#1428=CARTESIAN_POINT('',(0.0216257078879316,0.021,0.0305));
#1429=CARTESIAN_POINT('',(0.0216257078879316,-0.00114623284794154,0.0459448816973376));
#1430=CARTESIAN_POINT('',(0.0216257078879316,-0.00114623284794154,0.0459448816973376));
#1431=CARTESIAN_POINT('',(0.0216257078879316,-0.000278628955194712,0.0471889286382646));
#1432=CARTESIAN_POINT('',(0.0216257078879316,0.00202983582152101,0.0491557730233119));
#1433=CARTESIAN_POINT('',(0.0216257078879316,0.00618035736276893,0.050919885198563));
#1434=CARTESIAN_POINT('',(0.0216257078879316,0.0105906356376951,0.0517766375149384));
#1435=CARTESIAN_POINT('',(0.0216257078879316,0.0135583017987319,0.0519));
#1436=CARTESIAN_POINT('',(0.0216257078879316,0.0150531793100407,0.0519));
#1437=CARTESIAN_POINT('',(0.0216257078879316,0.0150531793100407,0.0519));
#1438=CARTESIAN_POINT('',(0.0216257078879316,0.021,0.0519));
#1439=CARTESIAN_POINT('',(0.0216257078879316,0.00352300893427496,0.0519));
#1440=CARTESIAN_POINT('',(0.0216257078879316,0.00352300893427496,0.0419));
#1441=CARTESIAN_POINT('',(0.0216257078879316,-0.00554006893609154,0.046126182617407));
#1442=CARTESIAN_POINT('',(0.0216257078879316,-0.00284769367379998,0.0519));
#1443=CARTESIAN_POINT('',(0.0106257078879315,0.021,0.008));
#1444=CARTESIAN_POINT('',(-0.00337429211206846,0.00741229412950453,0.0258571414723117));
#1445=CARTESIAN_POINT('',(0.0276257078879316,0.00741229412950456,0.0258571414723117));
#1446=CARTESIAN_POINT('',(0.0276257078879316,0.00916229412950456,0.0258571414723117));
#1447=CARTESIAN_POINT('',(-0.00337429211206849,0.031814686366403,0.0210541308008441));
#1448=CARTESIAN_POINT('',(0.0276257078879315,0.031814686366403,0.0210541308008441));
#1449=CARTESIAN_POINT('',(0.0276257078879315,0.0335646863664031,0.0210541308008441));
#1450=CARTESIAN_POINT('',(-0.00337429211206848,0.0237730195040925,0.0445887277268441));
#1451=CARTESIAN_POINT('',(0.0276257078879316,0.0237730195040925,0.0445887277268442));
#1452=CARTESIAN_POINT('',(0.0276257078879316,0.0255230195040925,0.0445887277268442));
#1453=CARTESIAN_POINT('',(0.0276257078879316,0.021,0.0305));
#1454=CARTESIAN_POINT('',(0.0276257078879316,0.021,0.0305));
#1455=CARTESIAN_POINT('',(0.0276257078879315,0.037857864376269,0.0305));
#1456=CARTESIAN_POINT('',(0.0276257078879316,0.021,0.0305));
#1457=CARTESIAN_POINT('',(0.0216257078879315,0.0431462328479416,0.0459448816973376));
#1458=CARTESIAN_POINT('',(0.0227093995661209,0.0416716342033548,0.0461648335037508));
#1459=CARTESIAN_POINT('',(0.0237427284068402,0.0401714295850369,0.0464111380174315));
#1460=CARTESIAN_POINT('',(0.024696775699797,0.038627949650392,0.0466817547499517));
#1461=CARTESIAN_POINT('',(0.024696775699797,0.0386279496503921,0.0466817547499517));
#1462=CARTESIAN_POINT('',(0.024696775699797,0.021,0.0305));
#1463=CARTESIAN_POINT('',(0.0246967756997874,0.00337205034959258,0.046681754749949));
#1464=CARTESIAN_POINT('',(0.0246967756997875,0.00337205034959255,0.046681754749949));
#1465=CARTESIAN_POINT('',(0.0237434044822807,0.00182966418556067,0.0464113297870936));
#1466=CARTESIAN_POINT('',(0.0227081174973178,0.00032662126269959,0.0461645732882717));
#1467=CARTESIAN_POINT('',(0.0216257078879316,-0.00114623284794155,0.0459448816973376));
#1468=CARTESIAN_POINT('',(-0.0351803717729071,0.021,0.0519));
#1469=CARTESIAN_POINT('',(0.0216257078879316,0.0150531793100407,0.0519));
#1470=CARTESIAN_POINT('',(0.0220588511247435,0.0159896960279281,0.0519));
#1471=CARTESIAN_POINT('',(0.0227922093271909,0.0179087769462323,0.0519));
#1472=CARTESIAN_POINT('',(0.0232290686172939,0.0210129439677621,0.0519));
#1473=CARTESIAN_POINT('',(0.0227929371017379,0.0240811076591052,0.0519));
#1474=CARTESIAN_POINT('',(0.0220587216067303,0.0260105840082685,0.0519));
#1475=CARTESIAN_POINT('',(0.0216257078879316,0.0269468206899593,0.0519));
#1476=CARTESIAN_POINT('',(-0.0351803717729071,0.0384769910657251,0.0519));
#1477=CARTESIAN_POINT('',(-0.0351803717729071,0.00352300893427489,0.0519));
#1478=CARTESIAN_POINT('',(-0.0351803717729071,0.0448476936738001,0.0519));
#1479=CARTESIAN_POINT('',(-0.0351803717729071,0.0625630778703665,0.0139092359909776));
#1480=CARTESIAN_POINT('',(-0.0351803717729071,0.0475400689360916,0.046126182617407));
#1481=CARTESIAN_POINT('',(-0.035180371772907,-0.00284769367380004,0.0519));
#1482=CARTESIAN_POINT('',(-0.035180371772907,-0.00554006893609161,0.046126182617407));
#1483=CARTESIAN_POINT('',(0.0214823720930718,-0.00134071858306765,0.0459159972517087));
#1484=CARTESIAN_POINT('',(0.0194563022823321,0.000326867737695357,0.0519));
#1485=CARTESIAN_POINT('',(0.0144113042812063,0.00447922695570398,0.0519));
#1486=CARTESIAN_POINT('',(0.022490710076618,2.35955919006101E-5,0.0461177423940416));
#1487=CARTESIAN_POINT('',(0.0203853367448654,0.00170117139687999,0.0518999999999856));
#1488=CARTESIAN_POINT('',(0.0154196422652236,0.0057043288420883,0.0519));
#1489=CARTESIAN_POINT('',(0.0244672848738911,0.00285551418163728,0.0465734840095727));
#1490=CARTESIAN_POINT('',(0.022187208473727,0.00452727327609036,0.0519000000000068));
#1491=CARTESIAN_POINT('',(0.0173962170618014,0.00819233050234604,0.0519));
#1492=CARTESIAN_POINT('',(0.0267390907227612,0.00682230376237259,0.0473086202975477));
#1493=CARTESIAN_POINT('',(0.0242398547212831,0.00842089763245724,0.0518999999999992));
#1494=CARTESIAN_POINT('',(0.0196680229109236,0.0114308125020634,0.0519));
#1495=CARTESIAN_POINT('',(0.0283217311717214,0.0105427451206897,0.0479776831765565));
#1496=CARTESIAN_POINT('',(0.0256422608083848,0.0119170795385871,0.0519000000000002));
#1497=CARTESIAN_POINT('',(0.0212506633598507,0.0141995884801848,0.0519));
#1498=CARTESIAN_POINT('',(0.0293020163365985,0.0136515033716664,0.0484683435002109));
#1499=CARTESIAN_POINT('',(0.0264942771716315,0.0147169792385891,0.0519));
#1500=CARTESIAN_POINT('',(0.0222309485247344,0.01635689509648,0.0519));
#1501=CARTESIAN_POINT('',(0.0299908965790925,0.0171817722197704,0.0488671705799598));
#1502=CARTESIAN_POINT('',(0.0270858535134853,0.0177773359645659,0.0519));
#1503=CARTESIAN_POINT('',(0.0229198287672266,0.018643153867454,0.0519));
#1504=CARTESIAN_POINT('',(0.030240232194663,0.0210827972805779,0.0490253183820092));
#1505=CARTESIAN_POINT('',(0.0272984670523938,0.0210695325889012,0.0519));
#1506=CARTESIAN_POINT('',(0.0231691643827977,0.0210507723456025,0.0519));
#1507=CARTESIAN_POINT('',(0.0299754854350649,0.0249231825673023,0.0488576342317806));
#1508=CARTESIAN_POINT('',(0.0270726822501142,0.0243122755293643,0.0519));
#1509=CARTESIAN_POINT('',(0.0229044176231991,0.0234229374686886,0.0519));
#1510=CARTESIAN_POINT('',(0.0292740351359774,0.0284587782600936,0.0484532065233408));
#1511=CARTESIAN_POINT('',(0.0264701238617493,0.0273804252113683,0.0519));
#1512=CARTESIAN_POINT('',(0.0222029673241133,0.0257169453694781,0.0519));
#1513=CARTESIAN_POINT('',(0.0282887612671219,0.0315436757166182,0.0479625550625683));
#1514=CARTESIAN_POINT('',(0.0256134184762545,0.0301624053710457,0.0519000000000001));
#1515=CARTESIAN_POINT('',(0.0212176934552512,0.0278628622539837,0.0519));
#1516=CARTESIAN_POINT('',(0.026701958817263,0.0352494632742923,0.0472951734922736));
#1517=CARTESIAN_POINT('',(0.024206761528785,0.033648114834327,0.0518999999999997));
#1518=CARTESIAN_POINT('',(0.0196308910054252,0.0306258271098332,0.0519));
#1519=CARTESIAN_POINT('',(0.0244375737270497,0.0391877408438428,0.0465662173628548));
#1520=CARTESIAN_POINT('',(0.0221604134650969,0.0375154915402945,0.0519000000000027));
#1521=CARTESIAN_POINT('',(0.0173665059149611,0.0338454393948222,0.0519));
#1522=CARTESIAN_POINT('',(0.0224822324323142,0.0419878007289503,0.0461160742668927));
#1523=CARTESIAN_POINT('',(0.0203775917010401,0.0403102090545423,0.0518999999999943));
#1524=CARTESIAN_POINT('',(0.0154111646209173,0.0363059306937734,0.0519));
#1525=CARTESIAN_POINT('',(0.0214837803438092,0.0433388131216013,0.0459162790299269));
#1526=CARTESIAN_POINT('',(0.0194576091102493,0.0416711990413087,0.0519));
#1527=CARTESIAN_POINT('',(0.0144127125319437,0.0375190620312392,0.0519));
#1528=CARTESIAN_POINT('',(0.0246967756997911,0.0386279496503963,0.0466817547499557));
#1529=CARTESIAN_POINT('',(0.0249049847984629,0.0379913955216151,0.0470673076658941));
#1530=CARTESIAN_POINT('',(0.0252888589737857,0.0366556380789481,0.0478022494803172));
#1531=CARTESIAN_POINT('',(0.0257501876295482,0.0345874576474591,0.0487315441422257));
#1532=CARTESIAN_POINT('',(0.0261215854711133,0.0324325056185622,0.0495101184675574));
#1533=CARTESIAN_POINT('',(0.0265096342907204,0.0294399470498655,0.0503475614816985));
#1534=CARTESIAN_POINT('',(0.0268025618428625,0.0256364811687904,0.0509921779590508));
#1535=CARTESIAN_POINT('',(0.0269157538364217,0.0210169125448544,0.0512326427705758));
#1536=CARTESIAN_POINT('',(0.0268018258429596,0.0163319003473704,0.0509904053543616));
#1537=CARTESIAN_POINT('',(0.0264497515054575,0.0118083218125306,0.0502164973400327));
#1538=CARTESIAN_POINT('',(0.0258079068689972,0.00741969444304277,0.0488333292054572));
#1539=CARTESIAN_POINT('',(0.0251131938972049,0.00464515860719297,0.0474528605817567));
#1540=CARTESIAN_POINT('',(0.024696775699797,0.00337205034960806,0.0466817547499517));
#1541=CARTESIAN_POINT('',(0.0176257078879316,0.021,0.0305));
#1542=CARTESIAN_POINT('',(-0.0429116785526276,0.0535,0.0096830533735706));
#1543=CARTESIAN_POINT('',(-0.0351803717729071,0.0384769910657251,0.0419));
#1544=CARTESIAN_POINT('',(-0.0351803717729071,0.00352300893427489,0.0419));
#1545=MECHANICAL_DESIGN_GEOMETRIC_PRESENTATION_REPRESENTATION('',(#902),
#1546);
#1546=(
GEOMETRIC_REPRESENTATION_CONTEXT(3)
GLOBAL_UNCERTAINTY_ASSIGNED_CONTEXT((#1547))
GLOBAL_UNIT_ASSIGNED_CONTEXT((#1550,#1549,#1548))
REPRESENTATION_CONTEXT('Part 1','TOP_LEVEL_ASSEMBLY_PART')
);
#1547=UNCERTAINTY_MEASURE_WITH_UNIT(LENGTH_MEASURE(2.E-5),#1550,
'DISTANCE_ACCURACY_VALUE','Maximum Tolerance applied to model');
#1548=(
NAMED_UNIT(*)
SI_UNIT($,.STERADIAN.)
SOLID_ANGLE_UNIT()
);
#1549=(
NAMED_UNIT(*)
PLANE_ANGLE_UNIT()
SI_UNIT($,.RADIAN.)
);
#1550=(
LENGTH_UNIT()
NAMED_UNIT(*)
SI_UNIT($,.METRE.)
);
#1551=PRODUCT_DEFINITION_SHAPE('','',#1552);
#1552=PRODUCT_DEFINITION('','',#1554,#1553);
#1553=PRODUCT_DEFINITION_CONTEXT('',#1560,'design');
#1554=PRODUCT_DEFINITION_FORMATION_WITH_SPECIFIED_SOURCE('','',#1556,
 .NOT_KNOWN.);
#1555=PRODUCT_RELATED_PRODUCT_CATEGORY('','',(#1556));
#1556=PRODUCT('Part 1','Part 1','Part 1',(#1558));
#1557=PRODUCT_CATEGORY('','');
#1558=PRODUCT_CONTEXT('',#1560,'mechanical');
#1559=APPLICATION_PROTOCOL_DEFINITION('international standard',
'ap242_managed_model_based_3d_engineering',2020,#1560);
#1560=APPLICATION_CONTEXT('managed model based 3d engineering');
ENDSEC;
END-ISO-10303-21;
