ISO-10303-21;
HEADER;
/* Generated by software containing ST-Developer
 * from STEP Tools, Inc. (www.steptools.com) 
 */
/* OPTION: using custom renumber hook */

FILE_DESCRIPTION(
/* description */ ('STEP AP242 Edition 2',
'CAx-IF Rec.Pracs.---Representation and Presentation of Product Manufa
cturing Information (PMI)---4.0---2014-10-13',
'CAx-IF Rec.Pracs.---3D Tessellated Geometry---0.4---2014-09-14','2;1',
'CAx-IF Rec.Pracs.---User Defined Attributes---1.5---2016-08-15'),
/* implementation_level */ '2;1');

FILE_NAME(
/* name */ 'output',
/* time_stamp */ '2026-08-19T18:11:30Z',
/* author */ (''),
/* organization */ (''),
/* preprocessor_version */ 'ST-DEVELOPER v20',
/* originating_system */ 'ONSHAPE BY PTC INC, 1.219',
/* authorisation */ '  ');

FILE_SCHEMA (('AP242_MANAGED_MODEL_BASED_3D_ENGINEERING_MIM_LF { 1 0 10303 442 3 1 4 }'));
ENDSEC;

DATA;
#10=SHAPE_REPRESENTATION_RELATIONSHIP('','',#853,#11);
#11=ADVANCED_BREP_SHAPE_REPRESENTATION('',(#851),#1465);
#12=TOROIDAL_SURFACE('',#897,0.021876362719846,0.001);
#13=TOROIDAL_SURFACE('',#898,0.021876362719846,0.001);
#14=TOROIDAL_SURFACE('',#899,0.021876362719846,0.001);
#15=B_SPLINE_CURVE_WITH_KNOTS('',3,(#1290,#1291,#1292,#1293),
 .UNSPECIFIED.,.F.,.F.,(4,4),(0.0002109598520947,0.00324994656181572),
 .UNSPECIFIED.);
#16=B_SPLINE_CURVE_WITH_KNOTS('',3,(#1298,#1299,#1300,#1301),
 .UNSPECIFIED.,.F.,.F.,(4,4),(2.62135916256705E-7,0.0030400697248348),
 .UNSPECIFIED.);
#17=B_SPLINE_CURVE_WITH_KNOTS('',3,(#1305,#1306,#1307,#1308),
 .UNSPECIFIED.,.F.,.F.,(4,4),(0.000210959852094705,0.00324994656181571),
 .UNSPECIFIED.);
#18=B_SPLINE_CURVE_WITH_KNOTS('',3,(#1312,#1313,#1314,#1315),
 .UNSPECIFIED.,.F.,.F.,(4,4),(2.62135916153656E-7,0.0030400697248347),
 .UNSPECIFIED.);
#19=B_SPLINE_CURVE_WITH_KNOTS('',3,(#1319,#1320,#1321,#1322),
 .UNSPECIFIED.,.F.,.F.,(4,4),(0.000210959852094807,0.00324994656181584),
 .UNSPECIFIED.);
#20=B_SPLINE_CURVE_WITH_KNOTS('',3,(#1326,#1327,#1328,#1329),
 .UNSPECIFIED.,.F.,.F.,(4,4),(2.62135916214437E-7,0.00304006972483476),
 .UNSPECIFIED.);
#21=B_SPLINE_CURVE_WITH_KNOTS('',3,(#1333,#1334,#1335,#1336),
 .UNSPECIFIED.,.F.,.F.,(4,4),(2.30494466081082E-7,0.000500522512983783),
 .UNSPECIFIED.);
#22=B_SPLINE_CURVE_WITH_KNOTS('',3,(#1337,#1338,#1339,#1340),
 .UNSPECIFIED.,.F.,.F.,(4,4),(3.8191207043936E-7,0.000500685611598567),
 .UNSPECIFIED.);
#23=B_SPLINE_CURVE_WITH_KNOTS('',3,(#1342,#1343,#1344,#1345),
 .UNSPECIFIED.,.F.,.F.,(4,4),(2.3049446596534E-7,0.000500522512983726),
 .UNSPECIFIED.);
#24=B_SPLINE_CURVE_WITH_KNOTS('',3,(#1346,#1347,#1348,#1349),
 .UNSPECIFIED.,.F.,.F.,(4,4),(3.8191208196008E-7,0.000500685611610136),
 .UNSPECIFIED.);
#25=B_SPLINE_CURVE_WITH_KNOTS('',3,(#1351,#1352,#1353,#1354),
 .UNSPECIFIED.,.F.,.F.,(4,4),(3.81912072434376E-7,0.000500685611600559),
 .UNSPECIFIED.);
#26=B_SPLINE_CURVE_WITH_KNOTS('',3,(#1355,#1356,#1357,#1358),
 .UNSPECIFIED.,.F.,.F.,(4,4),(2.30494466080497E-7,0.000500522512983733),
 .UNSPECIFIED.);
#27=CONICAL_SURFACE('',#890,0.0224537129890355,0.523598775598298);
#28=PLANE('',#870);
#29=PLANE('',#886);
#30=PLANE('',#900);
#31=PLANE('',#903);
#32=PLANE('',#906);
#33=PLANE('',#909);
#34=PLANE('',#910);
#35=PLANE('',#911);
#36=PLANE('',#912);
#37=PLANE('',#913);
#38=PLANE('',#914);
#39=PLANE('',#915);
#40=PLANE('',#916);
#41=PLANE('',#917);
#42=PLANE('',#918);
#43=PLANE('',#920);
#44=PLANE('',#921);
#45=PLANE('',#922);
#46=PLANE('',#923);
#47=PLANE('',#924);
#48=PLANE('',#925);
#49=PLANE('',#926);
#50=PLANE('',#928);
#51=PLANE('',#929);
#52=PLANE('',#930);
#53=PLANE('',#931);
#54=PLANE('',#932);
#55=PLANE('',#933);
#56=PLANE('',#934);
#57=PLANE('',#938);
#58=PLANE('',#941);
#59=PLANE('',#944);
#60=LINE('',#1207,#120);
#61=LINE('',#1211,#121);
#62=LINE('',#1216,#122);
#63=LINE('',#1220,#123);
#64=LINE('',#1244,#124);
#65=LINE('',#1248,#125);
#66=LINE('',#1250,#126);
#67=LINE('',#1253,#127);
#68=LINE('',#1255,#128);
#69=LINE('',#1257,#129);
#70=LINE('',#1259,#130);
#71=LINE('',#1261,#131);
#72=LINE('',#1262,#132);
#73=LINE('',#1265,#133);
#74=LINE('',#1267,#134);
#75=LINE('',#1269,#135);
#76=LINE('',#1271,#136);
#77=LINE('',#1273,#137);
#78=LINE('',#1274,#138);
#79=LINE('',#1277,#139);
#80=LINE('',#1279,#140);
#81=LINE('',#1281,#141);
#82=LINE('',#1283,#142);
#83=LINE('',#1285,#143);
#84=LINE('',#1372,#144);
#85=LINE('',#1374,#145);
#86=LINE('',#1376,#146);
#87=LINE('',#1378,#147);
#88=LINE('',#1380,#148);
#89=LINE('',#1382,#149);
#90=LINE('',#1384,#150);
#91=LINE('',#1386,#151);
#92=LINE('',#1388,#152);
#93=LINE('',#1390,#153);
#94=LINE('',#1392,#154);
#95=LINE('',#1394,#155);
#96=LINE('',#1399,#156);
#97=LINE('',#1401,#157);
#98=LINE('',#1403,#158);
#99=LINE('',#1405,#159);
#100=LINE('',#1407,#160);
#101=LINE('',#1409,#161);
#102=LINE('',#1411,#162);
#103=LINE('',#1413,#163);
#104=LINE('',#1415,#164);
#105=LINE('',#1417,#165);
#106=LINE('',#1419,#166);
#107=LINE('',#1421,#167);
#108=LINE('',#1426,#168);
#109=LINE('',#1428,#169);
#110=LINE('',#1430,#170);
#111=LINE('',#1432,#171);
#112=LINE('',#1434,#172);
#113=LINE('',#1436,#173);
#114=LINE('',#1438,#174);
#115=LINE('',#1440,#175);
#116=LINE('',#1442,#176);
#117=LINE('',#1444,#177);
#118=LINE('',#1446,#178);
#119=LINE('',#1448,#179);
#120=VECTOR('',#969,1.);
#121=VECTOR('',#972,1.);
#122=VECTOR('',#977,1.);
#123=VECTOR('',#980,1.);
#124=VECTOR('',#1011,1.);
#125=VECTOR('',#1014,1.);
#126=VECTOR('',#1017,1.);
#127=VECTOR('',#1018,1.);
#128=VECTOR('',#1019,1.);
#129=VECTOR('',#1020,1.);
#130=VECTOR('',#1021,1.);
#131=VECTOR('',#1022,1.);
#132=VECTOR('',#1023,1.);
#133=VECTOR('',#1024,1.);
#134=VECTOR('',#1025,1.);
#135=VECTOR('',#1026,1.);
#136=VECTOR('',#1027,1.);
#137=VECTOR('',#1028,1.);
#138=VECTOR('',#1029,1.);
#139=VECTOR('',#1030,1.);
#140=VECTOR('',#1031,1.);
#141=VECTOR('',#1032,1.);
#142=VECTOR('',#1033,1.);
#143=VECTOR('',#1034,1.);
#144=VECTOR('',#1087,1.);
#145=VECTOR('',#1088,1.);
#146=VECTOR('',#1089,1.);
#147=VECTOR('',#1092,1.);
#148=VECTOR('',#1093,1.);
#149=VECTOR('',#1096,1.);
#150=VECTOR('',#1097,1.);
#151=VECTOR('',#1100,1.);
#152=VECTOR('',#1101,1.);
#153=VECTOR('',#1104,1.);
#154=VECTOR('',#1105,1.);
#155=VECTOR('',#1108,1.);
#156=VECTOR('',#1115,1.);
#157=VECTOR('',#1116,1.);
#158=VECTOR('',#1117,1.);
#159=VECTOR('',#1120,1.);
#160=VECTOR('',#1121,1.);
#161=VECTOR('',#1124,1.);
#162=VECTOR('',#1125,1.);
#163=VECTOR('',#1128,1.);
#164=VECTOR('',#1129,1.);
#165=VECTOR('',#1132,1.);
#166=VECTOR('',#1133,1.);
#167=VECTOR('',#1136,1.);
#168=VECTOR('',#1143,1.);
#169=VECTOR('',#1144,1.);
#170=VECTOR('',#1145,1.);
#171=VECTOR('',#1148,1.);
#172=VECTOR('',#1149,1.);
#173=VECTOR('',#1152,1.);
#174=VECTOR('',#1153,1.);
#175=VECTOR('',#1156,1.);
#176=VECTOR('',#1157,1.);
#177=VECTOR('',#1160,1.);
#178=VECTOR('',#1161,1.);
#179=VECTOR('',#1164,1.);
#180=ORIENTED_EDGE('',*,*,#402,.T.);
#181=ORIENTED_EDGE('',*,*,#403,.F.);
#182=ORIENTED_EDGE('',*,*,#404,.T.);
#183=ORIENTED_EDGE('',*,*,#405,.F.);
#184=ORIENTED_EDGE('',*,*,#406,.T.);
#185=ORIENTED_EDGE('',*,*,#407,.F.);
#186=ORIENTED_EDGE('',*,*,#408,.F.);
#187=ORIENTED_EDGE('',*,*,#409,.T.);
#188=ORIENTED_EDGE('',*,*,#410,.T.);
#189=ORIENTED_EDGE('',*,*,#411,.T.);
#190=ORIENTED_EDGE('',*,*,#412,.T.);
#191=ORIENTED_EDGE('',*,*,#413,.T.);
#192=ORIENTED_EDGE('',*,*,#414,.F.);
#193=ORIENTED_EDGE('',*,*,#415,.T.);
#194=ORIENTED_EDGE('',*,*,#416,.F.);
#195=ORIENTED_EDGE('',*,*,#417,.T.);
#196=ORIENTED_EDGE('',*,*,#418,.F.);
#197=ORIENTED_EDGE('',*,*,#419,.T.);
#198=ORIENTED_EDGE('',*,*,#420,.F.);
#199=ORIENTED_EDGE('',*,*,#421,.T.);
#200=ORIENTED_EDGE('',*,*,#422,.T.);
#201=ORIENTED_EDGE('',*,*,#421,.F.);
#202=ORIENTED_EDGE('',*,*,#423,.T.);
#203=ORIENTED_EDGE('',*,*,#419,.F.);
#204=ORIENTED_EDGE('',*,*,#424,.T.);
#205=ORIENTED_EDGE('',*,*,#417,.F.);
#206=ORIENTED_EDGE('',*,*,#425,.F.);
#207=ORIENTED_EDGE('',*,*,#426,.T.);
#208=ORIENTED_EDGE('',*,*,#427,.T.);
#209=ORIENTED_EDGE('',*,*,#428,.T.);
#210=ORIENTED_EDGE('',*,*,#429,.F.);
#211=ORIENTED_EDGE('',*,*,#430,.F.);
#212=ORIENTED_EDGE('',*,*,#431,.F.);
#213=ORIENTED_EDGE('',*,*,#432,.F.);
#214=ORIENTED_EDGE('',*,*,#433,.F.);
#215=ORIENTED_EDGE('',*,*,#434,.F.);
#216=ORIENTED_EDGE('',*,*,#435,.F.);
#217=ORIENTED_EDGE('',*,*,#436,.F.);
#218=ORIENTED_EDGE('',*,*,#437,.F.);
#219=ORIENTED_EDGE('',*,*,#438,.F.);
#220=ORIENTED_EDGE('',*,*,#439,.F.);
#221=ORIENTED_EDGE('',*,*,#440,.F.);
#222=ORIENTED_EDGE('',*,*,#441,.F.);
#223=ORIENTED_EDGE('',*,*,#442,.F.);
#224=ORIENTED_EDGE('',*,*,#443,.F.);
#225=ORIENTED_EDGE('',*,*,#444,.F.);
#226=ORIENTED_EDGE('',*,*,#445,.F.);
#227=ORIENTED_EDGE('',*,*,#446,.F.);
#228=ORIENTED_EDGE('',*,*,#447,.F.);
#229=ORIENTED_EDGE('',*,*,#408,.T.);
#230=ORIENTED_EDGE('',*,*,#448,.F.);
#231=ORIENTED_EDGE('',*,*,#425,.T.);
#232=ORIENTED_EDGE('',*,*,#449,.F.);
#233=ORIENTED_EDGE('',*,*,#414,.T.);
#234=ORIENTED_EDGE('',*,*,#450,.F.);
#235=ORIENTED_EDGE('',*,*,#451,.T.);
#236=ORIENTED_EDGE('',*,*,#452,.F.);
#237=ORIENTED_EDGE('',*,*,#453,.T.);
#238=ORIENTED_EDGE('',*,*,#454,.F.);
#239=ORIENTED_EDGE('',*,*,#455,.T.);
#240=ORIENTED_EDGE('',*,*,#456,.F.);
#241=ORIENTED_EDGE('',*,*,#457,.T.);
#242=ORIENTED_EDGE('',*,*,#458,.F.);
#243=ORIENTED_EDGE('',*,*,#459,.T.);
#244=ORIENTED_EDGE('',*,*,#460,.F.);
#245=ORIENTED_EDGE('',*,*,#461,.T.);
#246=ORIENTED_EDGE('',*,*,#418,.T.);
#247=ORIENTED_EDGE('',*,*,#416,.T.);
#248=ORIENTED_EDGE('',*,*,#420,.T.);
#249=ORIENTED_EDGE('',*,*,#462,.F.);
#250=ORIENTED_EDGE('',*,*,#459,.F.);
#251=ORIENTED_EDGE('',*,*,#463,.F.);
#252=ORIENTED_EDGE('',*,*,#410,.F.);
#253=ORIENTED_EDGE('',*,*,#464,.F.);
#254=ORIENTED_EDGE('',*,*,#455,.F.);
#255=ORIENTED_EDGE('',*,*,#465,.F.);
#256=ORIENTED_EDGE('',*,*,#427,.F.);
#257=ORIENTED_EDGE('',*,*,#466,.F.);
#258=ORIENTED_EDGE('',*,*,#412,.F.);
#259=ORIENTED_EDGE('',*,*,#467,.F.);
#260=ORIENTED_EDGE('',*,*,#451,.F.);
#261=ORIENTED_EDGE('',*,*,#468,.T.);
#262=ORIENTED_EDGE('',*,*,#453,.F.);
#263=ORIENTED_EDGE('',*,*,#407,.T.);
#264=ORIENTED_EDGE('',*,*,#465,.T.);
#265=ORIENTED_EDGE('',*,*,#454,.T.);
#266=ORIENTED_EDGE('',*,*,#468,.F.);
#267=ORIENTED_EDGE('',*,*,#452,.T.);
#268=ORIENTED_EDGE('',*,*,#467,.T.);
#269=ORIENTED_EDGE('',*,*,#415,.F.);
#270=ORIENTED_EDGE('',*,*,#449,.T.);
#271=ORIENTED_EDGE('',*,*,#428,.F.);
#272=ORIENTED_EDGE('',*,*,#469,.T.);
#273=ORIENTED_EDGE('',*,*,#461,.F.);
#274=ORIENTED_EDGE('',*,*,#405,.T.);
#275=ORIENTED_EDGE('',*,*,#447,.T.);
#276=ORIENTED_EDGE('',*,*,#413,.F.);
#277=ORIENTED_EDGE('',*,*,#466,.T.);
#278=ORIENTED_EDGE('',*,*,#450,.T.);
#279=ORIENTED_EDGE('',*,*,#469,.F.);
#280=ORIENTED_EDGE('',*,*,#460,.T.);
#281=ORIENTED_EDGE('',*,*,#462,.T.);
#282=ORIENTED_EDGE('',*,*,#409,.F.);
#283=ORIENTED_EDGE('',*,*,#470,.T.);
#284=ORIENTED_EDGE('',*,*,#457,.F.);
#285=ORIENTED_EDGE('',*,*,#403,.T.);
#286=ORIENTED_EDGE('',*,*,#463,.T.);
#287=ORIENTED_EDGE('',*,*,#458,.T.);
#288=ORIENTED_EDGE('',*,*,#470,.F.);
#289=ORIENTED_EDGE('',*,*,#456,.T.);
#290=ORIENTED_EDGE('',*,*,#464,.T.);
#291=ORIENTED_EDGE('',*,*,#426,.F.);
#292=ORIENTED_EDGE('',*,*,#448,.T.);
#293=ORIENTED_EDGE('',*,*,#411,.F.);
#294=ORIENTED_EDGE('',*,*,#402,.F.);
#295=ORIENTED_EDGE('',*,*,#424,.F.);
#296=ORIENTED_EDGE('',*,*,#404,.F.);
#297=ORIENTED_EDGE('',*,*,#423,.F.);
#298=ORIENTED_EDGE('',*,*,#406,.F.);
#299=ORIENTED_EDGE('',*,*,#422,.F.);
#300=ORIENTED_EDGE('',*,*,#441,.T.);
#301=ORIENTED_EDGE('',*,*,#471,.F.);
#302=ORIENTED_EDGE('',*,*,#472,.F.);
#303=ORIENTED_EDGE('',*,*,#473,.T.);
#304=ORIENTED_EDGE('',*,*,#446,.T.);
#305=ORIENTED_EDGE('',*,*,#474,.F.);
#306=ORIENTED_EDGE('',*,*,#475,.F.);
#307=ORIENTED_EDGE('',*,*,#471,.T.);
#308=ORIENTED_EDGE('',*,*,#445,.T.);
#309=ORIENTED_EDGE('',*,*,#476,.F.);
#310=ORIENTED_EDGE('',*,*,#477,.F.);
#311=ORIENTED_EDGE('',*,*,#474,.T.);
#312=ORIENTED_EDGE('',*,*,#444,.T.);
#313=ORIENTED_EDGE('',*,*,#478,.F.);
#314=ORIENTED_EDGE('',*,*,#479,.F.);
#315=ORIENTED_EDGE('',*,*,#476,.T.);
#316=ORIENTED_EDGE('',*,*,#443,.T.);
#317=ORIENTED_EDGE('',*,*,#480,.F.);
#318=ORIENTED_EDGE('',*,*,#481,.F.);
#319=ORIENTED_EDGE('',*,*,#478,.T.);
#320=ORIENTED_EDGE('',*,*,#442,.T.);
#321=ORIENTED_EDGE('',*,*,#473,.F.);
#322=ORIENTED_EDGE('',*,*,#482,.F.);
#323=ORIENTED_EDGE('',*,*,#480,.T.);
#324=ORIENTED_EDGE('',*,*,#483,.F.);
#325=ORIENTED_EDGE('',*,*,#472,.T.);
#326=ORIENTED_EDGE('',*,*,#475,.T.);
#327=ORIENTED_EDGE('',*,*,#477,.T.);
#328=ORIENTED_EDGE('',*,*,#479,.T.);
#329=ORIENTED_EDGE('',*,*,#481,.T.);
#330=ORIENTED_EDGE('',*,*,#482,.T.);
#331=ORIENTED_EDGE('',*,*,#435,.T.);
#332=ORIENTED_EDGE('',*,*,#484,.F.);
#333=ORIENTED_EDGE('',*,*,#485,.F.);
#334=ORIENTED_EDGE('',*,*,#486,.T.);
#335=ORIENTED_EDGE('',*,*,#440,.T.);
#336=ORIENTED_EDGE('',*,*,#487,.F.);
#337=ORIENTED_EDGE('',*,*,#488,.F.);
#338=ORIENTED_EDGE('',*,*,#484,.T.);
#339=ORIENTED_EDGE('',*,*,#439,.T.);
#340=ORIENTED_EDGE('',*,*,#489,.F.);
#341=ORIENTED_EDGE('',*,*,#490,.F.);
#342=ORIENTED_EDGE('',*,*,#487,.T.);
#343=ORIENTED_EDGE('',*,*,#438,.T.);
#344=ORIENTED_EDGE('',*,*,#491,.F.);
#345=ORIENTED_EDGE('',*,*,#492,.F.);
#346=ORIENTED_EDGE('',*,*,#489,.T.);
#347=ORIENTED_EDGE('',*,*,#437,.T.);
#348=ORIENTED_EDGE('',*,*,#493,.F.);
#349=ORIENTED_EDGE('',*,*,#494,.F.);
#350=ORIENTED_EDGE('',*,*,#491,.T.);
#351=ORIENTED_EDGE('',*,*,#436,.T.);
#352=ORIENTED_EDGE('',*,*,#486,.F.);
#353=ORIENTED_EDGE('',*,*,#495,.F.);
#354=ORIENTED_EDGE('',*,*,#493,.T.);
#355=ORIENTED_EDGE('',*,*,#485,.T.);
#356=ORIENTED_EDGE('',*,*,#488,.T.);
#357=ORIENTED_EDGE('',*,*,#490,.T.);
#358=ORIENTED_EDGE('',*,*,#492,.T.);
#359=ORIENTED_EDGE('',*,*,#494,.T.);
#360=ORIENTED_EDGE('',*,*,#495,.T.);
#361=ORIENTED_EDGE('',*,*,#496,.F.);
#362=ORIENTED_EDGE('',*,*,#429,.T.);
#363=ORIENTED_EDGE('',*,*,#497,.F.);
#364=ORIENTED_EDGE('',*,*,#498,.F.);
#365=ORIENTED_EDGE('',*,*,#499,.T.);
#366=ORIENTED_EDGE('',*,*,#434,.T.);
#367=ORIENTED_EDGE('',*,*,#500,.F.);
#368=ORIENTED_EDGE('',*,*,#501,.F.);
#369=ORIENTED_EDGE('',*,*,#497,.T.);
#370=ORIENTED_EDGE('',*,*,#433,.T.);
#371=ORIENTED_EDGE('',*,*,#502,.F.);
#372=ORIENTED_EDGE('',*,*,#503,.F.);
#373=ORIENTED_EDGE('',*,*,#500,.T.);
#374=ORIENTED_EDGE('',*,*,#432,.T.);
#375=ORIENTED_EDGE('',*,*,#504,.F.);
#376=ORIENTED_EDGE('',*,*,#505,.F.);
#377=ORIENTED_EDGE('',*,*,#502,.T.);
#378=ORIENTED_EDGE('',*,*,#431,.T.);
#379=ORIENTED_EDGE('',*,*,#506,.F.);
#380=ORIENTED_EDGE('',*,*,#507,.F.);
#381=ORIENTED_EDGE('',*,*,#504,.T.);
#382=ORIENTED_EDGE('',*,*,#430,.T.);
#383=ORIENTED_EDGE('',*,*,#499,.F.);
#384=ORIENTED_EDGE('',*,*,#508,.F.);
#385=ORIENTED_EDGE('',*,*,#506,.T.);
#386=ORIENTED_EDGE('',*,*,#498,.T.);
#387=ORIENTED_EDGE('',*,*,#501,.T.);
#388=ORIENTED_EDGE('',*,*,#503,.T.);
#389=ORIENTED_EDGE('',*,*,#505,.T.);
#390=ORIENTED_EDGE('',*,*,#507,.T.);
#391=ORIENTED_EDGE('',*,*,#508,.T.);
#392=ORIENTED_EDGE('',*,*,#509,.F.);
#393=ORIENTED_EDGE('',*,*,#509,.T.);
#394=ORIENTED_EDGE('',*,*,#510,.F.);
#395=ORIENTED_EDGE('',*,*,#510,.T.);
#396=ORIENTED_EDGE('',*,*,#496,.T.);
#397=ORIENTED_EDGE('',*,*,#511,.F.);
#398=ORIENTED_EDGE('',*,*,#511,.T.);
#399=ORIENTED_EDGE('',*,*,#483,.T.);
#400=ORIENTED_EDGE('',*,*,#512,.F.);
#401=ORIENTED_EDGE('',*,*,#512,.T.);
#402=EDGE_CURVE('',#513,#513,#591,.T.);
#403=EDGE_CURVE('',#514,#514,#592,.F.);
#404=EDGE_CURVE('',#515,#515,#593,.T.);
#405=EDGE_CURVE('',#516,#516,#594,.F.);
#406=EDGE_CURVE('',#517,#517,#595,.T.);
#407=EDGE_CURVE('',#518,#518,#596,.F.);
#408=EDGE_CURVE('',#519,#520,#597,.T.);
#409=EDGE_CURVE('',#519,#521,#60,.F.);
#410=EDGE_CURVE('',#521,#522,#598,.T.);
#411=EDGE_CURVE('',#522,#520,#61,.T.);
#412=EDGE_CURVE('',#523,#524,#599,.T.);
#413=EDGE_CURVE('',#524,#525,#62,.T.);
#414=EDGE_CURVE('',#526,#525,#600,.T.);
#415=EDGE_CURVE('',#526,#523,#63,.F.);
#416=EDGE_CURVE('',#527,#528,#601,.T.);
#417=EDGE_CURVE('',#527,#527,#602,.T.);
#418=EDGE_CURVE('',#529,#527,#603,.T.);
#419=EDGE_CURVE('',#529,#529,#604,.T.);
#420=EDGE_CURVE('',#528,#529,#605,.T.);
#421=EDGE_CURVE('',#528,#528,#606,.T.);
#422=EDGE_CURVE('',#530,#530,#607,.T.);
#423=EDGE_CURVE('',#531,#531,#608,.T.);
#424=EDGE_CURVE('',#532,#532,#609,.T.);
#425=EDGE_CURVE('',#533,#534,#610,.T.);
#426=EDGE_CURVE('',#533,#535,#64,.F.);
#427=EDGE_CURVE('',#535,#536,#611,.T.);
#428=EDGE_CURVE('',#536,#534,#65,.T.);
#429=EDGE_CURVE('',#537,#538,#66,.T.);
#430=EDGE_CURVE('',#539,#537,#67,.T.);
#431=EDGE_CURVE('',#540,#539,#68,.T.);
#432=EDGE_CURVE('',#541,#540,#69,.T.);
#433=EDGE_CURVE('',#542,#541,#70,.T.);
#434=EDGE_CURVE('',#538,#542,#71,.T.);
#435=EDGE_CURVE('',#543,#544,#72,.T.);
#436=EDGE_CURVE('',#545,#543,#73,.T.);
#437=EDGE_CURVE('',#546,#545,#74,.T.);
#438=EDGE_CURVE('',#547,#546,#75,.T.);
#439=EDGE_CURVE('',#548,#547,#76,.T.);
#440=EDGE_CURVE('',#544,#548,#77,.T.);
#441=EDGE_CURVE('',#549,#550,#78,.T.);
#442=EDGE_CURVE('',#551,#549,#79,.T.);
#443=EDGE_CURVE('',#552,#551,#80,.T.);
#444=EDGE_CURVE('',#553,#552,#81,.T.);
#445=EDGE_CURVE('',#554,#553,#82,.T.);
#446=EDGE_CURVE('',#550,#554,#83,.T.);
#447=EDGE_CURVE('',#519,#525,#612,.T.);
#448=EDGE_CURVE('',#533,#520,#613,.T.);
#449=EDGE_CURVE('',#526,#534,#614,.T.);
#450=EDGE_CURVE('',#555,#556,#15,.T.);
#451=EDGE_CURVE('',#555,#557,#615,.F.);
#452=EDGE_CURVE('',#558,#557,#16,.T.);
#453=EDGE_CURVE('',#558,#559,#616,.F.);
#454=EDGE_CURVE('',#560,#559,#17,.T.);
#455=EDGE_CURVE('',#560,#561,#617,.F.);
#456=EDGE_CURVE('',#562,#561,#18,.T.);
#457=EDGE_CURVE('',#562,#563,#618,.F.);
#458=EDGE_CURVE('',#564,#563,#19,.T.);
#459=EDGE_CURVE('',#564,#565,#619,.F.);
#460=EDGE_CURVE('',#566,#565,#20,.T.);
#461=EDGE_CURVE('',#566,#556,#620,.F.);
#462=EDGE_CURVE('',#565,#521,#21,.T.);
#463=EDGE_CURVE('',#522,#564,#22,.T.);
#464=EDGE_CURVE('',#561,#535,#23,.T.);
#465=EDGE_CURVE('',#536,#560,#24,.T.);
#466=EDGE_CURVE('',#524,#555,#25,.T.);
#467=EDGE_CURVE('',#557,#523,#26,.T.);
#468=EDGE_CURVE('',#558,#559,#621,.T.);
#469=EDGE_CURVE('',#566,#556,#622,.T.);
#470=EDGE_CURVE('',#562,#563,#623,.T.);
#471=EDGE_CURVE('',#567,#550,#84,.T.);
#472=EDGE_CURVE('',#568,#567,#85,.T.);
#473=EDGE_CURVE('',#568,#549,#86,.T.);
#474=EDGE_CURVE('',#569,#554,#87,.T.);
#475=EDGE_CURVE('',#567,#569,#88,.T.);
#476=EDGE_CURVE('',#570,#553,#89,.T.);
#477=EDGE_CURVE('',#569,#570,#90,.T.);
#478=EDGE_CURVE('',#571,#552,#91,.T.);
#479=EDGE_CURVE('',#570,#571,#92,.T.);
#480=EDGE_CURVE('',#572,#551,#93,.T.);
#481=EDGE_CURVE('',#571,#572,#94,.T.);
#482=EDGE_CURVE('',#572,#568,#95,.T.);
#483=EDGE_CURVE('',#573,#573,#624,.T.);
#484=EDGE_CURVE('',#574,#544,#96,.T.);
#485=EDGE_CURVE('',#575,#574,#97,.T.);
#486=EDGE_CURVE('',#575,#543,#98,.T.);
#487=EDGE_CURVE('',#576,#548,#99,.T.);
#488=EDGE_CURVE('',#574,#576,#100,.T.);
#489=EDGE_CURVE('',#577,#547,#101,.T.);
#490=EDGE_CURVE('',#576,#577,#102,.T.);
#491=EDGE_CURVE('',#578,#546,#103,.T.);
#492=EDGE_CURVE('',#577,#578,#104,.T.);
#493=EDGE_CURVE('',#579,#545,#105,.T.);
#494=EDGE_CURVE('',#578,#579,#106,.T.);
#495=EDGE_CURVE('',#579,#575,#107,.T.);
#496=EDGE_CURVE('',#580,#580,#625,.T.);
#497=EDGE_CURVE('',#581,#538,#108,.T.);
#498=EDGE_CURVE('',#582,#581,#109,.T.);
#499=EDGE_CURVE('',#582,#537,#110,.T.);
#500=EDGE_CURVE('',#583,#542,#111,.T.);
#501=EDGE_CURVE('',#581,#583,#112,.T.);
#502=EDGE_CURVE('',#584,#541,#113,.T.);
#503=EDGE_CURVE('',#583,#584,#114,.T.);
#504=EDGE_CURVE('',#585,#540,#115,.T.);
#505=EDGE_CURVE('',#584,#585,#116,.T.);
#506=EDGE_CURVE('',#586,#539,#117,.T.);
#507=EDGE_CURVE('',#585,#586,#118,.T.);
#508=EDGE_CURVE('',#586,#582,#119,.T.);
#509=EDGE_CURVE('',#587,#587,#626,.T.);
#510=EDGE_CURVE('',#588,#588,#627,.T.);
#511=EDGE_CURVE('',#589,#589,#628,.T.);
#512=EDGE_CURVE('',#590,#590,#629,.T.);
#513=VERTEX_POINT('',#1190);
#514=VERTEX_POINT('',#1192);
#515=VERTEX_POINT('',#1195);
#516=VERTEX_POINT('',#1197);
#517=VERTEX_POINT('',#1200);
#518=VERTEX_POINT('',#1202);
#519=VERTEX_POINT('',#1205);
#520=VERTEX_POINT('',#1206);
#521=VERTEX_POINT('',#1208);
#522=VERTEX_POINT('',#1210);
#523=VERTEX_POINT('',#1214);
#524=VERTEX_POINT('',#1215);
#525=VERTEX_POINT('',#1217);
#526=VERTEX_POINT('',#1219);
#527=VERTEX_POINT('',#1223);
#528=VERTEX_POINT('',#1224);
#529=VERTEX_POINT('',#1227);
#530=VERTEX_POINT('',#1233);
#531=VERTEX_POINT('',#1236);
#532=VERTEX_POINT('',#1239);
#533=VERTEX_POINT('',#1242);
#534=VERTEX_POINT('',#1243);
#535=VERTEX_POINT('',#1245);
#536=VERTEX_POINT('',#1247);
#537=VERTEX_POINT('',#1251);
#538=VERTEX_POINT('',#1252);
#539=VERTEX_POINT('',#1254);
#540=VERTEX_POINT('',#1256);
#541=VERTEX_POINT('',#1258);
#542=VERTEX_POINT('',#1260);
#543=VERTEX_POINT('',#1263);
#544=VERTEX_POINT('',#1264);
#545=VERTEX_POINT('',#1266);
#546=VERTEX_POINT('',#1268);
#547=VERTEX_POINT('',#1270);
#548=VERTEX_POINT('',#1272);
#549=VERTEX_POINT('',#1275);
#550=VERTEX_POINT('',#1276);
#551=VERTEX_POINT('',#1278);
#552=VERTEX_POINT('',#1280);
#553=VERTEX_POINT('',#1282);
#554=VERTEX_POINT('',#1284);
#555=VERTEX_POINT('',#1294);
#556=VERTEX_POINT('',#1295);
#557=VERTEX_POINT('',#1297);
#558=VERTEX_POINT('',#1302);
#559=VERTEX_POINT('',#1304);
#560=VERTEX_POINT('',#1309);
#561=VERTEX_POINT('',#1311);
#562=VERTEX_POINT('',#1316);
#563=VERTEX_POINT('',#1318);
#564=VERTEX_POINT('',#1323);
#565=VERTEX_POINT('',#1325);
#566=VERTEX_POINT('',#1330);
#567=VERTEX_POINT('',#1373);
#568=VERTEX_POINT('',#1375);
#569=VERTEX_POINT('',#1379);
#570=VERTEX_POINT('',#1383);
#571=VERTEX_POINT('',#1387);
#572=VERTEX_POINT('',#1391);
#573=VERTEX_POINT('',#1397);
#574=VERTEX_POINT('',#1400);
#575=VERTEX_POINT('',#1402);
#576=VERTEX_POINT('',#1406);
#577=VERTEX_POINT('',#1410);
#578=VERTEX_POINT('',#1414);
#579=VERTEX_POINT('',#1418);
#580=VERTEX_POINT('',#1424);
#581=VERTEX_POINT('',#1427);
#582=VERTEX_POINT('',#1429);
#583=VERTEX_POINT('',#1433);
#584=VERTEX_POINT('',#1437);
#585=VERTEX_POINT('',#1441);
#586=VERTEX_POINT('',#1445);
#587=VERTEX_POINT('',#1451);
#588=VERTEX_POINT('',#1454);
#589=VERTEX_POINT('',#1458);
#590=VERTEX_POINT('',#1462);
#591=CIRCLE('',#856,0.00175);
#592=CIRCLE('',#857,0.00175);
#593=CIRCLE('',#859,0.00175);
#594=CIRCLE('',#860,0.00175);
#595=CIRCLE('',#862,0.00175);
#596=CIRCLE('',#863,0.00175);
#597=CIRCLE('',#865,0.0224);
#598=CIRCLE('',#866,0.0224);
#599=CIRCLE('',#868,0.0224);
#600=CIRCLE('',#869,0.0224);
#601=CIRCLE('',#871,0.0259178146041733);
#602=CIRCLE('',#872,0.0039);
#603=CIRCLE('',#873,0.0259178146041733);
#604=CIRCLE('',#874,0.0039);
#605=CIRCLE('',#875,0.0259178146041733);
#606=CIRCLE('',#876,0.0039);
#607=CIRCLE('',#878,0.0039);
#608=CIRCLE('',#880,0.0039);
#609=CIRCLE('',#882,0.0039);
#610=CIRCLE('',#884,0.0224);
#611=CIRCLE('',#885,0.0224);
#612=CIRCLE('',#887,0.003);
#613=CIRCLE('',#888,0.003);
#614=CIRCLE('',#889,0.003);
#615=CIRCLE('',#891,0.0227423881236304);
#616=CIRCLE('',#892,0.0241857637966045);
#617=CIRCLE('',#893,0.0227423881236304);
#618=CIRCLE('',#894,0.0241857637966045);
#619=CIRCLE('',#895,0.0227423881236304);
#620=CIRCLE('',#896,0.0241857637966045);
#621=CIRCLE('',#901,0.003);
#622=CIRCLE('',#904,0.003);
#623=CIRCLE('',#907,0.003);
#624=CIRCLE('',#919,0.00175);
#625=CIRCLE('',#927,0.00175);
#626=CIRCLE('',#935,0.00175);
#627=CIRCLE('',#937,0.00175);
#628=CIRCLE('',#940,0.00175);
#629=CIRCLE('',#943,0.00175);
#630=EDGE_LOOP('',(#180));
#631=EDGE_LOOP('',(#181));
#632=EDGE_LOOP('',(#182));
#633=EDGE_LOOP('',(#183));
#634=EDGE_LOOP('',(#184));
#635=EDGE_LOOP('',(#185));
#636=EDGE_LOOP('',(#186,#187,#188,#189));
#637=EDGE_LOOP('',(#190,#191,#192,#193));
#638=EDGE_LOOP('',(#194,#195,#196,#197,#198,#199));
#639=EDGE_LOOP('',(#200));
#640=EDGE_LOOP('',(#201));
#641=EDGE_LOOP('',(#202));
#642=EDGE_LOOP('',(#203));
#643=EDGE_LOOP('',(#204));
#644=EDGE_LOOP('',(#205));
#645=EDGE_LOOP('',(#206,#207,#208,#209));
#646=EDGE_LOOP('',(#210,#211,#212,#213,#214,#215));
#647=EDGE_LOOP('',(#216,#217,#218,#219,#220,#221));
#648=EDGE_LOOP('',(#222,#223,#224,#225,#226,#227));
#649=EDGE_LOOP('',(#228,#229,#230,#231,#232,#233));
#650=EDGE_LOOP('',(#234,#235,#236,#237,#238,#239,#240,#241,#242,#243,#244,
#245));
#651=EDGE_LOOP('',(#246,#247,#248));
#652=EDGE_LOOP('',(#249,#250,#251,#252));
#653=EDGE_LOOP('',(#253,#254,#255,#256));
#654=EDGE_LOOP('',(#257,#258,#259,#260));
#655=EDGE_LOOP('',(#261,#262));
#656=EDGE_LOOP('',(#263));
#657=EDGE_LOOP('',(#264,#265,#266,#267,#268,#269,#270,#271));
#658=EDGE_LOOP('',(#272,#273));
#659=EDGE_LOOP('',(#274));
#660=EDGE_LOOP('',(#275,#276,#277,#278,#279,#280,#281,#282));
#661=EDGE_LOOP('',(#283,#284));
#662=EDGE_LOOP('',(#285));
#663=EDGE_LOOP('',(#286,#287,#288,#289,#290,#291,#292,#293));
#664=EDGE_LOOP('',(#294));
#665=EDGE_LOOP('',(#295));
#666=EDGE_LOOP('',(#296));
#667=EDGE_LOOP('',(#297));
#668=EDGE_LOOP('',(#298));
#669=EDGE_LOOP('',(#299));
#670=EDGE_LOOP('',(#300,#301,#302,#303));
#671=EDGE_LOOP('',(#304,#305,#306,#307));
#672=EDGE_LOOP('',(#308,#309,#310,#311));
#673=EDGE_LOOP('',(#312,#313,#314,#315));
#674=EDGE_LOOP('',(#316,#317,#318,#319));
#675=EDGE_LOOP('',(#320,#321,#322,#323));
#676=EDGE_LOOP('',(#324));
#677=EDGE_LOOP('',(#325,#326,#327,#328,#329,#330));
#678=EDGE_LOOP('',(#331,#332,#333,#334));
#679=EDGE_LOOP('',(#335,#336,#337,#338));
#680=EDGE_LOOP('',(#339,#340,#341,#342));
#681=EDGE_LOOP('',(#343,#344,#345,#346));
#682=EDGE_LOOP('',(#347,#348,#349,#350));
#683=EDGE_LOOP('',(#351,#352,#353,#354));
#684=EDGE_LOOP('',(#355,#356,#357,#358,#359,#360));
#685=EDGE_LOOP('',(#361));
#686=EDGE_LOOP('',(#362,#363,#364,#365));
#687=EDGE_LOOP('',(#366,#367,#368,#369));
#688=EDGE_LOOP('',(#370,#371,#372,#373));
#689=EDGE_LOOP('',(#374,#375,#376,#377));
#690=EDGE_LOOP('',(#378,#379,#380,#381));
#691=EDGE_LOOP('',(#382,#383,#384,#385));
#692=EDGE_LOOP('',(#386,#387,#388,#389,#390,#391));
#693=EDGE_LOOP('',(#392));
#694=EDGE_LOOP('',(#393));
#695=EDGE_LOOP('',(#394));
#696=EDGE_LOOP('',(#395));
#697=EDGE_LOOP('',(#396));
#698=EDGE_LOOP('',(#397));
#699=EDGE_LOOP('',(#398));
#700=EDGE_LOOP('',(#399));
#701=EDGE_LOOP('',(#400));
#702=EDGE_LOOP('',(#401));
#703=FACE_BOUND('',#630,.T.);
#704=FACE_BOUND('',#631,.T.);
#705=FACE_BOUND('',#632,.T.);
#706=FACE_BOUND('',#633,.T.);
#707=FACE_BOUND('',#634,.T.);
#708=FACE_BOUND('',#635,.T.);
#709=FACE_BOUND('',#636,.T.);
#710=FACE_BOUND('',#637,.T.);
#711=FACE_BOUND('',#638,.T.);
#712=FACE_BOUND('',#639,.T.);
#713=FACE_BOUND('',#640,.T.);
#714=FACE_BOUND('',#641,.T.);
#715=FACE_BOUND('',#642,.T.);
#716=FACE_BOUND('',#643,.T.);
#717=FACE_BOUND('',#644,.T.);
#718=FACE_BOUND('',#645,.T.);
#719=FACE_BOUND('',#646,.T.);
#720=FACE_BOUND('',#647,.T.);
#721=FACE_BOUND('',#648,.T.);
#722=FACE_BOUND('',#649,.T.);
#723=FACE_BOUND('',#650,.T.);
#724=FACE_BOUND('',#651,.T.);
#725=FACE_BOUND('',#652,.T.);
#726=FACE_BOUND('',#653,.T.);
#727=FACE_BOUND('',#654,.T.);
#728=FACE_BOUND('',#655,.T.);
#729=FACE_BOUND('',#656,.T.);
#730=FACE_BOUND('',#657,.T.);
#731=FACE_BOUND('',#658,.T.);
#732=FACE_BOUND('',#659,.T.);
#733=FACE_BOUND('',#660,.T.);
#734=FACE_BOUND('',#661,.T.);
#735=FACE_BOUND('',#662,.T.);
#736=FACE_BOUND('',#663,.T.);
#737=FACE_BOUND('',#664,.T.);
#738=FACE_BOUND('',#665,.T.);
#739=FACE_BOUND('',#666,.T.);
#740=FACE_BOUND('',#667,.T.);
#741=FACE_BOUND('',#668,.T.);
#742=FACE_BOUND('',#669,.T.);
#743=FACE_BOUND('',#670,.T.);
#744=FACE_BOUND('',#671,.T.);
#745=FACE_BOUND('',#672,.T.);
#746=FACE_BOUND('',#673,.T.);
#747=FACE_BOUND('',#674,.T.);
#748=FACE_BOUND('',#675,.T.);
#749=FACE_BOUND('',#676,.T.);
#750=FACE_BOUND('',#677,.T.);
#751=FACE_BOUND('',#678,.T.);
#752=FACE_BOUND('',#679,.T.);
#753=FACE_BOUND('',#680,.T.);
#754=FACE_BOUND('',#681,.T.);
#755=FACE_BOUND('',#682,.T.);
#756=FACE_BOUND('',#683,.T.);
#757=FACE_BOUND('',#684,.T.);
#758=FACE_BOUND('',#685,.T.);
#759=FACE_BOUND('',#686,.T.);
#760=FACE_BOUND('',#687,.T.);
#761=FACE_BOUND('',#688,.T.);
#762=FACE_BOUND('',#689,.T.);
#763=FACE_BOUND('',#690,.T.);
#764=FACE_BOUND('',#691,.T.);
#765=FACE_BOUND('',#692,.T.);
#766=FACE_BOUND('',#693,.T.);
#767=FACE_BOUND('',#694,.T.);
#768=FACE_BOUND('',#695,.T.);
#769=FACE_BOUND('',#696,.T.);
#770=FACE_BOUND('',#697,.T.);
#771=FACE_BOUND('',#698,.T.);
#772=FACE_BOUND('',#699,.T.);
#773=FACE_BOUND('',#700,.T.);
#774=FACE_BOUND('',#701,.T.);
#775=FACE_BOUND('',#702,.T.);
#776=CYLINDRICAL_SURFACE('',#855,0.00175);
#777=CYLINDRICAL_SURFACE('',#858,0.00175);
#778=CYLINDRICAL_SURFACE('',#861,0.00175);
#779=CYLINDRICAL_SURFACE('',#864,0.0224);
#780=CYLINDRICAL_SURFACE('',#867,0.0224);
#781=CYLINDRICAL_SURFACE('',#877,0.0039);
#782=CYLINDRICAL_SURFACE('',#879,0.0039);
#783=CYLINDRICAL_SURFACE('',#881,0.0039);
#784=CYLINDRICAL_SURFACE('',#883,0.0224);
#785=CYLINDRICAL_SURFACE('',#902,0.003);
#786=CYLINDRICAL_SURFACE('',#905,0.003);
#787=CYLINDRICAL_SURFACE('',#908,0.003);
#788=CYLINDRICAL_SURFACE('',#936,0.00175);
#789=CYLINDRICAL_SURFACE('',#939,0.00175);
#790=CYLINDRICAL_SURFACE('',#942,0.00175);
#791=ADVANCED_FACE('',(#703,#704),#776,.F.);
#792=ADVANCED_FACE('',(#705,#706),#777,.F.);
#793=ADVANCED_FACE('',(#707,#708),#778,.F.);
#794=ADVANCED_FACE('',(#709),#779,.T.);
#795=ADVANCED_FACE('',(#710),#780,.T.);
#796=ADVANCED_FACE('',(#711),#28,.F.);
#797=ADVANCED_FACE('',(#712,#713),#781,.T.);
#798=ADVANCED_FACE('',(#714,#715),#782,.T.);
#799=ADVANCED_FACE('',(#716,#717),#783,.T.);
#800=ADVANCED_FACE('',(#718),#784,.T.);
#801=ADVANCED_FACE('',(#719,#720,#721,#722),#29,.T.);
#802=ADVANCED_FACE('',(#723,#724),#27,.T.);
#803=ADVANCED_FACE('',(#725),#12,.T.);
#804=ADVANCED_FACE('',(#726),#13,.T.);
#805=ADVANCED_FACE('',(#727),#14,.T.);
#806=ADVANCED_FACE('',(#728,#729),#30,.T.);
#807=ADVANCED_FACE('',(#730),#785,.F.);
#808=ADVANCED_FACE('',(#731,#732),#31,.T.);
#809=ADVANCED_FACE('',(#733),#786,.F.);
#810=ADVANCED_FACE('',(#734,#735),#32,.T.);
#811=ADVANCED_FACE('',(#736),#787,.F.);
#812=ADVANCED_FACE('',(#737,#738),#33,.F.);
#813=ADVANCED_FACE('',(#739,#740),#34,.F.);
#814=ADVANCED_FACE('',(#741,#742),#35,.F.);
#815=ADVANCED_FACE('',(#743),#36,.F.);
#816=ADVANCED_FACE('',(#744),#37,.F.);
#817=ADVANCED_FACE('',(#745),#38,.F.);
#818=ADVANCED_FACE('',(#746),#39,.F.);
#819=ADVANCED_FACE('',(#747),#40,.F.);
#820=ADVANCED_FACE('',(#748),#41,.F.);
#821=ADVANCED_FACE('',(#749,#750),#42,.T.);
#822=ADVANCED_FACE('',(#751),#43,.F.);
#823=ADVANCED_FACE('',(#752),#44,.F.);
#824=ADVANCED_FACE('',(#753),#45,.F.);
#825=ADVANCED_FACE('',(#754),#46,.F.);
#826=ADVANCED_FACE('',(#755),#47,.F.);
#827=ADVANCED_FACE('',(#756),#48,.F.);
#828=ADVANCED_FACE('',(#757,#758),#49,.T.);
#829=ADVANCED_FACE('',(#759),#50,.F.);
#830=ADVANCED_FACE('',(#760),#51,.F.);
#831=ADVANCED_FACE('',(#761),#52,.F.);
#832=ADVANCED_FACE('',(#762),#53,.F.);
#833=ADVANCED_FACE('',(#763),#54,.F.);
#834=ADVANCED_FACE('',(#764),#55,.F.);
#835=ADVANCED_FACE('',(#765,#766),#56,.T.);
#836=ADVANCED_FACE('',(#767,#768),#788,.F.);
#837=ADVANCED_FACE('',(#769),#57,.T.);
#838=ADVANCED_FACE('',(#770,#771),#789,.F.);
#839=ADVANCED_FACE('',(#772),#58,.T.);
#840=ADVANCED_FACE('',(#773,#774),#790,.F.);
#841=ADVANCED_FACE('',(#775),#59,.T.);
#842=CLOSED_SHELL('',(#791,#792,#793,#794,#795,#796,#797,#798,#799,#800,
#801,#802,#803,#804,#805,#806,#807,#808,#809,#810,#811,#812,#813,#814,#815,
#816,#817,#818,#819,#820,#821,#822,#823,#824,#825,#826,#827,#828,#829,#830,
#831,#832,#833,#834,#835,#836,#837,#838,#839,#840,#841));
#843=STYLED_ITEM('',(#844),#851);
#844=PRESENTATION_STYLE_ASSIGNMENT((#845));
#845=SURFACE_STYLE_USAGE(.BOTH.,#846);
#846=SURFACE_SIDE_STYLE('',(#847));
#847=SURFACE_STYLE_FILL_AREA(#848);
#848=FILL_AREA_STYLE('',(#849));
#849=FILL_AREA_STYLE_COLOUR('',#850);
#850=COLOUR_RGB('',0.615686274509804,0.811764705882353,0.929411764705882);
#851=MANIFOLD_SOLID_BREP('Part 1',#842);
#852=SHAPE_DEFINITION_REPRESENTATION(#1470,#853);
#853=SHAPE_REPRESENTATION('Part 1',(#854),#1465);
#854=AXIS2_PLACEMENT_3D('',#1187,#945,#946);
#855=AXIS2_PLACEMENT_3D('',#1188,#947,#948);
#856=AXIS2_PLACEMENT_3D('',#1189,#949,#950);
#857=AXIS2_PLACEMENT_3D('',#1191,#951,#952);
#858=AXIS2_PLACEMENT_3D('',#1193,#953,#954);
#859=AXIS2_PLACEMENT_3D('',#1194,#955,#956);
#860=AXIS2_PLACEMENT_3D('',#1196,#957,#958);
#861=AXIS2_PLACEMENT_3D('',#1198,#959,#960);
#862=AXIS2_PLACEMENT_3D('',#1199,#961,#962);
#863=AXIS2_PLACEMENT_3D('',#1201,#963,#964);
#864=AXIS2_PLACEMENT_3D('',#1203,#965,#966);
#865=AXIS2_PLACEMENT_3D('',#1204,#967,#968);
#866=AXIS2_PLACEMENT_3D('',#1209,#970,#971);
#867=AXIS2_PLACEMENT_3D('',#1212,#973,#974);
#868=AXIS2_PLACEMENT_3D('',#1213,#975,#976);
#869=AXIS2_PLACEMENT_3D('',#1218,#978,#979);
#870=AXIS2_PLACEMENT_3D('',#1221,#981,#982);
#871=AXIS2_PLACEMENT_3D('',#1222,#983,#984);
#872=AXIS2_PLACEMENT_3D('',#1225,#985,#986);
#873=AXIS2_PLACEMENT_3D('',#1226,#987,#988);
#874=AXIS2_PLACEMENT_3D('',#1228,#989,#990);
#875=AXIS2_PLACEMENT_3D('',#1229,#991,#992);
#876=AXIS2_PLACEMENT_3D('',#1230,#993,#994);
#877=AXIS2_PLACEMENT_3D('',#1231,#995,#996);
#878=AXIS2_PLACEMENT_3D('',#1232,#997,#998);
#879=AXIS2_PLACEMENT_3D('',#1234,#999,#1000);
#880=AXIS2_PLACEMENT_3D('',#1235,#1001,#1002);
#881=AXIS2_PLACEMENT_3D('',#1237,#1003,#1004);
#882=AXIS2_PLACEMENT_3D('',#1238,#1005,#1006);
#883=AXIS2_PLACEMENT_3D('',#1240,#1007,#1008);
#884=AXIS2_PLACEMENT_3D('',#1241,#1009,#1010);
#885=AXIS2_PLACEMENT_3D('',#1246,#1012,#1013);
#886=AXIS2_PLACEMENT_3D('',#1249,#1015,#1016);
#887=AXIS2_PLACEMENT_3D('',#1286,#1035,#1036);
#888=AXIS2_PLACEMENT_3D('',#1287,#1037,#1038);
#889=AXIS2_PLACEMENT_3D('',#1288,#1039,#1040);
#890=AXIS2_PLACEMENT_3D('',#1289,#1041,#1042);
#891=AXIS2_PLACEMENT_3D('',#1296,#1043,#1044);
#892=AXIS2_PLACEMENT_3D('',#1303,#1045,#1046);
#893=AXIS2_PLACEMENT_3D('',#1310,#1047,#1048);
#894=AXIS2_PLACEMENT_3D('',#1317,#1049,#1050);
#895=AXIS2_PLACEMENT_3D('',#1324,#1051,#1052);
#896=AXIS2_PLACEMENT_3D('',#1331,#1053,#1054);
#897=AXIS2_PLACEMENT_3D('',#1332,#1055,#1056);
#898=AXIS2_PLACEMENT_3D('',#1341,#1057,#1058);
#899=AXIS2_PLACEMENT_3D('',#1350,#1059,#1060);
#900=AXIS2_PLACEMENT_3D('',#1359,#1061,#1062);
#901=AXIS2_PLACEMENT_3D('',#1360,#1063,#1064);
#902=AXIS2_PLACEMENT_3D('',#1361,#1065,#1066);
#903=AXIS2_PLACEMENT_3D('',#1362,#1067,#1068);
#904=AXIS2_PLACEMENT_3D('',#1363,#1069,#1070);
#905=AXIS2_PLACEMENT_3D('',#1364,#1071,#1072);
#906=AXIS2_PLACEMENT_3D('',#1365,#1073,#1074);
#907=AXIS2_PLACEMENT_3D('',#1366,#1075,#1076);
#908=AXIS2_PLACEMENT_3D('',#1367,#1077,#1078);
#909=AXIS2_PLACEMENT_3D('',#1368,#1079,#1080);
#910=AXIS2_PLACEMENT_3D('',#1369,#1081,#1082);
#911=AXIS2_PLACEMENT_3D('',#1370,#1083,#1084);
#912=AXIS2_PLACEMENT_3D('',#1371,#1085,#1086);
#913=AXIS2_PLACEMENT_3D('',#1377,#1090,#1091);
#914=AXIS2_PLACEMENT_3D('',#1381,#1094,#1095);
#915=AXIS2_PLACEMENT_3D('',#1385,#1098,#1099);
#916=AXIS2_PLACEMENT_3D('',#1389,#1102,#1103);
#917=AXIS2_PLACEMENT_3D('',#1393,#1106,#1107);
#918=AXIS2_PLACEMENT_3D('',#1395,#1109,#1110);
#919=AXIS2_PLACEMENT_3D('',#1396,#1111,#1112);
#920=AXIS2_PLACEMENT_3D('',#1398,#1113,#1114);
#921=AXIS2_PLACEMENT_3D('',#1404,#1118,#1119);
#922=AXIS2_PLACEMENT_3D('',#1408,#1122,#1123);
#923=AXIS2_PLACEMENT_3D('',#1412,#1126,#1127);
#924=AXIS2_PLACEMENT_3D('',#1416,#1130,#1131);
#925=AXIS2_PLACEMENT_3D('',#1420,#1134,#1135);
#926=AXIS2_PLACEMENT_3D('',#1422,#1137,#1138);
#927=AXIS2_PLACEMENT_3D('',#1423,#1139,#1140);
#928=AXIS2_PLACEMENT_3D('',#1425,#1141,#1142);
#929=AXIS2_PLACEMENT_3D('',#1431,#1146,#1147);
#930=AXIS2_PLACEMENT_3D('',#1435,#1150,#1151);
#931=AXIS2_PLACEMENT_3D('',#1439,#1154,#1155);
#932=AXIS2_PLACEMENT_3D('',#1443,#1158,#1159);
#933=AXIS2_PLACEMENT_3D('',#1447,#1162,#1163);
#934=AXIS2_PLACEMENT_3D('',#1449,#1165,#1166);
#935=AXIS2_PLACEMENT_3D('',#1450,#1167,#1168);
#936=AXIS2_PLACEMENT_3D('',#1452,#1169,#1170);
#937=AXIS2_PLACEMENT_3D('',#1453,#1171,#1172);
#938=AXIS2_PLACEMENT_3D('',#1455,#1173,#1174);
#939=AXIS2_PLACEMENT_3D('',#1456,#1175,#1176);
#940=AXIS2_PLACEMENT_3D('',#1457,#1177,#1178);
#941=AXIS2_PLACEMENT_3D('',#1459,#1179,#1180);
#942=AXIS2_PLACEMENT_3D('',#1460,#1181,#1182);
#943=AXIS2_PLACEMENT_3D('',#1461,#1183,#1184);
#944=AXIS2_PLACEMENT_3D('',#1463,#1185,#1186);
#945=DIRECTION('',(0.,0.,1.));
#946=DIRECTION('',(1.,0.,0.));
#947=DIRECTION('',(0.,0.,-1.));
#948=DIRECTION('',(-1.,0.,0.));
#949=DIRECTION('',(0.,0.,-1.));
#950=DIRECTION('',(-1.,0.,0.));
#951=DIRECTION('',(0.,0.,1.));
#952=DIRECTION('',(1.,0.,0.));
#953=DIRECTION('',(0.,0.,-1.));
#954=DIRECTION('',(-1.,0.,0.));
#955=DIRECTION('',(0.,0.,-1.));
#956=DIRECTION('',(-1.,0.,0.));
#957=DIRECTION('',(0.,0.,1.));
#958=DIRECTION('',(1.,0.,0.));
#959=DIRECTION('',(0.,0.,-1.));
#960=DIRECTION('',(-1.,0.,0.));
#961=DIRECTION('',(0.,0.,-1.));
#962=DIRECTION('',(-1.,0.,0.));
#963=DIRECTION('',(0.,0.,1.));
#964=DIRECTION('',(1.,0.,0.));
#965=DIRECTION('',(0.,0.,-1.));
#966=DIRECTION('',(-1.,0.,0.));
#967=DIRECTION('',(0.,0.,1.));
#968=DIRECTION('',(1.,0.,0.));
#969=DIRECTION('',(0.,0.,1.));
#970=DIRECTION('',(0.,0.,1.));
#971=DIRECTION('',(1.,0.,0.));
#972=DIRECTION('',(0.,0.,1.));
#973=DIRECTION('',(0.,0.,-1.));
#974=DIRECTION('',(-1.,0.,0.));
#975=DIRECTION('',(0.,0.,1.));
#976=DIRECTION('',(1.,0.,0.));
#977=DIRECTION('',(0.,0.,1.));
#978=DIRECTION('',(0.,0.,1.));
#979=DIRECTION('',(1.,0.,0.));
#980=DIRECTION('',(0.,0.,1.));
#981=DIRECTION('',(0.,0.,1.));
#982=DIRECTION('',(1.,0.,0.));
#983=DIRECTION('',(0.,0.,1.));
#984=DIRECTION('',(1.,0.,0.));
#985=DIRECTION('',(0.,0.,1.));
#986=DIRECTION('',(1.,0.,0.));
#987=DIRECTION('',(0.,0.,1.));
#988=DIRECTION('',(1.,0.,0.));
#989=DIRECTION('',(0.,0.,1.));
#990=DIRECTION('',(1.,0.,0.));
#991=DIRECTION('',(0.,0.,1.));
#992=DIRECTION('',(1.,0.,0.));
#993=DIRECTION('',(0.,0.,1.));
#994=DIRECTION('',(1.,0.,0.));
#995=DIRECTION('',(0.,0.,1.));
#996=DIRECTION('',(1.,0.,0.));
#997=DIRECTION('',(0.,0.,1.));
#998=DIRECTION('',(1.,0.,0.));
#999=DIRECTION('',(0.,0.,1.));
#1000=DIRECTION('',(1.,0.,0.));
#1001=DIRECTION('',(0.,0.,1.));
#1002=DIRECTION('',(1.,0.,0.));
#1003=DIRECTION('',(0.,0.,1.));
#1004=DIRECTION('',(1.,0.,0.));
#1005=DIRECTION('',(0.,0.,1.));
#1006=DIRECTION('',(1.,0.,0.));
#1007=DIRECTION('',(0.,0.,-1.));
#1008=DIRECTION('',(-1.,0.,0.));
#1009=DIRECTION('',(0.,0.,1.));
#1010=DIRECTION('',(1.,0.,0.));
#1011=DIRECTION('',(0.,0.,1.));
#1012=DIRECTION('',(0.,0.,1.));
#1013=DIRECTION('',(1.,0.,0.));
#1014=DIRECTION('',(0.,0.,1.));
#1015=DIRECTION('',(0.,0.,1.));
#1016=DIRECTION('',(1.,0.,0.));
#1017=DIRECTION('',(0.533241537364927,0.845963038689451,0.));
#1018=DIRECTION('',(0.999246250850206,-0.0388191983663683,0.));
#1019=DIRECTION('',(0.466004713485281,-0.88478223705582,0.));
#1020=DIRECTION('',(-0.533241537364925,-0.845963038689452,0.));
#1021=DIRECTION('',(-0.999246250850206,0.0388191983663689,0.));
#1022=DIRECTION('',(-0.466004713485286,0.884782237055818,0.));
#1023=DIRECTION('',(0.522628771672938,-0.852560359751517,0.));
#1024=DIRECTION('',(-0.477024543967947,-0.878889972893179,0.));
#1025=DIRECTION('',(-0.999653315640883,-0.0263296131416582,0.));
#1026=DIRECTION('',(-0.522628771672937,0.852560359751518,0.));
#1027=DIRECTION('',(0.477024543967949,0.878889972893177,0.));
#1028=DIRECTION('',(0.999653315640883,0.0263296131416574,0.));
#1029=DIRECTION('',(-0.984481281503451,-0.175489618978797,0.));
#1030=DIRECTION('',(-0.644219108887815,0.764840989842849,0.));
#1031=DIRECTION('',(0.340262172615635,0.940330608821646,0.));
#1032=DIRECTION('',(0.984481281503451,0.175489618978798,0.));
#1033=DIRECTION('',(0.644219108887815,-0.764840989842849,0.));
#1034=DIRECTION('',(-0.340262172615633,-0.940330608821647,0.));
#1035=DIRECTION('',(0.,0.,1.));
#1036=DIRECTION('',(1.,0.,0.));
#1037=DIRECTION('',(0.,0.,1.));
#1038=DIRECTION('',(1.,0.,0.));
#1039=DIRECTION('',(0.,0.,1.));
#1040=DIRECTION('',(1.,0.,0.));
#1041=DIRECTION('',(0.,0.,-1.));
#1042=DIRECTION('',(-1.,0.,0.));
#1043=DIRECTION('',(0.,0.,1.));
#1044=DIRECTION('',(1.,0.,0.));
#1045=DIRECTION('',(0.,0.,1.));
#1046=DIRECTION('',(1.,0.,0.));
#1047=DIRECTION('',(0.,0.,1.));
#1048=DIRECTION('',(1.,0.,0.));
#1049=DIRECTION('',(0.,0.,1.));
#1050=DIRECTION('',(1.,0.,0.));
#1051=DIRECTION('',(0.,0.,1.));
#1052=DIRECTION('',(1.,0.,0.));
#1053=DIRECTION('',(0.,0.,1.));
#1054=DIRECTION('',(1.,0.,0.));
#1055=DIRECTION('',(0.,0.,1.));
#1056=DIRECTION('',(1.,0.,0.));
#1057=DIRECTION('',(0.,0.,1.));
#1058=DIRECTION('',(1.,0.,0.));
#1059=DIRECTION('',(0.,0.,1.));
#1060=DIRECTION('',(1.,0.,0.));
#1061=DIRECTION('',(0.,0.,1.));
#1062=DIRECTION('',(1.,0.,0.));
#1063=DIRECTION('',(0.,0.,1.));
#1064=DIRECTION('',(1.,0.,0.));
#1065=DIRECTION('',(0.,0.,1.));
#1066=DIRECTION('',(1.,0.,0.));
#1067=DIRECTION('',(0.,0.,1.));
#1068=DIRECTION('',(1.,0.,0.));
#1069=DIRECTION('',(0.,0.,1.));
#1070=DIRECTION('',(1.,0.,0.));
#1071=DIRECTION('',(0.,0.,1.));
#1072=DIRECTION('',(1.,0.,0.));
#1073=DIRECTION('',(0.,0.,1.));
#1074=DIRECTION('',(1.,0.,0.));
#1075=DIRECTION('',(0.,0.,1.));
#1076=DIRECTION('',(1.,0.,0.));
#1077=DIRECTION('',(0.,0.,1.));
#1078=DIRECTION('',(1.,0.,0.));
#1079=DIRECTION('',(0.,0.,1.));
#1080=DIRECTION('',(1.,0.,0.));
#1081=DIRECTION('',(0.,0.,1.));
#1082=DIRECTION('',(1.,0.,0.));
#1083=DIRECTION('',(0.,0.,1.));
#1084=DIRECTION('',(1.,0.,0.));
#1085=DIRECTION('',(-0.175489618978797,0.984481281503451,0.));
#1086=DIRECTION('',(-0.984481281503451,-0.175489618978797,0.));
#1087=DIRECTION('',(0.,0.,1.));
#1088=DIRECTION('',(-0.984481281503451,-0.175489618978797,0.));
#1089=DIRECTION('',(0.,0.,1.));
#1090=DIRECTION('',(-0.940330608821647,0.340262172615633,0.));
#1091=DIRECTION('',(-0.340262172615633,-0.940330608821647,0.));
#1092=DIRECTION('',(0.,0.,1.));
#1093=DIRECTION('',(-0.340262172615633,-0.940330608821647,0.));
#1094=DIRECTION('',(-0.764840989842849,-0.644219108887815,0.));
#1095=DIRECTION('',(0.644219108887815,-0.764840989842849,0.));
#1096=DIRECTION('',(0.,0.,1.));
#1097=DIRECTION('',(0.644219108887815,-0.764840989842849,0.));
#1098=DIRECTION('',(0.175489618978798,-0.984481281503451,0.));
#1099=DIRECTION('',(0.984481281503451,0.175489618978798,0.));
#1100=DIRECTION('',(0.,0.,1.));
#1101=DIRECTION('',(0.984481281503451,0.175489618978798,0.));
#1102=DIRECTION('',(0.940330608821646,-0.340262172615635,0.));
#1103=DIRECTION('',(0.340262172615635,0.940330608821646,0.));
#1104=DIRECTION('',(0.,0.,1.));
#1105=DIRECTION('',(0.340262172615635,0.940330608821646,0.));
#1106=DIRECTION('',(0.764840989842849,0.644219108887815,0.));
#1107=DIRECTION('',(-0.644219108887815,0.764840989842849,0.));
#1108=DIRECTION('',(-0.644219108887815,0.764840989842849,0.));
#1109=DIRECTION('',(0.,0.,1.));
#1110=DIRECTION('',(1.,0.,0.));
#1111=DIRECTION('',(0.,0.,1.));
#1112=DIRECTION('',(1.,0.,0.));
#1113=DIRECTION('',(-0.852560359751517,-0.522628771672938,0.));
#1114=DIRECTION('',(0.522628771672938,-0.852560359751517,0.));
#1115=DIRECTION('',(0.,0.,1.));
#1116=DIRECTION('',(0.522628771672938,-0.852560359751517,0.));
#1117=DIRECTION('',(0.,0.,1.));
#1118=DIRECTION('',(0.0263296131416574,-0.999653315640883,0.));
#1119=DIRECTION('',(0.999653315640883,0.0263296131416574,0.));
#1120=DIRECTION('',(0.,0.,1.));
#1121=DIRECTION('',(0.999653315640883,0.0263296131416574,0.));
#1122=DIRECTION('',(0.878889972893178,-0.477024543967949,0.));
#1123=DIRECTION('',(0.477024543967949,0.878889972893177,0.));
#1124=DIRECTION('',(0.,0.,1.));
#1125=DIRECTION('',(0.477024543967949,0.878889972893177,0.));
#1126=DIRECTION('',(0.852560359751518,0.522628771672937,0.));
#1127=DIRECTION('',(-0.522628771672937,0.852560359751518,0.));
#1128=DIRECTION('',(0.,0.,1.));
#1129=DIRECTION('',(-0.522628771672937,0.852560359751518,0.));
#1130=DIRECTION('',(-0.0263296131416582,0.999653315640883,0.));
#1131=DIRECTION('',(-0.999653315640883,-0.0263296131416582,0.));
#1132=DIRECTION('',(0.,0.,1.));
#1133=DIRECTION('',(-0.999653315640883,-0.0263296131416582,0.));
#1134=DIRECTION('',(-0.878889972893178,0.477024543967947,0.));
#1135=DIRECTION('',(-0.477024543967947,-0.878889972893179,0.));
#1136=DIRECTION('',(-0.477024543967947,-0.878889972893179,0.));
#1137=DIRECTION('',(0.,0.,1.));
#1138=DIRECTION('',(1.,0.,0.));
#1139=DIRECTION('',(0.,0.,1.));
#1140=DIRECTION('',(1.,0.,0.));
#1141=DIRECTION('',(0.845963038689451,-0.533241537364927,0.));
#1142=DIRECTION('',(0.533241537364927,0.845963038689451,0.));
#1143=DIRECTION('',(0.,0.,1.));
#1144=DIRECTION('',(0.533241537364927,0.845963038689451,0.));
#1145=DIRECTION('',(0.,0.,1.));
#1146=DIRECTION('',(0.884782237055818,0.466004713485286,0.));
#1147=DIRECTION('',(-0.466004713485286,0.884782237055818,0.));
#1148=DIRECTION('',(0.,0.,1.));
#1149=DIRECTION('',(-0.466004713485286,0.884782237055818,0.));
#1150=DIRECTION('',(0.0388191983663689,0.999246250850206,0.));
#1151=DIRECTION('',(-0.999246250850206,0.0388191983663689,0.));
#1152=DIRECTION('',(0.,0.,1.));
#1153=DIRECTION('',(-0.999246250850206,0.0388191983663689,0.));
#1154=DIRECTION('',(-0.845963038689452,0.533241537364925,0.));
#1155=DIRECTION('',(-0.533241537364925,-0.845963038689452,0.));
#1156=DIRECTION('',(0.,0.,1.));
#1157=DIRECTION('',(-0.533241537364925,-0.845963038689452,0.));
#1158=DIRECTION('',(-0.88478223705582,-0.466004713485281,0.));
#1159=DIRECTION('',(0.466004713485281,-0.88478223705582,0.));
#1160=DIRECTION('',(0.,0.,1.));
#1161=DIRECTION('',(0.466004713485281,-0.88478223705582,0.));
#1162=DIRECTION('',(-0.0388191983663683,-0.999246250850206,0.));
#1163=DIRECTION('',(0.999246250850206,-0.0388191983663683,0.));
#1164=DIRECTION('',(0.999246250850206,-0.0388191983663683,0.));
#1165=DIRECTION('',(0.,0.,1.));
#1166=DIRECTION('',(1.,0.,0.));
#1167=DIRECTION('',(0.,0.,1.));
#1168=DIRECTION('',(1.,0.,0.));
#1169=DIRECTION('',(0.,0.,1.));
#1170=DIRECTION('',(1.,0.,0.));
#1171=DIRECTION('',(0.,0.,1.));
#1172=DIRECTION('',(1.,0.,0.));
#1173=DIRECTION('',(0.,0.,1.));
#1174=DIRECTION('',(1.,0.,0.));
#1175=DIRECTION('',(0.,0.,1.));
#1176=DIRECTION('',(1.,0.,0.));
#1177=DIRECTION('',(0.,0.,1.));
#1178=DIRECTION('',(1.,0.,0.));
#1179=DIRECTION('',(0.,0.,1.));
#1180=DIRECTION('',(1.,0.,0.));
#1181=DIRECTION('',(0.,0.,1.));
#1182=DIRECTION('',(1.,0.,0.));
#1183=DIRECTION('',(0.,0.,1.));
#1184=DIRECTION('',(1.,0.,0.));
#1185=DIRECTION('',(0.,0.,1.));
#1186=DIRECTION('',(1.,0.,0.));
#1187=CARTESIAN_POINT('',(0.,0.,0.));
#1188=CARTESIAN_POINT('',(-0.122886388739364,0.0365814721470897,-0.0075));
#1189=CARTESIAN_POINT('',(-0.122886388739364,0.0365814721470897,-0.006));
#1190=CARTESIAN_POINT('',(-0.124636388739364,0.0365814721470897,-0.006));
#1191=CARTESIAN_POINT('',(-0.122886388739364,0.0365814721470897,0.003));
#1192=CARTESIAN_POINT('',(-0.121136388739364,0.0365814721470897,0.003));
#1193=CARTESIAN_POINT('',(-0.0860585924014487,0.0266786494826024,-0.0075));
#1194=CARTESIAN_POINT('',(-0.0860585924014487,0.0266786494826024,-0.006));
#1195=CARTESIAN_POINT('',(-0.0878085924014487,0.0266786494826024,-0.006));
#1196=CARTESIAN_POINT('',(-0.0860585924014487,0.0266786494826024,0.003));
#1197=CARTESIAN_POINT('',(-0.0843085924014487,0.0266786494826024,0.003));
#1198=CARTESIAN_POINT('',(-0.113048586567025,-0.000263746379188003,-0.0075));
#1199=CARTESIAN_POINT('',(-0.113048586567025,-0.000263746379188003,-0.006));
#1200=CARTESIAN_POINT('',(-0.114798586567025,-0.000263746379188003,-0.006));
#1201=CARTESIAN_POINT('',(-0.113048586567025,-0.000263746379188003,0.003));
#1202=CARTESIAN_POINT('',(-0.111298586567025,-0.000263746379188003,0.003));
#1203=CARTESIAN_POINT('',(-0.107331189235946,0.020998791750168,0.013));
#1204=CARTESIAN_POINT('',(-0.107331189235946,0.020998791750168,0.013));
#1205=CARTESIAN_POINT('',(-0.0866560879189756,0.0296185472880602,0.013));
#1206=CARTESIAN_POINT('',(-0.120895029944978,0.0388252391029078,0.013));
#1207=CARTESIAN_POINT('',(-0.0866560879189756,0.0296185472880602,0.008));
#1208=CARTESIAN_POINT('',(-0.0866560879189756,0.0296185472880602,0.00585194131184774));
#1209=CARTESIAN_POINT('',(-0.107331189235946,0.020998791750168,0.00585194131184774));
#1210=CARTESIAN_POINT('',(-0.120895029944978,0.0388252391029078,0.00585194131184775));
#1211=CARTESIAN_POINT('',(-0.120895029944978,0.0388252391029078,0.008));
#1212=CARTESIAN_POINT('',(-0.107331189235946,0.020998791750168,0.013));
#1213=CARTESIAN_POINT('',(-0.107331189235946,0.020998791750168,0.00585194131184774));
#1214=CARTESIAN_POINT('',(-0.110203812624205,-0.00121624898509123,0.00585194131184774));
#1215=CARTESIAN_POINT('',(-0.0851111126147312,0.0238321987007055,0.00585194131184774));
#1216=CARTESIAN_POINT('',(-0.0851111126147312,0.0238321987007055,0.008));
#1217=CARTESIAN_POINT('',(-0.0851111126147312,0.0238321987007055,0.013));
#1218=CARTESIAN_POINT('',(-0.107331189235946,0.020998791750168,0.013));
#1219=CARTESIAN_POINT('',(-0.110203812624205,-0.00121624898509123,0.013));
#1220=CARTESIAN_POINT('',(-0.110203812624205,-0.00121624898509123,0.008));
#1221=CARTESIAN_POINT('',(-0.107331189235946,0.020998791750168,0.));
#1222=CARTESIAN_POINT('',(-0.107331189235946,0.020998791750168,0.));
#1223=CARTESIAN_POINT('',(-0.125641670276335,0.0393416213553801,0.));
#1224=CARTESIAN_POINT('',(-0.114061305131154,-0.0040299647889284,0.));
#1225=CARTESIAN_POINT('',(-0.122886388739364,0.0365814721470897,0.));
#1226=CARTESIAN_POINT('',(-0.107331189235946,0.020998791750168,0.));
#1227=CARTESIAN_POINT('',(-0.0822905923003482,0.0276847186840524,0.));
#1228=CARTESIAN_POINT('',(-0.0860585924014487,0.0266786494826024,0.));
#1229=CARTESIAN_POINT('',(-0.107331189235946,0.020998791750168,0.));
#1230=CARTESIAN_POINT('',(-0.113048586567025,-0.000263746379188002,0.));
#1231=CARTESIAN_POINT('',(-0.113048586567025,-0.000263746379188002,-0.01));
#1232=CARTESIAN_POINT('',(-0.113048586567025,-0.000263746379188002,-0.006));
#1233=CARTESIAN_POINT('',(-0.109148586567025,-0.000263746379188002,-0.006));
#1234=CARTESIAN_POINT('',(-0.0860585924014487,0.0266786494826024,-0.01));
#1235=CARTESIAN_POINT('',(-0.0860585924014487,0.0266786494826024,-0.006));
#1236=CARTESIAN_POINT('',(-0.0821585924014487,0.0266786494826024,-0.006));
#1237=CARTESIAN_POINT('',(-0.122886388739364,0.0365814721470897,-0.01));
#1238=CARTESIAN_POINT('',(-0.122886388739364,0.0365814721470897,-0.006));
#1239=CARTESIAN_POINT('',(-0.118986388739364,0.0365814721470897,-0.006));
#1240=CARTESIAN_POINT('',(-0.107331189235946,0.020998791750168,0.013));
#1241=CARTESIAN_POINT('',(-0.107331189235946,0.020998791750168,0.013));
#1242=CARTESIAN_POINT('',(-0.125133667164657,0.0345940769475352,0.013));
#1243=CARTESIAN_POINT('',(-0.115987425148128,0.000338937446890814,0.013));
#1244=CARTESIAN_POINT('',(-0.125133667164657,0.0345940769475352,0.008));
#1245=CARTESIAN_POINT('',(-0.125133667164657,0.0345940769475352,0.00585194131184774));
#1246=CARTESIAN_POINT('',(-0.107331189235946,0.020998791750168,0.00585194131184774));
#1247=CARTESIAN_POINT('',(-0.115987425148128,0.000338937446890805,0.00585194131184774));
#1248=CARTESIAN_POINT('',(-0.115987425148128,0.000338937446890812,0.008));
#1249=CARTESIAN_POINT('',(-0.107331189235946,0.020998791750168,0.013));
#1250=CARTESIAN_POINT('',(-0.119270159549782,0.0157520518416184,0.013));
#1251=CARTESIAN_POINT('',(-0.119862859513028,0.0148117607599878,0.013));
#1252=CARTESIAN_POINT('',(-0.118289796977802,0.0173073517241217,0.013));
#1253=CARTESIAN_POINT('',(-0.121336747733032,0.0148690190775782,0.013));
#1254=CARTESIAN_POINT('',(-0.122810635953036,0.0149262773951686,0.013));
#1255=CARTESIAN_POINT('',(-0.123497992905427,0.0162313311948259,0.013));
#1256=CARTESIAN_POINT('',(-0.124185349857818,0.0175363849944833,0.013));
#1257=CARTESIAN_POINT('',(-0.123398818590205,0.0187841804765502,0.013));
#1258=CARTESIAN_POINT('',(-0.122612287322591,0.0200319759586171,0.013));
#1259=CARTESIAN_POINT('',(-0.121138399102587,0.0199747176410268,0.013));
#1260=CARTESIAN_POINT('',(-0.119664510882583,0.0199174593234363,0.013));
#1261=CARTESIAN_POINT('',(-0.119495119912213,0.019595844289588,0.013));
#1262=CARTESIAN_POINT('',(-0.105722423216647,0.0338440691683522,0.013));
#1263=CARTESIAN_POINT('',(-0.106256915760154,0.0347159828093073,0.013));
#1264=CARTESIAN_POINT('',(-0.104715160883719,0.0322009297480403,0.013));
#1265=CARTESIAN_POINT('',(-0.105553304557802,0.0360123455193248,0.013));
#1266=CARTESIAN_POINT('',(-0.104849693355449,0.0373087082293422,0.013));
#1267=CARTESIAN_POINT('',(-0.103375204714879,0.0373475444087262,0.013));
#1268=CARTESIAN_POINT('',(-0.101900716074308,0.0373863805881101,0.013));
#1269=CARTESIAN_POINT('',(-0.101129838636091,0.0361288540574766,0.013));
#1270=CARTESIAN_POINT('',(-0.100358961197873,0.0348713275268431,0.013));
#1271=CARTESIAN_POINT('',(-0.101062572400226,0.0335749648168257,0.013));
#1272=CARTESIAN_POINT('',(-0.101766183602579,0.0322786021068082,0.013));
#1273=CARTESIAN_POINT('',(-0.102218326608422,0.0322666932277576,0.013));
#1274=CARTESIAN_POINT('',(-0.0970382907877076,0.0132091678594364,0.013));
#1275=CARTESIAN_POINT('',(-0.0962245738536712,0.0133542177221342,0.013));
#1276=CARTESIAN_POINT('',(-0.0991287936341063,0.0128365233461468,0.013));
#1277=CARTESIAN_POINT('',(-0.0952743506680616,0.012226077262116,0.013));
#1278=CARTESIAN_POINT('',(-0.0943241274824521,0.0110979368020978,0.013));
#1279=CARTESIAN_POINT('',(-0.0948260141870602,0.00971094915408589,0.013));
#1280=CARTESIAN_POINT('',(-0.0953279008916682,0.00832396150607397,0.013));
#1281=CARTESIAN_POINT('',(-0.0967800107818858,0.00806511431808024,0.013));
#1282=CARTESIAN_POINT('',(-0.0982321206721034,0.00780626713008652,0.013));
#1283=CARTESIAN_POINT('',(-0.0991823438577129,0.00893440759010472,0.013));
#1284=CARTESIAN_POINT('',(-0.100132567043322,0.0100625480501229,0.013));
#1285=CARTESIAN_POINT('',(-0.0999119219398209,0.0106723112304208,0.013));
#1286=CARTESIAN_POINT('',(-0.0860585924014487,0.0266786494826024,0.013));
#1287=CARTESIAN_POINT('',(-0.122886388739364,0.0365814721470897,0.013));
#1288=CARTESIAN_POINT('',(-0.113048586567025,-0.000263746379188002,0.013));
#1289=CARTESIAN_POINT('',(-0.107331189235946,0.020998791750168,0.006));
#1290=CARTESIAN_POINT('',(-0.0847828582342399,0.0239634142562148,0.00550000000000008));
#1291=CARTESIAN_POINT('',(-0.0843040727287691,0.0241883682573111,0.00462700419019242));
#1292=CARTESIAN_POINT('',(-0.0838514342809204,0.024536788167389,0.00377322063706511));
#1293=CARTESIAN_POINT('',(-0.0834982814266175,0.0251150613935716,0.00300000000000011));
#1294=CARTESIAN_POINT('',(-0.08478285823424,0.0239634142562148,0.0055));
#1295=CARTESIAN_POINT('',(-0.0834982814266176,0.0251150613935716,0.003));
#1296=CARTESIAN_POINT('',(-0.107331189235946,0.020998791750168,0.0055));
#1297=CARTESIAN_POINT('',(-0.110335607379984,-0.00154427124450102,0.0055));
#1298=CARTESIAN_POINT('',(-0.111489520141059,-0.00282681326856597,0.00299999999999999));
#1299=CARTESIAN_POINT('',(-0.110910719406673,-0.00247473943231765,0.00377309382185308));
#1300=CARTESIAN_POINT('',(-0.110561756976388,-0.00202340223587833,0.00462564776353466));
#1301=CARTESIAN_POINT('',(-0.110335607379984,-0.001544271244501,0.00549999999999997));
#1302=CARTESIAN_POINT('',(-0.111489520141059,-0.002826813268566,0.003));
#1303=CARTESIAN_POINT('',(-0.107331189235946,0.020998791750168,0.003));
#1304=CARTESIAN_POINT('',(-0.115682849060596,-0.00169924668046446,0.003));
#1305=CARTESIAN_POINT('',(-0.116037916333931,-1.09469632726878E-5,0.00549999999999996));
#1306=CARTESIAN_POINT('',(-0.116082493207034,-0.00053806437452234,0.0046270041901923));
#1307=CARTESIAN_POINT('',(-0.116007071937647,-0.00110427072412779,0.00377322063706496));
#1308=CARTESIAN_POINT('',(-0.115682849060596,-0.00169924668046442,0.00299999999999994));
#1309=CARTESIAN_POINT('',(-0.116037916333931,-1.0946963272748E-5,0.0055));
#1310=CARTESIAN_POINT('',(-0.107331189235946,0.020998791750168,0.0055));
#1311=CARTESIAN_POINT('',(-0.125351845396423,0.0348722256838307,0.0055));
#1312=CARTESIAN_POINT('',(-0.125885602990147,0.0365128144607046,0.00299999999999987));
#1313=CARTESIAN_POINT('',(-0.125870098471141,0.0358355214028738,0.00377309382185296));
#1314=CARTESIAN_POINT('',(-0.125653710208494,0.0353076424750602,0.00462564776353458));
#1315=CARTESIAN_POINT('',(-0.125351845396423,0.0348722256838304,0.00549999999999989));
#1316=CARTESIAN_POINT('',(-0.125885602990147,0.0365128144607048,0.003));
#1317=CARTESIAN_POINT('',(-0.107331189235946,0.020998791750168,0.003));
#1318=CARTESIAN_POINT('',(-0.122812437220624,0.039580560537397,0.003));
#1319=CARTESIAN_POINT('',(-0.121172793139666,0.039043907957562,0.00549999999999996));
#1320=CARTESIAN_POINT('',(-0.121607001772034,0.0393460713677154,0.00462700419019229));
#1321=CARTESIAN_POINT('',(-0.12213506148927,0.039563857807243,0.00377322063706495));
#1322=CARTESIAN_POINT('',(-0.122812437220624,0.039580560537397,0.00299999999999994));
#1323=CARTESIAN_POINT('',(-0.121172793139666,0.0390439079575621,0.0055));
#1324=CARTESIAN_POINT('',(-0.107331189235946,0.020998791750168,0.0055));
#1325=CARTESIAN_POINT('',(-0.0863061149314303,0.0296684208111745,0.0055));
#1326=CARTESIAN_POINT('',(-0.0846184445766315,0.0293103740583653,0.00300000000000009));
#1327=CARTESIAN_POINT('',(-0.085212749830023,0.0296355932799478,0.00377309382185318));
#1328=CARTESIAN_POINT('',(-0.0857781005229552,0.0297121350113221,0.00462564776353474));
#1329=CARTESIAN_POINT('',(-0.0863061149314302,0.0296684208111746,0.00550000000000005));
#1330=CARTESIAN_POINT('',(-0.0846184445766316,0.0293103740583653,0.003));
#1331=CARTESIAN_POINT('',(-0.107331189235946,0.020998791750168,0.003));
#1332=CARTESIAN_POINT('',(-0.107331189235946,0.020998791750168,0.005));
#1333=CARTESIAN_POINT('',(-0.0863061149314302,0.0296684208111745,0.00550000000000011));
#1334=CARTESIAN_POINT('',(-0.0863934909387243,0.0296611869701852,0.00564468811109094));
#1335=CARTESIAN_POINT('',(-0.0865141411083211,0.0296473961082258,0.00576459013184454));
#1336=CARTESIAN_POINT('',(-0.0866560879189743,0.0296185472880611,0.00585194131184984));
#1337=CARTESIAN_POINT('',(-0.120895029944978,0.0388252391029077,0.00585194131184773));
#1338=CARTESIAN_POINT('',(-0.121003372829768,0.0389213941674419,0.00576458425002171));
#1339=CARTESIAN_POINT('',(-0.121100839203155,0.0389938356070621,0.00564466659663401));
#1340=CARTESIAN_POINT('',(-0.121172793139667,0.0390439079575625,0.00550000000000053));
#1341=CARTESIAN_POINT('',(-0.107331189235946,0.020998791750168,0.005));
#1342=CARTESIAN_POINT('',(-0.125351845396423,0.0348722256838305,0.0054999999999999));
#1343=CARTESIAN_POINT('',(-0.125301892702712,0.0348001727623272,0.00564468811109077));
#1344=CARTESIAN_POINT('',(-0.125229624381117,0.0347025820814653,0.00576459013184437));
#1345=CARTESIAN_POINT('',(-0.125133667164658,0.0345940769475358,0.00585194131184973));
#1346=CARTESIAN_POINT('',(-0.115987425148128,0.000338937446890823,0.00585194131184772));
#1347=CARTESIAN_POINT('',(-0.116016526434322,0.000197032224076364,0.00576458425002186));
#1348=CARTESIAN_POINT('',(-0.116030529374626,7.64031488977997E-5,0.00564466659663403));
#1349=CARTESIAN_POINT('',(-0.116037916333931,-1.09469632734879E-5,0.00550000000000054));
#1350=CARTESIAN_POINT('',(-0.107331189235946,0.020998791750168,0.005));
#1351=CARTESIAN_POINT('',(-0.0851111126147311,0.0238321987007055,0.00585194131184782));
#1352=CARTESIAN_POINT('',(-0.0849736684437469,0.0238779488589861,0.00576458425002185));
#1353=CARTESIAN_POINT('',(-0.0848621991300553,0.0239261364945442,0.00564466659663412));
#1354=CARTESIAN_POINT('',(-0.0847828582342391,0.0239634142562151,0.00550000000000067));
#1355=CARTESIAN_POINT('',(-0.110335607379984,-0.001544271244501,0.0055));
#1356=CARTESIAN_POINT('',(-0.110298184066401,-0.00146498448200844,0.00564468811109083));
#1357=CARTESIAN_POINT('',(-0.110249802218399,-0.00135360293918711,0.00576459013184436));
#1358=CARTESIAN_POINT('',(-0.110203812624204,-0.00121624898509281,0.00585194131184978));
#1359=CARTESIAN_POINT('',(-0.106394890818697,0.02006752268549,0.003));
#1360=CARTESIAN_POINT('',(-0.113048586567025,-0.000263746379188002,0.003));
#1361=CARTESIAN_POINT('',(-0.113048586567025,-0.000263746379188002,0.003));
#1362=CARTESIAN_POINT('',(-0.106394890818697,0.02006752268549,0.003));
#1363=CARTESIAN_POINT('',(-0.0860585924014487,0.0266786494826024,0.003));
#1364=CARTESIAN_POINT('',(-0.0860585924014487,0.0266786494826024,0.003));
#1365=CARTESIAN_POINT('',(-0.106394890818697,0.02006752268549,0.003));
#1366=CARTESIAN_POINT('',(-0.122886388739364,0.0365814721470897,0.003));
#1367=CARTESIAN_POINT('',(-0.122886388739364,0.0365814721470897,0.003));
#1368=CARTESIAN_POINT('',(-0.107331189235946,0.020998791750168,-0.006));
#1369=CARTESIAN_POINT('',(-0.107331189235946,0.020998791750168,-0.006));
#1370=CARTESIAN_POINT('',(-0.107331189235946,0.020998791750168,-0.006));
#1371=CARTESIAN_POINT('',(-0.0970382907877076,0.0132091678594364,0.0108));
#1372=CARTESIAN_POINT('',(-0.0991287936341063,0.0128365233461468,0.0108));
#1373=CARTESIAN_POINT('',(-0.0991287936341063,0.0128365233461468,0.0108));
#1374=CARTESIAN_POINT('',(-0.0970382907877076,0.0132091678594364,0.0108));
#1375=CARTESIAN_POINT('',(-0.0962245738536712,0.0133542177221342,0.0108));
#1376=CARTESIAN_POINT('',(-0.0962245738536712,0.0133542177221342,0.0108));
#1377=CARTESIAN_POINT('',(-0.0999119219398209,0.0106723112304208,0.0108));
#1378=CARTESIAN_POINT('',(-0.100132567043322,0.0100625480501229,0.0108));
#1379=CARTESIAN_POINT('',(-0.100132567043322,0.0100625480501229,0.0108));
#1380=CARTESIAN_POINT('',(-0.0999119219398209,0.0106723112304208,0.0108));
#1381=CARTESIAN_POINT('',(-0.0991823438577129,0.00893440759010472,0.0108));
#1382=CARTESIAN_POINT('',(-0.0982321206721034,0.00780626713008652,0.0108));
#1383=CARTESIAN_POINT('',(-0.0982321206721034,0.00780626713008652,0.0108));
#1384=CARTESIAN_POINT('',(-0.0991823438577129,0.00893440759010472,0.0108));
#1385=CARTESIAN_POINT('',(-0.0967800107818858,0.00806511431808024,0.0108));
#1386=CARTESIAN_POINT('',(-0.0953279008916682,0.00832396150607397,0.0108));
#1387=CARTESIAN_POINT('',(-0.0953279008916682,0.00832396150607397,0.0108));
#1388=CARTESIAN_POINT('',(-0.0967800107818858,0.00806511431808024,0.0108));
#1389=CARTESIAN_POINT('',(-0.0948260141870602,0.00971094915408589,0.0108));
#1390=CARTESIAN_POINT('',(-0.0943241274824521,0.0110979368020978,0.0108));
#1391=CARTESIAN_POINT('',(-0.0943241274824521,0.0110979368020978,0.0108));
#1392=CARTESIAN_POINT('',(-0.0948260141870602,0.00971094915408589,0.0108));
#1393=CARTESIAN_POINT('',(-0.0952743506680616,0.012226077262116,0.0108));
#1394=CARTESIAN_POINT('',(-0.0952743506680616,0.012226077262116,0.0108));
#1395=CARTESIAN_POINT('',(-0.107331189235946,0.020998791750168,0.0108));
#1396=CARTESIAN_POINT('',(-0.0972283472628873,0.0105802424261104,0.0108));
#1397=CARTESIAN_POINT('',(-0.0954783472628873,0.0105802424261104,0.0108));
#1398=CARTESIAN_POINT('',(-0.105722423216647,0.0338440691683522,0.0108));
#1399=CARTESIAN_POINT('',(-0.104715160883719,0.0322009297480403,0.0108));
#1400=CARTESIAN_POINT('',(-0.104715160883719,0.0322009297480403,0.0108));
#1401=CARTESIAN_POINT('',(-0.105722423216647,0.0338440691683522,0.0108));
#1402=CARTESIAN_POINT('',(-0.106256915760154,0.0347159828093073,0.0108));
#1403=CARTESIAN_POINT('',(-0.106256915760154,0.0347159828093073,0.0108));
#1404=CARTESIAN_POINT('',(-0.102218326608422,0.0322666932277576,0.0108));
#1405=CARTESIAN_POINT('',(-0.101766183602579,0.0322786021068082,0.0108));
#1406=CARTESIAN_POINT('',(-0.101766183602579,0.0322786021068082,0.0108));
#1407=CARTESIAN_POINT('',(-0.102218326608422,0.0322666932277576,0.0108));
#1408=CARTESIAN_POINT('',(-0.101062572400226,0.0335749648168257,0.0108));
#1409=CARTESIAN_POINT('',(-0.100358961197873,0.0348713275268431,0.0108));
#1410=CARTESIAN_POINT('',(-0.100358961197873,0.0348713275268431,0.0108));
#1411=CARTESIAN_POINT('',(-0.101062572400226,0.0335749648168257,0.0108));
#1412=CARTESIAN_POINT('',(-0.101129838636091,0.0361288540574766,0.0108));
#1413=CARTESIAN_POINT('',(-0.101900716074308,0.0373863805881101,0.0108));
#1414=CARTESIAN_POINT('',(-0.101900716074308,0.0373863805881101,0.0108));
#1415=CARTESIAN_POINT('',(-0.101129838636091,0.0361288540574766,0.0108));
#1416=CARTESIAN_POINT('',(-0.103375204714879,0.0373475444087262,0.0108));
#1417=CARTESIAN_POINT('',(-0.104849693355449,0.0373087082293422,0.0108));
#1418=CARTESIAN_POINT('',(-0.104849693355449,0.0373087082293422,0.0108));
#1419=CARTESIAN_POINT('',(-0.103375204714879,0.0373475444087262,0.0108));
#1420=CARTESIAN_POINT('',(-0.105553304557802,0.0360123455193248,0.0108));
#1421=CARTESIAN_POINT('',(-0.105553304557802,0.0360123455193248,0.0108));
#1422=CARTESIAN_POINT('',(-0.107331189235946,0.020998791750168,0.0108));
#1423=CARTESIAN_POINT('',(-0.103307938479014,0.0347936551680752,0.0108));
#1424=CARTESIAN_POINT('',(-0.101557938479014,0.0347936551680752,0.0108));
#1425=CARTESIAN_POINT('',(-0.119270159549782,0.0157520518416184,0.0108));
#1426=CARTESIAN_POINT('',(-0.118289796977802,0.0173073517241217,0.0108));
#1427=CARTESIAN_POINT('',(-0.118289796977802,0.0173073517241217,0.0108));
#1428=CARTESIAN_POINT('',(-0.119270159549782,0.0157520518416184,0.0108));
#1429=CARTESIAN_POINT('',(-0.119862859513028,0.0148117607599878,0.0108));
#1430=CARTESIAN_POINT('',(-0.119862859513028,0.0148117607599878,0.0108));
#1431=CARTESIAN_POINT('',(-0.119495119912213,0.019595844289588,0.0108));
#1432=CARTESIAN_POINT('',(-0.119664510882583,0.0199174593234363,0.0108));
#1433=CARTESIAN_POINT('',(-0.119664510882583,0.0199174593234363,0.0108));
#1434=CARTESIAN_POINT('',(-0.119495119912213,0.019595844289588,0.0108));
#1435=CARTESIAN_POINT('',(-0.121138399102587,0.0199747176410268,0.0108));
#1436=CARTESIAN_POINT('',(-0.122612287322591,0.0200319759586171,0.0108));
#1437=CARTESIAN_POINT('',(-0.122612287322591,0.0200319759586171,0.0108));
#1438=CARTESIAN_POINT('',(-0.121138399102587,0.0199747176410268,0.0108));
#1439=CARTESIAN_POINT('',(-0.123398818590205,0.0187841804765502,0.0108));
#1440=CARTESIAN_POINT('',(-0.124185349857818,0.0175363849944833,0.0108));
#1441=CARTESIAN_POINT('',(-0.124185349857818,0.0175363849944833,0.0108));
#1442=CARTESIAN_POINT('',(-0.123398818590205,0.0187841804765502,0.0108));
#1443=CARTESIAN_POINT('',(-0.123497992905427,0.0162313311948259,0.0108));
#1444=CARTESIAN_POINT('',(-0.122810635953036,0.0149262773951686,0.0108));
#1445=CARTESIAN_POINT('',(-0.122810635953036,0.0149262773951686,0.0108));
#1446=CARTESIAN_POINT('',(-0.123497992905427,0.0162313311948259,0.0108));
#1447=CARTESIAN_POINT('',(-0.121336747733032,0.0148690190775782,0.0108));
#1448=CARTESIAN_POINT('',(-0.121336747733032,0.0148690190775782,0.0108));
#1449=CARTESIAN_POINT('',(-0.107331189235946,0.020998791750168,0.0108));
#1450=CARTESIAN_POINT('',(-0.12123757341781,0.0174218683593025,0.0108));
#1451=CARTESIAN_POINT('',(-0.11948757341781,0.0174218683593025,0.0108));
#1452=CARTESIAN_POINT('',(-0.12123757341781,0.0174218683593025,0.009));
#1453=CARTESIAN_POINT('',(-0.12123757341781,0.0174218683593025,0.009));
#1454=CARTESIAN_POINT('',(-0.11948757341781,0.0174218683593025,0.009));
#1455=CARTESIAN_POINT('',(-0.107331189235946,0.020998791750168,0.009));
#1456=CARTESIAN_POINT('',(-0.103307938479014,0.0347936551680752,0.009));
#1457=CARTESIAN_POINT('',(-0.103307938479014,0.0347936551680752,0.009));
#1458=CARTESIAN_POINT('',(-0.101557938479014,0.0347936551680752,0.009));
#1459=CARTESIAN_POINT('',(-0.107331189235946,0.020998791750168,0.009));
#1460=CARTESIAN_POINT('',(-0.0972283472628873,0.0105802424261104,0.009));
#1461=CARTESIAN_POINT('',(-0.0972283472628873,0.0105802424261104,0.009));
#1462=CARTESIAN_POINT('',(-0.0954783472628873,0.0105802424261104,0.009));
#1463=CARTESIAN_POINT('',(-0.107331189235946,0.020998791750168,0.009));
#1464=MECHANICAL_DESIGN_GEOMETRIC_PRESENTATION_REPRESENTATION('',(#843),
#1465);
#1465=(
GEOMETRIC_REPRESENTATION_CONTEXT(3)
GLOBAL_UNCERTAINTY_ASSIGNED_CONTEXT((#1466))
GLOBAL_UNIT_ASSIGNED_CONTEXT((#1469,#1468,#1467))
REPRESENTATION_CONTEXT('Part 1','TOP_LEVEL_ASSEMBLY_PART')
);
#1466=UNCERTAINTY_MEASURE_WITH_UNIT(LENGTH_MEASURE(2.E-5),#1469,
'DISTANCE_ACCURACY_VALUE','Maximum Tolerance applied to model');
#1467=(
NAMED_UNIT(*)
SI_UNIT($,.STERADIAN.)
SOLID_ANGLE_UNIT()
);
#1468=(
NAMED_UNIT(*)
PLANE_ANGLE_UNIT()
SI_UNIT($,.RADIAN.)
);
#1469=(
LENGTH_UNIT()
NAMED_UNIT(*)
SI_UNIT($,.METRE.)
);
#1470=PRODUCT_DEFINITION_SHAPE('','',#1471);
#1471=PRODUCT_DEFINITION('','',#1473,#1472);
#1472=PRODUCT_DEFINITION_CONTEXT('',#1479,'design');
#1473=PRODUCT_DEFINITION_FORMATION_WITH_SPECIFIED_SOURCE('','',#1475,
 .NOT_KNOWN.);
#1474=PRODUCT_RELATED_PRODUCT_CATEGORY('','',(#1475));
#1475=PRODUCT('Part 1','Part 1','Part 1',(#1477));
#1476=PRODUCT_CATEGORY('','');
#1477=PRODUCT_CONTEXT('',#1479,'mechanical');
#1478=APPLICATION_PROTOCOL_DEFINITION('international standard',
'ap242_managed_model_based_3d_engineering',2020,#1479);
#1479=APPLICATION_CONTEXT('managed model based 3d engineering');
ENDSEC;
END-ISO-10303-21;
