ISO-10303-21;
HEADER;
/* Generated by software containing ST-Developer
 * from STEP Tools, Inc. (www.steptools.com) 
 */
/* OPTION: using custom renumber hook */

FILE_DESCRIPTION(
/* description */ ('STEP AP242 Edition 2',
'CAx-IF Rec.Pracs.---Representation and Presentation of Product Manufa
cturing Information (PMI)---4.0---2014-10-13',
'CAx-IF Rec.Pracs.---3D Tessellated Geometry---0.4---2014-09-14','2;1',
'CAx-IF Rec.Pracs.---User Defined Attributes---1.5---2016-08-15'),
/* implementation_level */ '2;1');

FILE_NAME(
/* name */ 'planet gear alignment',
/* time_stamp */ '2026-08-19T18:11:20Z',
/* author */ (''),
/* organization */ (''),
/* preprocessor_version */ 'ST-DEVELOPER v20',
/* originating_system */ 'ONSHAPE BY PTC INC, 1.219',
/* authorisation */ '  ');

FILE_SCHEMA (('AP242_MANAGED_MODEL_BASED_3D_ENGINEERING_MIM_LF { 1 0 10303 442 3 1 4 }'));
ENDSEC;

DATA;
#10=SHAPE_REPRESENTATION_RELATIONSHIP('','',#756,#11);
#11=ADVANCED_BREP_SHAPE_REPRESENTATION('',(#754),#1279);
#12=TOROIDAL_SURFACE('',#795,0.021876362719846,0.001);
#13=CONICAL_SURFACE('',#790,0.0224537129890355,0.523598775598298);
#14=PLANE('',#767);
#15=PLANE('',#771);
#16=PLANE('',#775);
#17=PLANE('',#779);
#18=PLANE('',#787);
#19=PLANE('',#796);
#20=PLANE('',#797);
#21=PLANE('',#798);
#22=PLANE('',#799);
#23=PLANE('',#800);
#24=PLANE('',#801);
#25=PLANE('',#804);
#26=PLANE('',#805);
#27=PLANE('',#809);
#28=PLANE('',#810);
#29=PLANE('',#811);
#30=PLANE('',#812);
#31=PLANE('',#813);
#32=PLANE('',#814);
#33=PLANE('',#817);
#34=PLANE('',#818);
#35=PLANE('',#822);
#36=PLANE('',#823);
#37=PLANE('',#824);
#38=PLANE('',#825);
#39=PLANE('',#826);
#40=PLANE('',#827);
#41=PLANE('',#830);
#42=PLANE('',#831);
#43=PLANE('',#835);
#44=PLANE('',#836);
#45=PLANE('',#837);
#46=LINE('',#1074,#106);
#47=LINE('',#1078,#107);
#48=LINE('',#1083,#108);
#49=LINE('',#1087,#109);
#50=LINE('',#1092,#110);
#51=LINE('',#1096,#111);
#52=LINE('',#1135,#112);
#53=LINE('',#1138,#113);
#54=LINE('',#1140,#114);
#55=LINE('',#1142,#115);
#56=LINE('',#1144,#116);
#57=LINE('',#1146,#117);
#58=LINE('',#1148,#118);
#59=LINE('',#1150,#119);
#60=LINE('',#1152,#120);
#61=LINE('',#1154,#121);
#62=LINE('',#1156,#122);
#63=LINE('',#1158,#123);
#64=LINE('',#1160,#124);
#65=LINE('',#1162,#125);
#66=LINE('',#1164,#126);
#67=LINE('',#1166,#127);
#68=LINE('',#1168,#128);
#69=LINE('',#1173,#129);
#70=LINE('',#1181,#130);
#71=LINE('',#1184,#131);
#72=LINE('',#1186,#132);
#73=LINE('',#1188,#133);
#74=LINE('',#1190,#134);
#75=LINE('',#1192,#135);
#76=LINE('',#1194,#136);
#77=LINE('',#1196,#137);
#78=LINE('',#1198,#138);
#79=LINE('',#1200,#139);
#80=LINE('',#1202,#140);
#81=LINE('',#1204,#141);
#82=LINE('',#1206,#142);
#83=LINE('',#1208,#143);
#84=LINE('',#1210,#144);
#85=LINE('',#1212,#145);
#86=LINE('',#1214,#146);
#87=LINE('',#1219,#147);
#88=LINE('',#1227,#148);
#89=LINE('',#1230,#149);
#90=LINE('',#1232,#150);
#91=LINE('',#1234,#151);
#92=LINE('',#1236,#152);
#93=LINE('',#1238,#153);
#94=LINE('',#1240,#154);
#95=LINE('',#1242,#155);
#96=LINE('',#1244,#156);
#97=LINE('',#1246,#157);
#98=LINE('',#1248,#158);
#99=LINE('',#1250,#159);
#100=LINE('',#1252,#160);
#101=LINE('',#1254,#161);
#102=LINE('',#1256,#162);
#103=LINE('',#1258,#163);
#104=LINE('',#1260,#164);
#105=LINE('',#1265,#165);
#106=VECTOR('',#847,1.);
#107=VECTOR('',#850,1.);
#108=VECTOR('',#855,1.);
#109=VECTOR('',#858,1.);
#110=VECTOR('',#863,1.);
#111=VECTOR('',#866,1.);
#112=VECTOR('',#927,1.);
#113=VECTOR('',#928,1.);
#114=VECTOR('',#929,1.);
#115=VECTOR('',#930,1.);
#116=VECTOR('',#933,1.);
#117=VECTOR('',#934,1.);
#118=VECTOR('',#935,1.);
#119=VECTOR('',#938,1.);
#120=VECTOR('',#939,1.);
#121=VECTOR('',#940,1.);
#122=VECTOR('',#943,1.);
#123=VECTOR('',#944,1.);
#124=VECTOR('',#945,1.);
#125=VECTOR('',#948,1.);
#126=VECTOR('',#949,1.);
#127=VECTOR('',#950,1.);
#128=VECTOR('',#953,1.);
#129=VECTOR('',#960,1.);
#130=VECTOR('',#971,1.);
#131=VECTOR('',#972,1.);
#132=VECTOR('',#973,1.);
#133=VECTOR('',#974,1.);
#134=VECTOR('',#977,1.);
#135=VECTOR('',#978,1.);
#136=VECTOR('',#979,1.);
#137=VECTOR('',#982,1.);
#138=VECTOR('',#983,1.);
#139=VECTOR('',#984,1.);
#140=VECTOR('',#987,1.);
#141=VECTOR('',#988,1.);
#142=VECTOR('',#989,1.);
#143=VECTOR('',#992,1.);
#144=VECTOR('',#993,1.);
#145=VECTOR('',#994,1.);
#146=VECTOR('',#997,1.);
#147=VECTOR('',#1004,1.);
#148=VECTOR('',#1015,1.);
#149=VECTOR('',#1016,1.);
#150=VECTOR('',#1017,1.);
#151=VECTOR('',#1018,1.);
#152=VECTOR('',#1021,1.);
#153=VECTOR('',#1022,1.);
#154=VECTOR('',#1023,1.);
#155=VECTOR('',#1026,1.);
#156=VECTOR('',#1027,1.);
#157=VECTOR('',#1028,1.);
#158=VECTOR('',#1031,1.);
#159=VECTOR('',#1032,1.);
#160=VECTOR('',#1033,1.);
#161=VECTOR('',#1036,1.);
#162=VECTOR('',#1037,1.);
#163=VECTOR('',#1038,1.);
#164=VECTOR('',#1041,1.);
#165=VECTOR('',#1048,1.);
#166=ORIENTED_EDGE('',*,*,#356,.T.);
#167=ORIENTED_EDGE('',*,*,#357,.T.);
#168=ORIENTED_EDGE('',*,*,#358,.F.);
#169=ORIENTED_EDGE('',*,*,#359,.F.);
#170=ORIENTED_EDGE('',*,*,#360,.T.);
#171=ORIENTED_EDGE('',*,*,#361,.T.);
#172=ORIENTED_EDGE('',*,*,#362,.F.);
#173=ORIENTED_EDGE('',*,*,#363,.F.);
#174=ORIENTED_EDGE('',*,*,#364,.T.);
#175=ORIENTED_EDGE('',*,*,#365,.T.);
#176=ORIENTED_EDGE('',*,*,#366,.F.);
#177=ORIENTED_EDGE('',*,*,#367,.F.);
#178=ORIENTED_EDGE('',*,*,#368,.F.);
#179=ORIENTED_EDGE('',*,*,#356,.F.);
#180=ORIENTED_EDGE('',*,*,#369,.F.);
#181=ORIENTED_EDGE('',*,*,#370,.F.);
#182=ORIENTED_EDGE('',*,*,#371,.F.);
#183=ORIENTED_EDGE('',*,*,#360,.F.);
#184=ORIENTED_EDGE('',*,*,#372,.F.);
#185=ORIENTED_EDGE('',*,*,#373,.F.);
#186=ORIENTED_EDGE('',*,*,#374,.F.);
#187=ORIENTED_EDGE('',*,*,#364,.F.);
#188=ORIENTED_EDGE('',*,*,#375,.F.);
#189=ORIENTED_EDGE('',*,*,#376,.F.);
#190=ORIENTED_EDGE('',*,*,#377,.T.);
#191=ORIENTED_EDGE('',*,*,#378,.F.);
#192=ORIENTED_EDGE('',*,*,#358,.T.);
#193=ORIENTED_EDGE('',*,*,#379,.F.);
#194=ORIENTED_EDGE('',*,*,#362,.T.);
#195=ORIENTED_EDGE('',*,*,#380,.F.);
#196=ORIENTED_EDGE('',*,*,#366,.T.);
#197=ORIENTED_EDGE('',*,*,#381,.T.);
#198=ORIENTED_EDGE('',*,*,#382,.F.);
#199=ORIENTED_EDGE('',*,*,#383,.T.);
#200=ORIENTED_EDGE('',*,*,#382,.T.);
#201=ORIENTED_EDGE('',*,*,#383,.F.);
#202=ORIENTED_EDGE('',*,*,#377,.F.);
#203=ORIENTED_EDGE('',*,*,#384,.T.);
#204=ORIENTED_EDGE('',*,*,#385,.T.);
#205=ORIENTED_EDGE('',*,*,#379,.T.);
#206=ORIENTED_EDGE('',*,*,#386,.T.);
#207=ORIENTED_EDGE('',*,*,#378,.T.);
#208=ORIENTED_EDGE('',*,*,#387,.T.);
#209=ORIENTED_EDGE('',*,*,#380,.T.);
#210=ORIENTED_EDGE('',*,*,#384,.F.);
#211=ORIENTED_EDGE('',*,*,#381,.F.);
#212=ORIENTED_EDGE('',*,*,#388,.T.);
#213=ORIENTED_EDGE('',*,*,#389,.F.);
#214=ORIENTED_EDGE('',*,*,#390,.F.);
#215=ORIENTED_EDGE('',*,*,#391,.T.);
#216=ORIENTED_EDGE('',*,*,#392,.T.);
#217=ORIENTED_EDGE('',*,*,#391,.F.);
#218=ORIENTED_EDGE('',*,*,#393,.F.);
#219=ORIENTED_EDGE('',*,*,#394,.T.);
#220=ORIENTED_EDGE('',*,*,#395,.T.);
#221=ORIENTED_EDGE('',*,*,#394,.F.);
#222=ORIENTED_EDGE('',*,*,#396,.F.);
#223=ORIENTED_EDGE('',*,*,#397,.T.);
#224=ORIENTED_EDGE('',*,*,#398,.T.);
#225=ORIENTED_EDGE('',*,*,#397,.F.);
#226=ORIENTED_EDGE('',*,*,#399,.F.);
#227=ORIENTED_EDGE('',*,*,#400,.T.);
#228=ORIENTED_EDGE('',*,*,#401,.T.);
#229=ORIENTED_EDGE('',*,*,#400,.F.);
#230=ORIENTED_EDGE('',*,*,#402,.F.);
#231=ORIENTED_EDGE('',*,*,#403,.T.);
#232=ORIENTED_EDGE('',*,*,#401,.F.);
#233=ORIENTED_EDGE('',*,*,#404,.F.);
#234=ORIENTED_EDGE('',*,*,#388,.F.);
#235=ORIENTED_EDGE('',*,*,#392,.F.);
#236=ORIENTED_EDGE('',*,*,#395,.F.);
#237=ORIENTED_EDGE('',*,*,#398,.F.);
#238=ORIENTED_EDGE('',*,*,#405,.F.);
#239=ORIENTED_EDGE('',*,*,#370,.T.);
#240=ORIENTED_EDGE('',*,*,#405,.T.);
#241=ORIENTED_EDGE('',*,*,#404,.T.);
#242=ORIENTED_EDGE('',*,*,#403,.F.);
#243=ORIENTED_EDGE('',*,*,#406,.F.);
#244=ORIENTED_EDGE('',*,*,#389,.T.);
#245=ORIENTED_EDGE('',*,*,#407,.F.);
#246=ORIENTED_EDGE('',*,*,#406,.T.);
#247=ORIENTED_EDGE('',*,*,#402,.T.);
#248=ORIENTED_EDGE('',*,*,#399,.T.);
#249=ORIENTED_EDGE('',*,*,#396,.T.);
#250=ORIENTED_EDGE('',*,*,#393,.T.);
#251=ORIENTED_EDGE('',*,*,#390,.T.);
#252=ORIENTED_EDGE('',*,*,#407,.T.);
#253=ORIENTED_EDGE('',*,*,#408,.F.);
#254=ORIENTED_EDGE('',*,*,#409,.T.);
#255=ORIENTED_EDGE('',*,*,#410,.F.);
#256=ORIENTED_EDGE('',*,*,#411,.F.);
#257=ORIENTED_EDGE('',*,*,#412,.T.);
#258=ORIENTED_EDGE('',*,*,#413,.T.);
#259=ORIENTED_EDGE('',*,*,#412,.F.);
#260=ORIENTED_EDGE('',*,*,#414,.F.);
#261=ORIENTED_EDGE('',*,*,#415,.T.);
#262=ORIENTED_EDGE('',*,*,#416,.T.);
#263=ORIENTED_EDGE('',*,*,#415,.F.);
#264=ORIENTED_EDGE('',*,*,#417,.F.);
#265=ORIENTED_EDGE('',*,*,#418,.T.);
#266=ORIENTED_EDGE('',*,*,#419,.T.);
#267=ORIENTED_EDGE('',*,*,#418,.F.);
#268=ORIENTED_EDGE('',*,*,#420,.F.);
#269=ORIENTED_EDGE('',*,*,#421,.T.);
#270=ORIENTED_EDGE('',*,*,#422,.T.);
#271=ORIENTED_EDGE('',*,*,#421,.F.);
#272=ORIENTED_EDGE('',*,*,#423,.F.);
#273=ORIENTED_EDGE('',*,*,#424,.T.);
#274=ORIENTED_EDGE('',*,*,#422,.F.);
#275=ORIENTED_EDGE('',*,*,#425,.F.);
#276=ORIENTED_EDGE('',*,*,#409,.F.);
#277=ORIENTED_EDGE('',*,*,#413,.F.);
#278=ORIENTED_EDGE('',*,*,#416,.F.);
#279=ORIENTED_EDGE('',*,*,#419,.F.);
#280=ORIENTED_EDGE('',*,*,#426,.F.);
#281=ORIENTED_EDGE('',*,*,#373,.T.);
#282=ORIENTED_EDGE('',*,*,#426,.T.);
#283=ORIENTED_EDGE('',*,*,#425,.T.);
#284=ORIENTED_EDGE('',*,*,#424,.F.);
#285=ORIENTED_EDGE('',*,*,#427,.F.);
#286=ORIENTED_EDGE('',*,*,#410,.T.);
#287=ORIENTED_EDGE('',*,*,#428,.F.);
#288=ORIENTED_EDGE('',*,*,#427,.T.);
#289=ORIENTED_EDGE('',*,*,#423,.T.);
#290=ORIENTED_EDGE('',*,*,#420,.T.);
#291=ORIENTED_EDGE('',*,*,#417,.T.);
#292=ORIENTED_EDGE('',*,*,#414,.T.);
#293=ORIENTED_EDGE('',*,*,#411,.T.);
#294=ORIENTED_EDGE('',*,*,#428,.T.);
#295=ORIENTED_EDGE('',*,*,#429,.F.);
#296=ORIENTED_EDGE('',*,*,#430,.T.);
#297=ORIENTED_EDGE('',*,*,#431,.F.);
#298=ORIENTED_EDGE('',*,*,#432,.F.);
#299=ORIENTED_EDGE('',*,*,#433,.T.);
#300=ORIENTED_EDGE('',*,*,#434,.T.);
#301=ORIENTED_EDGE('',*,*,#433,.F.);
#302=ORIENTED_EDGE('',*,*,#435,.F.);
#303=ORIENTED_EDGE('',*,*,#436,.T.);
#304=ORIENTED_EDGE('',*,*,#437,.T.);
#305=ORIENTED_EDGE('',*,*,#436,.F.);
#306=ORIENTED_EDGE('',*,*,#438,.F.);
#307=ORIENTED_EDGE('',*,*,#439,.T.);
#308=ORIENTED_EDGE('',*,*,#440,.T.);
#309=ORIENTED_EDGE('',*,*,#439,.F.);
#310=ORIENTED_EDGE('',*,*,#441,.F.);
#311=ORIENTED_EDGE('',*,*,#442,.T.);
#312=ORIENTED_EDGE('',*,*,#443,.T.);
#313=ORIENTED_EDGE('',*,*,#442,.F.);
#314=ORIENTED_EDGE('',*,*,#444,.F.);
#315=ORIENTED_EDGE('',*,*,#445,.T.);
#316=ORIENTED_EDGE('',*,*,#443,.F.);
#317=ORIENTED_EDGE('',*,*,#446,.F.);
#318=ORIENTED_EDGE('',*,*,#430,.F.);
#319=ORIENTED_EDGE('',*,*,#434,.F.);
#320=ORIENTED_EDGE('',*,*,#437,.F.);
#321=ORIENTED_EDGE('',*,*,#440,.F.);
#322=ORIENTED_EDGE('',*,*,#447,.F.);
#323=ORIENTED_EDGE('',*,*,#376,.T.);
#324=ORIENTED_EDGE('',*,*,#447,.T.);
#325=ORIENTED_EDGE('',*,*,#446,.T.);
#326=ORIENTED_EDGE('',*,*,#445,.F.);
#327=ORIENTED_EDGE('',*,*,#448,.F.);
#328=ORIENTED_EDGE('',*,*,#431,.T.);
#329=ORIENTED_EDGE('',*,*,#449,.F.);
#330=ORIENTED_EDGE('',*,*,#448,.T.);
#331=ORIENTED_EDGE('',*,*,#444,.T.);
#332=ORIENTED_EDGE('',*,*,#441,.T.);
#333=ORIENTED_EDGE('',*,*,#438,.T.);
#334=ORIENTED_EDGE('',*,*,#435,.T.);
#335=ORIENTED_EDGE('',*,*,#432,.T.);
#336=ORIENTED_EDGE('',*,*,#449,.T.);
#337=ORIENTED_EDGE('',*,*,#450,.F.);
#338=ORIENTED_EDGE('',*,*,#408,.T.);
#339=ORIENTED_EDGE('',*,*,#429,.T.);
#340=ORIENTED_EDGE('',*,*,#450,.T.);
#341=ORIENTED_EDGE('',*,*,#374,.T.);
#342=ORIENTED_EDGE('',*,*,#375,.T.);
#343=ORIENTED_EDGE('',*,*,#367,.T.);
#344=ORIENTED_EDGE('',*,*,#387,.F.);
#345=ORIENTED_EDGE('',*,*,#365,.F.);
#346=ORIENTED_EDGE('',*,*,#371,.T.);
#347=ORIENTED_EDGE('',*,*,#372,.T.);
#348=ORIENTED_EDGE('',*,*,#363,.T.);
#349=ORIENTED_EDGE('',*,*,#385,.F.);
#350=ORIENTED_EDGE('',*,*,#361,.F.);
#351=ORIENTED_EDGE('',*,*,#368,.T.);
#352=ORIENTED_EDGE('',*,*,#369,.T.);
#353=ORIENTED_EDGE('',*,*,#359,.T.);
#354=ORIENTED_EDGE('',*,*,#386,.F.);
#355=ORIENTED_EDGE('',*,*,#357,.F.);
#356=EDGE_CURVE('',#451,#452,#516,.T.);
#357=EDGE_CURVE('',#452,#453,#46,.T.);
#358=EDGE_CURVE('',#454,#453,#517,.T.);
#359=EDGE_CURVE('',#451,#454,#47,.T.);
#360=EDGE_CURVE('',#455,#456,#518,.T.);
#361=EDGE_CURVE('',#456,#457,#48,.T.);
#362=EDGE_CURVE('',#458,#457,#519,.T.);
#363=EDGE_CURVE('',#455,#458,#49,.T.);
#364=EDGE_CURVE('',#459,#460,#520,.T.);
#365=EDGE_CURVE('',#460,#461,#50,.T.);
#366=EDGE_CURVE('',#462,#461,#521,.T.);
#367=EDGE_CURVE('',#459,#462,#51,.T.);
#368=EDGE_CURVE('',#452,#463,#522,.T.);
#369=EDGE_CURVE('',#463,#451,#523,.T.);
#370=EDGE_CURVE('',#463,#463,#524,.F.);
#371=EDGE_CURVE('',#456,#464,#525,.T.);
#372=EDGE_CURVE('',#464,#455,#526,.T.);
#373=EDGE_CURVE('',#464,#464,#527,.F.);
#374=EDGE_CURVE('',#460,#465,#528,.T.);
#375=EDGE_CURVE('',#465,#459,#529,.T.);
#376=EDGE_CURVE('',#465,#465,#530,.F.);
#377=EDGE_CURVE('',#466,#466,#531,.T.);
#378=EDGE_CURVE('',#454,#461,#532,.T.);
#379=EDGE_CURVE('',#458,#453,#533,.T.);
#380=EDGE_CURVE('',#462,#457,#534,.T.);
#381=EDGE_CURVE('',#467,#467,#535,.T.);
#382=EDGE_CURVE('',#468,#468,#536,.T.);
#383=EDGE_CURVE('',#469,#469,#537,.F.);
#384=EDGE_CURVE('',#470,#470,#538,.F.);
#385=EDGE_CURVE('',#457,#458,#539,.T.);
#386=EDGE_CURVE('',#453,#454,#540,.T.);
#387=EDGE_CURVE('',#461,#462,#541,.T.);
#388=EDGE_CURVE('',#471,#472,#52,.T.);
#389=EDGE_CURVE('',#473,#472,#53,.T.);
#390=EDGE_CURVE('',#474,#473,#54,.T.);
#391=EDGE_CURVE('',#474,#471,#55,.T.);
#392=EDGE_CURVE('',#475,#471,#56,.T.);
#393=EDGE_CURVE('',#476,#474,#57,.T.);
#394=EDGE_CURVE('',#476,#475,#58,.T.);
#395=EDGE_CURVE('',#477,#475,#59,.T.);
#396=EDGE_CURVE('',#478,#476,#60,.T.);
#397=EDGE_CURVE('',#478,#477,#61,.T.);
#398=EDGE_CURVE('',#479,#477,#62,.T.);
#399=EDGE_CURVE('',#480,#478,#63,.T.);
#400=EDGE_CURVE('',#480,#479,#64,.T.);
#401=EDGE_CURVE('',#481,#479,#65,.T.);
#402=EDGE_CURVE('',#482,#480,#66,.T.);
#403=EDGE_CURVE('',#482,#481,#67,.T.);
#404=EDGE_CURVE('',#472,#481,#68,.T.);
#405=EDGE_CURVE('',#483,#483,#542,.T.);
#406=EDGE_CURVE('',#473,#482,#69,.T.);
#407=EDGE_CURVE('',#484,#484,#543,.T.);
#408=EDGE_CURVE('',#485,#485,#544,.F.);
#409=EDGE_CURVE('',#486,#487,#70,.T.);
#410=EDGE_CURVE('',#488,#487,#71,.T.);
#411=EDGE_CURVE('',#489,#488,#72,.T.);
#412=EDGE_CURVE('',#489,#486,#73,.T.);
#413=EDGE_CURVE('',#490,#486,#74,.T.);
#414=EDGE_CURVE('',#491,#489,#75,.T.);
#415=EDGE_CURVE('',#491,#490,#76,.T.);
#416=EDGE_CURVE('',#492,#490,#77,.T.);
#417=EDGE_CURVE('',#493,#491,#78,.T.);
#418=EDGE_CURVE('',#493,#492,#79,.T.);
#419=EDGE_CURVE('',#494,#492,#80,.T.);
#420=EDGE_CURVE('',#495,#493,#81,.T.);
#421=EDGE_CURVE('',#495,#494,#82,.T.);
#422=EDGE_CURVE('',#496,#494,#83,.T.);
#423=EDGE_CURVE('',#497,#495,#84,.T.);
#424=EDGE_CURVE('',#497,#496,#85,.T.);
#425=EDGE_CURVE('',#487,#496,#86,.T.);
#426=EDGE_CURVE('',#498,#498,#545,.T.);
#427=EDGE_CURVE('',#488,#497,#87,.T.);
#428=EDGE_CURVE('',#499,#499,#546,.T.);
#429=EDGE_CURVE('',#500,#500,#547,.F.);
#430=EDGE_CURVE('',#501,#502,#88,.T.);
#431=EDGE_CURVE('',#503,#502,#89,.T.);
#432=EDGE_CURVE('',#504,#503,#90,.T.);
#433=EDGE_CURVE('',#504,#501,#91,.T.);
#434=EDGE_CURVE('',#505,#501,#92,.T.);
#435=EDGE_CURVE('',#506,#504,#93,.T.);
#436=EDGE_CURVE('',#506,#505,#94,.T.);
#437=EDGE_CURVE('',#507,#505,#95,.T.);
#438=EDGE_CURVE('',#508,#506,#96,.T.);
#439=EDGE_CURVE('',#508,#507,#97,.T.);
#440=EDGE_CURVE('',#509,#507,#98,.T.);
#441=EDGE_CURVE('',#510,#508,#99,.T.);
#442=EDGE_CURVE('',#510,#509,#100,.T.);
#443=EDGE_CURVE('',#511,#509,#101,.T.);
#444=EDGE_CURVE('',#512,#510,#102,.T.);
#445=EDGE_CURVE('',#512,#511,#103,.T.);
#446=EDGE_CURVE('',#502,#511,#104,.T.);
#447=EDGE_CURVE('',#513,#513,#548,.T.);
#448=EDGE_CURVE('',#503,#512,#105,.T.);
#449=EDGE_CURVE('',#514,#514,#549,.T.);
#450=EDGE_CURVE('',#515,#515,#550,.F.);
#451=VERTEX_POINT('',#1072);
#452=VERTEX_POINT('',#1073);
#453=VERTEX_POINT('',#1075);
#454=VERTEX_POINT('',#1077);
#455=VERTEX_POINT('',#1081);
#456=VERTEX_POINT('',#1082);
#457=VERTEX_POINT('',#1084);
#458=VERTEX_POINT('',#1086);
#459=VERTEX_POINT('',#1090);
#460=VERTEX_POINT('',#1091);
#461=VERTEX_POINT('',#1093);
#462=VERTEX_POINT('',#1095);
#463=VERTEX_POINT('',#1099);
#464=VERTEX_POINT('',#1104);
#465=VERTEX_POINT('',#1109);
#466=VERTEX_POINT('',#1114);
#467=VERTEX_POINT('',#1120);
#468=VERTEX_POINT('',#1122);
#469=VERTEX_POINT('',#1125);
#470=VERTEX_POINT('',#1129);
#471=VERTEX_POINT('',#1136);
#472=VERTEX_POINT('',#1137);
#473=VERTEX_POINT('',#1139);
#474=VERTEX_POINT('',#1141);
#475=VERTEX_POINT('',#1145);
#476=VERTEX_POINT('',#1147);
#477=VERTEX_POINT('',#1151);
#478=VERTEX_POINT('',#1153);
#479=VERTEX_POINT('',#1157);
#480=VERTEX_POINT('',#1159);
#481=VERTEX_POINT('',#1163);
#482=VERTEX_POINT('',#1165);
#483=VERTEX_POINT('',#1170);
#484=VERTEX_POINT('',#1176);
#485=VERTEX_POINT('',#1179);
#486=VERTEX_POINT('',#1182);
#487=VERTEX_POINT('',#1183);
#488=VERTEX_POINT('',#1185);
#489=VERTEX_POINT('',#1187);
#490=VERTEX_POINT('',#1191);
#491=VERTEX_POINT('',#1193);
#492=VERTEX_POINT('',#1197);
#493=VERTEX_POINT('',#1199);
#494=VERTEX_POINT('',#1203);
#495=VERTEX_POINT('',#1205);
#496=VERTEX_POINT('',#1209);
#497=VERTEX_POINT('',#1211);
#498=VERTEX_POINT('',#1216);
#499=VERTEX_POINT('',#1222);
#500=VERTEX_POINT('',#1225);
#501=VERTEX_POINT('',#1228);
#502=VERTEX_POINT('',#1229);
#503=VERTEX_POINT('',#1231);
#504=VERTEX_POINT('',#1233);
#505=VERTEX_POINT('',#1237);
#506=VERTEX_POINT('',#1239);
#507=VERTEX_POINT('',#1243);
#508=VERTEX_POINT('',#1245);
#509=VERTEX_POINT('',#1249);
#510=VERTEX_POINT('',#1251);
#511=VERTEX_POINT('',#1255);
#512=VERTEX_POINT('',#1257);
#513=VERTEX_POINT('',#1262);
#514=VERTEX_POINT('',#1268);
#515=VERTEX_POINT('',#1271);
#516=CIRCLE('',#759,0.0045);
#517=CIRCLE('',#760,0.0045);
#518=CIRCLE('',#762,0.0045);
#519=CIRCLE('',#763,0.0045);
#520=CIRCLE('',#765,0.0045);
#521=CIRCLE('',#766,0.0045);
#522=CIRCLE('',#768,0.0259178146041733);
#523=CIRCLE('',#769,0.0259178146041733);
#524=CIRCLE('',#770,0.0039);
#525=CIRCLE('',#772,0.0259178146041733);
#526=CIRCLE('',#773,0.0259178146041733);
#527=CIRCLE('',#774,0.0039);
#528=CIRCLE('',#776,0.0259178146041733);
#529=CIRCLE('',#777,0.0259178146041733);
#530=CIRCLE('',#778,0.0039);
#531=CIRCLE('',#780,0.015);
#532=CIRCLE('',#781,0.0259178146041733);
#533=CIRCLE('',#782,0.0259178146041733);
#534=CIRCLE('',#783,0.0259178146041733);
#535=CIRCLE('',#785,0.0224);
#536=CIRCLE('',#786,0.0224);
#537=CIRCLE('',#788,0.015);
#538=CIRCLE('',#791,0.0227423881236304);
#539=CIRCLE('',#792,0.0259178146041733);
#540=CIRCLE('',#793,0.0259178146041733);
#541=CIRCLE('',#794,0.0259178146041733);
#542=CIRCLE('',#802,0.0039);
#543=CIRCLE('',#806,0.00175);
#544=CIRCLE('',#808,0.00175);
#545=CIRCLE('',#815,0.0039);
#546=CIRCLE('',#819,0.00175);
#547=CIRCLE('',#821,0.00175);
#548=CIRCLE('',#828,0.0039);
#549=CIRCLE('',#832,0.00175);
#550=CIRCLE('',#834,0.00175);
#551=EDGE_LOOP('',(#166,#167,#168,#169));
#552=EDGE_LOOP('',(#170,#171,#172,#173));
#553=EDGE_LOOP('',(#174,#175,#176,#177));
#554=EDGE_LOOP('',(#178,#179,#180,#181));
#555=EDGE_LOOP('',(#182,#183,#184,#185));
#556=EDGE_LOOP('',(#186,#187,#188,#189));
#557=EDGE_LOOP('',(#190));
#558=EDGE_LOOP('',(#191,#192,#193,#194,#195,#196));
#559=EDGE_LOOP('',(#197));
#560=EDGE_LOOP('',(#198));
#561=EDGE_LOOP('',(#199));
#562=EDGE_LOOP('',(#200));
#563=EDGE_LOOP('',(#201));
#564=EDGE_LOOP('',(#202));
#565=EDGE_LOOP('',(#203));
#566=EDGE_LOOP('',(#204,#205,#206,#207,#208,#209));
#567=EDGE_LOOP('',(#210));
#568=EDGE_LOOP('',(#211));
#569=EDGE_LOOP('',(#212,#213,#214,#215));
#570=EDGE_LOOP('',(#216,#217,#218,#219));
#571=EDGE_LOOP('',(#220,#221,#222,#223));
#572=EDGE_LOOP('',(#224,#225,#226,#227));
#573=EDGE_LOOP('',(#228,#229,#230,#231));
#574=EDGE_LOOP('',(#232,#233,#234,#235,#236,#237));
#575=EDGE_LOOP('',(#238));
#576=EDGE_LOOP('',(#239));
#577=EDGE_LOOP('',(#240));
#578=EDGE_LOOP('',(#241,#242,#243,#244));
#579=EDGE_LOOP('',(#245));
#580=EDGE_LOOP('',(#246,#247,#248,#249,#250,#251));
#581=EDGE_LOOP('',(#252));
#582=EDGE_LOOP('',(#253));
#583=EDGE_LOOP('',(#254,#255,#256,#257));
#584=EDGE_LOOP('',(#258,#259,#260,#261));
#585=EDGE_LOOP('',(#262,#263,#264,#265));
#586=EDGE_LOOP('',(#266,#267,#268,#269));
#587=EDGE_LOOP('',(#270,#271,#272,#273));
#588=EDGE_LOOP('',(#274,#275,#276,#277,#278,#279));
#589=EDGE_LOOP('',(#280));
#590=EDGE_LOOP('',(#281));
#591=EDGE_LOOP('',(#282));
#592=EDGE_LOOP('',(#283,#284,#285,#286));
#593=EDGE_LOOP('',(#287));
#594=EDGE_LOOP('',(#288,#289,#290,#291,#292,#293));
#595=EDGE_LOOP('',(#294));
#596=EDGE_LOOP('',(#295));
#597=EDGE_LOOP('',(#296,#297,#298,#299));
#598=EDGE_LOOP('',(#300,#301,#302,#303));
#599=EDGE_LOOP('',(#304,#305,#306,#307));
#600=EDGE_LOOP('',(#308,#309,#310,#311));
#601=EDGE_LOOP('',(#312,#313,#314,#315));
#602=EDGE_LOOP('',(#316,#317,#318,#319,#320,#321));
#603=EDGE_LOOP('',(#322));
#604=EDGE_LOOP('',(#323));
#605=EDGE_LOOP('',(#324));
#606=EDGE_LOOP('',(#325,#326,#327,#328));
#607=EDGE_LOOP('',(#329));
#608=EDGE_LOOP('',(#330,#331,#332,#333,#334,#335));
#609=EDGE_LOOP('',(#336));
#610=EDGE_LOOP('',(#337));
#611=EDGE_LOOP('',(#338));
#612=EDGE_LOOP('',(#339));
#613=EDGE_LOOP('',(#340));
#614=EDGE_LOOP('',(#341,#342,#343,#344,#345));
#615=EDGE_LOOP('',(#346,#347,#348,#349,#350));
#616=EDGE_LOOP('',(#351,#352,#353,#354,#355));
#617=FACE_BOUND('',#551,.T.);
#618=FACE_BOUND('',#552,.T.);
#619=FACE_BOUND('',#553,.T.);
#620=FACE_BOUND('',#554,.T.);
#621=FACE_BOUND('',#555,.T.);
#622=FACE_BOUND('',#556,.T.);
#623=FACE_BOUND('',#557,.T.);
#624=FACE_BOUND('',#558,.T.);
#625=FACE_BOUND('',#559,.T.);
#626=FACE_BOUND('',#560,.T.);
#627=FACE_BOUND('',#561,.T.);
#628=FACE_BOUND('',#562,.T.);
#629=FACE_BOUND('',#563,.T.);
#630=FACE_BOUND('',#564,.T.);
#631=FACE_BOUND('',#565,.T.);
#632=FACE_BOUND('',#566,.T.);
#633=FACE_BOUND('',#567,.T.);
#634=FACE_BOUND('',#568,.T.);
#635=FACE_BOUND('',#569,.T.);
#636=FACE_BOUND('',#570,.T.);
#637=FACE_BOUND('',#571,.T.);
#638=FACE_BOUND('',#572,.T.);
#639=FACE_BOUND('',#573,.T.);
#640=FACE_BOUND('',#574,.T.);
#641=FACE_BOUND('',#575,.T.);
#642=FACE_BOUND('',#576,.T.);
#643=FACE_BOUND('',#577,.T.);
#644=FACE_BOUND('',#578,.T.);
#645=FACE_BOUND('',#579,.T.);
#646=FACE_BOUND('',#580,.T.);
#647=FACE_BOUND('',#581,.T.);
#648=FACE_BOUND('',#582,.T.);
#649=FACE_BOUND('',#583,.T.);
#650=FACE_BOUND('',#584,.T.);
#651=FACE_BOUND('',#585,.T.);
#652=FACE_BOUND('',#586,.T.);
#653=FACE_BOUND('',#587,.T.);
#654=FACE_BOUND('',#588,.T.);
#655=FACE_BOUND('',#589,.T.);
#656=FACE_BOUND('',#590,.T.);
#657=FACE_BOUND('',#591,.T.);
#658=FACE_BOUND('',#592,.T.);
#659=FACE_BOUND('',#593,.T.);
#660=FACE_BOUND('',#594,.T.);
#661=FACE_BOUND('',#595,.T.);
#662=FACE_BOUND('',#596,.T.);
#663=FACE_BOUND('',#597,.T.);
#664=FACE_BOUND('',#598,.T.);
#665=FACE_BOUND('',#599,.T.);
#666=FACE_BOUND('',#600,.T.);
#667=FACE_BOUND('',#601,.T.);
#668=FACE_BOUND('',#602,.T.);
#669=FACE_BOUND('',#603,.T.);
#670=FACE_BOUND('',#604,.T.);
#671=FACE_BOUND('',#605,.T.);
#672=FACE_BOUND('',#606,.T.);
#673=FACE_BOUND('',#607,.T.);
#674=FACE_BOUND('',#608,.T.);
#675=FACE_BOUND('',#609,.T.);
#676=FACE_BOUND('',#610,.T.);
#677=FACE_BOUND('',#611,.T.);
#678=FACE_BOUND('',#612,.T.);
#679=FACE_BOUND('',#613,.T.);
#680=FACE_BOUND('',#614,.T.);
#681=FACE_BOUND('',#615,.T.);
#682=FACE_BOUND('',#616,.T.);
#683=CYLINDRICAL_SURFACE('',#758,0.0045);
#684=CYLINDRICAL_SURFACE('',#761,0.0045);
#685=CYLINDRICAL_SURFACE('',#764,0.0045);
#686=CYLINDRICAL_SURFACE('',#784,0.0224);
#687=CYLINDRICAL_SURFACE('',#789,0.015);
#688=CYLINDRICAL_SURFACE('',#803,0.0039);
#689=CYLINDRICAL_SURFACE('',#807,0.00175);
#690=CYLINDRICAL_SURFACE('',#816,0.0039);
#691=CYLINDRICAL_SURFACE('',#820,0.00175);
#692=CYLINDRICAL_SURFACE('',#829,0.0039);
#693=CYLINDRICAL_SURFACE('',#833,0.00175);
#694=CYLINDRICAL_SURFACE('',#838,0.0259178146041733);
#695=CYLINDRICAL_SURFACE('',#839,0.0259178146041733);
#696=CYLINDRICAL_SURFACE('',#840,0.0259178146041733);
#697=ADVANCED_FACE('',(#617),#683,.T.);
#698=ADVANCED_FACE('',(#618),#684,.T.);
#699=ADVANCED_FACE('',(#619),#685,.T.);
#700=ADVANCED_FACE('',(#620),#14,.F.);
#701=ADVANCED_FACE('',(#621),#15,.F.);
#702=ADVANCED_FACE('',(#622),#16,.F.);
#703=ADVANCED_FACE('',(#623,#624),#17,.F.);
#704=ADVANCED_FACE('',(#625,#626),#686,.T.);
#705=ADVANCED_FACE('',(#627,#628),#18,.T.);
#706=ADVANCED_FACE('',(#629,#630),#687,.F.);
#707=ADVANCED_FACE('',(#631,#632),#13,.T.);
#708=ADVANCED_FACE('',(#633,#634),#12,.T.);
#709=ADVANCED_FACE('',(#635),#19,.F.);
#710=ADVANCED_FACE('',(#636),#20,.F.);
#711=ADVANCED_FACE('',(#637),#21,.F.);
#712=ADVANCED_FACE('',(#638),#22,.F.);
#713=ADVANCED_FACE('',(#639),#23,.F.);
#714=ADVANCED_FACE('',(#640,#641),#24,.F.);
#715=ADVANCED_FACE('',(#642,#643),#688,.T.);
#716=ADVANCED_FACE('',(#644),#25,.F.);
#717=ADVANCED_FACE('',(#645,#646),#26,.T.);
#718=ADVANCED_FACE('',(#647,#648),#689,.F.);
#719=ADVANCED_FACE('',(#649),#27,.F.);
#720=ADVANCED_FACE('',(#650),#28,.F.);
#721=ADVANCED_FACE('',(#651),#29,.F.);
#722=ADVANCED_FACE('',(#652),#30,.F.);
#723=ADVANCED_FACE('',(#653),#31,.F.);
#724=ADVANCED_FACE('',(#654,#655),#32,.F.);
#725=ADVANCED_FACE('',(#656,#657),#690,.T.);
#726=ADVANCED_FACE('',(#658),#33,.F.);
#727=ADVANCED_FACE('',(#659,#660),#34,.T.);
#728=ADVANCED_FACE('',(#661,#662),#691,.F.);
#729=ADVANCED_FACE('',(#663),#35,.F.);
#730=ADVANCED_FACE('',(#664),#36,.F.);
#731=ADVANCED_FACE('',(#665),#37,.F.);
#732=ADVANCED_FACE('',(#666),#38,.F.);
#733=ADVANCED_FACE('',(#667),#39,.F.);
#734=ADVANCED_FACE('',(#668,#669),#40,.F.);
#735=ADVANCED_FACE('',(#670,#671),#692,.T.);
#736=ADVANCED_FACE('',(#672),#41,.F.);
#737=ADVANCED_FACE('',(#673,#674),#42,.T.);
#738=ADVANCED_FACE('',(#675,#676),#693,.F.);
#739=ADVANCED_FACE('',(#677),#43,.F.);
#740=ADVANCED_FACE('',(#678),#44,.F.);
#741=ADVANCED_FACE('',(#679),#45,.F.);
#742=ADVANCED_FACE('',(#680),#694,.T.);
#743=ADVANCED_FACE('',(#681),#695,.T.);
#744=ADVANCED_FACE('',(#682),#696,.T.);
#745=CLOSED_SHELL('',(#697,#698,#699,#700,#701,#702,#703,#704,#705,#706,
#707,#708,#709,#710,#711,#712,#713,#714,#715,#716,#717,#718,#719,#720,#721,
#722,#723,#724,#725,#726,#727,#728,#729,#730,#731,#732,#733,#734,#735,#736,
#737,#738,#739,#740,#741,#742,#743,#744));
#746=STYLED_ITEM('',(#747),#754);
#747=PRESENTATION_STYLE_ASSIGNMENT((#748));
#748=SURFACE_STYLE_USAGE(.BOTH.,#749);
#749=SURFACE_SIDE_STYLE('',(#750));
#750=SURFACE_STYLE_FILL_AREA(#751);
#751=FILL_AREA_STYLE('',(#752));
#752=FILL_AREA_STYLE_COLOUR('',#753);
#753=COLOUR_RGB('',0.615686274509804,0.811764705882353,0.929411764705882);
#754=MANIFOLD_SOLID_BREP('Part 1',#745);
#755=SHAPE_DEFINITION_REPRESENTATION(#1284,#756);
#756=SHAPE_REPRESENTATION('Part 1',(#757),#1279);
#757=AXIS2_PLACEMENT_3D('',#1069,#841,#842);
#758=AXIS2_PLACEMENT_3D('',#1070,#843,#844);
#759=AXIS2_PLACEMENT_3D('',#1071,#845,#846);
#760=AXIS2_PLACEMENT_3D('',#1076,#848,#849);
#761=AXIS2_PLACEMENT_3D('',#1079,#851,#852);
#762=AXIS2_PLACEMENT_3D('',#1080,#853,#854);
#763=AXIS2_PLACEMENT_3D('',#1085,#856,#857);
#764=AXIS2_PLACEMENT_3D('',#1088,#859,#860);
#765=AXIS2_PLACEMENT_3D('',#1089,#861,#862);
#766=AXIS2_PLACEMENT_3D('',#1094,#864,#865);
#767=AXIS2_PLACEMENT_3D('',#1097,#867,#868);
#768=AXIS2_PLACEMENT_3D('',#1098,#869,#870);
#769=AXIS2_PLACEMENT_3D('',#1100,#871,#872);
#770=AXIS2_PLACEMENT_3D('',#1101,#873,#874);
#771=AXIS2_PLACEMENT_3D('',#1102,#875,#876);
#772=AXIS2_PLACEMENT_3D('',#1103,#877,#878);
#773=AXIS2_PLACEMENT_3D('',#1105,#879,#880);
#774=AXIS2_PLACEMENT_3D('',#1106,#881,#882);
#775=AXIS2_PLACEMENT_3D('',#1107,#883,#884);
#776=AXIS2_PLACEMENT_3D('',#1108,#885,#886);
#777=AXIS2_PLACEMENT_3D('',#1110,#887,#888);
#778=AXIS2_PLACEMENT_3D('',#1111,#889,#890);
#779=AXIS2_PLACEMENT_3D('',#1112,#891,#892);
#780=AXIS2_PLACEMENT_3D('',#1113,#893,#894);
#781=AXIS2_PLACEMENT_3D('',#1115,#895,#896);
#782=AXIS2_PLACEMENT_3D('',#1116,#897,#898);
#783=AXIS2_PLACEMENT_3D('',#1117,#899,#900);
#784=AXIS2_PLACEMENT_3D('',#1118,#901,#902);
#785=AXIS2_PLACEMENT_3D('',#1119,#903,#904);
#786=AXIS2_PLACEMENT_3D('',#1121,#905,#906);
#787=AXIS2_PLACEMENT_3D('',#1123,#907,#908);
#788=AXIS2_PLACEMENT_3D('',#1124,#909,#910);
#789=AXIS2_PLACEMENT_3D('',#1126,#911,#912);
#790=AXIS2_PLACEMENT_3D('',#1127,#913,#914);
#791=AXIS2_PLACEMENT_3D('',#1128,#915,#916);
#792=AXIS2_PLACEMENT_3D('',#1130,#917,#918);
#793=AXIS2_PLACEMENT_3D('',#1131,#919,#920);
#794=AXIS2_PLACEMENT_3D('',#1132,#921,#922);
#795=AXIS2_PLACEMENT_3D('',#1133,#923,#924);
#796=AXIS2_PLACEMENT_3D('',#1134,#925,#926);
#797=AXIS2_PLACEMENT_3D('',#1143,#931,#932);
#798=AXIS2_PLACEMENT_3D('',#1149,#936,#937);
#799=AXIS2_PLACEMENT_3D('',#1155,#941,#942);
#800=AXIS2_PLACEMENT_3D('',#1161,#946,#947);
#801=AXIS2_PLACEMENT_3D('',#1167,#951,#952);
#802=AXIS2_PLACEMENT_3D('',#1169,#954,#955);
#803=AXIS2_PLACEMENT_3D('',#1171,#956,#957);
#804=AXIS2_PLACEMENT_3D('',#1172,#958,#959);
#805=AXIS2_PLACEMENT_3D('',#1174,#961,#962);
#806=AXIS2_PLACEMENT_3D('',#1175,#963,#964);
#807=AXIS2_PLACEMENT_3D('',#1177,#965,#966);
#808=AXIS2_PLACEMENT_3D('',#1178,#967,#968);
#809=AXIS2_PLACEMENT_3D('',#1180,#969,#970);
#810=AXIS2_PLACEMENT_3D('',#1189,#975,#976);
#811=AXIS2_PLACEMENT_3D('',#1195,#980,#981);
#812=AXIS2_PLACEMENT_3D('',#1201,#985,#986);
#813=AXIS2_PLACEMENT_3D('',#1207,#990,#991);
#814=AXIS2_PLACEMENT_3D('',#1213,#995,#996);
#815=AXIS2_PLACEMENT_3D('',#1215,#998,#999);
#816=AXIS2_PLACEMENT_3D('',#1217,#1000,#1001);
#817=AXIS2_PLACEMENT_3D('',#1218,#1002,#1003);
#818=AXIS2_PLACEMENT_3D('',#1220,#1005,#1006);
#819=AXIS2_PLACEMENT_3D('',#1221,#1007,#1008);
#820=AXIS2_PLACEMENT_3D('',#1223,#1009,#1010);
#821=AXIS2_PLACEMENT_3D('',#1224,#1011,#1012);
#822=AXIS2_PLACEMENT_3D('',#1226,#1013,#1014);
#823=AXIS2_PLACEMENT_3D('',#1235,#1019,#1020);
#824=AXIS2_PLACEMENT_3D('',#1241,#1024,#1025);
#825=AXIS2_PLACEMENT_3D('',#1247,#1029,#1030);
#826=AXIS2_PLACEMENT_3D('',#1253,#1034,#1035);
#827=AXIS2_PLACEMENT_3D('',#1259,#1039,#1040);
#828=AXIS2_PLACEMENT_3D('',#1261,#1042,#1043);
#829=AXIS2_PLACEMENT_3D('',#1263,#1044,#1045);
#830=AXIS2_PLACEMENT_3D('',#1264,#1046,#1047);
#831=AXIS2_PLACEMENT_3D('',#1266,#1049,#1050);
#832=AXIS2_PLACEMENT_3D('',#1267,#1051,#1052);
#833=AXIS2_PLACEMENT_3D('',#1269,#1053,#1054);
#834=AXIS2_PLACEMENT_3D('',#1270,#1055,#1056);
#835=AXIS2_PLACEMENT_3D('',#1272,#1057,#1058);
#836=AXIS2_PLACEMENT_3D('',#1273,#1059,#1060);
#837=AXIS2_PLACEMENT_3D('',#1274,#1061,#1062);
#838=AXIS2_PLACEMENT_3D('',#1275,#1063,#1064);
#839=AXIS2_PLACEMENT_3D('',#1276,#1065,#1066);
#840=AXIS2_PLACEMENT_3D('',#1277,#1067,#1068);
#841=DIRECTION('',(0.,0.,1.));
#842=DIRECTION('',(1.,0.,0.));
#843=DIRECTION('',(0.,0.,1.));
#844=DIRECTION('',(1.,0.,0.));
#845=DIRECTION('',(0.,0.,1.));
#846=DIRECTION('',(1.,0.,0.));
#847=DIRECTION('',(0.,0.,1.));
#848=DIRECTION('',(0.,0.,1.));
#849=DIRECTION('',(1.,0.,0.));
#850=DIRECTION('',(0.,0.,1.));
#851=DIRECTION('',(0.,0.,1.));
#852=DIRECTION('',(1.,0.,0.));
#853=DIRECTION('',(0.,0.,1.));
#854=DIRECTION('',(1.,0.,0.));
#855=DIRECTION('',(0.,0.,1.));
#856=DIRECTION('',(0.,0.,1.));
#857=DIRECTION('',(1.,0.,0.));
#858=DIRECTION('',(0.,0.,1.));
#859=DIRECTION('',(0.,0.,1.));
#860=DIRECTION('',(1.,0.,0.));
#861=DIRECTION('',(0.,0.,1.));
#862=DIRECTION('',(1.,0.,0.));
#863=DIRECTION('',(0.,0.,1.));
#864=DIRECTION('',(0.,0.,1.));
#865=DIRECTION('',(1.,0.,0.));
#866=DIRECTION('',(0.,0.,1.));
#867=DIRECTION('',(0.,0.,1.));
#868=DIRECTION('',(1.,0.,0.));
#869=DIRECTION('',(0.,0.,1.));
#870=DIRECTION('',(1.,0.,0.));
#871=DIRECTION('',(0.,0.,1.));
#872=DIRECTION('',(1.,0.,0.));
#873=DIRECTION('',(0.,0.,1.));
#874=DIRECTION('',(1.,0.,0.));
#875=DIRECTION('',(0.,0.,1.));
#876=DIRECTION('',(1.,0.,0.));
#877=DIRECTION('',(0.,0.,1.));
#878=DIRECTION('',(1.,0.,0.));
#879=DIRECTION('',(0.,0.,1.));
#880=DIRECTION('',(1.,0.,0.));
#881=DIRECTION('',(0.,0.,1.));
#882=DIRECTION('',(1.,0.,0.));
#883=DIRECTION('',(0.,0.,1.));
#884=DIRECTION('',(1.,0.,0.));
#885=DIRECTION('',(0.,0.,1.));
#886=DIRECTION('',(1.,0.,0.));
#887=DIRECTION('',(0.,0.,1.));
#888=DIRECTION('',(1.,0.,0.));
#889=DIRECTION('',(0.,0.,1.));
#890=DIRECTION('',(1.,0.,0.));
#891=DIRECTION('',(0.,0.,1.));
#892=DIRECTION('',(1.,0.,0.));
#893=DIRECTION('',(0.,0.,1.));
#894=DIRECTION('',(1.,0.,0.));
#895=DIRECTION('',(0.,0.,1.));
#896=DIRECTION('',(1.,0.,0.));
#897=DIRECTION('',(0.,0.,1.));
#898=DIRECTION('',(1.,0.,0.));
#899=DIRECTION('',(0.,0.,1.));
#900=DIRECTION('',(1.,0.,0.));
#901=DIRECTION('',(0.,0.,-1.));
#902=DIRECTION('',(-1.,0.,0.));
#903=DIRECTION('',(0.,0.,1.));
#904=DIRECTION('',(1.,0.,0.));
#905=DIRECTION('',(0.,0.,1.));
#906=DIRECTION('',(1.,0.,0.));
#907=DIRECTION('',(0.,0.,1.));
#908=DIRECTION('',(1.,0.,0.));
#909=DIRECTION('',(0.,0.,1.));
#910=DIRECTION('',(1.,0.,0.));
#911=DIRECTION('',(0.,0.,-1.));
#912=DIRECTION('',(-1.,0.,0.));
#913=DIRECTION('',(0.,0.,-1.));
#914=DIRECTION('',(-1.,0.,0.));
#915=DIRECTION('',(0.,0.,1.));
#916=DIRECTION('',(1.,0.,0.));
#917=DIRECTION('',(0.,0.,1.));
#918=DIRECTION('',(1.,0.,0.));
#919=DIRECTION('',(0.,0.,1.));
#920=DIRECTION('',(1.,0.,0.));
#921=DIRECTION('',(0.,0.,1.));
#922=DIRECTION('',(1.,0.,0.));
#923=DIRECTION('',(0.,0.,1.));
#924=DIRECTION('',(1.,0.,0.));
#925=DIRECTION('',(-0.866025403784436,-0.5,0.));
#926=DIRECTION('',(0.5,-0.866025403784436,0.));
#927=DIRECTION('',(-0.5,0.866025403784436,0.));
#928=DIRECTION('',(0.,0.,-1.));
#929=DIRECTION('',(-0.5,0.866025403784436,0.));
#930=DIRECTION('',(0.,0.,-1.));
#931=DIRECTION('',(4.07407348810076E-15,-1.,0.));
#932=DIRECTION('',(1.,4.07407348810076E-15,0.));
#933=DIRECTION('',(-1.,-4.07407348810076E-15,0.));
#934=DIRECTION('',(-1.,-4.07407348810076E-15,0.));
#935=DIRECTION('',(0.,0.,-1.));
#936=DIRECTION('',(0.866025403784441,-0.5,0.));
#937=DIRECTION('',(0.5,0.866025403784441,0.));
#938=DIRECTION('',(-0.5,-0.866025403784441,0.));
#939=DIRECTION('',(-0.5,-0.866025403784441,0.));
#940=DIRECTION('',(0.,0.,-1.));
#941=DIRECTION('',(0.866025403784438,0.5,0.));
#942=DIRECTION('',(-0.5,0.866025403784438,0.));
#943=DIRECTION('',(0.5,-0.866025403784438,0.));
#944=DIRECTION('',(0.5,-0.866025403784438,0.));
#945=DIRECTION('',(0.,0.,-1.));
#946=DIRECTION('',(-4.0740734881008E-15,1.,0.));
#947=DIRECTION('',(-1.,-4.0740734881008E-15,0.));
#948=DIRECTION('',(1.,4.0740734881008E-15,0.));
#949=DIRECTION('',(1.,4.0740734881008E-15,0.));
#950=DIRECTION('',(0.,0.,-1.));
#951=DIRECTION('',(0.,0.,1.));
#952=DIRECTION('',(1.,0.,0.));
#953=DIRECTION('',(0.5,0.866025403784441,0.));
#954=DIRECTION('',(0.,0.,1.));
#955=DIRECTION('',(1.,0.,0.));
#956=DIRECTION('',(0.,0.,1.));
#957=DIRECTION('',(1.,0.,0.));
#958=DIRECTION('',(-0.866025403784441,0.5,0.));
#959=DIRECTION('',(-0.5,-0.866025403784441,0.));
#960=DIRECTION('',(0.5,0.866025403784441,0.));
#961=DIRECTION('',(0.,0.,-1.));
#962=DIRECTION('',(1.,0.,0.));
#963=DIRECTION('',(0.,0.,-1.));
#964=DIRECTION('',(-1.,0.,0.));
#965=DIRECTION('',(0.,0.,-1.));
#966=DIRECTION('',(-1.,0.,0.));
#967=DIRECTION('',(0.,0.,1.));
#968=DIRECTION('',(1.,0.,0.));
#969=DIRECTION('',(-0.866025403784442,-0.499999999999994,0.));
#970=DIRECTION('',(0.499999999999994,-0.866025403784442,0.));
#971=DIRECTION('',(-0.499999999999994,0.866025403784442,0.));
#972=DIRECTION('',(0.,0.,-1.));
#973=DIRECTION('',(-0.499999999999994,0.866025403784442,0.));
#974=DIRECTION('',(0.,0.,-1.));
#975=DIRECTION('',(-6.11111023215122E-15,-1.,0.));
#976=DIRECTION('',(1.,-6.11111023215122E-15,0.));
#977=DIRECTION('',(-1.,6.11111023215122E-15,0.));
#978=DIRECTION('',(-1.,6.11111023215122E-15,0.));
#979=DIRECTION('',(0.,0.,-1.));
#980=DIRECTION('',(0.866025403784436,-0.5,0.));
#981=DIRECTION('',(0.5,0.866025403784436,0.));
#982=DIRECTION('',(-0.5,-0.866025403784436,0.));
#983=DIRECTION('',(-0.5,-0.866025403784436,0.));
#984=DIRECTION('',(0.,0.,-1.));
#985=DIRECTION('',(0.866025403784442,0.5,0.));
#986=DIRECTION('',(-0.5,0.866025403784442,0.));
#987=DIRECTION('',(0.5,-0.866025403784441,0.));
#988=DIRECTION('',(0.5,-0.866025403784441,0.));
#989=DIRECTION('',(0.,0.,-1.));
#990=DIRECTION('',(6.11111023215124E-15,1.,0.));
#991=DIRECTION('',(-1.,6.11111023215124E-15,0.));
#992=DIRECTION('',(1.,-6.11111023215124E-15,0.));
#993=DIRECTION('',(1.,-6.11111023215124E-15,0.));
#994=DIRECTION('',(0.,0.,-1.));
#995=DIRECTION('',(0.,0.,1.));
#996=DIRECTION('',(1.,0.,0.));
#997=DIRECTION('',(0.5,0.866025403784436,0.));
#998=DIRECTION('',(0.,0.,1.));
#999=DIRECTION('',(1.,0.,0.));
#1000=DIRECTION('',(0.,0.,1.));
#1001=DIRECTION('',(1.,0.,0.));
#1002=DIRECTION('',(-0.866025403784436,0.5,0.));
#1003=DIRECTION('',(-0.5,-0.866025403784436,0.));
#1004=DIRECTION('',(0.5,0.866025403784436,0.));
#1005=DIRECTION('',(0.,0.,-1.));
#1006=DIRECTION('',(1.,0.,0.));
#1007=DIRECTION('',(0.,0.,-1.));
#1008=DIRECTION('',(-1.,0.,0.));
#1009=DIRECTION('',(0.,0.,-1.));
#1010=DIRECTION('',(-1.,0.,0.));
#1011=DIRECTION('',(0.,0.,1.));
#1012=DIRECTION('',(1.,0.,0.));
#1013=DIRECTION('',(-0.86602540378444,-0.5,0.));
#1014=DIRECTION('',(0.5,-0.86602540378444,0.));
#1015=DIRECTION('',(-0.5,0.86602540378444,0.));
#1016=DIRECTION('',(0.,0.,-1.));
#1017=DIRECTION('',(-0.5,0.86602540378444,0.));
#1018=DIRECTION('',(0.,0.,-1.));
#1019=DIRECTION('',(-4.0740734881008E-15,-1.,0.));
#1020=DIRECTION('',(1.,-4.0740734881008E-15,0.));
#1021=DIRECTION('',(-1.,4.0740734881008E-15,0.));
#1022=DIRECTION('',(-1.,4.0740734881008E-15,0.));
#1023=DIRECTION('',(0.,0.,-1.));
#1024=DIRECTION('',(0.866025403784437,-0.5,0.));
#1025=DIRECTION('',(0.5,0.866025403784437,0.));
#1026=DIRECTION('',(-0.5,-0.866025403784437,0.));
#1027=DIRECTION('',(-0.5,-0.866025403784437,0.));
#1028=DIRECTION('',(0.,0.,-1.));
#1029=DIRECTION('',(0.866025403784441,0.5,0.));
#1030=DIRECTION('',(-0.5,0.866025403784441,0.));
#1031=DIRECTION('',(0.5,-0.866025403784441,0.));
#1032=DIRECTION('',(0.5,-0.866025403784441,0.));
#1033=DIRECTION('',(0.,0.,-1.));
#1034=DIRECTION('',(4.07407348810078E-15,1.,0.));
#1035=DIRECTION('',(-1.,4.07407348810078E-15,0.));
#1036=DIRECTION('',(1.,-4.07407348810078E-15,0.));
#1037=DIRECTION('',(1.,-4.07407348810078E-15,0.));
#1038=DIRECTION('',(0.,0.,-1.));
#1039=DIRECTION('',(0.,0.,1.));
#1040=DIRECTION('',(1.,0.,0.));
#1041=DIRECTION('',(0.5,0.866025403784437,0.));
#1042=DIRECTION('',(0.,0.,1.));
#1043=DIRECTION('',(1.,0.,0.));
#1044=DIRECTION('',(0.,0.,1.));
#1045=DIRECTION('',(1.,0.,0.));
#1046=DIRECTION('',(-0.866025403784437,0.5,0.));
#1047=DIRECTION('',(-0.5,-0.866025403784437,0.));
#1048=DIRECTION('',(0.5,0.866025403784437,0.));
#1049=DIRECTION('',(0.,0.,-1.));
#1050=DIRECTION('',(1.,0.,0.));
#1051=DIRECTION('',(0.,0.,-1.));
#1052=DIRECTION('',(-1.,0.,0.));
#1053=DIRECTION('',(0.,0.,-1.));
#1054=DIRECTION('',(-1.,0.,0.));
#1055=DIRECTION('',(0.,0.,1.));
#1056=DIRECTION('',(1.,0.,0.));
#1057=DIRECTION('',(0.,0.,1.));
#1058=DIRECTION('',(1.,0.,0.));
#1059=DIRECTION('',(0.,0.,1.));
#1060=DIRECTION('',(1.,0.,0.));
#1061=DIRECTION('',(0.,0.,1.));
#1062=DIRECTION('',(1.,0.,0.));
#1063=DIRECTION('',(0.,0.,1.));
#1064=DIRECTION('',(1.,0.,0.));
#1065=DIRECTION('',(0.,0.,1.));
#1066=DIRECTION('',(1.,0.,0.));
#1067=DIRECTION('',(0.,0.,1.));
#1068=DIRECTION('',(1.,0.,0.));
#1069=CARTESIAN_POINT('',(0.,0.,0.));
#1070=CARTESIAN_POINT('',(-0.122886388739364,0.0365814721470897,-0.002));
#1071=CARTESIAN_POINT('',(-0.122886388739364,0.0365814721470897,-0.002));
#1072=CARTESIAN_POINT('',(-0.127282740696467,0.0375417270451659,-0.002));
#1073=CARTESIAN_POINT('',(-0.123838882102252,0.040979512209851,-0.002));
#1074=CARTESIAN_POINT('',(-0.123838882102252,0.040979512209851,-0.025));
#1075=CARTESIAN_POINT('',(-0.123838882102252,0.040979512209851,0.));
#1076=CARTESIAN_POINT('',(-0.122886388739364,0.0365814721470897,0.));
#1077=CARTESIAN_POINT('',(-0.127282740696467,0.0375417270451659,0.));
#1078=CARTESIAN_POINT('',(-0.127282740696467,0.0375417270451659,-0.025));
#1079=CARTESIAN_POINT('',(-0.0860585924014487,0.0266786494826024,-0.002));
#1080=CARTESIAN_POINT('',(-0.0860585924014487,0.0266786494826024,-0.002));
#1081=CARTESIAN_POINT('',(-0.0830288112870549,0.0300058745123926,-0.002));
#1082=CARTESIAN_POINT('',(-0.0817735312987916,0.025304512900419,-0.002));
#1083=CARTESIAN_POINT('',(-0.0817735312987916,0.025304512900419,-0.025));
#1084=CARTESIAN_POINT('',(-0.0817735312987916,0.025304512900419,0.));
#1085=CARTESIAN_POINT('',(-0.0860585924014487,0.0266786494826024,0.));
#1086=CARTESIAN_POINT('',(-0.0830288112870549,0.0300058745123926,0.));
#1087=CARTESIAN_POINT('',(-0.0830288112870549,0.0300058745123926,-0.025));
#1088=CARTESIAN_POINT('',(-0.113048586567025,-0.000263746379188002,-0.002));
#1089=CARTESIAN_POINT('',(-0.113048586567025,-0.000263746379188002,-0.002));
#1090=CARTESIAN_POINT('',(-0.111682015724316,-0.00455122630705448,-0.002));
#1091=CARTESIAN_POINT('',(-0.116381154306794,-0.00328764985976596,-0.002));
#1092=CARTESIAN_POINT('',(-0.116381154306794,-0.00328764985976596,-0.025));
#1093=CARTESIAN_POINT('',(-0.116381154306794,-0.00328764985976596,0.));
#1094=CARTESIAN_POINT('',(-0.113048586567025,-0.000263746379188002,0.));
#1095=CARTESIAN_POINT('',(-0.111682015724316,-0.00455122630705448,0.));
#1096=CARTESIAN_POINT('',(-0.111682015724316,-0.00455122630705448,-0.025));
#1097=CARTESIAN_POINT('',(-0.107331189235946,0.020998791750168,-0.002));
#1098=CARTESIAN_POINT('',(-0.107331189235946,0.020998791750168,-0.002));
#1099=CARTESIAN_POINT('',(-0.125641670276335,0.0393416213553801,-0.002));
#1100=CARTESIAN_POINT('',(-0.107331189235946,0.020998791750168,-0.002));
#1101=CARTESIAN_POINT('',(-0.122886388739364,0.0365814721470897,-0.002));
#1102=CARTESIAN_POINT('',(-0.107331189235946,0.020998791750168,-0.002));
#1103=CARTESIAN_POINT('',(-0.107331189235946,0.020998791750168,-0.002));
#1104=CARTESIAN_POINT('',(-0.0822905923003481,0.0276847186840524,-0.002));
#1105=CARTESIAN_POINT('',(-0.107331189235946,0.020998791750168,-0.002));
#1106=CARTESIAN_POINT('',(-0.0860585924014487,0.0266786494826024,-0.002));
#1107=CARTESIAN_POINT('',(-0.107331189235946,0.020998791750168,-0.002));
#1108=CARTESIAN_POINT('',(-0.107331189235946,0.020998791750168,-0.002));
#1109=CARTESIAN_POINT('',(-0.114061305131154,-0.0040299647889284,-0.002));
#1110=CARTESIAN_POINT('',(-0.107331189235946,0.020998791750168,-0.002));
#1111=CARTESIAN_POINT('',(-0.113048586567025,-0.000263746379188002,-0.002));
#1112=CARTESIAN_POINT('',(-0.107331189235946,0.020998791750168,0.));
#1113=CARTESIAN_POINT('',(-0.107331189235946,0.020998791750168,0.));
#1114=CARTESIAN_POINT('',(-0.0923311892359456,0.020998791750168,0.));
#1115=CARTESIAN_POINT('',(-0.107331189235946,0.020998791750168,0.));
#1116=CARTESIAN_POINT('',(-0.107331189235946,0.020998791750168,0.));
#1117=CARTESIAN_POINT('',(-0.107331189235946,0.020998791750168,0.));
#1118=CARTESIAN_POINT('',(-0.107331189235946,0.020998791750168,0.013));
#1119=CARTESIAN_POINT('',(-0.107331189235946,0.020998791750168,0.00585194131184774));
#1120=CARTESIAN_POINT('',(-0.0849311892359456,0.020998791750168,0.00585194131184774));
#1121=CARTESIAN_POINT('',(-0.107331189235946,0.020998791750168,0.013));
#1122=CARTESIAN_POINT('',(-0.0849311892359456,0.020998791750168,0.013));
#1123=CARTESIAN_POINT('',(-0.107331189235946,0.020998791750168,0.013));
#1124=CARTESIAN_POINT('',(-0.107331189235946,0.020998791750168,0.013));
#1125=CARTESIAN_POINT('',(-0.0923311892359456,0.020998791750168,0.013));
#1126=CARTESIAN_POINT('',(-0.107331189235946,0.020998791750168,0.025));
#1127=CARTESIAN_POINT('',(-0.107331189235946,0.020998791750168,0.006));
#1128=CARTESIAN_POINT('',(-0.107331189235946,0.020998791750168,0.0055));
#1129=CARTESIAN_POINT('',(-0.0845888011123152,0.020998791750168,0.0055));
#1130=CARTESIAN_POINT('',(-0.107331189235946,0.020998791750168,0.));
#1131=CARTESIAN_POINT('',(-0.107331189235946,0.020998791750168,0.));
#1132=CARTESIAN_POINT('',(-0.107331189235946,0.020998791750168,0.));
#1133=CARTESIAN_POINT('',(-0.107331189235946,0.020998791750168,0.005));
#1134=CARTESIAN_POINT('',(-0.125441163680528,0.0351064721470897,-0.0075));
#1135=CARTESIAN_POINT('',(-0.125441163680528,0.0351064721470897,-0.01));
#1136=CARTESIAN_POINT('',(-0.124589572033473,0.0336314721470897,-0.01));
#1137=CARTESIAN_POINT('',(-0.126292755327583,0.0365814721470896,-0.01));
#1138=CARTESIAN_POINT('',(-0.126292755327583,0.0365814721470896,-0.0075));
#1139=CARTESIAN_POINT('',(-0.126292755327583,0.0365814721470896,-0.0075));
#1140=CARTESIAN_POINT('',(-0.125441163680528,0.0351064721470897,-0.0075));
#1141=CARTESIAN_POINT('',(-0.124589572033473,0.0336314721470897,-0.0075));
#1142=CARTESIAN_POINT('',(-0.124589572033473,0.0336314721470897,-0.0075));
#1143=CARTESIAN_POINT('',(-0.122886388739364,0.0336314721470897,-0.0075));
#1144=CARTESIAN_POINT('',(-0.122886388739364,0.0336314721470897,-0.01));
#1145=CARTESIAN_POINT('',(-0.121183205445254,0.0336314721470897,-0.01));
#1146=CARTESIAN_POINT('',(-0.122886388739364,0.0336314721470897,-0.0075));
#1147=CARTESIAN_POINT('',(-0.121183205445254,0.0336314721470897,-0.0075));
#1148=CARTESIAN_POINT('',(-0.121183205445254,0.0336314721470897,-0.0075));
#1149=CARTESIAN_POINT('',(-0.1203316137982,0.0351064721470897,-0.0075));
#1150=CARTESIAN_POINT('',(-0.1203316137982,0.0351064721470897,-0.01));
#1151=CARTESIAN_POINT('',(-0.119480022151145,0.0365814721470897,-0.01));
#1152=CARTESIAN_POINT('',(-0.1203316137982,0.0351064721470897,-0.0075));
#1153=CARTESIAN_POINT('',(-0.119480022151145,0.0365814721470897,-0.0075));
#1154=CARTESIAN_POINT('',(-0.119480022151145,0.0365814721470897,-0.0075));
#1155=CARTESIAN_POINT('',(-0.1203316137982,0.0380564721470897,-0.0075));
#1156=CARTESIAN_POINT('',(-0.1203316137982,0.0380564721470897,-0.01));
#1157=CARTESIAN_POINT('',(-0.121183205445254,0.0395314721470897,-0.01));
#1158=CARTESIAN_POINT('',(-0.1203316137982,0.0380564721470897,-0.0075));
#1159=CARTESIAN_POINT('',(-0.121183205445254,0.0395314721470897,-0.0075));
#1160=CARTESIAN_POINT('',(-0.121183205445254,0.0395314721470897,-0.0075));
#1161=CARTESIAN_POINT('',(-0.122886388739364,0.0395314721470897,-0.0075));
#1162=CARTESIAN_POINT('',(-0.122886388739364,0.0395314721470897,-0.01));
#1163=CARTESIAN_POINT('',(-0.124589572033473,0.0395314721470897,-0.01));
#1164=CARTESIAN_POINT('',(-0.122886388739364,0.0395314721470897,-0.0075));
#1165=CARTESIAN_POINT('',(-0.124589572033473,0.0395314721470897,-0.0075));
#1166=CARTESIAN_POINT('',(-0.124589572033473,0.0395314721470897,-0.0075));
#1167=CARTESIAN_POINT('',(-0.107331189235946,0.020998791750168,-0.01));
#1168=CARTESIAN_POINT('',(-0.125441163680528,0.0380564721470897,-0.01));
#1169=CARTESIAN_POINT('',(-0.122886388739364,0.0365814721470897,-0.01));
#1170=CARTESIAN_POINT('',(-0.118986388739364,0.0365814721470897,-0.01));
#1171=CARTESIAN_POINT('',(-0.122886388739364,0.0365814721470897,-0.01));
#1172=CARTESIAN_POINT('',(-0.125441163680528,0.0380564721470897,-0.0075));
#1173=CARTESIAN_POINT('',(-0.125441163680528,0.0380564721470897,-0.0075));
#1174=CARTESIAN_POINT('',(-0.104225673864516,0.0181588628839509,-0.0075));
#1175=CARTESIAN_POINT('',(-0.122886388739364,0.0365814721470897,-0.0075));
#1176=CARTESIAN_POINT('',(-0.124636388739364,0.0365814721470897,-0.0075));
#1177=CARTESIAN_POINT('',(-0.122886388739364,0.0365814721470897,0.));
#1178=CARTESIAN_POINT('',(-0.122886388739364,0.0365814721470897,-0.002));
#1179=CARTESIAN_POINT('',(-0.121136388739364,0.0365814721470897,-0.002));
#1180=CARTESIAN_POINT('',(-0.0886133673426128,0.0252036494826024,-0.0075));
#1181=CARTESIAN_POINT('',(-0.0886133673426128,0.0252036494826024,-0.01));
#1182=CARTESIAN_POINT('',(-0.0877617756955581,0.0237286494826024,-0.01));
#1183=CARTESIAN_POINT('',(-0.0894649589896675,0.0266786494826024,-0.01));
#1184=CARTESIAN_POINT('',(-0.0894649589896675,0.0266786494826024,-0.0075));
#1185=CARTESIAN_POINT('',(-0.0894649589896675,0.0266786494826024,-0.0075));
#1186=CARTESIAN_POINT('',(-0.0886133673426128,0.0252036494826024,-0.0075));
#1187=CARTESIAN_POINT('',(-0.0877617756955581,0.0237286494826024,-0.0075));
#1188=CARTESIAN_POINT('',(-0.0877617756955581,0.0237286494826024,-0.0075));
#1189=CARTESIAN_POINT('',(-0.0860585924014487,0.0237286494826024,-0.0075));
#1190=CARTESIAN_POINT('',(-0.0860585924014487,0.0237286494826024,-0.01));
#1191=CARTESIAN_POINT('',(-0.0843554091073393,0.0237286494826023,-0.01));
#1192=CARTESIAN_POINT('',(-0.0860585924014487,0.0237286494826024,-0.0075));
#1193=CARTESIAN_POINT('',(-0.0843554091073393,0.0237286494826023,-0.0075));
#1194=CARTESIAN_POINT('',(-0.0843554091073393,0.0237286494826023,-0.0075));
#1195=CARTESIAN_POINT('',(-0.0835038174602846,0.0252036494826024,-0.0075));
#1196=CARTESIAN_POINT('',(-0.0835038174602846,0.0252036494826024,-0.01));
#1197=CARTESIAN_POINT('',(-0.0826522258132299,0.0266786494826023,-0.01));
#1198=CARTESIAN_POINT('',(-0.0835038174602846,0.0252036494826024,-0.0075));
#1199=CARTESIAN_POINT('',(-0.0826522258132299,0.0266786494826023,-0.0075));
#1200=CARTESIAN_POINT('',(-0.0826522258132299,0.0266786494826023,-0.0075));
#1201=CARTESIAN_POINT('',(-0.0835038174602846,0.0281536494826024,-0.0075));
#1202=CARTESIAN_POINT('',(-0.0835038174602846,0.0281536494826024,-0.01));
#1203=CARTESIAN_POINT('',(-0.0843554091073393,0.0296286494826024,-0.01));
#1204=CARTESIAN_POINT('',(-0.0835038174602846,0.0281536494826024,-0.0075));
#1205=CARTESIAN_POINT('',(-0.0843554091073393,0.0296286494826024,-0.0075));
#1206=CARTESIAN_POINT('',(-0.0843554091073393,0.0296286494826024,-0.0075));
#1207=CARTESIAN_POINT('',(-0.0860585924014487,0.0296286494826024,-0.0075));
#1208=CARTESIAN_POINT('',(-0.0860585924014487,0.0296286494826024,-0.01));
#1209=CARTESIAN_POINT('',(-0.0877617756955581,0.0296286494826023,-0.01));
#1210=CARTESIAN_POINT('',(-0.0860585924014487,0.0296286494826024,-0.0075));
#1211=CARTESIAN_POINT('',(-0.0877617756955581,0.0296286494826023,-0.0075));
#1212=CARTESIAN_POINT('',(-0.0877617756955581,0.0296286494826023,-0.0075));
#1213=CARTESIAN_POINT('',(-0.107331189235946,0.020998791750168,-0.01));
#1214=CARTESIAN_POINT('',(-0.0886133673426128,0.0281536494826023,-0.01));
#1215=CARTESIAN_POINT('',(-0.0860585924014487,0.0266786494826024,-0.01));
#1216=CARTESIAN_POINT('',(-0.0821585924014487,0.0266786494826024,-0.01));
#1217=CARTESIAN_POINT('',(-0.0860585924014487,0.0266786494826024,-0.01));
#1218=CARTESIAN_POINT('',(-0.0886133673426128,0.0281536494826023,-0.0075));
#1219=CARTESIAN_POINT('',(-0.0886133673426128,0.0281536494826023,-0.0075));
#1220=CARTESIAN_POINT('',(-0.104225673864516,0.0181588628839509,-0.0075));
#1221=CARTESIAN_POINT('',(-0.0860585924014487,0.0266786494826024,-0.0075));
#1222=CARTESIAN_POINT('',(-0.0878085924014487,0.0266786494826024,-0.0075));
#1223=CARTESIAN_POINT('',(-0.0860585924014487,0.0266786494826024,0.));
#1224=CARTESIAN_POINT('',(-0.0860585924014487,0.0266786494826024,-0.002));
#1225=CARTESIAN_POINT('',(-0.0843085924014487,0.0266786494826024,-0.002));
#1226=CARTESIAN_POINT('',(-0.115603361508189,-0.001738746379188,-0.0075));
#1227=CARTESIAN_POINT('',(-0.115603361508189,-0.001738746379188,-0.01));
#1228=CARTESIAN_POINT('',(-0.114751769861134,-0.003213746379188,-0.01));
#1229=CARTESIAN_POINT('',(-0.116454953155243,-0.000263746379187993,-0.01));
#1230=CARTESIAN_POINT('',(-0.116454953155243,-0.000263746379187993,-0.0075));
#1231=CARTESIAN_POINT('',(-0.116454953155243,-0.000263746379187993,-0.0075));
#1232=CARTESIAN_POINT('',(-0.115603361508189,-0.001738746379188,-0.0075));
#1233=CARTESIAN_POINT('',(-0.114751769861134,-0.003213746379188,-0.0075));
#1234=CARTESIAN_POINT('',(-0.114751769861134,-0.003213746379188,-0.0075));
#1235=CARTESIAN_POINT('',(-0.113048586567025,-0.003213746379188,-0.0075));
#1236=CARTESIAN_POINT('',(-0.113048586567025,-0.003213746379188,-0.01));
#1237=CARTESIAN_POINT('',(-0.111345403272915,-0.00321374637918801,-0.01));
#1238=CARTESIAN_POINT('',(-0.113048586567025,-0.003213746379188,-0.0075));
#1239=CARTESIAN_POINT('',(-0.111345403272915,-0.00321374637918801,-0.0075));
#1240=CARTESIAN_POINT('',(-0.111345403272915,-0.00321374637918801,-0.0075));
#1241=CARTESIAN_POINT('',(-0.11049381162586,-0.001738746379188,-0.0075));
#1242=CARTESIAN_POINT('',(-0.11049381162586,-0.001738746379188,-0.01));
#1243=CARTESIAN_POINT('',(-0.109642219978806,-0.00026374637918801,-0.01));
#1244=CARTESIAN_POINT('',(-0.11049381162586,-0.001738746379188,-0.0075));
#1245=CARTESIAN_POINT('',(-0.109642219978806,-0.00026374637918801,-0.0075));
#1246=CARTESIAN_POINT('',(-0.109642219978806,-0.00026374637918801,-0.0075));
#1247=CARTESIAN_POINT('',(-0.11049381162586,0.001211253620812,-0.0075));
#1248=CARTESIAN_POINT('',(-0.11049381162586,0.001211253620812,-0.01));
#1249=CARTESIAN_POINT('',(-0.111345403272915,0.002686253620812,-0.01));
#1250=CARTESIAN_POINT('',(-0.11049381162586,0.001211253620812,-0.0075));
#1251=CARTESIAN_POINT('',(-0.111345403272915,0.002686253620812,-0.0075));
#1252=CARTESIAN_POINT('',(-0.111345403272915,0.002686253620812,-0.0075));
#1253=CARTESIAN_POINT('',(-0.113048586567025,0.002686253620812,-0.0075));
#1254=CARTESIAN_POINT('',(-0.113048586567025,0.002686253620812,-0.01));
#1255=CARTESIAN_POINT('',(-0.114751769861134,0.00268625362081199,-0.01));
#1256=CARTESIAN_POINT('',(-0.113048586567025,0.002686253620812,-0.0075));
#1257=CARTESIAN_POINT('',(-0.114751769861134,0.00268625362081199,-0.0075));
#1258=CARTESIAN_POINT('',(-0.114751769861134,0.00268625362081199,-0.0075));
#1259=CARTESIAN_POINT('',(-0.107331189235946,0.020998791750168,-0.01));
#1260=CARTESIAN_POINT('',(-0.115603361508189,0.00121125362081199,-0.01));
#1261=CARTESIAN_POINT('',(-0.113048586567025,-0.000263746379188002,-0.01));
#1262=CARTESIAN_POINT('',(-0.109148586567025,-0.000263746379188002,-0.01));
#1263=CARTESIAN_POINT('',(-0.113048586567025,-0.000263746379188002,-0.01));
#1264=CARTESIAN_POINT('',(-0.115603361508189,0.00121125362081199,-0.0075));
#1265=CARTESIAN_POINT('',(-0.115603361508189,0.00121125362081199,-0.0075));
#1266=CARTESIAN_POINT('',(-0.104225673864516,0.0181588628839509,-0.0075));
#1267=CARTESIAN_POINT('',(-0.113048586567025,-0.000263746379188003,-0.0075));
#1268=CARTESIAN_POINT('',(-0.114798586567025,-0.000263746379188003,-0.0075));
#1269=CARTESIAN_POINT('',(-0.113048586567025,-0.000263746379188003,0.));
#1270=CARTESIAN_POINT('',(-0.113048586567025,-0.000263746379188003,-0.002));
#1271=CARTESIAN_POINT('',(-0.111298586567025,-0.000263746379188003,-0.002));
#1272=CARTESIAN_POINT('',(-0.107331189235946,0.020998791750168,-0.002));
#1273=CARTESIAN_POINT('',(-0.107331189235946,0.020998791750168,-0.002));
#1274=CARTESIAN_POINT('',(-0.107331189235946,0.020998791750168,-0.002));
#1275=CARTESIAN_POINT('',(-0.107331189235946,0.020998791750168,-0.025));
#1276=CARTESIAN_POINT('',(-0.107331189235946,0.020998791750168,-0.025));
#1277=CARTESIAN_POINT('',(-0.107331189235946,0.020998791750168,-0.025));
#1278=MECHANICAL_DESIGN_GEOMETRIC_PRESENTATION_REPRESENTATION('',(#746),
#1279);
#1279=(
GEOMETRIC_REPRESENTATION_CONTEXT(3)
GLOBAL_UNCERTAINTY_ASSIGNED_CONTEXT((#1280))
GLOBAL_UNIT_ASSIGNED_CONTEXT((#1283,#1282,#1281))
REPRESENTATION_CONTEXT('Part 1','TOP_LEVEL_ASSEMBLY_PART')
);
#1280=UNCERTAINTY_MEASURE_WITH_UNIT(LENGTH_MEASURE(1.E-8),#1283,
'DISTANCE_ACCURACY_VALUE','Maximum Tolerance applied to model');
#1281=(
NAMED_UNIT(*)
SI_UNIT($,.STERADIAN.)
SOLID_ANGLE_UNIT()
);
#1282=(
NAMED_UNIT(*)
PLANE_ANGLE_UNIT()
SI_UNIT($,.RADIAN.)
);
#1283=(
LENGTH_UNIT()
NAMED_UNIT(*)
SI_UNIT($,.METRE.)
);
#1284=PRODUCT_DEFINITION_SHAPE('','',#1285);
#1285=PRODUCT_DEFINITION('','',#1287,#1286);
#1286=PRODUCT_DEFINITION_CONTEXT('',#1293,'design');
#1287=PRODUCT_DEFINITION_FORMATION_WITH_SPECIFIED_SOURCE('','',#1289,
 .NOT_KNOWN.);
#1288=PRODUCT_RELATED_PRODUCT_CATEGORY('','',(#1289));
#1289=PRODUCT('Part 1','Part 1','Part 1',(#1291));
#1290=PRODUCT_CATEGORY('','');
#1291=PRODUCT_CONTEXT('',#1293,'mechanical');
#1292=APPLICATION_PROTOCOL_DEFINITION('international standard',
'ap242_managed_model_based_3d_engineering',2020,#1293);
#1293=APPLICATION_CONTEXT('managed model based 3d engineering');
ENDSEC;
END-ISO-10303-21;
