ISO-10303-21;
HEADER;
/* Generated by software containing ST-Developer
 * from STEP Tools, Inc. (www.steptools.com) 
 */
/* OPTION: using custom renumber hook */

FILE_DESCRIPTION(
/* description */ ('STEP AP242 Edition 2',
'CAx-IF Rec.Pracs.---Representation and Presentation of Product Manufa
cturing Information (PMI)---4.0---2014-10-13',
'CAx-IF Rec.Pracs.---3D Tessellated Geometry---0.4---2014-09-14','2;1',
'CAx-IF Rec.Pracs.---User Defined Attributes---1.5---2016-08-15'),
/* implementation_level */ '2;1');

FILE_NAME(
/* name */ 'cf holder',
/* time_stamp */ '2026-08-19T18:20:43Z',
/* author */ (''),
/* organization */ (''),
/* preprocessor_version */ 'ST-DEVELOPER v20',
/* originating_system */ 'ONSHAPE BY PTC INC, 1.219',
/* authorisation */ '  ');

FILE_SCHEMA (('AP242_MANAGED_MODEL_BASED_3D_ENGINEERING_MIM_LF { 1 0 10303 442 3 1 4 }'));
ENDSEC;

DATA;
#10=SHAPE_REPRESENTATION_RELATIONSHIP('','',#778,#11);
#11=ADVANCED_BREP_SHAPE_REPRESENTATION('',(#776),#1423);
#12=SPHERICAL_SURFACE('',#830,0.004);
#13=SPHERICAL_SURFACE('',#845,0.004);
#14=SPHERICAL_SURFACE('',#861,0.004);
#15=SPHERICAL_SURFACE('',#869,0.004);
#16=(
BOUNDED_SURFACE()
B_SPLINE_SURFACE(3,2,((#1317,#1318,#1319),(#1320,#1321,#1322),(#1323,#1324,
#1325),(#1326,#1327,#1328),(#1329,#1330,#1331)),.UNSPECIFIED.,.F.,.F.,.F.)
B_SPLINE_SURFACE_WITH_KNOTS((4,1,4),(3,3),(-2.25514051876985E-17,0.00588120804855626,
0.0117624160971126),(0.,1.),.UNSPECIFIED.)
GEOMETRIC_REPRESENTATION_ITEM()
RATIONAL_B_SPLINE_SURFACE(((1.,0.707106781186548,1.),(1.,0.725750494002218,
1.),(1.,0.745376136296168,1.),(1.,0.725750494002227,1.),(1.,0.707106781186548,
1.)))
REPRESENTATION_ITEM('')
SURFACE()
);
#17=(
BOUNDED_SURFACE()
B_SPLINE_SURFACE(3,2,((#1350,#1351,#1352),(#1353,#1354,#1355),(#1356,#1357,
#1358),(#1359,#1360,#1361),(#1362,#1363,#1364)),.UNSPECIFIED.,.F.,.F.,.F.)
B_SPLINE_SURFACE_WITH_KNOTS((4,1,4),(3,3),(3.98986399474666E-17,0.00588120804855628,
0.0117624160971125),(0.,1.),.UNSPECIFIED.)
GEOMETRIC_REPRESENTATION_ITEM()
RATIONAL_B_SPLINE_SURFACE(((1.,0.707106781186548,1.),(1.,0.725750494001239,
1.),(1.,0.745376136297365,1.),(1.,0.725750494000814,1.),(1.,0.707106781186549,
1.)))
REPRESENTATION_ITEM('')
SURFACE()
);
#18=(
BOUNDED_SURFACE()
B_SPLINE_SURFACE(3,2,((#1378,#1379,#1380),(#1381,#1382,#1383),(#1384,#1385,
#1386),(#1387,#1388,#1389),(#1390,#1391,#1392)),.UNSPECIFIED.,.F.,.F.,.F.)
B_SPLINE_SURFACE_WITH_KNOTS((4,1,4),(3,3),(4.42354486374086E-17,0.00588120804855638,
0.0117624160971127),(0.,1.),.UNSPECIFIED.)
GEOMETRIC_REPRESENTATION_ITEM()
RATIONAL_B_SPLINE_SURFACE(((1.,0.707106781186549,1.),(1.,0.725750493998954,
1.),(1.,0.745376136298617,1.),(1.,0.725750494000594,1.),(1.,0.707106781186548,
1.)))
REPRESENTATION_ITEM('')
SURFACE()
);
#19=(
BOUNDED_SURFACE()
B_SPLINE_SURFACE(3,2,((#1404,#1405,#1406),(#1407,#1408,#1409),(#1410,#1411,
#1412),(#1413,#1414,#1415),(#1416,#1417,#1418)),.UNSPECIFIED.,.F.,.F.,.F.)
B_SPLINE_SURFACE_WITH_KNOTS((4,1,4),(3,3),(-6.07153216591882E-18,0.00588120804855628,
0.0117624160971126),(0.,1.),.UNSPECIFIED.)
GEOMETRIC_REPRESENTATION_ITEM()
RATIONAL_B_SPLINE_SURFACE(((1.,0.707106781186551,1.),(1.,0.725750494000915,
1.),(1.,0.745376136297477,1.),(1.,0.725750494000924,1.),(1.,0.707106781186551,
1.)))
REPRESENTATION_ITEM('')
SURFACE()
);
#20=TOROIDAL_SURFACE('',#815,0.0266568542494924,0.004);
#21=TOROIDAL_SURFACE('',#816,0.024,0.004);
#22=TOROIDAL_SURFACE('',#832,0.016,0.004);
#23=TOROIDAL_SURFACE('',#843,0.016,0.004);
#24=TOROIDAL_SURFACE('',#848,0.016,0.004);
#25=TOROIDAL_SURFACE('',#858,0.016,0.004);
#26=TOROIDAL_SURFACE('',#873,0.0191,0.004);
#27=CONICAL_SURFACE('',#806,0.02,0.785398163397449);
#28=CYLINDRICAL_SURFACE('',#797,0.02);
#29=CYLINDRICAL_SURFACE('',#804,0.0151);
#30=CYLINDRICAL_SURFACE('',#817,0.02);
#31=CYLINDRICAL_SURFACE('',#820,0.02);
#32=CYLINDRICAL_SURFACE('',#823,0.004);
#33=CYLINDRICAL_SURFACE('',#826,0.004);
#34=CYLINDRICAL_SURFACE('',#834,0.004);
#35=CYLINDRICAL_SURFACE('',#837,0.004);
#36=CYLINDRICAL_SURFACE('',#839,0.004);
#37=CYLINDRICAL_SURFACE('',#841,0.004);
#38=CYLINDRICAL_SURFACE('',#850,0.004);
#39=CYLINDRICAL_SURFACE('',#852,0.004);
#40=CYLINDRICAL_SURFACE('',#854,0.004);
#41=CYLINDRICAL_SURFACE('',#856,0.004);
#42=CYLINDRICAL_SURFACE('',#863,0.004);
#43=CYLINDRICAL_SURFACE('',#865,0.004);
#44=CYLINDRICAL_SURFACE('',#867,0.004);
#45=CYLINDRICAL_SURFACE('',#872,0.004);
#46=B_SPLINE_CURVE_WITH_KNOTS('',3,(#1148,#1149,#1150,#1151,#1152),
 .UNSPECIFIED.,.F.,.F.,(4,1,4),(0.,0.00588120804855628,0.0117624160971126),
 .UNSPECIFIED.);
#47=B_SPLINE_CURVE_WITH_KNOTS('',3,(#1159,#1160,#1161,#1162,#1163),
 .UNSPECIFIED.,.F.,.F.,(4,1,4),(0.,0.00588120804855634,0.0117624160971127),
 .UNSPECIFIED.);
#48=B_SPLINE_CURVE_WITH_KNOTS('',3,(#1194,#1195,#1196,#1197,#1198),
 .UNSPECIFIED.,.F.,.F.,(4,1,4),(0.,0.00588120804855628,0.0117624160971126),
 .UNSPECIFIED.);
#49=B_SPLINE_CURVE_WITH_KNOTS('',3,(#1209,#1210,#1211,#1212,#1213),
 .UNSPECIFIED.,.F.,.F.,(4,1,4),(0.,0.00588120804855624,0.0117624160971125),
 .UNSPECIFIED.);
#50=B_SPLINE_CURVE_WITH_KNOTS('',3,(#1284,#1285,#1286,#1287,#1288),
 .UNSPECIFIED.,.F.,.F.,(4,1,4),(0.,0.00589032471625119,0.0117806494325024),
 .UNSPECIFIED.);
#51=B_SPLINE_CURVE_WITH_KNOTS('',3,(#1289,#1290,#1291,#1292,#1293),
 .UNSPECIFIED.,.F.,.F.,(4,1,4),(0.,0.00589032471625114,0.0117806494325023),
 .UNSPECIFIED.);
#52=B_SPLINE_CURVE_WITH_KNOTS('',3,(#1294,#1295,#1296,#1297,#1298),
 .UNSPECIFIED.,.F.,.F.,(4,1,4),(0.,0.00589032471625119,0.0117806494325024),
 .UNSPECIFIED.);
#53=B_SPLINE_CURVE_WITH_KNOTS('',3,(#1299,#1300,#1301,#1302,#1303),
 .UNSPECIFIED.,.F.,.F.,(4,1,4),(0.,0.00589032471625124,0.0117806494325025),
 .UNSPECIFIED.);
#54=CIRCLE('',#781,0.0266568542494924);
#55=CIRCLE('',#783,0.0266568542494924);
#56=CIRCLE('',#785,0.0266568542494924);
#57=CIRCLE('',#788,0.016);
#58=CIRCLE('',#789,0.016);
#59=CIRCLE('',#792,0.016);
#60=CIRCLE('',#793,0.016);
#61=CIRCLE('',#796,0.0266568542494924);
#62=CIRCLE('',#798,0.02);
#63=CIRCLE('',#799,0.02);
#64=CIRCLE('',#801,0.0191);
#65=CIRCLE('',#803,0.0151);
#66=CIRCLE('',#805,0.0151);
#67=CIRCLE('',#807,0.0238284271247462);
#68=CIRCLE('',#808,0.0211715728752538);
#69=CIRCLE('',#818,0.02);
#70=CIRCLE('',#819,0.02);
#71=CIRCLE('',#821,0.02);
#72=CIRCLE('',#822,0.02);
#73=CIRCLE('',#824,0.004);
#74=CIRCLE('',#825,0.004);
#75=CIRCLE('',#827,0.004);
#76=CIRCLE('',#828,0.004);
#77=CIRCLE('',#829,0.004);
#78=CIRCLE('',#831,0.004);
#79=CIRCLE('',#833,0.004);
#80=CIRCLE('',#835,0.004);
#81=CIRCLE('',#836,0.004);
#82=CIRCLE('',#838,0.004);
#83=CIRCLE('',#840,0.004);
#84=CIRCLE('',#842,0.004);
#85=CIRCLE('',#844,0.004);
#86=CIRCLE('',#846,0.004);
#87=CIRCLE('',#847,0.004);
#88=CIRCLE('',#849,0.004);
#89=CIRCLE('',#851,0.004);
#90=CIRCLE('',#853,0.004);
#91=CIRCLE('',#855,0.004);
#92=CIRCLE('',#857,0.004);
#93=CIRCLE('',#859,0.004);
#94=CIRCLE('',#860,0.004);
#95=CIRCLE('',#862,0.004);
#96=CIRCLE('',#864,0.004);
#97=CIRCLE('',#866,0.004);
#98=CIRCLE('',#868,0.004);
#99=CIRCLE('',#870,0.004);
#100=CIRCLE('',#871,0.004);
#101=ORIENTED_EDGE('',*,*,#311,.T.);
#102=ORIENTED_EDGE('',*,*,#312,.T.);
#103=ORIENTED_EDGE('',*,*,#313,.T.);
#104=ORIENTED_EDGE('',*,*,#314,.T.);
#105=ORIENTED_EDGE('',*,*,#315,.T.);
#106=ORIENTED_EDGE('',*,*,#316,.T.);
#107=ORIENTED_EDGE('',*,*,#317,.T.);
#108=ORIENTED_EDGE('',*,*,#318,.T.);
#109=ORIENTED_EDGE('',*,*,#319,.T.);
#110=ORIENTED_EDGE('',*,*,#320,.T.);
#111=ORIENTED_EDGE('',*,*,#321,.T.);
#112=ORIENTED_EDGE('',*,*,#322,.T.);
#113=ORIENTED_EDGE('',*,*,#323,.T.);
#114=ORIENTED_EDGE('',*,*,#324,.T.);
#115=ORIENTED_EDGE('',*,*,#325,.T.);
#116=ORIENTED_EDGE('',*,*,#326,.T.);
#117=ORIENTED_EDGE('',*,*,#327,.T.);
#118=ORIENTED_EDGE('',*,*,#328,.T.);
#119=ORIENTED_EDGE('',*,*,#329,.T.);
#120=ORIENTED_EDGE('',*,*,#330,.T.);
#121=ORIENTED_EDGE('',*,*,#331,.T.);
#122=ORIENTED_EDGE('',*,*,#332,.T.);
#123=ORIENTED_EDGE('',*,*,#333,.T.);
#124=ORIENTED_EDGE('',*,*,#334,.T.);
#125=ORIENTED_EDGE('',*,*,#335,.T.);
#126=ORIENTED_EDGE('',*,*,#336,.T.);
#127=ORIENTED_EDGE('',*,*,#337,.T.);
#128=ORIENTED_EDGE('',*,*,#338,.T.);
#129=ORIENTED_EDGE('',*,*,#339,.T.);
#130=ORIENTED_EDGE('',*,*,#340,.T.);
#131=ORIENTED_EDGE('',*,*,#341,.T.);
#132=ORIENTED_EDGE('',*,*,#342,.T.);
#133=ORIENTED_EDGE('',*,*,#343,.T.);
#134=ORIENTED_EDGE('',*,*,#344,.T.);
#135=ORIENTED_EDGE('',*,*,#345,.T.);
#136=ORIENTED_EDGE('',*,*,#346,.T.);
#137=ORIENTED_EDGE('',*,*,#347,.T.);
#138=ORIENTED_EDGE('',*,*,#348,.T.);
#139=ORIENTED_EDGE('',*,*,#349,.T.);
#140=ORIENTED_EDGE('',*,*,#350,.T.);
#141=ORIENTED_EDGE('',*,*,#351,.T.);
#142=ORIENTED_EDGE('',*,*,#352,.T.);
#143=ORIENTED_EDGE('',*,*,#353,.T.);
#144=ORIENTED_EDGE('',*,*,#354,.F.);
#145=ORIENTED_EDGE('',*,*,#355,.F.);
#146=ORIENTED_EDGE('',*,*,#356,.F.);
#147=ORIENTED_EDGE('',*,*,#357,.F.);
#148=ORIENTED_EDGE('',*,*,#358,.F.);
#149=ORIENTED_EDGE('',*,*,#359,.F.);
#150=ORIENTED_EDGE('',*,*,#360,.T.);
#151=ORIENTED_EDGE('',*,*,#361,.T.);
#152=ORIENTED_EDGE('',*,*,#362,.T.);
#153=ORIENTED_EDGE('',*,*,#363,.T.);
#154=ORIENTED_EDGE('',*,*,#364,.T.);
#155=ORIENTED_EDGE('',*,*,#365,.T.);
#156=ORIENTED_EDGE('',*,*,#366,.T.);
#157=ORIENTED_EDGE('',*,*,#367,.T.);
#158=ORIENTED_EDGE('',*,*,#368,.F.);
#159=ORIENTED_EDGE('',*,*,#369,.T.);
#160=ORIENTED_EDGE('',*,*,#368,.T.);
#161=ORIENTED_EDGE('',*,*,#370,.T.);
#162=ORIENTED_EDGE('',*,*,#371,.T.);
#163=ORIENTED_EDGE('',*,*,#370,.F.);
#164=ORIENTED_EDGE('',*,*,#372,.T.);
#165=ORIENTED_EDGE('',*,*,#373,.T.);
#166=ORIENTED_EDGE('',*,*,#355,.T.);
#167=ORIENTED_EDGE('',*,*,#374,.F.);
#168=ORIENTED_EDGE('',*,*,#334,.F.);
#169=ORIENTED_EDGE('',*,*,#375,.T.);
#170=ORIENTED_EDGE('',*,*,#354,.T.);
#171=ORIENTED_EDGE('',*,*,#376,.F.);
#172=ORIENTED_EDGE('',*,*,#335,.F.);
#173=ORIENTED_EDGE('',*,*,#374,.T.);
#174=ORIENTED_EDGE('',*,*,#359,.T.);
#175=ORIENTED_EDGE('',*,*,#377,.F.);
#176=ORIENTED_EDGE('',*,*,#336,.F.);
#177=ORIENTED_EDGE('',*,*,#376,.T.);
#178=ORIENTED_EDGE('',*,*,#358,.T.);
#179=ORIENTED_EDGE('',*,*,#378,.F.);
#180=ORIENTED_EDGE('',*,*,#337,.F.);
#181=ORIENTED_EDGE('',*,*,#377,.T.);
#182=ORIENTED_EDGE('',*,*,#357,.T.);
#183=ORIENTED_EDGE('',*,*,#379,.F.);
#184=ORIENTED_EDGE('',*,*,#338,.F.);
#185=ORIENTED_EDGE('',*,*,#378,.T.);
#186=ORIENTED_EDGE('',*,*,#356,.T.);
#187=ORIENTED_EDGE('',*,*,#375,.F.);
#188=ORIENTED_EDGE('',*,*,#339,.F.);
#189=ORIENTED_EDGE('',*,*,#379,.T.);
#190=ORIENTED_EDGE('',*,*,#372,.F.);
#191=ORIENTED_EDGE('',*,*,#313,.F.);
#192=ORIENTED_EDGE('',*,*,#380,.T.);
#193=ORIENTED_EDGE('',*,*,#314,.F.);
#194=ORIENTED_EDGE('',*,*,#381,.T.);
#195=ORIENTED_EDGE('',*,*,#317,.F.);
#196=ORIENTED_EDGE('',*,*,#382,.T.);
#197=ORIENTED_EDGE('',*,*,#366,.F.);
#198=ORIENTED_EDGE('',*,*,#383,.T.);
#199=ORIENTED_EDGE('',*,*,#373,.F.);
#200=ORIENTED_EDGE('',*,*,#367,.F.);
#201=ORIENTED_EDGE('',*,*,#322,.F.);
#202=ORIENTED_EDGE('',*,*,#384,.T.);
#203=ORIENTED_EDGE('',*,*,#360,.F.);
#204=ORIENTED_EDGE('',*,*,#385,.T.);
#205=ORIENTED_EDGE('',*,*,#362,.F.);
#206=ORIENTED_EDGE('',*,*,#386,.T.);
#207=ORIENTED_EDGE('',*,*,#340,.F.);
#208=ORIENTED_EDGE('',*,*,#387,.T.);
#209=ORIENTED_EDGE('',*,*,#388,.F.);
#210=ORIENTED_EDGE('',*,*,#320,.F.);
#211=ORIENTED_EDGE('',*,*,#389,.F.);
#212=ORIENTED_EDGE('',*,*,#319,.F.);
#213=ORIENTED_EDGE('',*,*,#390,.F.);
#214=ORIENTED_EDGE('',*,*,#321,.F.);
#215=ORIENTED_EDGE('',*,*,#391,.F.);
#216=ORIENTED_EDGE('',*,*,#346,.F.);
#217=ORIENTED_EDGE('',*,*,#389,.T.);
#218=ORIENTED_EDGE('',*,*,#325,.F.);
#219=ORIENTED_EDGE('',*,*,#392,.F.);
#220=ORIENTED_EDGE('',*,*,#382,.F.);
#221=ORIENTED_EDGE('',*,*,#391,.T.);
#222=ORIENTED_EDGE('',*,*,#388,.T.);
#223=ORIENTED_EDGE('',*,*,#393,.F.);
#224=ORIENTED_EDGE('',*,*,#390,.T.);
#225=ORIENTED_EDGE('',*,*,#353,.F.);
#226=ORIENTED_EDGE('',*,*,#394,.F.);
#227=ORIENTED_EDGE('',*,*,#384,.F.);
#228=ORIENTED_EDGE('',*,*,#395,.F.);
#229=ORIENTED_EDGE('',*,*,#323,.F.);
#230=ORIENTED_EDGE('',*,*,#396,.F.);
#231=ORIENTED_EDGE('',*,*,#330,.F.);
#232=ORIENTED_EDGE('',*,*,#392,.T.);
#233=ORIENTED_EDGE('',*,*,#324,.F.);
#234=ORIENTED_EDGE('',*,*,#397,.F.);
#235=ORIENTED_EDGE('',*,*,#364,.F.);
#236=ORIENTED_EDGE('',*,*,#393,.T.);
#237=ORIENTED_EDGE('',*,*,#318,.F.);
#238=ORIENTED_EDGE('',*,*,#398,.F.);
#239=ORIENTED_EDGE('',*,*,#347,.F.);
#240=ORIENTED_EDGE('',*,*,#394,.T.);
#241=ORIENTED_EDGE('',*,*,#352,.F.);
#242=ORIENTED_EDGE('',*,*,#399,.F.);
#243=ORIENTED_EDGE('',*,*,#361,.F.);
#244=ORIENTED_EDGE('',*,*,#396,.T.);
#245=ORIENTED_EDGE('',*,*,#385,.F.);
#246=ORIENTED_EDGE('',*,*,#400,.F.);
#247=ORIENTED_EDGE('',*,*,#331,.F.);
#248=ORIENTED_EDGE('',*,*,#397,.T.);
#249=ORIENTED_EDGE('',*,*,#395,.T.);
#250=ORIENTED_EDGE('',*,*,#401,.F.);
#251=ORIENTED_EDGE('',*,*,#398,.T.);
#252=ORIENTED_EDGE('',*,*,#381,.F.);
#253=ORIENTED_EDGE('',*,*,#402,.F.);
#254=ORIENTED_EDGE('',*,*,#348,.F.);
#255=ORIENTED_EDGE('',*,*,#399,.T.);
#256=ORIENTED_EDGE('',*,*,#351,.F.);
#257=ORIENTED_EDGE('',*,*,#403,.F.);
#258=ORIENTED_EDGE('',*,*,#386,.F.);
#259=ORIENTED_EDGE('',*,*,#400,.T.);
#260=ORIENTED_EDGE('',*,*,#363,.F.);
#261=ORIENTED_EDGE('',*,*,#404,.F.);
#262=ORIENTED_EDGE('',*,*,#332,.F.);
#263=ORIENTED_EDGE('',*,*,#401,.T.);
#264=ORIENTED_EDGE('',*,*,#329,.F.);
#265=ORIENTED_EDGE('',*,*,#405,.F.);
#266=ORIENTED_EDGE('',*,*,#365,.F.);
#267=ORIENTED_EDGE('',*,*,#402,.T.);
#268=ORIENTED_EDGE('',*,*,#316,.F.);
#269=ORIENTED_EDGE('',*,*,#406,.F.);
#270=ORIENTED_EDGE('',*,*,#349,.F.);
#271=ORIENTED_EDGE('',*,*,#403,.T.);
#272=ORIENTED_EDGE('',*,*,#350,.F.);
#273=ORIENTED_EDGE('',*,*,#407,.F.);
#274=ORIENTED_EDGE('',*,*,#341,.F.);
#275=ORIENTED_EDGE('',*,*,#404,.T.);
#276=ORIENTED_EDGE('',*,*,#387,.F.);
#277=ORIENTED_EDGE('',*,*,#408,.F.);
#278=ORIENTED_EDGE('',*,*,#333,.F.);
#279=ORIENTED_EDGE('',*,*,#405,.T.);
#280=ORIENTED_EDGE('',*,*,#328,.F.);
#281=ORIENTED_EDGE('',*,*,#409,.F.);
#282=ORIENTED_EDGE('',*,*,#383,.F.);
#283=ORIENTED_EDGE('',*,*,#407,.T.);
#284=ORIENTED_EDGE('',*,*,#406,.T.);
#285=ORIENTED_EDGE('',*,*,#410,.F.);
#286=ORIENTED_EDGE('',*,*,#408,.T.);
#287=ORIENTED_EDGE('',*,*,#345,.F.);
#288=ORIENTED_EDGE('',*,*,#411,.F.);
#289=ORIENTED_EDGE('',*,*,#326,.F.);
#290=ORIENTED_EDGE('',*,*,#409,.T.);
#291=ORIENTED_EDGE('',*,*,#327,.F.);
#292=ORIENTED_EDGE('',*,*,#412,.F.);
#293=ORIENTED_EDGE('',*,*,#311,.F.);
#294=ORIENTED_EDGE('',*,*,#410,.T.);
#295=ORIENTED_EDGE('',*,*,#315,.F.);
#296=ORIENTED_EDGE('',*,*,#413,.F.);
#297=ORIENTED_EDGE('',*,*,#342,.F.);
#298=ORIENTED_EDGE('',*,*,#412,.T.);
#299=ORIENTED_EDGE('',*,*,#411,.T.);
#300=ORIENTED_EDGE('',*,*,#414,.F.);
#301=ORIENTED_EDGE('',*,*,#413,.T.);
#302=ORIENTED_EDGE('',*,*,#380,.F.);
#303=ORIENTED_EDGE('',*,*,#415,.F.);
#304=ORIENTED_EDGE('',*,*,#343,.F.);
#305=ORIENTED_EDGE('',*,*,#414,.T.);
#306=ORIENTED_EDGE('',*,*,#344,.F.);
#307=ORIENTED_EDGE('',*,*,#415,.T.);
#308=ORIENTED_EDGE('',*,*,#312,.F.);
#309=ORIENTED_EDGE('',*,*,#369,.F.);
#310=ORIENTED_EDGE('',*,*,#371,.F.);
#311=EDGE_CURVE('',#416,#417,#479,.T.);
#312=EDGE_CURVE('',#417,#418,#480,.T.);
#313=EDGE_CURVE('',#418,#416,#54,.F.);
#314=EDGE_CURVE('',#419,#420,#55,.F.);
#315=EDGE_CURVE('',#420,#421,#481,.T.);
#316=EDGE_CURVE('',#421,#419,#482,.F.);
#317=EDGE_CURVE('',#422,#423,#56,.F.);
#318=EDGE_CURVE('',#423,#424,#483,.F.);
#319=EDGE_CURVE('',#424,#422,#484,.F.);
#320=EDGE_CURVE('',#425,#426,#485,.T.);
#321=EDGE_CURVE('',#426,#427,#486,.F.);
#322=EDGE_CURVE('',#427,#428,#487,.F.);
#323=EDGE_CURVE('',#428,#429,#488,.T.);
#324=EDGE_CURVE('',#429,#430,#489,.T.);
#325=EDGE_CURVE('',#430,#425,#46,.T.);
#326=EDGE_CURVE('',#431,#432,#490,.T.);
#327=EDGE_CURVE('',#432,#433,#491,.F.);
#328=EDGE_CURVE('',#433,#434,#47,.T.);
#329=EDGE_CURVE('',#434,#435,#492,.F.);
#330=EDGE_CURVE('',#435,#436,#493,.F.);
#331=EDGE_CURVE('',#436,#437,#57,.T.);
#332=EDGE_CURVE('',#437,#438,#494,.T.);
#333=EDGE_CURVE('',#438,#431,#58,.T.);
#334=EDGE_CURVE('',#439,#440,#495,.T.);
#335=EDGE_CURVE('',#440,#441,#496,.T.);
#336=EDGE_CURVE('',#441,#442,#497,.T.);
#337=EDGE_CURVE('',#442,#443,#498,.T.);
#338=EDGE_CURVE('',#443,#444,#499,.T.);
#339=EDGE_CURVE('',#444,#439,#500,.T.);
#340=EDGE_CURVE('',#445,#446,#501,.T.);
#341=EDGE_CURVE('',#446,#447,#502,.T.);
#342=EDGE_CURVE('',#447,#448,#503,.F.);
#343=EDGE_CURVE('',#448,#449,#48,.T.);
#344=EDGE_CURVE('',#449,#450,#504,.F.);
#345=EDGE_CURVE('',#450,#445,#505,.F.);
#346=EDGE_CURVE('',#451,#452,#506,.T.);
#347=EDGE_CURVE('',#452,#453,#507,.T.);
#348=EDGE_CURVE('',#453,#454,#49,.T.);
#349=EDGE_CURVE('',#454,#455,#508,.T.);
#350=EDGE_CURVE('',#455,#456,#509,.F.);
#351=EDGE_CURVE('',#456,#457,#59,.F.);
#352=EDGE_CURVE('',#457,#458,#510,.F.);
#353=EDGE_CURVE('',#458,#451,#60,.F.);
#354=EDGE_CURVE('',#459,#460,#511,.T.);
#355=EDGE_CURVE('',#461,#459,#512,.T.);
#356=EDGE_CURVE('',#462,#461,#513,.T.);
#357=EDGE_CURVE('',#463,#462,#514,.T.);
#358=EDGE_CURVE('',#464,#463,#515,.T.);
#359=EDGE_CURVE('',#460,#464,#516,.T.);
#360=EDGE_CURVE('',#465,#466,#517,.T.);
#361=EDGE_CURVE('',#466,#467,#518,.T.);
#362=EDGE_CURVE('',#467,#468,#519,.F.);
#363=EDGE_CURVE('',#468,#465,#520,.F.);
#364=EDGE_CURVE('',#469,#470,#521,.F.);
#365=EDGE_CURVE('',#470,#471,#522,.T.);
#366=EDGE_CURVE('',#471,#469,#61,.F.);
#367=EDGE_CURVE('',#472,#472,#62,.T.);
#368=EDGE_CURVE('',#473,#473,#63,.T.);
#369=EDGE_CURVE('',#474,#474,#64,.F.);
#370=EDGE_CURVE('',#475,#475,#65,.T.);
#371=EDGE_CURVE('',#476,#476,#66,.T.);
#372=EDGE_CURVE('',#477,#477,#67,.T.);
#373=EDGE_CURVE('',#478,#478,#68,.T.);
#374=EDGE_CURVE('',#440,#459,#523,.T.);
#375=EDGE_CURVE('',#439,#461,#524,.T.);
#376=EDGE_CURVE('',#441,#460,#525,.T.);
#377=EDGE_CURVE('',#442,#464,#526,.T.);
#378=EDGE_CURVE('',#443,#463,#527,.T.);
#379=EDGE_CURVE('',#444,#462,#528,.T.);
#380=EDGE_CURVE('',#418,#420,#50,.T.);
#381=EDGE_CURVE('',#419,#423,#51,.T.);
#382=EDGE_CURVE('',#422,#469,#52,.T.);
#383=EDGE_CURVE('',#471,#416,#53,.T.);
#384=EDGE_CURVE('',#427,#466,#69,.T.);
#385=EDGE_CURVE('',#465,#428,#70,.F.);
#386=EDGE_CURVE('',#467,#446,#71,.T.);
#387=EDGE_CURVE('',#445,#468,#72,.F.);
#388=EDGE_CURVE('',#426,#424,#73,.T.);
#389=EDGE_CURVE('',#422,#425,#74,.T.);
#390=EDGE_CURVE('',#427,#451,#75,.T.);
#391=EDGE_CURVE('',#452,#426,#76,.T.);
#392=EDGE_CURVE('',#469,#430,#77,.T.);
#393=EDGE_CURVE('',#452,#424,#78,.F.);
#394=EDGE_CURVE('',#466,#458,#79,.T.);
#395=EDGE_CURVE('',#429,#435,#80,.T.);
#396=EDGE_CURVE('',#436,#428,#81,.T.);
#397=EDGE_CURVE('',#470,#429,#82,.T.);
#398=EDGE_CURVE('',#453,#423,#83,.T.);
#399=EDGE_CURVE('',#467,#457,#84,.T.);
#400=EDGE_CURVE('',#437,#465,#85,.T.);
#401=EDGE_CURVE('',#470,#435,#86,.F.);
#402=EDGE_CURVE('',#454,#419,#87,.T.);
#403=EDGE_CURVE('',#446,#456,#88,.T.);
#404=EDGE_CURVE('',#438,#468,#89,.T.);
#405=EDGE_CURVE('',#471,#434,#90,.T.);
#406=EDGE_CURVE('',#455,#421,#91,.T.);
#407=EDGE_CURVE('',#447,#455,#92,.T.);
#408=EDGE_CURVE('',#431,#445,#93,.T.);
#409=EDGE_CURVE('',#416,#433,#94,.T.);
#410=EDGE_CURVE('',#447,#421,#95,.F.);
#411=EDGE_CURVE('',#432,#450,#96,.T.);
#412=EDGE_CURVE('',#417,#432,#97,.T.);
#413=EDGE_CURVE('',#448,#420,#98,.T.);
#414=EDGE_CURVE('',#417,#450,#99,.F.);
#415=EDGE_CURVE('',#449,#418,#100,.T.);
#416=VERTEX_POINT('',#1117);
#417=VERTEX_POINT('',#1118);
#418=VERTEX_POINT('',#1120);
#419=VERTEX_POINT('',#1124);
#420=VERTEX_POINT('',#1125);
#421=VERTEX_POINT('',#1127);
#422=VERTEX_POINT('',#1131);
#423=VERTEX_POINT('',#1132);
#424=VERTEX_POINT('',#1134);
#425=VERTEX_POINT('',#1138);
#426=VERTEX_POINT('',#1139);
#427=VERTEX_POINT('',#1141);
#428=VERTEX_POINT('',#1143);
#429=VERTEX_POINT('',#1145);
#430=VERTEX_POINT('',#1147);
#431=VERTEX_POINT('',#1155);
#432=VERTEX_POINT('',#1156);
#433=VERTEX_POINT('',#1158);
#434=VERTEX_POINT('',#1164);
#435=VERTEX_POINT('',#1166);
#436=VERTEX_POINT('',#1168);
#437=VERTEX_POINT('',#1170);
#438=VERTEX_POINT('',#1172);
#439=VERTEX_POINT('',#1175);
#440=VERTEX_POINT('',#1176);
#441=VERTEX_POINT('',#1178);
#442=VERTEX_POINT('',#1180);
#443=VERTEX_POINT('',#1182);
#444=VERTEX_POINT('',#1184);
#445=VERTEX_POINT('',#1188);
#446=VERTEX_POINT('',#1189);
#447=VERTEX_POINT('',#1191);
#448=VERTEX_POINT('',#1193);
#449=VERTEX_POINT('',#1199);
#450=VERTEX_POINT('',#1201);
#451=VERTEX_POINT('',#1205);
#452=VERTEX_POINT('',#1206);
#453=VERTEX_POINT('',#1208);
#454=VERTEX_POINT('',#1214);
#455=VERTEX_POINT('',#1216);
#456=VERTEX_POINT('',#1218);
#457=VERTEX_POINT('',#1220);
#458=VERTEX_POINT('',#1222);
#459=VERTEX_POINT('',#1225);
#460=VERTEX_POINT('',#1226);
#461=VERTEX_POINT('',#1228);
#462=VERTEX_POINT('',#1230);
#463=VERTEX_POINT('',#1232);
#464=VERTEX_POINT('',#1234);
#465=VERTEX_POINT('',#1238);
#466=VERTEX_POINT('',#1239);
#467=VERTEX_POINT('',#1241);
#468=VERTEX_POINT('',#1243);
#469=VERTEX_POINT('',#1247);
#470=VERTEX_POINT('',#1248);
#471=VERTEX_POINT('',#1250);
#472=VERTEX_POINT('',#1254);
#473=VERTEX_POINT('',#1256);
#474=VERTEX_POINT('',#1259);
#475=VERTEX_POINT('',#1262);
#476=VERTEX_POINT('',#1265);
#477=VERTEX_POINT('',#1268);
#478=VERTEX_POINT('',#1270);
#479=LINE('',#1116,#529);
#480=LINE('',#1119,#530);
#481=LINE('',#1126,#531);
#482=LINE('',#1128,#532);
#483=LINE('',#1133,#533);
#484=LINE('',#1135,#534);
#485=LINE('',#1137,#535);
#486=LINE('',#1140,#536);
#487=LINE('',#1142,#537);
#488=LINE('',#1144,#538);
#489=LINE('',#1146,#539);
#490=LINE('',#1154,#540);
#491=LINE('',#1157,#541);
#492=LINE('',#1165,#542);
#493=LINE('',#1167,#543);
#494=LINE('',#1171,#544);
#495=LINE('',#1174,#545);
#496=LINE('',#1177,#546);
#497=LINE('',#1179,#547);
#498=LINE('',#1181,#548);
#499=LINE('',#1183,#549);
#500=LINE('',#1185,#550);
#501=LINE('',#1187,#551);
#502=LINE('',#1190,#552);
#503=LINE('',#1192,#553);
#504=LINE('',#1200,#554);
#505=LINE('',#1202,#555);
#506=LINE('',#1204,#556);
#507=LINE('',#1207,#557);
#508=LINE('',#1215,#558);
#509=LINE('',#1217,#559);
#510=LINE('',#1221,#560);
#511=LINE('',#1224,#561);
#512=LINE('',#1227,#562);
#513=LINE('',#1229,#563);
#514=LINE('',#1231,#564);
#515=LINE('',#1233,#565);
#516=LINE('',#1235,#566);
#517=LINE('',#1237,#567);
#518=LINE('',#1240,#568);
#519=LINE('',#1242,#569);
#520=LINE('',#1244,#570);
#521=LINE('',#1246,#571);
#522=LINE('',#1249,#572);
#523=LINE('',#1272,#573);
#524=LINE('',#1273,#574);
#525=LINE('',#1275,#575);
#526=LINE('',#1277,#576);
#527=LINE('',#1279,#577);
#528=LINE('',#1281,#578);
#529=VECTOR('',#878,1.);
#530=VECTOR('',#879,1.);
#531=VECTOR('',#886,1.);
#532=VECTOR('',#887,1.);
#533=VECTOR('',#892,1.);
#534=VECTOR('',#893,1.);
#535=VECTOR('',#896,1.);
#536=VECTOR('',#897,1.);
#537=VECTOR('',#898,1.);
#538=VECTOR('',#899,1.);
#539=VECTOR('',#900,1.);
#540=VECTOR('',#903,1.);
#541=VECTOR('',#904,1.);
#542=VECTOR('',#905,1.);
#543=VECTOR('',#906,1.);
#544=VECTOR('',#909,1.);
#545=VECTOR('',#912,1.);
#546=VECTOR('',#913,1.);
#547=VECTOR('',#914,1.);
#548=VECTOR('',#915,1.);
#549=VECTOR('',#916,1.);
#550=VECTOR('',#917,1.);
#551=VECTOR('',#920,1.);
#552=VECTOR('',#921,1.);
#553=VECTOR('',#922,1.);
#554=VECTOR('',#923,1.);
#555=VECTOR('',#924,1.);
#556=VECTOR('',#927,1.);
#557=VECTOR('',#928,1.);
#558=VECTOR('',#929,1.);
#559=VECTOR('',#930,1.);
#560=VECTOR('',#933,1.);
#561=VECTOR('',#936,1.);
#562=VECTOR('',#937,1.);
#563=VECTOR('',#938,1.);
#564=VECTOR('',#939,1.);
#565=VECTOR('',#940,1.);
#566=VECTOR('',#941,1.);
#567=VECTOR('',#944,1.);
#568=VECTOR('',#945,1.);
#569=VECTOR('',#946,1.);
#570=VECTOR('',#947,1.);
#571=VECTOR('',#950,1.);
#572=VECTOR('',#951,1.);
#573=VECTOR('',#980,1.);
#574=VECTOR('',#981,1.);
#575=VECTOR('',#984,1.);
#576=VECTOR('',#987,1.);
#577=VECTOR('',#990,1.);
#578=VECTOR('',#993,1.);
#579=EDGE_LOOP('',(#101,#102,#103));
#580=EDGE_LOOP('',(#104,#105,#106));
#581=EDGE_LOOP('',(#107,#108,#109));
#582=EDGE_LOOP('',(#110,#111,#112,#113,#114,#115));
#583=EDGE_LOOP('',(#116,#117,#118,#119,#120,#121,#122,#123));
#584=EDGE_LOOP('',(#124,#125,#126,#127,#128,#129));
#585=EDGE_LOOP('',(#130,#131,#132,#133,#134,#135));
#586=EDGE_LOOP('',(#136,#137,#138,#139,#140,#141,#142,#143));
#587=EDGE_LOOP('',(#144,#145,#146,#147,#148,#149));
#588=EDGE_LOOP('',(#150,#151,#152,#153));
#589=EDGE_LOOP('',(#154,#155,#156));
#590=EDGE_LOOP('',(#157));
#591=EDGE_LOOP('',(#158));
#592=EDGE_LOOP('',(#159));
#593=EDGE_LOOP('',(#160));
#594=EDGE_LOOP('',(#161));
#595=EDGE_LOOP('',(#162));
#596=EDGE_LOOP('',(#163));
#597=EDGE_LOOP('',(#164));
#598=EDGE_LOOP('',(#165));
#599=EDGE_LOOP('',(#166,#167,#168,#169));
#600=EDGE_LOOP('',(#170,#171,#172,#173));
#601=EDGE_LOOP('',(#174,#175,#176,#177));
#602=EDGE_LOOP('',(#178,#179,#180,#181));
#603=EDGE_LOOP('',(#182,#183,#184,#185));
#604=EDGE_LOOP('',(#186,#187,#188,#189));
#605=EDGE_LOOP('',(#190));
#606=EDGE_LOOP('',(#191,#192,#193,#194,#195,#196,#197,#198));
#607=EDGE_LOOP('',(#199));
#608=EDGE_LOOP('',(#200));
#609=EDGE_LOOP('',(#201,#202,#203,#204));
#610=EDGE_LOOP('',(#205,#206,#207,#208));
#611=EDGE_LOOP('',(#209,#210,#211,#212));
#612=EDGE_LOOP('',(#213,#214,#215,#216));
#613=EDGE_LOOP('',(#217,#218,#219,#220));
#614=EDGE_LOOP('',(#221,#222,#223));
#615=EDGE_LOOP('',(#224,#225,#226,#227));
#616=EDGE_LOOP('',(#228,#229,#230,#231));
#617=EDGE_LOOP('',(#232,#233,#234,#235));
#618=EDGE_LOOP('',(#236,#237,#238,#239));
#619=EDGE_LOOP('',(#240,#241,#242,#243));
#620=EDGE_LOOP('',(#244,#245,#246,#247));
#621=EDGE_LOOP('',(#248,#249,#250));
#622=EDGE_LOOP('',(#251,#252,#253,#254));
#623=EDGE_LOOP('',(#255,#256,#257,#258));
#624=EDGE_LOOP('',(#259,#260,#261,#262));
#625=EDGE_LOOP('',(#263,#264,#265,#266));
#626=EDGE_LOOP('',(#267,#268,#269,#270));
#627=EDGE_LOOP('',(#271,#272,#273,#274));
#628=EDGE_LOOP('',(#275,#276,#277,#278));
#629=EDGE_LOOP('',(#279,#280,#281,#282));
#630=EDGE_LOOP('',(#283,#284,#285));
#631=EDGE_LOOP('',(#286,#287,#288,#289));
#632=EDGE_LOOP('',(#290,#291,#292,#293));
#633=EDGE_LOOP('',(#294,#295,#296,#297));
#634=EDGE_LOOP('',(#298,#299,#300));
#635=EDGE_LOOP('',(#301,#302,#303,#304));
#636=EDGE_LOOP('',(#305,#306,#307,#308));
#637=EDGE_LOOP('',(#309));
#638=EDGE_LOOP('',(#310));
#639=FACE_BOUND('',#579,.T.);
#640=FACE_BOUND('',#580,.T.);
#641=FACE_BOUND('',#581,.T.);
#642=FACE_BOUND('',#582,.T.);
#643=FACE_BOUND('',#583,.T.);
#644=FACE_BOUND('',#584,.T.);
#645=FACE_BOUND('',#585,.T.);
#646=FACE_BOUND('',#586,.T.);
#647=FACE_BOUND('',#587,.T.);
#648=FACE_BOUND('',#588,.T.);
#649=FACE_BOUND('',#589,.T.);
#650=FACE_BOUND('',#590,.T.);
#651=FACE_BOUND('',#591,.T.);
#652=FACE_BOUND('',#592,.T.);
#653=FACE_BOUND('',#593,.T.);
#654=FACE_BOUND('',#594,.T.);
#655=FACE_BOUND('',#595,.T.);
#656=FACE_BOUND('',#596,.T.);
#657=FACE_BOUND('',#597,.T.);
#658=FACE_BOUND('',#598,.T.);
#659=FACE_BOUND('',#599,.T.);
#660=FACE_BOUND('',#600,.T.);
#661=FACE_BOUND('',#601,.T.);
#662=FACE_BOUND('',#602,.T.);
#663=FACE_BOUND('',#603,.T.);
#664=FACE_BOUND('',#604,.T.);
#665=FACE_BOUND('',#605,.T.);
#666=FACE_BOUND('',#606,.T.);
#667=FACE_BOUND('',#607,.T.);
#668=FACE_BOUND('',#608,.T.);
#669=FACE_BOUND('',#609,.T.);
#670=FACE_BOUND('',#610,.T.);
#671=FACE_BOUND('',#611,.T.);
#672=FACE_BOUND('',#612,.T.);
#673=FACE_BOUND('',#613,.T.);
#674=FACE_BOUND('',#614,.T.);
#675=FACE_BOUND('',#615,.T.);
#676=FACE_BOUND('',#616,.T.);
#677=FACE_BOUND('',#617,.T.);
#678=FACE_BOUND('',#618,.T.);
#679=FACE_BOUND('',#619,.T.);
#680=FACE_BOUND('',#620,.T.);
#681=FACE_BOUND('',#621,.T.);
#682=FACE_BOUND('',#622,.T.);
#683=FACE_BOUND('',#623,.T.);
#684=FACE_BOUND('',#624,.T.);
#685=FACE_BOUND('',#625,.T.);
#686=FACE_BOUND('',#626,.T.);
#687=FACE_BOUND('',#627,.T.);
#688=FACE_BOUND('',#628,.T.);
#689=FACE_BOUND('',#629,.T.);
#690=FACE_BOUND('',#630,.T.);
#691=FACE_BOUND('',#631,.T.);
#692=FACE_BOUND('',#632,.T.);
#693=FACE_BOUND('',#633,.T.);
#694=FACE_BOUND('',#634,.T.);
#695=FACE_BOUND('',#635,.T.);
#696=FACE_BOUND('',#636,.T.);
#697=FACE_BOUND('',#637,.T.);
#698=FACE_BOUND('',#638,.T.);
#699=PLANE('',#780);
#700=PLANE('',#782);
#701=PLANE('',#784);
#702=PLANE('',#786);
#703=PLANE('',#787);
#704=PLANE('',#790);
#705=PLANE('',#791);
#706=PLANE('',#794);
#707=PLANE('',#795);
#708=PLANE('',#800);
#709=PLANE('',#802);
#710=PLANE('',#809);
#711=PLANE('',#810);
#712=PLANE('',#811);
#713=PLANE('',#812);
#714=PLANE('',#813);
#715=PLANE('',#814);
#716=ADVANCED_FACE('',(#639),#699,.T.);
#717=ADVANCED_FACE('',(#640),#700,.T.);
#718=ADVANCED_FACE('',(#641),#701,.T.);
#719=ADVANCED_FACE('',(#642),#702,.F.);
#720=ADVANCED_FACE('',(#643,#644),#703,.T.);
#721=ADVANCED_FACE('',(#645),#704,.T.);
#722=ADVANCED_FACE('',(#646,#647),#705,.F.);
#723=ADVANCED_FACE('',(#648),#706,.F.);
#724=ADVANCED_FACE('',(#649),#707,.T.);
#725=ADVANCED_FACE('',(#650,#651),#28,.T.);
#726=ADVANCED_FACE('',(#652,#653),#708,.T.);
#727=ADVANCED_FACE('',(#654),#709,.T.);
#728=ADVANCED_FACE('',(#655,#656),#29,.F.);
#729=ADVANCED_FACE('',(#657,#658),#27,.T.);
#730=ADVANCED_FACE('',(#659),#710,.F.);
#731=ADVANCED_FACE('',(#660),#711,.F.);
#732=ADVANCED_FACE('',(#661),#712,.F.);
#733=ADVANCED_FACE('',(#662),#713,.F.);
#734=ADVANCED_FACE('',(#663),#714,.F.);
#735=ADVANCED_FACE('',(#664),#715,.F.);
#736=ADVANCED_FACE('',(#665,#666),#20,.F.);
#737=ADVANCED_FACE('',(#667,#668),#21,.F.);
#738=ADVANCED_FACE('',(#669),#30,.T.);
#739=ADVANCED_FACE('',(#670),#31,.T.);
#740=ADVANCED_FACE('',(#671),#32,.T.);
#741=ADVANCED_FACE('',(#672),#33,.T.);
#742=ADVANCED_FACE('',(#673),#16,.T.);
#743=ADVANCED_FACE('',(#674),#12,.T.);
#744=ADVANCED_FACE('',(#675),#22,.T.);
#745=ADVANCED_FACE('',(#676),#34,.T.);
#746=ADVANCED_FACE('',(#677),#35,.T.);
#747=ADVANCED_FACE('',(#678),#36,.T.);
#748=ADVANCED_FACE('',(#679),#37,.T.);
#749=ADVANCED_FACE('',(#680),#23,.T.);
#750=ADVANCED_FACE('',(#681),#13,.T.);
#751=ADVANCED_FACE('',(#682),#17,.T.);
#752=ADVANCED_FACE('',(#683),#24,.T.);
#753=ADVANCED_FACE('',(#684),#38,.T.);
#754=ADVANCED_FACE('',(#685),#39,.T.);
#755=ADVANCED_FACE('',(#686),#40,.T.);
#756=ADVANCED_FACE('',(#687),#41,.T.);
#757=ADVANCED_FACE('',(#688),#25,.T.);
#758=ADVANCED_FACE('',(#689),#18,.T.);
#759=ADVANCED_FACE('',(#690),#14,.T.);
#760=ADVANCED_FACE('',(#691),#42,.T.);
#761=ADVANCED_FACE('',(#692),#43,.T.);
#762=ADVANCED_FACE('',(#693),#44,.T.);
#763=ADVANCED_FACE('',(#694),#15,.T.);
#764=ADVANCED_FACE('',(#695),#19,.T.);
#765=ADVANCED_FACE('',(#696),#45,.T.);
#766=ADVANCED_FACE('',(#697,#698),#26,.T.);
#767=CLOSED_SHELL('',(#716,#717,#718,#719,#720,#721,#722,#723,#724,#725,
#726,#727,#728,#729,#730,#731,#732,#733,#734,#735,#736,#737,#738,#739,#740,
#741,#742,#743,#744,#745,#746,#747,#748,#749,#750,#751,#752,#753,#754,#755,
#756,#757,#758,#759,#760,#761,#762,#763,#764,#765,#766));
#768=STYLED_ITEM('',(#769),#776);
#769=PRESENTATION_STYLE_ASSIGNMENT((#770));
#770=SURFACE_STYLE_USAGE(.BOTH.,#771);
#771=SURFACE_SIDE_STYLE('',(#772));
#772=SURFACE_STYLE_FILL_AREA(#773);
#773=FILL_AREA_STYLE('',(#774));
#774=FILL_AREA_STYLE_COLOUR('',#775);
#775=COLOUR_RGB('',0.615686274509804,0.811764705882353,0.929411764705882);
#776=MANIFOLD_SOLID_BREP('Part 1',#767);
#777=SHAPE_DEFINITION_REPRESENTATION(#1428,#778);
#778=SHAPE_REPRESENTATION('Part 1',(#779),#1423);
#779=AXIS2_PLACEMENT_3D('',#1114,#874,#875);
#780=AXIS2_PLACEMENT_3D('',#1115,#876,#877);
#781=AXIS2_PLACEMENT_3D('',#1121,#880,#881);
#782=AXIS2_PLACEMENT_3D('',#1122,#882,#883);
#783=AXIS2_PLACEMENT_3D('',#1123,#884,#885);
#784=AXIS2_PLACEMENT_3D('',#1129,#888,#889);
#785=AXIS2_PLACEMENT_3D('',#1130,#890,#891);
#786=AXIS2_PLACEMENT_3D('',#1136,#894,#895);
#787=AXIS2_PLACEMENT_3D('',#1153,#901,#902);
#788=AXIS2_PLACEMENT_3D('',#1169,#907,#908);
#789=AXIS2_PLACEMENT_3D('',#1173,#910,#911);
#790=AXIS2_PLACEMENT_3D('',#1186,#918,#919);
#791=AXIS2_PLACEMENT_3D('',#1203,#925,#926);
#792=AXIS2_PLACEMENT_3D('',#1219,#931,#932);
#793=AXIS2_PLACEMENT_3D('',#1223,#934,#935);
#794=AXIS2_PLACEMENT_3D('',#1236,#942,#943);
#795=AXIS2_PLACEMENT_3D('',#1245,#948,#949);
#796=AXIS2_PLACEMENT_3D('',#1251,#952,#953);
#797=AXIS2_PLACEMENT_3D('',#1252,#954,#955);
#798=AXIS2_PLACEMENT_3D('',#1253,#956,#957);
#799=AXIS2_PLACEMENT_3D('',#1255,#958,#959);
#800=AXIS2_PLACEMENT_3D('',#1257,#960,#961);
#801=AXIS2_PLACEMENT_3D('',#1258,#962,#963);
#802=AXIS2_PLACEMENT_3D('',#1260,#964,#965);
#803=AXIS2_PLACEMENT_3D('',#1261,#966,#967);
#804=AXIS2_PLACEMENT_3D('',#1263,#968,#969);
#805=AXIS2_PLACEMENT_3D('',#1264,#970,#971);
#806=AXIS2_PLACEMENT_3D('',#1266,#972,#973);
#807=AXIS2_PLACEMENT_3D('',#1267,#974,#975);
#808=AXIS2_PLACEMENT_3D('',#1269,#976,#977);
#809=AXIS2_PLACEMENT_3D('',#1271,#978,#979);
#810=AXIS2_PLACEMENT_3D('',#1274,#982,#983);
#811=AXIS2_PLACEMENT_3D('',#1276,#985,#986);
#812=AXIS2_PLACEMENT_3D('',#1278,#988,#989);
#813=AXIS2_PLACEMENT_3D('',#1280,#991,#992);
#814=AXIS2_PLACEMENT_3D('',#1282,#994,#995);
#815=AXIS2_PLACEMENT_3D('',#1283,#996,#997);
#816=AXIS2_PLACEMENT_3D('',#1304,#998,#999);
#817=AXIS2_PLACEMENT_3D('',#1305,#1000,#1001);
#818=AXIS2_PLACEMENT_3D('',#1306,#1002,#1003);
#819=AXIS2_PLACEMENT_3D('',#1307,#1004,#1005);
#820=AXIS2_PLACEMENT_3D('',#1308,#1006,#1007);
#821=AXIS2_PLACEMENT_3D('',#1309,#1008,#1009);
#822=AXIS2_PLACEMENT_3D('',#1310,#1010,#1011);
#823=AXIS2_PLACEMENT_3D('',#1311,#1012,#1013);
#824=AXIS2_PLACEMENT_3D('',#1312,#1014,#1015);
#825=AXIS2_PLACEMENT_3D('',#1313,#1016,#1017);
#826=AXIS2_PLACEMENT_3D('',#1314,#1018,#1019);
#827=AXIS2_PLACEMENT_3D('',#1315,#1020,#1021);
#828=AXIS2_PLACEMENT_3D('',#1316,#1022,#1023);
#829=AXIS2_PLACEMENT_3D('',#1332,#1024,#1025);
#830=AXIS2_PLACEMENT_3D('',#1333,#1026,#1027);
#831=AXIS2_PLACEMENT_3D('',#1334,#1028,#1029);
#832=AXIS2_PLACEMENT_3D('',#1335,#1030,#1031);
#833=AXIS2_PLACEMENT_3D('',#1336,#1032,#1033);
#834=AXIS2_PLACEMENT_3D('',#1337,#1034,#1035);
#835=AXIS2_PLACEMENT_3D('',#1338,#1036,#1037);
#836=AXIS2_PLACEMENT_3D('',#1339,#1038,#1039);
#837=AXIS2_PLACEMENT_3D('',#1340,#1040,#1041);
#838=AXIS2_PLACEMENT_3D('',#1341,#1042,#1043);
#839=AXIS2_PLACEMENT_3D('',#1342,#1044,#1045);
#840=AXIS2_PLACEMENT_3D('',#1343,#1046,#1047);
#841=AXIS2_PLACEMENT_3D('',#1344,#1048,#1049);
#842=AXIS2_PLACEMENT_3D('',#1345,#1050,#1051);
#843=AXIS2_PLACEMENT_3D('',#1346,#1052,#1053);
#844=AXIS2_PLACEMENT_3D('',#1347,#1054,#1055);
#845=AXIS2_PLACEMENT_3D('',#1348,#1056,#1057);
#846=AXIS2_PLACEMENT_3D('',#1349,#1058,#1059);
#847=AXIS2_PLACEMENT_3D('',#1365,#1060,#1061);
#848=AXIS2_PLACEMENT_3D('',#1366,#1062,#1063);
#849=AXIS2_PLACEMENT_3D('',#1367,#1064,#1065);
#850=AXIS2_PLACEMENT_3D('',#1368,#1066,#1067);
#851=AXIS2_PLACEMENT_3D('',#1369,#1068,#1069);
#852=AXIS2_PLACEMENT_3D('',#1370,#1070,#1071);
#853=AXIS2_PLACEMENT_3D('',#1371,#1072,#1073);
#854=AXIS2_PLACEMENT_3D('',#1372,#1074,#1075);
#855=AXIS2_PLACEMENT_3D('',#1373,#1076,#1077);
#856=AXIS2_PLACEMENT_3D('',#1374,#1078,#1079);
#857=AXIS2_PLACEMENT_3D('',#1375,#1080,#1081);
#858=AXIS2_PLACEMENT_3D('',#1376,#1082,#1083);
#859=AXIS2_PLACEMENT_3D('',#1377,#1084,#1085);
#860=AXIS2_PLACEMENT_3D('',#1393,#1086,#1087);
#861=AXIS2_PLACEMENT_3D('',#1394,#1088,#1089);
#862=AXIS2_PLACEMENT_3D('',#1395,#1090,#1091);
#863=AXIS2_PLACEMENT_3D('',#1396,#1092,#1093);
#864=AXIS2_PLACEMENT_3D('',#1397,#1094,#1095);
#865=AXIS2_PLACEMENT_3D('',#1398,#1096,#1097);
#866=AXIS2_PLACEMENT_3D('',#1399,#1098,#1099);
#867=AXIS2_PLACEMENT_3D('',#1400,#1100,#1101);
#868=AXIS2_PLACEMENT_3D('',#1401,#1102,#1103);
#869=AXIS2_PLACEMENT_3D('',#1402,#1104,#1105);
#870=AXIS2_PLACEMENT_3D('',#1403,#1106,#1107);
#871=AXIS2_PLACEMENT_3D('',#1419,#1108,#1109);
#872=AXIS2_PLACEMENT_3D('',#1420,#1110,#1111);
#873=AXIS2_PLACEMENT_3D('',#1421,#1112,#1113);
#874=DIRECTION('',(0.,0.,1.));
#875=DIRECTION('',(1.,0.,0.));
#876=DIRECTION('',(0.,-1.,0.));
#877=DIRECTION('',(1.,0.,0.));
#878=DIRECTION('',(0.,0.,-1.));
#879=DIRECTION('',(1.,0.,0.));
#880=DIRECTION('',(0.,-1.,0.));
#881=DIRECTION('',(0.,0.,-1.));
#882=DIRECTION('',(0.,-1.,0.));
#883=DIRECTION('',(1.,0.,0.));
#884=DIRECTION('',(0.,-1.,0.));
#885=DIRECTION('',(0.,0.,-1.));
#886=DIRECTION('',(1.,0.,0.));
#887=DIRECTION('',(7.2280144832367E-17,0.,-1.));
#888=DIRECTION('',(0.,-1.,0.));
#889=DIRECTION('',(1.,0.,0.));
#890=DIRECTION('',(0.,-1.,0.));
#891=DIRECTION('',(0.,0.,-1.));
#892=DIRECTION('',(7.2280144832367E-17,0.,-1.));
#893=DIRECTION('',(1.,0.,0.));
#894=DIRECTION('',(0.,0.,-1.));
#895=DIRECTION('',(-1.,0.,0.));
#896=DIRECTION('',(1.,0.,0.));
#897=DIRECTION('',(0.,-1.,0.));
#898=DIRECTION('',(1.,0.,0.));
#899=DIRECTION('',(0.,-1.,0.));
#900=DIRECTION('',(1.,0.,0.));
#901=DIRECTION('',(-1.,0.,0.));
#902=DIRECTION('',(0.,0.,1.));
#903=DIRECTION('',(0.,-1.,0.));
#904=DIRECTION('',(0.,0.,-1.));
#905=DIRECTION('',(0.,0.,-1.));
#906=DIRECTION('',(0.,-1.,0.));
#907=DIRECTION('',(-1.,0.,0.));
#908=DIRECTION('',(0.,0.,1.));
#909=DIRECTION('',(0.,0.,-1.));
#910=DIRECTION('',(-1.,0.,0.));
#911=DIRECTION('',(0.,0.,1.));
#912=DIRECTION('',(6.25964416140483E-17,0.5,-0.866025403784438));
#913=DIRECTION('',(-7.72177897105787E-32,1.,1.06831260354643E-15));
#914=DIRECTION('',(-6.25964416140483E-17,0.5,0.866025403784439));
#915=DIRECTION('',(-6.25964416140483E-17,-0.5,0.866025403784438));
#916=DIRECTION('',(3.86088948552893E-32,-1.,-5.34156301773213E-16));
#917=DIRECTION('',(6.25964416140483E-17,-0.5,-0.866025403784439));
#918=DIRECTION('',(0.,0.,-1.));
#919=DIRECTION('',(-1.,0.,0.));
#920=DIRECTION('',(1.,0.,0.));
#921=DIRECTION('',(0.,-1.,0.));
#922=DIRECTION('',(1.,0.,0.));
#923=DIRECTION('',(1.,0.,0.));
#924=DIRECTION('',(0.,-1.,0.));
#925=DIRECTION('',(-1.,0.,-7.2280144832367E-17));
#926=DIRECTION('',(-7.2280144832367E-17,0.,1.));
#927=DIRECTION('',(0.,-1.,0.));
#928=DIRECTION('',(7.2280144832367E-17,0.,-1.));
#929=DIRECTION('',(7.2280144832367E-17,0.,-1.));
#930=DIRECTION('',(0.,-1.,0.));
#931=DIRECTION('',(-1.,0.,-7.2280144832367E-17));
#932=DIRECTION('',(-7.2280144832367E-17,0.,1.));
#933=DIRECTION('',(7.2280144832367E-17,0.,-1.));
#934=DIRECTION('',(-1.,0.,-7.2280144832367E-17));
#935=DIRECTION('',(-7.2280144832367E-17,0.,1.));
#936=DIRECTION('',(-7.72177897105787E-32,1.,1.06831260354643E-15));
#937=DIRECTION('',(6.25964416140483E-17,0.5,-0.866025403784438));
#938=DIRECTION('',(6.25964416140483E-17,-0.5,-0.866025403784439));
#939=DIRECTION('',(3.86088948552893E-32,-1.,-5.34156301773213E-16));
#940=DIRECTION('',(-6.25964416140483E-17,-0.5,0.866025403784438));
#941=DIRECTION('',(-6.25964416140483E-17,0.5,0.866025403784439));
#942=DIRECTION('',(0.,-1.,0.));
#943=DIRECTION('',(1.,0.,0.));
#944=DIRECTION('',(1.,0.,0.));
#945=DIRECTION('',(7.2280144832367E-17,0.,-1.));
#946=DIRECTION('',(1.,0.,0.));
#947=DIRECTION('',(0.,0.,-1.));
#948=DIRECTION('',(0.,-1.,0.));
#949=DIRECTION('',(1.,0.,0.));
#950=DIRECTION('',(1.,0.,0.));
#951=DIRECTION('',(0.,0.,-1.));
#952=DIRECTION('',(0.,-1.,0.));
#953=DIRECTION('',(0.,0.,-1.));
#954=DIRECTION('',(0.,1.,0.));
#955=DIRECTION('',(0.,0.,1.));
#956=DIRECTION('',(0.,-1.,0.));
#957=DIRECTION('',(0.,0.,-1.));
#958=DIRECTION('',(0.,-1.,0.));
#959=DIRECTION('',(0.,0.,-1.));
#960=DIRECTION('',(0.,-1.,0.));
#961=DIRECTION('',(1.,0.,0.));
#962=DIRECTION('',(0.,-1.,0.));
#963=DIRECTION('',(0.,0.,-1.));
#964=DIRECTION('',(0.,-1.,0.));
#965=DIRECTION('',(1.,0.,0.));
#966=DIRECTION('',(0.,-1.,0.));
#967=DIRECTION('',(0.,0.,-1.));
#968=DIRECTION('',(0.,-1.,0.));
#969=DIRECTION('',(0.,0.,-1.));
#970=DIRECTION('',(0.,-1.,0.));
#971=DIRECTION('',(0.,0.,-1.));
#972=DIRECTION('',(0.,1.,0.));
#973=DIRECTION('',(0.,0.,1.));
#974=DIRECTION('',(0.,-1.,0.));
#975=DIRECTION('',(0.,0.,-1.));
#976=DIRECTION('',(0.,1.,0.));
#977=DIRECTION('',(0.,0.,1.));
#978=DIRECTION('',(3.61400724161835E-17,-0.866025403784438,-0.5));
#979=DIRECTION('',(0.,0.5,-0.866025403784438));
#980=DIRECTION('',(1.,0.,7.2280144832367E-17));
#981=DIRECTION('',(1.,0.,7.2280144832367E-17));
#982=DIRECTION('',(7.2280144832367E-17,1.06831260354643E-15,-1.));
#983=DIRECTION('',(0.,1.,1.06831260354643E-15));
#984=DIRECTION('',(1.,0.,7.2280144832367E-17));
#985=DIRECTION('',(3.61400724161834E-17,0.866025403784439,-0.5));
#986=DIRECTION('',(0.,0.5,0.866025403784439));
#987=DIRECTION('',(1.,0.,7.2280144832367E-17));
#988=DIRECTION('',(-3.61400724161835E-17,0.866025403784438,0.5));
#989=DIRECTION('',(0.,-0.5,0.866025403784438));
#990=DIRECTION('',(1.,0.,7.2280144832367E-17));
#991=DIRECTION('',(-7.2280144832367E-17,-5.34156301773213E-16,1.));
#992=DIRECTION('',(0.,-1.,-5.34156301773213E-16));
#993=DIRECTION('',(1.,0.,7.2280144832367E-17));
#994=DIRECTION('',(-3.61400724161834E-17,-0.866025403784439,0.5));
#995=DIRECTION('',(0.,-0.5,-0.866025403784439));
#996=DIRECTION('',(0.,-1.,0.));
#997=DIRECTION('',(0.,0.,-1.));
#998=DIRECTION('',(0.,-1.,0.));
#999=DIRECTION('',(0.,0.,-1.));
#1000=DIRECTION('',(1.,0.,0.));
#1001=DIRECTION('',(0.,0.,-1.));
#1002=DIRECTION('',(-1.,0.,-7.2280144832367E-17));
#1003=DIRECTION('',(-7.2280144832367E-17,0.,1.));
#1004=DIRECTION('',(-1.,0.,0.));
#1005=DIRECTION('',(0.,0.,1.));
#1006=DIRECTION('',(-1.,0.,0.));
#1007=DIRECTION('',(0.,0.,1.));
#1008=DIRECTION('',(-1.,0.,-7.2280144832367E-17));
#1009=DIRECTION('',(-7.2280144832367E-17,0.,1.));
#1010=DIRECTION('',(-1.,0.,0.));
#1011=DIRECTION('',(0.,0.,1.));
#1012=DIRECTION('',(-1.,0.,0.));
#1013=DIRECTION('',(0.,0.,1.));
#1014=DIRECTION('',(1.,0.,0.));
#1015=DIRECTION('',(0.,0.,-1.));
#1016=DIRECTION('',(-1.,0.,0.));
#1017=DIRECTION('',(0.,0.,1.));
#1018=DIRECTION('',(0.,-1.,0.));
#1019=DIRECTION('',(0.,0.,-1.));
#1020=DIRECTION('',(0.,1.,0.));
#1021=DIRECTION('',(0.,0.,1.));
#1022=DIRECTION('',(0.,-1.,0.));
#1023=DIRECTION('',(0.,0.,-1.));
#1024=DIRECTION('',(-1.,0.,0.));
#1025=DIRECTION('',(0.,0.,1.));
#1026=DIRECTION('',(0.,8.67361737988403E-16,1.));
#1027=DIRECTION('',(0.,-1.,8.67361737988403E-16));
#1028=DIRECTION('',(0.,0.,1.));
#1029=DIRECTION('',(1.,0.,0.));
#1030=DIRECTION('',(-1.,0.,-7.2280144832367E-17));
#1031=DIRECTION('',(-7.2280144832367E-17,0.,1.));
#1032=DIRECTION('',(0.,0.,-1.));
#1033=DIRECTION('',(-1.,0.,0.));
#1034=DIRECTION('',(0.,1.,0.));
#1035=DIRECTION('',(0.,0.,1.));
#1036=DIRECTION('',(8.67361737988403E-16,-1.,0.));
#1037=DIRECTION('',(1.,8.67361737988403E-16,0.));
#1038=DIRECTION('',(0.,1.,0.));
#1039=DIRECTION('',(0.,0.,1.));
#1040=DIRECTION('',(-1.,0.,0.));
#1041=DIRECTION('',(0.,0.,1.));
#1042=DIRECTION('',(-1.,0.,0.));
#1043=DIRECTION('',(0.,0.,1.));
#1044=DIRECTION('',(-7.2280144832367E-17,0.,1.));
#1045=DIRECTION('',(1.,0.,7.2280144832367E-17));
#1046=DIRECTION('',(0.,0.,-1.));
#1047=DIRECTION('',(-1.,0.,0.));
#1048=DIRECTION('',(7.2280144832367E-17,0.,-1.));
#1049=DIRECTION('',(-1.,0.,-7.2280144832367E-17));
#1050=DIRECTION('',(0.,0.,-1.));
#1051=DIRECTION('',(-1.,0.,0.));
#1052=DIRECTION('',(-1.,0.,0.));
#1053=DIRECTION('',(0.,0.,1.));
#1054=DIRECTION('',(0.,0.,-1.));
#1055=DIRECTION('',(-1.,0.,0.));
#1056=DIRECTION('',(0.,8.67361737988403E-16,1.));
#1057=DIRECTION('',(0.,-1.,8.67361737988403E-16));
#1058=DIRECTION('',(0.,0.,1.));
#1059=DIRECTION('',(1.,0.,0.));
#1060=DIRECTION('',(0.,0.,-1.));
#1061=DIRECTION('',(-1.,0.,0.));
#1062=DIRECTION('',(-1.,0.,-7.2280144832367E-17));
#1063=DIRECTION('',(-7.2280144832367E-17,0.,1.));
#1064=DIRECTION('',(0.,-1.,0.));
#1065=DIRECTION('',(0.,0.,-1.));
#1066=DIRECTION('',(0.,0.,1.));
#1067=DIRECTION('',(1.,0.,0.));
#1068=DIRECTION('',(0.,0.,-1.));
#1069=DIRECTION('',(-1.,0.,0.));
#1070=DIRECTION('',(0.,0.,-1.));
#1071=DIRECTION('',(-1.,0.,0.));
#1072=DIRECTION('',(0.,0.,-1.));
#1073=DIRECTION('',(-1.,0.,0.));
#1074=DIRECTION('',(-7.2280144832367E-17,0.,1.));
#1075=DIRECTION('',(1.,0.,7.2280144832367E-17));
#1076=DIRECTION('',(0.,0.,-1.));
#1077=DIRECTION('',(-1.,0.,0.));
#1078=DIRECTION('',(0.,1.,0.));
#1079=DIRECTION('',(0.,0.,1.));
#1080=DIRECTION('',(8.67361737988404E-16,-1.,0.));
#1081=DIRECTION('',(1.,8.67361737988404E-16,0.));
#1082=DIRECTION('',(-1.,0.,0.));
#1083=DIRECTION('',(0.,0.,1.));
#1084=DIRECTION('',(0.,-1.,0.));
#1085=DIRECTION('',(0.,0.,-1.));
#1086=DIRECTION('',(0.,0.,-1.));
#1087=DIRECTION('',(-1.,0.,0.));
#1088=DIRECTION('',(1.,8.67361737988404E-16,0.));
#1089=DIRECTION('',(-8.67361737988404E-16,1.,0.));
#1090=DIRECTION('',(1.,0.,4.33680868994202E-16));
#1091=DIRECTION('',(4.33680868994202E-16,0.,-1.));
#1092=DIRECTION('',(0.,-1.,0.));
#1093=DIRECTION('',(0.,0.,-1.));
#1094=DIRECTION('',(0.,-1.,0.));
#1095=DIRECTION('',(0.,0.,-1.));
#1096=DIRECTION('',(0.,0.,-1.));
#1097=DIRECTION('',(-1.,0.,0.));
#1098=DIRECTION('',(0.,0.,-1.));
#1099=DIRECTION('',(-1.,0.,0.));
#1100=DIRECTION('',(1.,0.,0.));
#1101=DIRECTION('',(0.,0.,-1.));
#1102=DIRECTION('',(-1.,0.,0.));
#1103=DIRECTION('',(0.,0.,1.));
#1104=DIRECTION('',(-1.,0.,0.));
#1105=DIRECTION('',(0.,0.,1.));
#1106=DIRECTION('',(-1.,0.,0.));
#1107=DIRECTION('',(0.,0.,1.));
#1108=DIRECTION('',(-1.,0.,0.));
#1109=DIRECTION('',(0.,0.,1.));
#1110=DIRECTION('',(1.,0.,0.));
#1111=DIRECTION('',(0.,0.,-1.));
#1112=DIRECTION('',(0.,-1.,0.));
#1113=DIRECTION('',(0.,0.,-1.));
#1114=CARTESIAN_POINT('',(0.,0.,0.));
#1115=CARTESIAN_POINT('',(-0.0357018563845935,0.,0.0510681155946424));
#1116=CARTESIAN_POINT('',(-0.0617018563845935,0.,0.0510681155946424));
#1117=CARTESIAN_POINT('',(-0.0617018563845935,0.,0.0451869695771829));
#1118=CARTESIAN_POINT('',(-0.0617018563845935,0.,0.0250681155946425));
#1119=CARTESIAN_POINT('',(-0.0357018563845935,0.,0.0250681155946425));
#1120=CARTESIAN_POINT('',(-0.041583002402053,0.,0.0250681155946425));
#1121=CARTESIAN_POINT('',(-0.0357018563845935,0.,0.0510681155946424));
#1122=CARTESIAN_POINT('',(-0.0357018563845935,0.,0.0510681155946424));
#1123=CARTESIAN_POINT('',(-0.0357018563845935,0.,0.0510681155946424));
#1124=CARTESIAN_POINT('',(-0.00970185638459349,0.,0.045186969577183));
#1125=CARTESIAN_POINT('',(-0.029820710367134,0.,0.0250681155946425));
#1126=CARTESIAN_POINT('',(-0.0357018563845935,0.,0.0250681155946425));
#1127=CARTESIAN_POINT('',(-0.0097018563845935,0.,0.0250681155946425));
#1128=CARTESIAN_POINT('',(-0.0097018563845935,0.,0.0810681155946424));
#1129=CARTESIAN_POINT('',(-0.0357018563845935,0.,0.0510681155946424));
#1130=CARTESIAN_POINT('',(-0.0357018563845935,0.,0.0510681155946424));
#1131=CARTESIAN_POINT('',(-0.029820710367134,0.,0.0770681155946424));
#1132=CARTESIAN_POINT('',(-0.00970185638459349,0.,0.0569492616121019));
#1133=CARTESIAN_POINT('',(-0.0097018563845935,0.,0.0810681155946424));
#1134=CARTESIAN_POINT('',(-0.0097018563845935,0.,0.0770681155946424));
#1135=CARTESIAN_POINT('',(-0.0657018563845935,0.,0.0770681155946424));
#1136=CARTESIAN_POINT('',(-0.0357018563845935,0.06,0.0810681155946424));
#1137=CARTESIAN_POINT('',(-0.0057018563845935,0.004,0.0810681155946424));
#1138=CARTESIAN_POINT('',(-0.029820710367134,0.004,0.0810681155946424));
#1139=CARTESIAN_POINT('',(-0.0097018563845935,0.004,0.0810681155946424));
#1140=CARTESIAN_POINT('',(-0.0097018563845935,0.06,0.0810681155946424));
#1141=CARTESIAN_POINT('',(-0.0097018563845935,0.04,0.0810681155946424));
#1142=CARTESIAN_POINT('',(-0.0357018563845935,0.04,0.0810681155946424));
#1143=CARTESIAN_POINT('',(-0.0617018563845935,0.04,0.0810681155946424));
#1144=CARTESIAN_POINT('',(-0.0617018563845935,0.,0.0810681155946424));
#1145=CARTESIAN_POINT('',(-0.0617018563845935,0.004,0.0810681155946424));
#1146=CARTESIAN_POINT('',(-0.0057018563845935,0.004,0.0810681155946424));
#1147=CARTESIAN_POINT('',(-0.041583002402053,0.004,0.0810681155946424));
#1148=CARTESIAN_POINT('',(-0.041583002402053,0.004,0.0810681155946424));
#1149=CARTESIAN_POINT('',(-0.0396225790419506,0.004,0.0810681155946424));
#1150=CARTESIAN_POINT('',(-0.0357018563845935,0.00394597660790004,0.0810681155946424));
#1151=CARTESIAN_POINT('',(-0.0317811337272364,0.004,0.0810681155946424));
#1152=CARTESIAN_POINT('',(-0.029820710367134,0.004,0.0810681155946424));
#1153=CARTESIAN_POINT('',(-0.0657018563845935,0.06,0.0510681155946424));
#1154=CARTESIAN_POINT('',(-0.0657018563845935,0.06,0.0250681155946425));
#1155=CARTESIAN_POINT('',(-0.0657018563845935,0.04,0.0250681155946425));
#1156=CARTESIAN_POINT('',(-0.0657018563845935,0.004,0.0250681155946425));
#1157=CARTESIAN_POINT('',(-0.0657018563845935,0.004,0.0510681155946424));
#1158=CARTESIAN_POINT('',(-0.0657018563845935,0.004,0.0451869695771829));
#1159=CARTESIAN_POINT('',(-0.0657018563845935,0.004,0.0451869695771829));
#1160=CARTESIAN_POINT('',(-0.0657018563845935,0.004,0.0471473929372854));
#1161=CARTESIAN_POINT('',(-0.0657018563845935,0.00394597660790004,0.0510681155946423));
#1162=CARTESIAN_POINT('',(-0.0657018563845935,0.004,0.0549888382519995));
#1163=CARTESIAN_POINT('',(-0.0657018563845935,0.004,0.056949261612102));
#1164=CARTESIAN_POINT('',(-0.0657018563845935,0.004,0.056949261612102));
#1165=CARTESIAN_POINT('',(-0.0657018563845935,0.004,0.0510681155946424));
#1166=CARTESIAN_POINT('',(-0.0657018563845935,0.004,0.0770681155946424));
#1167=CARTESIAN_POINT('',(-0.0657018563845935,0.04,0.0770681155946424));
#1168=CARTESIAN_POINT('',(-0.0657018563845935,0.04,0.0770681155946424));
#1169=CARTESIAN_POINT('',(-0.0657018563845935,0.04,0.0610681155946424));
#1170=CARTESIAN_POINT('',(-0.0657018563845935,0.056,0.0610681155946424));
#1171=CARTESIAN_POINT('',(-0.0657018563845935,0.056,0.0410681155946424));
#1172=CARTESIAN_POINT('',(-0.0657018563845935,0.056,0.0410681155946424));
#1173=CARTESIAN_POINT('',(-0.0657018563845935,0.04,0.0410681155946424));
#1174=CARTESIAN_POINT('',(-0.0657018563845935,0.0105144284148502,0.0398181155946424));
#1175=CARTESIAN_POINT('',(-0.0657018563845935,0.0040192378864668,0.0510681155946424));
#1176=CARTESIAN_POINT('',(-0.0657018563845935,0.0170096189432335,0.0285681155946425));
#1177=CARTESIAN_POINT('',(-0.0657018563845935,0.03,0.0285681155946425));
#1178=CARTESIAN_POINT('',(-0.0657018563845935,0.0429903810567666,0.0285681155946425));
#1179=CARTESIAN_POINT('',(-0.0657018563845935,0.0494855715851499,0.0398181155946425));
#1180=CARTESIAN_POINT('',(-0.0657018563845935,0.055980762113533,0.0510681155946426));
#1181=CARTESIAN_POINT('',(-0.0657018563845935,0.0494855715851497,0.0623181155946425));
#1182=CARTESIAN_POINT('',(-0.0657018563845935,0.0429903810567666,0.0735681155946424));
#1183=CARTESIAN_POINT('',(-0.0657018563845935,0.03,0.0735681155946424));
#1184=CARTESIAN_POINT('',(-0.0657018563845935,0.0170096189432334,0.0735681155946425));
#1185=CARTESIAN_POINT('',(-0.0657018563845935,0.0105144284148501,0.0623181155946425));
#1186=CARTESIAN_POINT('',(-0.0357018563845935,0.06,0.0210681155946424));
#1187=CARTESIAN_POINT('',(-0.00570185638459349,0.04,0.0210681155946424));
#1188=CARTESIAN_POINT('',(-0.0617018563845935,0.04,0.0210681155946424));
#1189=CARTESIAN_POINT('',(-0.0097018563845935,0.04,0.0210681155946424));
#1190=CARTESIAN_POINT('',(-0.00970185638459349,0.,0.0210681155946424));
#1191=CARTESIAN_POINT('',(-0.00970185638459349,0.004,0.0210681155946424));
#1192=CARTESIAN_POINT('',(-0.0357018563845935,0.004,0.0210681155946424));
#1193=CARTESIAN_POINT('',(-0.029820710367134,0.004,0.0210681155946424));
#1194=CARTESIAN_POINT('',(-0.029820710367134,0.004,0.0210681155946424));
#1195=CARTESIAN_POINT('',(-0.0317811337272364,0.004,0.0210681155946424));
#1196=CARTESIAN_POINT('',(-0.0357018563845935,0.00394597660790004,0.0210681155946424));
#1197=CARTESIAN_POINT('',(-0.0396225790419506,0.004,0.0210681155946424));
#1198=CARTESIAN_POINT('',(-0.041583002402053,0.004,0.0210681155946424));
#1199=CARTESIAN_POINT('',(-0.041583002402053,0.004,0.0210681155946424));
#1200=CARTESIAN_POINT('',(-0.0357018563845935,0.004,0.0210681155946424));
#1201=CARTESIAN_POINT('',(-0.0617018563845935,0.004,0.0210681155946424));
#1202=CARTESIAN_POINT('',(-0.0617018563845935,0.06,0.0210681155946424));
#1203=CARTESIAN_POINT('',(-0.0057018563845935,0.06,0.0510681155946424));
#1204=CARTESIAN_POINT('',(-0.0057018563845935,0.06,0.0770681155946424));
#1205=CARTESIAN_POINT('',(-0.0057018563845935,0.04,0.0770681155946424));
#1206=CARTESIAN_POINT('',(-0.0057018563845935,0.004,0.0770681155946424));
#1207=CARTESIAN_POINT('',(-0.0057018563845935,0.004,0.0210681155946424));
#1208=CARTESIAN_POINT('',(-0.0057018563845935,0.004,0.0569492616121019));
#1209=CARTESIAN_POINT('',(-0.0057018563845935,0.004,0.0569492616121019));
#1210=CARTESIAN_POINT('',(-0.0057018563845935,0.004,0.0549888382519995));
#1211=CARTESIAN_POINT('',(-0.0057018563845935,0.00394597660790004,0.0510681155946423));
#1212=CARTESIAN_POINT('',(-0.0057018563845935,0.004,0.0471473929372854));
#1213=CARTESIAN_POINT('',(-0.0057018563845935,0.004,0.045186969577183));
#1214=CARTESIAN_POINT('',(-0.0057018563845935,0.004,0.045186969577183));
#1215=CARTESIAN_POINT('',(-0.0057018563845935,0.004,0.0210681155946424));
#1216=CARTESIAN_POINT('',(-0.0057018563845935,0.004,0.0250681155946425));
#1217=CARTESIAN_POINT('',(-0.0057018563845935,0.04,0.0250681155946425));
#1218=CARTESIAN_POINT('',(-0.0057018563845935,0.04,0.0250681155946425));
#1219=CARTESIAN_POINT('',(-0.0057018563845935,0.04,0.0410681155946424));
#1220=CARTESIAN_POINT('',(-0.0057018563845935,0.056,0.0410681155946424));
#1221=CARTESIAN_POINT('',(-0.0057018563845935,0.056,0.0510681155946424));
#1222=CARTESIAN_POINT('',(-0.0057018563845935,0.056,0.0610681155946424));
#1223=CARTESIAN_POINT('',(-0.0057018563845935,0.04,0.0610681155946424));
#1224=CARTESIAN_POINT('',(-0.0057018563845935,0.03,0.0285681155946425));
#1225=CARTESIAN_POINT('',(-0.0057018563845935,0.0170096189432335,0.0285681155946425));
#1226=CARTESIAN_POINT('',(-0.0057018563845935,0.0429903810567666,0.0285681155946425));
#1227=CARTESIAN_POINT('',(-0.0057018563845935,0.0105144284148502,0.0398181155946424));
#1228=CARTESIAN_POINT('',(-0.0057018563845935,0.00401923788646686,0.0510681155946424));
#1229=CARTESIAN_POINT('',(-0.0057018563845935,0.0105144284148501,0.0623181155946425));
#1230=CARTESIAN_POINT('',(-0.0057018563845935,0.0170096189432334,0.0735681155946425));
#1231=CARTESIAN_POINT('',(-0.0057018563845935,0.03,0.0735681155946424));
#1232=CARTESIAN_POINT('',(-0.0057018563845935,0.0429903810567666,0.0735681155946424));
#1233=CARTESIAN_POINT('',(-0.0057018563845935,0.0494855715851497,0.0623181155946426));
#1234=CARTESIAN_POINT('',(-0.0057018563845935,0.055980762113533,0.0510681155946426));
#1235=CARTESIAN_POINT('',(-0.0057018563845935,0.0494855715851499,0.0398181155946425));
#1236=CARTESIAN_POINT('',(-0.0357018563845935,0.06,0.0510681155946424));
#1237=CARTESIAN_POINT('',(-0.0357018563845935,0.06,0.0610681155946424));
#1238=CARTESIAN_POINT('',(-0.0617018563845935,0.06,0.0610681155946424));
#1239=CARTESIAN_POINT('',(-0.0097018563845935,0.06,0.0610681155946424));
#1240=CARTESIAN_POINT('',(-0.0097018563845935,0.06,0.0510681155946424));
#1241=CARTESIAN_POINT('',(-0.0097018563845935,0.06,0.0410681155946424));
#1242=CARTESIAN_POINT('',(-0.0657018563845935,0.06,0.0410681155946424));
#1243=CARTESIAN_POINT('',(-0.0617018563845935,0.06,0.0410681155946424));
#1244=CARTESIAN_POINT('',(-0.0617018563845935,0.06,0.0610681155946424));
#1245=CARTESIAN_POINT('',(-0.0357018563845935,0.,0.0510681155946424));
#1246=CARTESIAN_POINT('',(-0.0657018563845935,0.,0.0770681155946424));
#1247=CARTESIAN_POINT('',(-0.041583002402053,0.,0.0770681155946424));
#1248=CARTESIAN_POINT('',(-0.0617018563845935,0.,0.0770681155946424));
#1249=CARTESIAN_POINT('',(-0.0617018563845935,0.,0.0510681155946424));
#1250=CARTESIAN_POINT('',(-0.0617018563845935,0.,0.056949261612102));
#1251=CARTESIAN_POINT('',(-0.0357018563845935,0.,0.0510681155946424));
#1252=CARTESIAN_POINT('',(-0.0357018563845935,-0.025,0.0510681155946424));
#1253=CARTESIAN_POINT('',(-0.0357018563845935,-0.00665685424949238,0.0510681155946424));
#1254=CARTESIAN_POINT('',(-0.0357018563845935,-0.00665685424949238,0.0310681155946424));
#1255=CARTESIAN_POINT('',(-0.0357018563845935,-0.025,0.0510681155946424));
#1256=CARTESIAN_POINT('',(-0.0357018563845935,-0.025,0.0310681155946424));
#1257=CARTESIAN_POINT('',(-0.0357018563845935,-0.025,0.0510681155946424));
#1258=CARTESIAN_POINT('',(-0.0357018563845935,-0.025,0.0510681155946424));
#1259=CARTESIAN_POINT('',(-0.0357018563845935,-0.025,0.0319681155946424));
#1260=CARTESIAN_POINT('',(-0.0357018563845935,0.003,0.0510681155946424));
#1261=CARTESIAN_POINT('',(-0.0357018563845935,0.003,0.0510681155946424));
#1262=CARTESIAN_POINT('',(-0.0357018563845935,0.003,0.0359681155946424));
#1263=CARTESIAN_POINT('',(-0.0357018563845935,0.003,0.0510681155946424));
#1264=CARTESIAN_POINT('',(-0.0357018563845935,-0.021,0.0510681155946424));
#1265=CARTESIAN_POINT('',(-0.0357018563845935,-0.021,0.0359681155946424));
#1266=CARTESIAN_POINT('',(-0.0357018563845935,-0.005,0.0510681155946424));
#1267=CARTESIAN_POINT('',(-0.0357018563845935,-0.00117157287525381,0.0510681155946424));
#1268=CARTESIAN_POINT('',(-0.0357018563845935,-0.00117157287525381,0.0272396884698962));
#1269=CARTESIAN_POINT('',(-0.0357018563845935,-0.0038284271247462,0.0510681155946424));
#1270=CARTESIAN_POINT('',(-0.0357018563845935,-0.0038284271247462,0.0722396884698962));
#1271=CARTESIAN_POINT('',(-0.0657018563845935,0.0105144284148502,0.0398181155946424));
#1272=CARTESIAN_POINT('',(-0.0657018563845935,0.0170096189432335,0.0285681155946425));
#1273=CARTESIAN_POINT('',(-0.0657018563845935,0.00401923788646686,0.0510681155946424));
#1274=CARTESIAN_POINT('',(-0.0657018563845935,0.03,0.0285681155946425));
#1275=CARTESIAN_POINT('',(-0.0657018563845935,0.0429903810567666,0.0285681155946425));
#1276=CARTESIAN_POINT('',(-0.0657018563845935,0.0494855715851499,0.0398181155946425));
#1277=CARTESIAN_POINT('',(-0.0657018563845935,0.055980762113533,0.0510681155946426));
#1278=CARTESIAN_POINT('',(-0.0657018563845935,0.0494855715851497,0.0623181155946425));
#1279=CARTESIAN_POINT('',(-0.0657018563845935,0.0429903810567666,0.0735681155946424));
#1280=CARTESIAN_POINT('',(-0.0657018563845935,0.03,0.0735681155946424));
#1281=CARTESIAN_POINT('',(-0.0657018563845935,0.0170096189432334,0.0735681155946425));
#1282=CARTESIAN_POINT('',(-0.0657018563845935,0.0105144284148501,0.0623181155946425));
#1283=CARTESIAN_POINT('',(-0.0357018563845935,-0.004,0.0510681155946424));
#1284=CARTESIAN_POINT('',(-0.041583002402053,0.,0.0250681155946425));
#1285=CARTESIAN_POINT('',(-0.0396285328130441,-4.17639367634995E-18,0.0248525810788217));
#1286=CARTESIAN_POINT('',(-0.0357018563845935,-2.70116960499799E-5,0.0246267958609708));
#1287=CARTESIAN_POINT('',(-0.0317751799561429,3.55715957597604E-18,0.0248525810788217));
#1288=CARTESIAN_POINT('',(-0.029820710367134,7.73355325232598E-18,0.0250681155946425));
#1289=CARTESIAN_POINT('',(-0.00970185638459349,0.,0.045186969577183));
#1290=CARTESIAN_POINT('',(-0.00948632186877278,-1.75786199940232E-18,0.0471414391661919));
#1291=CARTESIAN_POINT('',(-0.00926053665092184,-2.70116960499825E-5,0.0510681155946423));
#1292=CARTESIAN_POINT('',(-0.00948632186877278,6.4204966571168E-18,0.054994792023093));
#1293=CARTESIAN_POINT('',(-0.0097018563845935,7.60480487038334E-18,0.0569492616121019));
#1294=CARTESIAN_POINT('',(-0.029820710367134,0.,0.0770681155946424));
#1295=CARTESIAN_POINT('',(-0.0317751799561429,-4.9915250414564E-20,0.0772836501104631));
#1296=CARTESIAN_POINT('',(-0.0357018563845935,-2.70116960499836E-5,0.0775094353283141));
#1297=CARTESIAN_POINT('',(-0.0396285328130441,6.88236085512183E-18,0.0772836501104631));
#1298=CARTESIAN_POINT('',(-0.041583002402053,7.59294578308176E-18,0.0770681155946424));
#1299=CARTESIAN_POINT('',(-0.0617018563845935,0.,0.056949261612102));
#1300=CARTESIAN_POINT('',(-0.0619173909004142,2.3686164265331E-19,0.0549947920230931));
#1301=CARTESIAN_POINT('',(-0.0621431761182652,-2.70116960499856E-5,0.0510681155946423));
#1302=CARTESIAN_POINT('',(-0.0619173909004142,7.17664879287988E-18,0.0471414391661918));
#1303=CARTESIAN_POINT('',(-0.0617018563845935,8.17401061390769E-18,0.0451869695771829));
#1304=CARTESIAN_POINT('',(-0.0357018563845935,-0.00665685424949238,0.0510681155946424));
#1305=CARTESIAN_POINT('',(-0.0357018563845935,0.04,0.0610681155946424));
#1306=CARTESIAN_POINT('',(-0.0097018563845935,0.04,0.0610681155946424));
#1307=CARTESIAN_POINT('',(-0.0617018563845935,0.04,0.0610681155946424));
#1308=CARTESIAN_POINT('',(-0.0357018563845935,0.04,0.0410681155946424));
#1309=CARTESIAN_POINT('',(-0.0097018563845935,0.04,0.0410681155946424));
#1310=CARTESIAN_POINT('',(-0.0617018563845935,0.04,0.0410681155946424));
#1311=CARTESIAN_POINT('',(-0.0357018563845935,0.004,0.0770681155946424));
#1312=CARTESIAN_POINT('',(-0.0097018563845935,0.004,0.0770681155946424));
#1313=CARTESIAN_POINT('',(-0.029820710367134,0.004,0.0770681155946424));
#1314=CARTESIAN_POINT('',(-0.0097018563845935,0.06,0.0770681155946424));
#1315=CARTESIAN_POINT('',(-0.0097018563845935,0.04,0.0770681155946424));
#1316=CARTESIAN_POINT('',(-0.0097018563845935,0.004,0.0770681155946424));
#1317=CARTESIAN_POINT('',(-0.041583002402053,0.,0.0770681155946424));
#1318=CARTESIAN_POINT('',(-0.041583002402053,0.,0.0810681155946424));
#1319=CARTESIAN_POINT('',(-0.041583002402053,0.004,0.0810681155946424));
#1320=CARTESIAN_POINT('',(-0.0396702908631144,-3.47701492641624E-19,0.0772790451272321));
#1321=CARTESIAN_POINT('',(-0.0397194262638522,0.000205510988837616,0.0810681155946414));
#1322=CARTESIAN_POINT('',(-0.0396225790419758,0.0039999999980675,0.0810681155946424));
#1323=CARTESIAN_POINT('',(-0.0357018563845913,-2.70116960499782E-5,0.077514040311545));
#1324=CARTESIAN_POINT('',(-0.0357018563845979,0.000370244382288943,0.0810681155946434));
#1325=CARTESIAN_POINT('',(-0.0357018563845845,0.00394597660983254,0.0810681155946424));
#1326=CARTESIAN_POINT('',(-0.0317334219060769,-2.31800995297117E-19,0.0772790451272322));
#1327=CARTESIAN_POINT('',(-0.0316842865053257,0.000205510988837711,0.0810681155946414));
#1328=CARTESIAN_POINT('',(-0.0317811337272291,0.0039999999980675,0.0810681155946424));
#1329=CARTESIAN_POINT('',(-0.029820710367134,0.,0.0770681155946424));
#1330=CARTESIAN_POINT('',(-0.029820710367134,0.,0.0810681155946424));
#1331=CARTESIAN_POINT('',(-0.029820710367134,0.004,0.0810681155946424));
#1332=CARTESIAN_POINT('',(-0.041583002402053,0.004,0.0770681155946424));
#1333=CARTESIAN_POINT('',(-0.0097018563845935,0.004,0.0770681155946424));
#1334=CARTESIAN_POINT('',(-0.0097018563845935,0.004,0.0770681155946424));
#1335=CARTESIAN_POINT('',(-0.0097018563845935,0.04,0.0610681155946424));
#1336=CARTESIAN_POINT('',(-0.0097018563845935,0.056,0.0610681155946424));
#1337=CARTESIAN_POINT('',(-0.0617018563845935,0.06,0.0770681155946424));
#1338=CARTESIAN_POINT('',(-0.0617018563845935,0.004,0.0770681155946424));
#1339=CARTESIAN_POINT('',(-0.0617018563845935,0.04,0.0770681155946424));
#1340=CARTESIAN_POINT('',(-0.0357018563845935,0.004,0.0770681155946424));
#1341=CARTESIAN_POINT('',(-0.0617018563845935,0.004,0.0770681155946424));
#1342=CARTESIAN_POINT('',(-0.0097018563845935,0.004,0.0510681155946424));
#1343=CARTESIAN_POINT('',(-0.0097018563845935,0.004,0.0569492616121019));
#1344=CARTESIAN_POINT('',(-0.0097018563845935,0.056,0.0510681155946424));
#1345=CARTESIAN_POINT('',(-0.0097018563845935,0.056,0.0410681155946424));
#1346=CARTESIAN_POINT('',(-0.0617018563845935,0.04,0.0610681155946424));
#1347=CARTESIAN_POINT('',(-0.0617018563845935,0.056,0.0610681155946424));
#1348=CARTESIAN_POINT('',(-0.0617018563845935,0.004,0.0770681155946424));
#1349=CARTESIAN_POINT('',(-0.0617018563845935,0.004,0.0770681155946424));
#1350=CARTESIAN_POINT('',(-0.00970185638459349,0.,0.0569492616121019));
#1351=CARTESIAN_POINT('',(-0.0057018563845935,8.67361737988404E-18,0.0569492616121019));
#1352=CARTESIAN_POINT('',(-0.0057018563845935,0.004,0.0569492616121019));
#1353=CARTESIAN_POINT('',(-0.00949092685202079,-5.79502487938737E-19,0.0550365500731633));
#1354=CARTESIAN_POINT('',(-0.00570185638459963,0.000205510988821333,0.0550856854738961));
#1355=CARTESIAN_POINT('',(-0.0057018563845935,0.0039999999980675,0.0549888382520247));
#1356=CARTESIAN_POINT('',(-0.00925593166767048,-2.70116960499775E-5,0.0510681155946419));
#1357=CARTESIAN_POINT('',(-0.00570185638458815,0.000370244382307702,0.0510681155946352));
#1358=CARTESIAN_POINT('',(-0.0057018563845935,0.00394597660983254,0.0510681155946385));
#1359=CARTESIAN_POINT('',(-0.00949092685202747,-1.29932986829877E-18,0.0470996811161225));
#1360=CARTESIAN_POINT('',(-0.00570185638459836,0.000205510988814939,0.0470505457154011));
#1361=CARTESIAN_POINT('',(-0.0057018563845935,0.0039999999980675,0.0471473929372679));
#1362=CARTESIAN_POINT('',(-0.00970185638459348,0.,0.045186969577183));
#1363=CARTESIAN_POINT('',(-0.0057018563845935,2.25514051876985E-17,0.045186969577183));
#1364=CARTESIAN_POINT('',(-0.0057018563845935,0.004,0.045186969577183));
#1365=CARTESIAN_POINT('',(-0.0097018563845935,0.004,0.045186969577183));
#1366=CARTESIAN_POINT('',(-0.0097018563845935,0.04,0.0410681155946424));
#1367=CARTESIAN_POINT('',(-0.0097018563845935,0.04,0.0250681155946425));
#1368=CARTESIAN_POINT('',(-0.0617018563845935,0.056,0.0510681155946424));
#1369=CARTESIAN_POINT('',(-0.0617018563845935,0.056,0.0410681155946424));
#1370=CARTESIAN_POINT('',(-0.0617018563845935,0.004,0.0510681155946424));
#1371=CARTESIAN_POINT('',(-0.0617018563845935,0.004,0.056949261612102));
#1372=CARTESIAN_POINT('',(-0.0097018563845935,0.004,0.0510681155946424));
#1373=CARTESIAN_POINT('',(-0.0097018563845935,0.004,0.0250681155946425));
#1374=CARTESIAN_POINT('',(-0.00970185638459349,0.06,0.0250681155946425));
#1375=CARTESIAN_POINT('',(-0.00970185638459349,0.004,0.0250681155946425));
#1376=CARTESIAN_POINT('',(-0.0617018563845935,0.04,0.0410681155946424));
#1377=CARTESIAN_POINT('',(-0.0617018563845935,0.04,0.0250681155946425));
#1378=CARTESIAN_POINT('',(-0.0617018563845935,0.,0.0451869695771829));
#1379=CARTESIAN_POINT('',(-0.0657018563845935,1.38777878078145E-17,0.0451869695771829));
#1380=CARTESIAN_POINT('',(-0.0657018563845935,0.004,0.0451869695771829));
#1381=CARTESIAN_POINT('',(-0.0619127859171424,-6.03926882812839E-19,0.0470996811161215));
#1382=CARTESIAN_POINT('',(-0.0657018563846113,0.000205510988798794,0.0470505457153982));
#1383=CARTESIAN_POINT('',(-0.0657018563845935,0.0039999999980675,0.0471473929372601));
#1384=CARTESIAN_POINT('',(-0.0621477811015268,-2.70116960499782E-5,0.0510681155946428));
#1385=CARTESIAN_POINT('',(-0.0657018563845979,0.000370244382316767,0.0510681155946324));
#1386=CARTESIAN_POINT('',(-0.0657018563845935,0.00394597660983254,0.0510681155946428));
#1387=CARTESIAN_POINT('',(-0.0619127859171629,1.15900497547209E-19,0.0550365500731624));
#1388=CARTESIAN_POINT('',(-0.0657018563845666,0.000205510988818295,0.055085685473898));
#1389=CARTESIAN_POINT('',(-0.0657018563845935,0.0039999999980675,0.0549888382520238));
#1390=CARTESIAN_POINT('',(-0.0617018563845935,0.,0.056949261612102));
#1391=CARTESIAN_POINT('',(-0.0657018563845935,0.,0.056949261612102));
#1392=CARTESIAN_POINT('',(-0.0657018563845935,0.004,0.056949261612102));
#1393=CARTESIAN_POINT('',(-0.0617018563845935,0.004,0.0451869695771829));
#1394=CARTESIAN_POINT('',(-0.0097018563845935,0.004,0.0250681155946425));
#1395=CARTESIAN_POINT('',(-0.0097018563845935,0.004,0.0250681155946425));
#1396=CARTESIAN_POINT('',(-0.0617018563845935,0.06,0.0250681155946425));
#1397=CARTESIAN_POINT('',(-0.0617018563845935,0.004,0.0250681155946425));
#1398=CARTESIAN_POINT('',(-0.0617018563845935,0.004,0.0510681155946424));
#1399=CARTESIAN_POINT('',(-0.0617018563845935,0.004,0.0250681155946425));
#1400=CARTESIAN_POINT('',(-0.0357018563845935,0.004,0.0250681155946425));
#1401=CARTESIAN_POINT('',(-0.029820710367134,0.004,0.0250681155946425));
#1402=CARTESIAN_POINT('',(-0.0617018563845935,0.004,0.0250681155946425));
#1403=CARTESIAN_POINT('',(-0.0617018563845935,0.004,0.0250681155946425));
#1404=CARTESIAN_POINT('',(-0.029820710367134,0.,0.0250681155946424));
#1405=CARTESIAN_POINT('',(-0.029820710367134,3.81639164714898E-17,0.0210681155946425));
#1406=CARTESIAN_POINT('',(-0.029820710367134,0.004,0.0210681155946425));
#1407=CARTESIAN_POINT('',(-0.0317334219060862,-2.13505774600333E-18,0.0248571860620697));
#1408=CARTESIAN_POINT('',(-0.0316842865053397,0.000205510988821456,0.0210681155946439));
#1409=CARTESIAN_POINT('',(-0.0317811337272282,0.0039999999980675,0.0210681155946425));
#1410=CARTESIAN_POINT('',(-0.0357018563845906,-2.70116960499711E-5,0.0246221908777228));
#1411=CARTESIAN_POINT('',(-0.0357018563846,0.000370244382304451,0.0210681155946411));
#1412=CARTESIAN_POINT('',(-0.0357018563845889,0.00394597660983254,0.0210681155946425));
#1413=CARTESIAN_POINT('',(-0.0396702908631067,-2.13505774600333E-18,0.0248571860620696));
#1414=CARTESIAN_POINT('',(-0.0397194262638338,0.000205510988821552,0.0210681155946439));
#1415=CARTESIAN_POINT('',(-0.0396225790419681,0.0039999999980675,0.0210681155946425));
#1416=CARTESIAN_POINT('',(-0.041583002402053,0.,0.0250681155946424));
#1417=CARTESIAN_POINT('',(-0.041583002402053,3.81639164714898E-17,0.0210681155946425));
#1418=CARTESIAN_POINT('',(-0.041583002402053,0.004,0.0210681155946425));
#1419=CARTESIAN_POINT('',(-0.041583002402053,0.004,0.0250681155946425));
#1420=CARTESIAN_POINT('',(-0.0357018563845935,0.004,0.0250681155946425));
#1421=CARTESIAN_POINT('',(-0.0357018563845935,-0.021,0.0510681155946424));
#1422=MECHANICAL_DESIGN_GEOMETRIC_PRESENTATION_REPRESENTATION('',(#768),
#1423);
#1423=(
GEOMETRIC_REPRESENTATION_CONTEXT(3)
GLOBAL_UNCERTAINTY_ASSIGNED_CONTEXT((#1424))
GLOBAL_UNIT_ASSIGNED_CONTEXT((#1427,#1426,#1425))
REPRESENTATION_CONTEXT('Part 1','TOP_LEVEL_ASSEMBLY_PART')
);
#1424=UNCERTAINTY_MEASURE_WITH_UNIT(LENGTH_MEASURE(2.E-5),#1427,
'DISTANCE_ACCURACY_VALUE','Maximum Tolerance applied to model');
#1425=(
NAMED_UNIT(*)
SI_UNIT($,.STERADIAN.)
SOLID_ANGLE_UNIT()
);
#1426=(
NAMED_UNIT(*)
PLANE_ANGLE_UNIT()
SI_UNIT($,.RADIAN.)
);
#1427=(
LENGTH_UNIT()
NAMED_UNIT(*)
SI_UNIT($,.METRE.)
);
#1428=PRODUCT_DEFINITION_SHAPE('','',#1429);
#1429=PRODUCT_DEFINITION('','',#1431,#1430);
#1430=PRODUCT_DEFINITION_CONTEXT('',#1437,'design');
#1431=PRODUCT_DEFINITION_FORMATION_WITH_SPECIFIED_SOURCE('','',#1433,
 .NOT_KNOWN.);
#1432=PRODUCT_RELATED_PRODUCT_CATEGORY('','',(#1433));
#1433=PRODUCT('Part 1','Part 1','Part 1',(#1435));
#1434=PRODUCT_CATEGORY('','');
#1435=PRODUCT_CONTEXT('',#1437,'mechanical');
#1436=APPLICATION_PROTOCOL_DEFINITION('international standard',
'ap242_managed_model_based_3d_engineering',2020,#1437);
#1437=APPLICATION_CONTEXT('managed model based 3d engineering');
ENDSEC;
END-ISO-10303-21;
