ISO-10303-21;
HEADER;
/* Generated by software containing ST-Developer
 * from STEP Tools, Inc. (www.steptools.com) 
 */
/* OPTION: using custom renumber hook */

FILE_DESCRIPTION(
/* description */ ('STEP AP242 Edition 2',
'CAx-IF Rec.Pracs.---Representation and Presentation of Product Manufa
cturing Information (PMI)---4.0---2014-10-13',
'CAx-IF Rec.Pracs.---3D Tessellated Geometry---0.4---2014-09-14','2;1',
'CAx-IF Rec.Pracs.---User Defined Attributes---1.5---2016-08-15'),
/* implementation_level */ '2;1');

FILE_NAME(
/* name */ 'stepper bracket',
/* time_stamp */ '2026-08-19T18:21:15Z',
/* author */ (''),
/* organization */ (''),
/* preprocessor_version */ 'ST-DEVELOPER v20',
/* originating_system */ 'ONSHAPE BY PTC INC, 1.219',
/* authorisation */ '  ');

FILE_SCHEMA (('AP242_MANAGED_MODEL_BASED_3D_ENGINEERING_MIM_LF { 1 0 10303 442 3 1 4 }'));
ENDSEC;

DATA;
#10=CONICAL_SURFACE('',#1363,0.02,0.785398163397448);
#11=SHAPE_REPRESENTATION_RELATIONSHIP('','',#1250,#14);
#12=SHAPE_REPRESENTATION_RELATIONSHIP('','',#1251,#15);
#13=SHAPE_REPRESENTATION_RELATIONSHIP('','',#1252,#16);
#14=ADVANCED_BREP_SHAPE_REPRESENTATION('',(#1244),#2027);
#15=ADVANCED_BREP_SHAPE_REPRESENTATION('',(#1245),#2028);
#16=ADVANCED_BREP_SHAPE_REPRESENTATION('',(#1246),#2029);
#17=LINE('',#1726,#125);
#18=LINE('',#1729,#126);
#19=LINE('',#1731,#127);
#20=LINE('',#1733,#128);
#21=LINE('',#1735,#129);
#22=LINE('',#1738,#130);
#23=LINE('',#1740,#131);
#24=LINE('',#1742,#132);
#25=LINE('',#1744,#133);
#26=LINE('',#1746,#134);
#27=LINE('',#1748,#135);
#28=LINE('',#1750,#136);
#29=LINE('',#1752,#137);
#30=LINE('',#1754,#138);
#31=LINE('',#1756,#139);
#32=LINE('',#1758,#140);
#33=LINE('',#1760,#141);
#34=LINE('',#1762,#142);
#35=LINE('',#1764,#143);
#36=LINE('',#1766,#144);
#37=LINE('',#1768,#145);
#38=LINE('',#1770,#146);
#39=LINE('',#1772,#147);
#40=LINE('',#1774,#148);
#41=LINE('',#1815,#149);
#42=LINE('',#1818,#150);
#43=LINE('',#1820,#151);
#44=LINE('',#1822,#152);
#45=LINE('',#1824,#153);
#46=LINE('',#1827,#154);
#47=LINE('',#1829,#155);
#48=LINE('',#1831,#156);
#49=LINE('',#1860,#157);
#50=LINE('',#1863,#158);
#51=LINE('',#1865,#159);
#52=LINE('',#1867,#160);
#53=LINE('',#1869,#161);
#54=LINE('',#1871,#162);
#55=LINE('',#1872,#163);
#56=LINE('',#1875,#164);
#57=LINE('',#1877,#165);
#58=LINE('',#1879,#166);
#59=LINE('',#1881,#167);
#60=LINE('',#1883,#168);
#61=LINE('',#1884,#169);
#62=LINE('',#1887,#170);
#63=LINE('',#1889,#171);
#64=LINE('',#1891,#172);
#65=LINE('',#1893,#173);
#66=LINE('',#1895,#174);
#67=LINE('',#1896,#175);
#68=LINE('',#1899,#176);
#69=LINE('',#1901,#177);
#70=LINE('',#1903,#178);
#71=LINE('',#1905,#179);
#72=LINE('',#1907,#180);
#73=LINE('',#1908,#181);
#74=LINE('',#1909,#182);
#75=LINE('',#1911,#183);
#76=LINE('',#1913,#184);
#77=LINE('',#1918,#185);
#78=LINE('',#1921,#186);
#79=LINE('',#1923,#187);
#80=LINE('',#1925,#188);
#81=LINE('',#1927,#189);
#82=LINE('',#1929,#190);
#83=LINE('',#1930,#191);
#84=LINE('',#1933,#192);
#85=LINE('',#1935,#193);
#86=LINE('',#1937,#194);
#87=LINE('',#1939,#195);
#88=LINE('',#1941,#196);
#89=LINE('',#1942,#197);
#90=LINE('',#1945,#198);
#91=LINE('',#1947,#199);
#92=LINE('',#1949,#200);
#93=LINE('',#1951,#201);
#94=LINE('',#1953,#202);
#95=LINE('',#1954,#203);
#96=LINE('',#1957,#204);
#97=LINE('',#1959,#205);
#98=LINE('',#1961,#206);
#99=LINE('',#1963,#207);
#100=LINE('',#1965,#208);
#101=LINE('',#1967,#209);
#102=LINE('',#1968,#210);
#103=LINE('',#1970,#211);
#104=LINE('',#1972,#212);
#105=LINE('',#1974,#213);
#106=LINE('',#1976,#214);
#107=LINE('',#1979,#215);
#108=LINE('',#1980,#216);
#109=LINE('',#1982,#217);
#110=LINE('',#1984,#218);
#111=LINE('',#1986,#219);
#112=LINE('',#1988,#220);
#113=LINE('',#1991,#221);
#114=LINE('',#1992,#222);
#115=LINE('',#1994,#223);
#116=LINE('',#1996,#224);
#117=LINE('',#1998,#225);
#118=LINE('',#2000,#226);
#119=LINE('',#2003,#227);
#120=LINE('',#2004,#228);
#121=LINE('',#2006,#229);
#122=LINE('',#2008,#230);
#123=LINE('',#2010,#231);
#124=LINE('',#2012,#232);
#125=VECTOR('',#1404,1.);
#126=VECTOR('',#1405,1.);
#127=VECTOR('',#1406,1.);
#128=VECTOR('',#1407,1.);
#129=VECTOR('',#1410,1.);
#130=VECTOR('',#1411,1.);
#131=VECTOR('',#1412,1.);
#132=VECTOR('',#1413,1.);
#133=VECTOR('',#1416,1.);
#134=VECTOR('',#1417,1.);
#135=VECTOR('',#1418,1.);
#136=VECTOR('',#1421,1.);
#137=VECTOR('',#1422,1.);
#138=VECTOR('',#1425,1.);
#139=VECTOR('',#1426,1.);
#140=VECTOR('',#1429,1.);
#141=VECTOR('',#1432,1.);
#142=VECTOR('',#1433,1.);
#143=VECTOR('',#1434,1.);
#144=VECTOR('',#1437,1.);
#145=VECTOR('',#1438,1.);
#146=VECTOR('',#1441,1.);
#147=VECTOR('',#1442,1.);
#148=VECTOR('',#1445,1.);
#149=VECTOR('',#1502,1.);
#150=VECTOR('',#1503,1.);
#151=VECTOR('',#1504,1.);
#152=VECTOR('',#1505,1.);
#153=VECTOR('',#1508,1.);
#154=VECTOR('',#1509,1.);
#155=VECTOR('',#1510,1.);
#156=VECTOR('',#1511,1.);
#157=VECTOR('',#1546,1.);
#158=VECTOR('',#1547,1.);
#159=VECTOR('',#1548,1.);
#160=VECTOR('',#1549,1.);
#161=VECTOR('',#1550,1.);
#162=VECTOR('',#1551,1.);
#163=VECTOR('',#1552,1.);
#164=VECTOR('',#1553,1.);
#165=VECTOR('',#1554,1.);
#166=VECTOR('',#1555,1.);
#167=VECTOR('',#1556,1.);
#168=VECTOR('',#1557,1.);
#169=VECTOR('',#1558,1.);
#170=VECTOR('',#1559,1.);
#171=VECTOR('',#1560,1.);
#172=VECTOR('',#1561,1.);
#173=VECTOR('',#1562,1.);
#174=VECTOR('',#1563,1.);
#175=VECTOR('',#1564,1.);
#176=VECTOR('',#1565,1.);
#177=VECTOR('',#1566,1.);
#178=VECTOR('',#1567,1.);
#179=VECTOR('',#1568,1.);
#180=VECTOR('',#1569,1.);
#181=VECTOR('',#1570,1.);
#182=VECTOR('',#1571,1.);
#183=VECTOR('',#1574,1.);
#184=VECTOR('',#1577,1.);
#185=VECTOR('',#1584,1.);
#186=VECTOR('',#1585,1.);
#187=VECTOR('',#1586,1.);
#188=VECTOR('',#1587,1.);
#189=VECTOR('',#1588,1.);
#190=VECTOR('',#1589,1.);
#191=VECTOR('',#1590,1.);
#192=VECTOR('',#1591,1.);
#193=VECTOR('',#1592,1.);
#194=VECTOR('',#1593,1.);
#195=VECTOR('',#1594,1.);
#196=VECTOR('',#1595,1.);
#197=VECTOR('',#1596,1.);
#198=VECTOR('',#1597,1.);
#199=VECTOR('',#1598,1.);
#200=VECTOR('',#1599,1.);
#201=VECTOR('',#1600,1.);
#202=VECTOR('',#1601,1.);
#203=VECTOR('',#1602,1.);
#204=VECTOR('',#1603,1.);
#205=VECTOR('',#1604,1.);
#206=VECTOR('',#1605,1.);
#207=VECTOR('',#1606,1.);
#208=VECTOR('',#1607,1.);
#209=VECTOR('',#1610,1.);
#210=VECTOR('',#1611,1.);
#211=VECTOR('',#1614,1.);
#212=VECTOR('',#1617,1.);
#213=VECTOR('',#1620,1.);
#214=VECTOR('',#1623,1.);
#215=VECTOR('',#1628,1.);
#216=VECTOR('',#1629,1.);
#217=VECTOR('',#1632,1.);
#218=VECTOR('',#1635,1.);
#219=VECTOR('',#1638,1.);
#220=VECTOR('',#1641,1.);
#221=VECTOR('',#1646,1.);
#222=VECTOR('',#1647,1.);
#223=VECTOR('',#1650,1.);
#224=VECTOR('',#1653,1.);
#225=VECTOR('',#1656,1.);
#226=VECTOR('',#1659,1.);
#227=VECTOR('',#1664,1.);
#228=VECTOR('',#1665,1.);
#229=VECTOR('',#1668,1.);
#230=VECTOR('',#1671,1.);
#231=VECTOR('',#1674,1.);
#232=VECTOR('',#1677,1.);
#233=PLANE('',#1272);
#234=PLANE('',#1273);
#235=PLANE('',#1274);
#236=PLANE('',#1275);
#237=PLANE('',#1276);
#238=PLANE('',#1277);
#239=PLANE('',#1278);
#240=PLANE('',#1279);
#241=PLANE('',#1280);
#242=PLANE('',#1281);
#243=PLANE('',#1282);
#244=PLANE('',#1289);
#245=PLANE('',#1292);
#246=PLANE('',#1295);
#247=PLANE('',#1298);
#248=PLANE('',#1303);
#249=PLANE('',#1304);
#250=PLANE('',#1306);
#251=PLANE('',#1309);
#252=PLANE('',#1310);
#253=PLANE('',#1326);
#254=PLANE('',#1328);
#255=PLANE('',#1329);
#256=PLANE('',#1332);
#257=PLANE('',#1333);
#258=PLANE('',#1334);
#259=PLANE('',#1335);
#260=PLANE('',#1336);
#261=PLANE('',#1337);
#262=PLANE('',#1338);
#263=PLANE('',#1339);
#264=PLANE('',#1340);
#265=PLANE('',#1341);
#266=PLANE('',#1342);
#267=PLANE('',#1343);
#268=PLANE('',#1344);
#269=PLANE('',#1345);
#270=PLANE('',#1346);
#271=PLANE('',#1347);
#272=PLANE('',#1348);
#273=PLANE('',#1349);
#274=PLANE('',#1350);
#275=PLANE('',#1351);
#276=PLANE('',#1352);
#277=PLANE('',#1353);
#278=PLANE('',#1354);
#279=PLANE('',#1355);
#280=PLANE('',#1356);
#281=PLANE('',#1362);
#282=ORIENTED_EDGE('',*,*,#576,.F.);
#283=ORIENTED_EDGE('',*,*,#577,.T.);
#284=ORIENTED_EDGE('',*,*,#578,.F.);
#285=ORIENTED_EDGE('',*,*,#579,.T.);
#286=ORIENTED_EDGE('',*,*,#580,.F.);
#287=ORIENTED_EDGE('',*,*,#581,.T.);
#288=ORIENTED_EDGE('',*,*,#582,.F.);
#289=ORIENTED_EDGE('',*,*,#583,.T.);
#290=ORIENTED_EDGE('',*,*,#584,.T.);
#291=ORIENTED_EDGE('',*,*,#585,.F.);
#292=ORIENTED_EDGE('',*,*,#586,.T.);
#293=ORIENTED_EDGE('',*,*,#587,.F.);
#294=ORIENTED_EDGE('',*,*,#586,.F.);
#295=ORIENTED_EDGE('',*,*,#584,.F.);
#296=ORIENTED_EDGE('',*,*,#588,.T.);
#297=ORIENTED_EDGE('',*,*,#589,.T.);
#298=ORIENTED_EDGE('',*,*,#590,.F.);
#299=ORIENTED_EDGE('',*,*,#591,.F.);
#300=ORIENTED_EDGE('',*,*,#587,.T.);
#301=ORIENTED_EDGE('',*,*,#585,.T.);
#302=ORIENTED_EDGE('',*,*,#582,.T.);
#303=ORIENTED_EDGE('',*,*,#580,.T.);
#304=ORIENTED_EDGE('',*,*,#578,.T.);
#305=ORIENTED_EDGE('',*,*,#576,.T.);
#306=ORIENTED_EDGE('',*,*,#592,.T.);
#307=ORIENTED_EDGE('',*,*,#593,.T.);
#308=ORIENTED_EDGE('',*,*,#594,.F.);
#309=ORIENTED_EDGE('',*,*,#595,.F.);
#310=ORIENTED_EDGE('',*,*,#588,.F.);
#311=ORIENTED_EDGE('',*,*,#596,.F.);
#312=ORIENTED_EDGE('',*,*,#597,.T.);
#313=ORIENTED_EDGE('',*,*,#598,.T.);
#314=ORIENTED_EDGE('',*,*,#589,.F.);
#315=ORIENTED_EDGE('',*,*,#598,.F.);
#316=ORIENTED_EDGE('',*,*,#599,.T.);
#317=ORIENTED_EDGE('',*,*,#600,.T.);
#318=ORIENTED_EDGE('',*,*,#601,.T.);
#319=ORIENTED_EDGE('',*,*,#590,.T.);
#320=ORIENTED_EDGE('',*,*,#600,.F.);
#321=ORIENTED_EDGE('',*,*,#602,.F.);
#322=ORIENTED_EDGE('',*,*,#596,.T.);
#323=ORIENTED_EDGE('',*,*,#591,.T.);
#324=ORIENTED_EDGE('',*,*,#601,.F.);
#325=ORIENTED_EDGE('',*,*,#603,.F.);
#326=ORIENTED_EDGE('',*,*,#592,.F.);
#327=ORIENTED_EDGE('',*,*,#604,.F.);
#328=ORIENTED_EDGE('',*,*,#605,.T.);
#329=ORIENTED_EDGE('',*,*,#606,.T.);
#330=ORIENTED_EDGE('',*,*,#595,.T.);
#331=ORIENTED_EDGE('',*,*,#607,.F.);
#332=ORIENTED_EDGE('',*,*,#608,.F.);
#333=ORIENTED_EDGE('',*,*,#604,.T.);
#334=ORIENTED_EDGE('',*,*,#594,.T.);
#335=ORIENTED_EDGE('',*,*,#609,.F.);
#336=ORIENTED_EDGE('',*,*,#610,.F.);
#337=ORIENTED_EDGE('',*,*,#607,.T.);
#338=ORIENTED_EDGE('',*,*,#593,.F.);
#339=ORIENTED_EDGE('',*,*,#606,.F.);
#340=ORIENTED_EDGE('',*,*,#611,.T.);
#341=ORIENTED_EDGE('',*,*,#609,.T.);
#342=ORIENTED_EDGE('',*,*,#599,.F.);
#343=ORIENTED_EDGE('',*,*,#597,.F.);
#344=ORIENTED_EDGE('',*,*,#603,.T.);
#345=ORIENTED_EDGE('',*,*,#602,.T.);
#346=ORIENTED_EDGE('',*,*,#605,.F.);
#347=ORIENTED_EDGE('',*,*,#608,.T.);
#348=ORIENTED_EDGE('',*,*,#610,.T.);
#349=ORIENTED_EDGE('',*,*,#611,.F.);
#350=ORIENTED_EDGE('',*,*,#612,.F.);
#351=ORIENTED_EDGE('',*,*,#613,.F.);
#352=ORIENTED_EDGE('',*,*,#614,.F.);
#353=ORIENTED_EDGE('',*,*,#615,.F.);
#354=ORIENTED_EDGE('',*,*,#616,.F.);
#355=ORIENTED_EDGE('',*,*,#612,.T.);
#356=ORIENTED_EDGE('',*,*,#616,.T.);
#357=ORIENTED_EDGE('',*,*,#583,.F.);
#358=ORIENTED_EDGE('',*,*,#617,.F.);
#359=ORIENTED_EDGE('',*,*,#613,.T.);
#360=ORIENTED_EDGE('',*,*,#617,.T.);
#361=ORIENTED_EDGE('',*,*,#581,.F.);
#362=ORIENTED_EDGE('',*,*,#618,.F.);
#363=ORIENTED_EDGE('',*,*,#614,.T.);
#364=ORIENTED_EDGE('',*,*,#618,.T.);
#365=ORIENTED_EDGE('',*,*,#579,.F.);
#366=ORIENTED_EDGE('',*,*,#619,.F.);
#367=ORIENTED_EDGE('',*,*,#615,.T.);
#368=ORIENTED_EDGE('',*,*,#619,.T.);
#369=ORIENTED_EDGE('',*,*,#577,.F.);
#370=ORIENTED_EDGE('',*,*,#620,.F.);
#371=ORIENTED_EDGE('',*,*,#621,.T.);
#372=ORIENTED_EDGE('',*,*,#620,.T.);
#373=ORIENTED_EDGE('',*,*,#621,.F.);
#374=ORIENTED_EDGE('',*,*,#622,.T.);
#375=ORIENTED_EDGE('',*,*,#623,.T.);
#376=ORIENTED_EDGE('',*,*,#624,.F.);
#377=ORIENTED_EDGE('',*,*,#625,.F.);
#378=ORIENTED_EDGE('',*,*,#626,.T.);
#379=ORIENTED_EDGE('',*,*,#627,.T.);
#380=ORIENTED_EDGE('',*,*,#628,.T.);
#381=ORIENTED_EDGE('',*,*,#629,.F.);
#382=ORIENTED_EDGE('',*,*,#630,.F.);
#383=ORIENTED_EDGE('',*,*,#631,.T.);
#384=ORIENTED_EDGE('',*,*,#632,.F.);
#385=ORIENTED_EDGE('',*,*,#633,.T.);
#386=ORIENTED_EDGE('',*,*,#634,.F.);
#387=ORIENTED_EDGE('',*,*,#635,.T.);
#388=ORIENTED_EDGE('',*,*,#636,.F.);
#389=ORIENTED_EDGE('',*,*,#637,.T.);
#390=ORIENTED_EDGE('',*,*,#638,.F.);
#391=ORIENTED_EDGE('',*,*,#639,.T.);
#392=ORIENTED_EDGE('',*,*,#640,.F.);
#393=ORIENTED_EDGE('',*,*,#641,.T.);
#394=ORIENTED_EDGE('',*,*,#642,.T.);
#395=ORIENTED_EDGE('',*,*,#643,.T.);
#396=ORIENTED_EDGE('',*,*,#644,.T.);
#397=ORIENTED_EDGE('',*,*,#645,.T.);
#398=ORIENTED_EDGE('',*,*,#646,.T.);
#399=ORIENTED_EDGE('',*,*,#647,.T.);
#400=ORIENTED_EDGE('',*,*,#648,.T.);
#401=ORIENTED_EDGE('',*,*,#649,.T.);
#402=ORIENTED_EDGE('',*,*,#650,.T.);
#403=ORIENTED_EDGE('',*,*,#651,.T.);
#404=ORIENTED_EDGE('',*,*,#652,.T.);
#405=ORIENTED_EDGE('',*,*,#653,.T.);
#406=ORIENTED_EDGE('',*,*,#654,.T.);
#407=ORIENTED_EDGE('',*,*,#655,.T.);
#408=ORIENTED_EDGE('',*,*,#656,.T.);
#409=ORIENTED_EDGE('',*,*,#657,.T.);
#410=ORIENTED_EDGE('',*,*,#658,.T.);
#411=ORIENTED_EDGE('',*,*,#659,.T.);
#412=ORIENTED_EDGE('',*,*,#660,.T.);
#413=ORIENTED_EDGE('',*,*,#661,.T.);
#414=ORIENTED_EDGE('',*,*,#662,.T.);
#415=ORIENTED_EDGE('',*,*,#663,.T.);
#416=ORIENTED_EDGE('',*,*,#664,.T.);
#417=ORIENTED_EDGE('',*,*,#665,.T.);
#418=ORIENTED_EDGE('',*,*,#666,.T.);
#419=ORIENTED_EDGE('',*,*,#667,.T.);
#420=ORIENTED_EDGE('',*,*,#628,.F.);
#421=ORIENTED_EDGE('',*,*,#668,.T.);
#422=ORIENTED_EDGE('',*,*,#624,.T.);
#423=ORIENTED_EDGE('',*,*,#640,.T.);
#424=ORIENTED_EDGE('',*,*,#638,.T.);
#425=ORIENTED_EDGE('',*,*,#636,.T.);
#426=ORIENTED_EDGE('',*,*,#634,.T.);
#427=ORIENTED_EDGE('',*,*,#632,.T.);
#428=ORIENTED_EDGE('',*,*,#668,.F.);
#429=ORIENTED_EDGE('',*,*,#631,.F.);
#430=ORIENTED_EDGE('',*,*,#669,.T.);
#431=ORIENTED_EDGE('',*,*,#625,.T.);
#432=ORIENTED_EDGE('',*,*,#667,.F.);
#433=ORIENTED_EDGE('',*,*,#627,.F.);
#434=ORIENTED_EDGE('',*,*,#670,.T.);
#435=ORIENTED_EDGE('',*,*,#629,.T.);
#436=ORIENTED_EDGE('',*,*,#671,.T.);
#437=ORIENTED_EDGE('',*,*,#622,.F.);
#438=ORIENTED_EDGE('',*,*,#672,.F.);
#439=ORIENTED_EDGE('',*,*,#673,.F.);
#440=ORIENTED_EDGE('',*,*,#674,.F.);
#441=ORIENTED_EDGE('',*,*,#675,.F.);
#442=ORIENTED_EDGE('',*,*,#676,.F.);
#443=ORIENTED_EDGE('',*,*,#677,.F.);
#444=ORIENTED_EDGE('',*,*,#678,.F.);
#445=ORIENTED_EDGE('',*,*,#679,.F.);
#446=ORIENTED_EDGE('',*,*,#680,.F.);
#447=ORIENTED_EDGE('',*,*,#681,.F.);
#448=ORIENTED_EDGE('',*,*,#682,.F.);
#449=ORIENTED_EDGE('',*,*,#683,.F.);
#450=ORIENTED_EDGE('',*,*,#684,.F.);
#451=ORIENTED_EDGE('',*,*,#685,.F.);
#452=ORIENTED_EDGE('',*,*,#686,.F.);
#453=ORIENTED_EDGE('',*,*,#687,.F.);
#454=ORIENTED_EDGE('',*,*,#688,.F.);
#455=ORIENTED_EDGE('',*,*,#689,.F.);
#456=ORIENTED_EDGE('',*,*,#690,.F.);
#457=ORIENTED_EDGE('',*,*,#691,.F.);
#458=ORIENTED_EDGE('',*,*,#692,.F.);
#459=ORIENTED_EDGE('',*,*,#693,.F.);
#460=ORIENTED_EDGE('',*,*,#694,.F.);
#461=ORIENTED_EDGE('',*,*,#695,.F.);
#462=ORIENTED_EDGE('',*,*,#626,.F.);
#463=ORIENTED_EDGE('',*,*,#669,.F.);
#464=ORIENTED_EDGE('',*,*,#630,.T.);
#465=ORIENTED_EDGE('',*,*,#670,.F.);
#466=ORIENTED_EDGE('',*,*,#633,.F.);
#467=ORIENTED_EDGE('',*,*,#635,.F.);
#468=ORIENTED_EDGE('',*,*,#637,.F.);
#469=ORIENTED_EDGE('',*,*,#639,.F.);
#470=ORIENTED_EDGE('',*,*,#641,.F.);
#471=ORIENTED_EDGE('',*,*,#671,.F.);
#472=ORIENTED_EDGE('',*,*,#696,.T.);
#473=ORIENTED_EDGE('',*,*,#690,.T.);
#474=ORIENTED_EDGE('',*,*,#697,.F.);
#475=ORIENTED_EDGE('',*,*,#662,.F.);
#476=ORIENTED_EDGE('',*,*,#697,.T.);
#477=ORIENTED_EDGE('',*,*,#695,.T.);
#478=ORIENTED_EDGE('',*,*,#698,.F.);
#479=ORIENTED_EDGE('',*,*,#663,.F.);
#480=ORIENTED_EDGE('',*,*,#698,.T.);
#481=ORIENTED_EDGE('',*,*,#694,.T.);
#482=ORIENTED_EDGE('',*,*,#699,.F.);
#483=ORIENTED_EDGE('',*,*,#664,.F.);
#484=ORIENTED_EDGE('',*,*,#699,.T.);
#485=ORIENTED_EDGE('',*,*,#693,.T.);
#486=ORIENTED_EDGE('',*,*,#700,.F.);
#487=ORIENTED_EDGE('',*,*,#665,.F.);
#488=ORIENTED_EDGE('',*,*,#700,.T.);
#489=ORIENTED_EDGE('',*,*,#692,.T.);
#490=ORIENTED_EDGE('',*,*,#701,.F.);
#491=ORIENTED_EDGE('',*,*,#666,.F.);
#492=ORIENTED_EDGE('',*,*,#701,.T.);
#493=ORIENTED_EDGE('',*,*,#691,.T.);
#494=ORIENTED_EDGE('',*,*,#696,.F.);
#495=ORIENTED_EDGE('',*,*,#661,.F.);
#496=ORIENTED_EDGE('',*,*,#702,.T.);
#497=ORIENTED_EDGE('',*,*,#684,.T.);
#498=ORIENTED_EDGE('',*,*,#703,.F.);
#499=ORIENTED_EDGE('',*,*,#656,.F.);
#500=ORIENTED_EDGE('',*,*,#703,.T.);
#501=ORIENTED_EDGE('',*,*,#689,.T.);
#502=ORIENTED_EDGE('',*,*,#704,.F.);
#503=ORIENTED_EDGE('',*,*,#657,.F.);
#504=ORIENTED_EDGE('',*,*,#704,.T.);
#505=ORIENTED_EDGE('',*,*,#688,.T.);
#506=ORIENTED_EDGE('',*,*,#705,.F.);
#507=ORIENTED_EDGE('',*,*,#658,.F.);
#508=ORIENTED_EDGE('',*,*,#705,.T.);
#509=ORIENTED_EDGE('',*,*,#687,.T.);
#510=ORIENTED_EDGE('',*,*,#706,.F.);
#511=ORIENTED_EDGE('',*,*,#659,.F.);
#512=ORIENTED_EDGE('',*,*,#706,.T.);
#513=ORIENTED_EDGE('',*,*,#686,.T.);
#514=ORIENTED_EDGE('',*,*,#707,.F.);
#515=ORIENTED_EDGE('',*,*,#660,.F.);
#516=ORIENTED_EDGE('',*,*,#707,.T.);
#517=ORIENTED_EDGE('',*,*,#685,.T.);
#518=ORIENTED_EDGE('',*,*,#702,.F.);
#519=ORIENTED_EDGE('',*,*,#655,.F.);
#520=ORIENTED_EDGE('',*,*,#708,.T.);
#521=ORIENTED_EDGE('',*,*,#678,.T.);
#522=ORIENTED_EDGE('',*,*,#709,.F.);
#523=ORIENTED_EDGE('',*,*,#650,.F.);
#524=ORIENTED_EDGE('',*,*,#709,.T.);
#525=ORIENTED_EDGE('',*,*,#683,.T.);
#526=ORIENTED_EDGE('',*,*,#710,.F.);
#527=ORIENTED_EDGE('',*,*,#651,.F.);
#528=ORIENTED_EDGE('',*,*,#710,.T.);
#529=ORIENTED_EDGE('',*,*,#682,.T.);
#530=ORIENTED_EDGE('',*,*,#711,.F.);
#531=ORIENTED_EDGE('',*,*,#652,.F.);
#532=ORIENTED_EDGE('',*,*,#711,.T.);
#533=ORIENTED_EDGE('',*,*,#681,.T.);
#534=ORIENTED_EDGE('',*,*,#712,.F.);
#535=ORIENTED_EDGE('',*,*,#653,.F.);
#536=ORIENTED_EDGE('',*,*,#712,.T.);
#537=ORIENTED_EDGE('',*,*,#680,.T.);
#538=ORIENTED_EDGE('',*,*,#713,.F.);
#539=ORIENTED_EDGE('',*,*,#654,.F.);
#540=ORIENTED_EDGE('',*,*,#713,.T.);
#541=ORIENTED_EDGE('',*,*,#679,.T.);
#542=ORIENTED_EDGE('',*,*,#708,.F.);
#543=ORIENTED_EDGE('',*,*,#649,.F.);
#544=ORIENTED_EDGE('',*,*,#714,.T.);
#545=ORIENTED_EDGE('',*,*,#672,.T.);
#546=ORIENTED_EDGE('',*,*,#715,.F.);
#547=ORIENTED_EDGE('',*,*,#644,.F.);
#548=ORIENTED_EDGE('',*,*,#715,.T.);
#549=ORIENTED_EDGE('',*,*,#677,.T.);
#550=ORIENTED_EDGE('',*,*,#716,.F.);
#551=ORIENTED_EDGE('',*,*,#645,.F.);
#552=ORIENTED_EDGE('',*,*,#716,.T.);
#553=ORIENTED_EDGE('',*,*,#676,.T.);
#554=ORIENTED_EDGE('',*,*,#717,.F.);
#555=ORIENTED_EDGE('',*,*,#646,.F.);
#556=ORIENTED_EDGE('',*,*,#717,.T.);
#557=ORIENTED_EDGE('',*,*,#675,.T.);
#558=ORIENTED_EDGE('',*,*,#718,.F.);
#559=ORIENTED_EDGE('',*,*,#647,.F.);
#560=ORIENTED_EDGE('',*,*,#718,.T.);
#561=ORIENTED_EDGE('',*,*,#674,.T.);
#562=ORIENTED_EDGE('',*,*,#719,.F.);
#563=ORIENTED_EDGE('',*,*,#648,.F.);
#564=ORIENTED_EDGE('',*,*,#719,.T.);
#565=ORIENTED_EDGE('',*,*,#673,.T.);
#566=ORIENTED_EDGE('',*,*,#714,.F.);
#567=ORIENTED_EDGE('',*,*,#643,.F.);
#568=ORIENTED_EDGE('',*,*,#720,.T.);
#569=ORIENTED_EDGE('',*,*,#721,.F.);
#570=ORIENTED_EDGE('',*,*,#722,.T.);
#571=ORIENTED_EDGE('',*,*,#623,.F.);
#572=ORIENTED_EDGE('',*,*,#722,.F.);
#573=ORIENTED_EDGE('',*,*,#721,.T.);
#574=ORIENTED_EDGE('',*,*,#642,.F.);
#575=ORIENTED_EDGE('',*,*,#720,.F.);
#576=EDGE_CURVE('',#723,#723,#834,.T.);
#577=EDGE_CURVE('',#724,#724,#835,.T.);
#578=EDGE_CURVE('',#725,#725,#836,.T.);
#579=EDGE_CURVE('',#726,#726,#837,.T.);
#580=EDGE_CURVE('',#727,#727,#838,.T.);
#581=EDGE_CURVE('',#728,#728,#839,.T.);
#582=EDGE_CURVE('',#729,#729,#840,.T.);
#583=EDGE_CURVE('',#730,#730,#841,.T.);
#584=EDGE_CURVE('',#731,#731,#842,.T.);
#585=EDGE_CURVE('',#732,#732,#843,.T.);
#586=EDGE_CURVE('',#733,#733,#844,.T.);
#587=EDGE_CURVE('',#734,#734,#845,.T.);
#588=EDGE_CURVE('',#735,#736,#17,.T.);
#589=EDGE_CURVE('',#736,#737,#18,.T.);
#590=EDGE_CURVE('',#738,#737,#19,.T.);
#591=EDGE_CURVE('',#735,#738,#20,.T.);
#592=EDGE_CURVE('',#739,#740,#21,.T.);
#593=EDGE_CURVE('',#740,#741,#22,.T.);
#594=EDGE_CURVE('',#742,#741,#23,.T.);
#595=EDGE_CURVE('',#739,#742,#24,.T.);
#596=EDGE_CURVE('',#743,#735,#25,.T.);
#597=EDGE_CURVE('',#743,#744,#26,.T.);
#598=EDGE_CURVE('',#744,#736,#27,.T.);
#599=EDGE_CURVE('',#744,#745,#28,.T.);
#600=EDGE_CURVE('',#745,#737,#29,.T.);
#601=EDGE_CURVE('',#746,#738,#30,.T.);
#602=EDGE_CURVE('',#746,#745,#31,.T.);
#603=EDGE_CURVE('',#743,#746,#32,.T.);
#604=EDGE_CURVE('',#747,#739,#33,.T.);
#605=EDGE_CURVE('',#747,#748,#34,.T.);
#606=EDGE_CURVE('',#748,#740,#35,.T.);
#607=EDGE_CURVE('',#749,#742,#36,.T.);
#608=EDGE_CURVE('',#747,#749,#37,.T.);
#609=EDGE_CURVE('',#750,#741,#38,.T.);
#610=EDGE_CURVE('',#749,#750,#39,.T.);
#611=EDGE_CURVE('',#748,#750,#40,.T.);
#612=EDGE_CURVE('',#751,#751,#846,.T.);
#613=EDGE_CURVE('',#752,#752,#847,.T.);
#614=EDGE_CURVE('',#753,#753,#848,.T.);
#615=EDGE_CURVE('',#754,#754,#849,.T.);
#616=EDGE_CURVE('',#755,#755,#850,.T.);
#617=EDGE_CURVE('',#756,#756,#851,.T.);
#618=EDGE_CURVE('',#757,#757,#852,.T.);
#619=EDGE_CURVE('',#758,#758,#853,.T.);
#620=EDGE_CURVE('',#759,#759,#854,.T.);
#621=EDGE_CURVE('',#760,#760,#855,.T.);
#622=EDGE_CURVE('',#761,#761,#856,.T.);
#623=EDGE_CURVE('',#762,#762,#857,.T.);
#624=EDGE_CURVE('',#763,#764,#41,.T.);
#625=EDGE_CURVE('',#765,#763,#42,.T.);
#626=EDGE_CURVE('',#765,#766,#43,.T.);
#627=EDGE_CURVE('',#766,#764,#44,.T.);
#628=EDGE_CURVE('',#767,#768,#45,.T.);
#629=EDGE_CURVE('',#769,#768,#46,.T.);
#630=EDGE_CURVE('',#770,#769,#47,.T.);
#631=EDGE_CURVE('',#770,#767,#48,.T.);
#632=EDGE_CURVE('',#771,#771,#858,.T.);
#633=EDGE_CURVE('',#772,#772,#859,.T.);
#634=EDGE_CURVE('',#773,#773,#860,.T.);
#635=EDGE_CURVE('',#774,#774,#861,.T.);
#636=EDGE_CURVE('',#775,#775,#862,.T.);
#637=EDGE_CURVE('',#776,#776,#863,.T.);
#638=EDGE_CURVE('',#777,#777,#864,.T.);
#639=EDGE_CURVE('',#778,#778,#865,.T.);
#640=EDGE_CURVE('',#779,#779,#866,.T.);
#641=EDGE_CURVE('',#780,#780,#867,.T.);
#642=EDGE_CURVE('',#781,#781,#868,.T.);
#643=EDGE_CURVE('',#782,#783,#49,.T.);
#644=EDGE_CURVE('',#783,#784,#50,.T.);
#645=EDGE_CURVE('',#784,#785,#51,.T.);
#646=EDGE_CURVE('',#785,#786,#52,.T.);
#647=EDGE_CURVE('',#786,#787,#53,.T.);
#648=EDGE_CURVE('',#787,#782,#54,.T.);
#649=EDGE_CURVE('',#788,#789,#55,.T.);
#650=EDGE_CURVE('',#789,#790,#56,.T.);
#651=EDGE_CURVE('',#790,#791,#57,.T.);
#652=EDGE_CURVE('',#791,#792,#58,.T.);
#653=EDGE_CURVE('',#792,#793,#59,.T.);
#654=EDGE_CURVE('',#793,#788,#60,.T.);
#655=EDGE_CURVE('',#794,#795,#61,.T.);
#656=EDGE_CURVE('',#795,#796,#62,.T.);
#657=EDGE_CURVE('',#796,#797,#63,.T.);
#658=EDGE_CURVE('',#797,#798,#64,.T.);
#659=EDGE_CURVE('',#798,#799,#65,.T.);
#660=EDGE_CURVE('',#799,#794,#66,.T.);
#661=EDGE_CURVE('',#800,#801,#67,.T.);
#662=EDGE_CURVE('',#801,#802,#68,.T.);
#663=EDGE_CURVE('',#802,#803,#69,.T.);
#664=EDGE_CURVE('',#803,#804,#70,.T.);
#665=EDGE_CURVE('',#804,#805,#71,.T.);
#666=EDGE_CURVE('',#805,#800,#72,.T.);
#667=EDGE_CURVE('',#764,#768,#73,.T.);
#668=EDGE_CURVE('',#767,#763,#74,.T.);
#669=EDGE_CURVE('',#770,#765,#75,.T.);
#670=EDGE_CURVE('',#766,#769,#76,.T.);
#671=EDGE_CURVE('',#806,#806,#869,.T.);
#672=EDGE_CURVE('',#807,#808,#77,.T.);
#673=EDGE_CURVE('',#809,#807,#78,.T.);
#674=EDGE_CURVE('',#810,#809,#79,.T.);
#675=EDGE_CURVE('',#811,#810,#80,.T.);
#676=EDGE_CURVE('',#812,#811,#81,.T.);
#677=EDGE_CURVE('',#808,#812,#82,.T.);
#678=EDGE_CURVE('',#813,#814,#83,.T.);
#679=EDGE_CURVE('',#815,#813,#84,.T.);
#680=EDGE_CURVE('',#816,#815,#85,.T.);
#681=EDGE_CURVE('',#817,#816,#86,.T.);
#682=EDGE_CURVE('',#818,#817,#87,.T.);
#683=EDGE_CURVE('',#814,#818,#88,.T.);
#684=EDGE_CURVE('',#819,#820,#89,.T.);
#685=EDGE_CURVE('',#821,#819,#90,.T.);
#686=EDGE_CURVE('',#822,#821,#91,.T.);
#687=EDGE_CURVE('',#823,#822,#92,.T.);
#688=EDGE_CURVE('',#824,#823,#93,.T.);
#689=EDGE_CURVE('',#820,#824,#94,.T.);
#690=EDGE_CURVE('',#825,#826,#95,.T.);
#691=EDGE_CURVE('',#827,#825,#96,.T.);
#692=EDGE_CURVE('',#828,#827,#97,.T.);
#693=EDGE_CURVE('',#829,#828,#98,.T.);
#694=EDGE_CURVE('',#830,#829,#99,.T.);
#695=EDGE_CURVE('',#826,#830,#100,.T.);
#696=EDGE_CURVE('',#801,#825,#101,.T.);
#697=EDGE_CURVE('',#802,#826,#102,.T.);
#698=EDGE_CURVE('',#803,#830,#103,.T.);
#699=EDGE_CURVE('',#804,#829,#104,.T.);
#700=EDGE_CURVE('',#805,#828,#105,.T.);
#701=EDGE_CURVE('',#800,#827,#106,.T.);
#702=EDGE_CURVE('',#795,#819,#107,.T.);
#703=EDGE_CURVE('',#796,#820,#108,.T.);
#704=EDGE_CURVE('',#797,#824,#109,.T.);
#705=EDGE_CURVE('',#798,#823,#110,.T.);
#706=EDGE_CURVE('',#799,#822,#111,.T.);
#707=EDGE_CURVE('',#794,#821,#112,.T.);
#708=EDGE_CURVE('',#789,#813,#113,.T.);
#709=EDGE_CURVE('',#790,#814,#114,.T.);
#710=EDGE_CURVE('',#791,#818,#115,.T.);
#711=EDGE_CURVE('',#792,#817,#116,.T.);
#712=EDGE_CURVE('',#793,#816,#117,.T.);
#713=EDGE_CURVE('',#788,#815,#118,.T.);
#714=EDGE_CURVE('',#783,#807,#119,.T.);
#715=EDGE_CURVE('',#784,#808,#120,.T.);
#716=EDGE_CURVE('',#785,#812,#121,.T.);
#717=EDGE_CURVE('',#786,#811,#122,.T.);
#718=EDGE_CURVE('',#787,#810,#123,.T.);
#719=EDGE_CURVE('',#782,#809,#124,.T.);
#720=EDGE_CURVE('',#831,#831,#870,.F.);
#721=EDGE_CURVE('',#832,#832,#871,.T.);
#722=EDGE_CURVE('',#833,#833,#872,.T.);
#723=VERTEX_POINT('',#1697);
#724=VERTEX_POINT('',#1699);
#725=VERTEX_POINT('',#1702);
#726=VERTEX_POINT('',#1704);
#727=VERTEX_POINT('',#1707);
#728=VERTEX_POINT('',#1709);
#729=VERTEX_POINT('',#1712);
#730=VERTEX_POINT('',#1714);
#731=VERTEX_POINT('',#1717);
#732=VERTEX_POINT('',#1719);
#733=VERTEX_POINT('',#1722);
#734=VERTEX_POINT('',#1724);
#735=VERTEX_POINT('',#1727);
#736=VERTEX_POINT('',#1728);
#737=VERTEX_POINT('',#1730);
#738=VERTEX_POINT('',#1732);
#739=VERTEX_POINT('',#1736);
#740=VERTEX_POINT('',#1737);
#741=VERTEX_POINT('',#1739);
#742=VERTEX_POINT('',#1741);
#743=VERTEX_POINT('',#1745);
#744=VERTEX_POINT('',#1747);
#745=VERTEX_POINT('',#1751);
#746=VERTEX_POINT('',#1755);
#747=VERTEX_POINT('',#1761);
#748=VERTEX_POINT('',#1763);
#749=VERTEX_POINT('',#1767);
#750=VERTEX_POINT('',#1771);
#751=VERTEX_POINT('',#1777);
#752=VERTEX_POINT('',#1779);
#753=VERTEX_POINT('',#1781);
#754=VERTEX_POINT('',#1783);
#755=VERTEX_POINT('',#1786);
#756=VERTEX_POINT('',#1790);
#757=VERTEX_POINT('',#1794);
#758=VERTEX_POINT('',#1798);
#759=VERTEX_POINT('',#1803);
#760=VERTEX_POINT('',#1805);
#761=VERTEX_POINT('',#1811);
#762=VERTEX_POINT('',#1813);
#763=VERTEX_POINT('',#1816);
#764=VERTEX_POINT('',#1817);
#765=VERTEX_POINT('',#1819);
#766=VERTEX_POINT('',#1821);
#767=VERTEX_POINT('',#1825);
#768=VERTEX_POINT('',#1826);
#769=VERTEX_POINT('',#1828);
#770=VERTEX_POINT('',#1830);
#771=VERTEX_POINT('',#1834);
#772=VERTEX_POINT('',#1836);
#773=VERTEX_POINT('',#1839);
#774=VERTEX_POINT('',#1841);
#775=VERTEX_POINT('',#1844);
#776=VERTEX_POINT('',#1846);
#777=VERTEX_POINT('',#1849);
#778=VERTEX_POINT('',#1851);
#779=VERTEX_POINT('',#1854);
#780=VERTEX_POINT('',#1856);
#781=VERTEX_POINT('',#1859);
#782=VERTEX_POINT('',#1861);
#783=VERTEX_POINT('',#1862);
#784=VERTEX_POINT('',#1864);
#785=VERTEX_POINT('',#1866);
#786=VERTEX_POINT('',#1868);
#787=VERTEX_POINT('',#1870);
#788=VERTEX_POINT('',#1873);
#789=VERTEX_POINT('',#1874);
#790=VERTEX_POINT('',#1876);
#791=VERTEX_POINT('',#1878);
#792=VERTEX_POINT('',#1880);
#793=VERTEX_POINT('',#1882);
#794=VERTEX_POINT('',#1885);
#795=VERTEX_POINT('',#1886);
#796=VERTEX_POINT('',#1888);
#797=VERTEX_POINT('',#1890);
#798=VERTEX_POINT('',#1892);
#799=VERTEX_POINT('',#1894);
#800=VERTEX_POINT('',#1897);
#801=VERTEX_POINT('',#1898);
#802=VERTEX_POINT('',#1900);
#803=VERTEX_POINT('',#1902);
#804=VERTEX_POINT('',#1904);
#805=VERTEX_POINT('',#1906);
#806=VERTEX_POINT('',#1916);
#807=VERTEX_POINT('',#1919);
#808=VERTEX_POINT('',#1920);
#809=VERTEX_POINT('',#1922);
#810=VERTEX_POINT('',#1924);
#811=VERTEX_POINT('',#1926);
#812=VERTEX_POINT('',#1928);
#813=VERTEX_POINT('',#1931);
#814=VERTEX_POINT('',#1932);
#815=VERTEX_POINT('',#1934);
#816=VERTEX_POINT('',#1936);
#817=VERTEX_POINT('',#1938);
#818=VERTEX_POINT('',#1940);
#819=VERTEX_POINT('',#1943);
#820=VERTEX_POINT('',#1944);
#821=VERTEX_POINT('',#1946);
#822=VERTEX_POINT('',#1948);
#823=VERTEX_POINT('',#1950);
#824=VERTEX_POINT('',#1952);
#825=VERTEX_POINT('',#1955);
#826=VERTEX_POINT('',#1956);
#827=VERTEX_POINT('',#1958);
#828=VERTEX_POINT('',#1960);
#829=VERTEX_POINT('',#1962);
#830=VERTEX_POINT('',#1964);
#831=VERTEX_POINT('',#2016);
#832=VERTEX_POINT('',#2018);
#833=VERTEX_POINT('',#2021);
#834=CIRCLE('',#1255,0.003);
#835=CIRCLE('',#1256,0.003);
#836=CIRCLE('',#1258,0.003);
#837=CIRCLE('',#1259,0.003);
#838=CIRCLE('',#1261,0.003);
#839=CIRCLE('',#1262,0.003);
#840=CIRCLE('',#1264,0.003);
#841=CIRCLE('',#1265,0.003);
#842=CIRCLE('',#1267,0.0111);
#843=CIRCLE('',#1268,0.0111);
#844=CIRCLE('',#1270,0.0291);
#845=CIRCLE('',#1271,0.0291);
#846=CIRCLE('',#1283,0.00175);
#847=CIRCLE('',#1284,0.00175);
#848=CIRCLE('',#1285,0.00175);
#849=CIRCLE('',#1286,0.00175);
#850=CIRCLE('',#1288,0.00175);
#851=CIRCLE('',#1291,0.00175);
#852=CIRCLE('',#1294,0.00175);
#853=CIRCLE('',#1297,0.00175);
#854=CIRCLE('',#1301,0.0039);
#855=CIRCLE('',#1302,0.0039);
#856=CIRCLE('',#1307,0.0111);
#857=CIRCLE('',#1308,0.0151);
#858=CIRCLE('',#1312,0.0111);
#859=CIRCLE('',#1313,0.0111);
#860=CIRCLE('',#1315,0.002);
#861=CIRCLE('',#1316,0.002);
#862=CIRCLE('',#1318,0.002);
#863=CIRCLE('',#1319,0.002);
#864=CIRCLE('',#1321,0.002);
#865=CIRCLE('',#1322,0.002);
#866=CIRCLE('',#1324,0.002);
#867=CIRCLE('',#1325,0.002);
#868=CIRCLE('',#1327,0.028);
#869=CIRCLE('',#1331,0.0111);
#870=CIRCLE('',#1358,0.02);
#871=CIRCLE('',#1359,0.02);
#872=CIRCLE('',#1361,0.0151);
#873=EDGE_LOOP('',(#282));
#874=EDGE_LOOP('',(#283));
#875=EDGE_LOOP('',(#284));
#876=EDGE_LOOP('',(#285));
#877=EDGE_LOOP('',(#286));
#878=EDGE_LOOP('',(#287));
#879=EDGE_LOOP('',(#288));
#880=EDGE_LOOP('',(#289));
#881=EDGE_LOOP('',(#290));
#882=EDGE_LOOP('',(#291));
#883=EDGE_LOOP('',(#292));
#884=EDGE_LOOP('',(#293));
#885=EDGE_LOOP('',(#294));
#886=EDGE_LOOP('',(#295));
#887=EDGE_LOOP('',(#296,#297,#298,#299));
#888=EDGE_LOOP('',(#300));
#889=EDGE_LOOP('',(#301));
#890=EDGE_LOOP('',(#302));
#891=EDGE_LOOP('',(#303));
#892=EDGE_LOOP('',(#304));
#893=EDGE_LOOP('',(#305));
#894=EDGE_LOOP('',(#306,#307,#308,#309));
#895=EDGE_LOOP('',(#310,#311,#312,#313));
#896=EDGE_LOOP('',(#314,#315,#316,#317));
#897=EDGE_LOOP('',(#318,#319,#320,#321));
#898=EDGE_LOOP('',(#322,#323,#324,#325));
#899=EDGE_LOOP('',(#326,#327,#328,#329));
#900=EDGE_LOOP('',(#330,#331,#332,#333));
#901=EDGE_LOOP('',(#334,#335,#336,#337));
#902=EDGE_LOOP('',(#338,#339,#340,#341));
#903=EDGE_LOOP('',(#342,#343,#344,#345));
#904=EDGE_LOOP('',(#346,#347,#348,#349));
#905=EDGE_LOOP('',(#350));
#906=EDGE_LOOP('',(#351));
#907=EDGE_LOOP('',(#352));
#908=EDGE_LOOP('',(#353));
#909=EDGE_LOOP('',(#354));
#910=EDGE_LOOP('',(#355));
#911=EDGE_LOOP('',(#356));
#912=EDGE_LOOP('',(#357));
#913=EDGE_LOOP('',(#358));
#914=EDGE_LOOP('',(#359));
#915=EDGE_LOOP('',(#360));
#916=EDGE_LOOP('',(#361));
#917=EDGE_LOOP('',(#362));
#918=EDGE_LOOP('',(#363));
#919=EDGE_LOOP('',(#364));
#920=EDGE_LOOP('',(#365));
#921=EDGE_LOOP('',(#366));
#922=EDGE_LOOP('',(#367));
#923=EDGE_LOOP('',(#368));
#924=EDGE_LOOP('',(#369));
#925=EDGE_LOOP('',(#370));
#926=EDGE_LOOP('',(#371));
#927=EDGE_LOOP('',(#372));
#928=EDGE_LOOP('',(#373));
#929=EDGE_LOOP('',(#374));
#930=EDGE_LOOP('',(#375));
#931=EDGE_LOOP('',(#376,#377,#378,#379));
#932=EDGE_LOOP('',(#380,#381,#382,#383));
#933=EDGE_LOOP('',(#384));
#934=EDGE_LOOP('',(#385));
#935=EDGE_LOOP('',(#386));
#936=EDGE_LOOP('',(#387));
#937=EDGE_LOOP('',(#388));
#938=EDGE_LOOP('',(#389));
#939=EDGE_LOOP('',(#390));
#940=EDGE_LOOP('',(#391));
#941=EDGE_LOOP('',(#392));
#942=EDGE_LOOP('',(#393));
#943=EDGE_LOOP('',(#394));
#944=EDGE_LOOP('',(#395,#396,#397,#398,#399,#400));
#945=EDGE_LOOP('',(#401,#402,#403,#404,#405,#406));
#946=EDGE_LOOP('',(#407,#408,#409,#410,#411,#412));
#947=EDGE_LOOP('',(#413,#414,#415,#416,#417,#418));
#948=EDGE_LOOP('',(#419,#420,#421,#422));
#949=EDGE_LOOP('',(#423));
#950=EDGE_LOOP('',(#424));
#951=EDGE_LOOP('',(#425));
#952=EDGE_LOOP('',(#426));
#953=EDGE_LOOP('',(#427));
#954=EDGE_LOOP('',(#428,#429,#430,#431));
#955=EDGE_LOOP('',(#432,#433,#434,#435));
#956=EDGE_LOOP('',(#436));
#957=EDGE_LOOP('',(#437));
#958=EDGE_LOOP('',(#438,#439,#440,#441,#442,#443));
#959=EDGE_LOOP('',(#444,#445,#446,#447,#448,#449));
#960=EDGE_LOOP('',(#450,#451,#452,#453,#454,#455));
#961=EDGE_LOOP('',(#456,#457,#458,#459,#460,#461));
#962=EDGE_LOOP('',(#462,#463,#464,#465));
#963=EDGE_LOOP('',(#466));
#964=EDGE_LOOP('',(#467));
#965=EDGE_LOOP('',(#468));
#966=EDGE_LOOP('',(#469));
#967=EDGE_LOOP('',(#470));
#968=EDGE_LOOP('',(#471));
#969=EDGE_LOOP('',(#472,#473,#474,#475));
#970=EDGE_LOOP('',(#476,#477,#478,#479));
#971=EDGE_LOOP('',(#480,#481,#482,#483));
#972=EDGE_LOOP('',(#484,#485,#486,#487));
#973=EDGE_LOOP('',(#488,#489,#490,#491));
#974=EDGE_LOOP('',(#492,#493,#494,#495));
#975=EDGE_LOOP('',(#496,#497,#498,#499));
#976=EDGE_LOOP('',(#500,#501,#502,#503));
#977=EDGE_LOOP('',(#504,#505,#506,#507));
#978=EDGE_LOOP('',(#508,#509,#510,#511));
#979=EDGE_LOOP('',(#512,#513,#514,#515));
#980=EDGE_LOOP('',(#516,#517,#518,#519));
#981=EDGE_LOOP('',(#520,#521,#522,#523));
#982=EDGE_LOOP('',(#524,#525,#526,#527));
#983=EDGE_LOOP('',(#528,#529,#530,#531));
#984=EDGE_LOOP('',(#532,#533,#534,#535));
#985=EDGE_LOOP('',(#536,#537,#538,#539));
#986=EDGE_LOOP('',(#540,#541,#542,#543));
#987=EDGE_LOOP('',(#544,#545,#546,#547));
#988=EDGE_LOOP('',(#548,#549,#550,#551));
#989=EDGE_LOOP('',(#552,#553,#554,#555));
#990=EDGE_LOOP('',(#556,#557,#558,#559));
#991=EDGE_LOOP('',(#560,#561,#562,#563));
#992=EDGE_LOOP('',(#564,#565,#566,#567));
#993=EDGE_LOOP('',(#568));
#994=EDGE_LOOP('',(#569));
#995=EDGE_LOOP('',(#570));
#996=EDGE_LOOP('',(#571));
#997=EDGE_LOOP('',(#572));
#998=EDGE_LOOP('',(#573));
#999=EDGE_LOOP('',(#574));
#1000=EDGE_LOOP('',(#575));
#1001=FACE_BOUND('',#873,.T.);
#1002=FACE_BOUND('',#874,.T.);
#1003=FACE_BOUND('',#875,.T.);
#1004=FACE_BOUND('',#876,.T.);
#1005=FACE_BOUND('',#877,.T.);
#1006=FACE_BOUND('',#878,.T.);
#1007=FACE_BOUND('',#879,.T.);
#1008=FACE_BOUND('',#880,.T.);
#1009=FACE_BOUND('',#881,.T.);
#1010=FACE_BOUND('',#882,.T.);
#1011=FACE_BOUND('',#883,.T.);
#1012=FACE_BOUND('',#884,.T.);
#1013=FACE_BOUND('',#885,.T.);
#1014=FACE_BOUND('',#886,.T.);
#1015=FACE_BOUND('',#887,.T.);
#1016=FACE_BOUND('',#888,.T.);
#1017=FACE_BOUND('',#889,.T.);
#1018=FACE_BOUND('',#890,.T.);
#1019=FACE_BOUND('',#891,.T.);
#1020=FACE_BOUND('',#892,.T.);
#1021=FACE_BOUND('',#893,.T.);
#1022=FACE_BOUND('',#894,.T.);
#1023=FACE_BOUND('',#895,.T.);
#1024=FACE_BOUND('',#896,.T.);
#1025=FACE_BOUND('',#897,.T.);
#1026=FACE_BOUND('',#898,.T.);
#1027=FACE_BOUND('',#899,.T.);
#1028=FACE_BOUND('',#900,.T.);
#1029=FACE_BOUND('',#901,.T.);
#1030=FACE_BOUND('',#902,.T.);
#1031=FACE_BOUND('',#903,.T.);
#1032=FACE_BOUND('',#904,.T.);
#1033=FACE_BOUND('',#905,.T.);
#1034=FACE_BOUND('',#906,.T.);
#1035=FACE_BOUND('',#907,.T.);
#1036=FACE_BOUND('',#908,.T.);
#1037=FACE_BOUND('',#909,.T.);
#1038=FACE_BOUND('',#910,.T.);
#1039=FACE_BOUND('',#911,.T.);
#1040=FACE_BOUND('',#912,.T.);
#1041=FACE_BOUND('',#913,.T.);
#1042=FACE_BOUND('',#914,.T.);
#1043=FACE_BOUND('',#915,.T.);
#1044=FACE_BOUND('',#916,.T.);
#1045=FACE_BOUND('',#917,.T.);
#1046=FACE_BOUND('',#918,.T.);
#1047=FACE_BOUND('',#919,.T.);
#1048=FACE_BOUND('',#920,.T.);
#1049=FACE_BOUND('',#921,.T.);
#1050=FACE_BOUND('',#922,.T.);
#1051=FACE_BOUND('',#923,.T.);
#1052=FACE_BOUND('',#924,.T.);
#1053=FACE_BOUND('',#925,.T.);
#1054=FACE_BOUND('',#926,.T.);
#1055=FACE_BOUND('',#927,.T.);
#1056=FACE_BOUND('',#928,.T.);
#1057=FACE_BOUND('',#929,.T.);
#1058=FACE_BOUND('',#930,.T.);
#1059=FACE_BOUND('',#931,.T.);
#1060=FACE_BOUND('',#932,.T.);
#1061=FACE_BOUND('',#933,.T.);
#1062=FACE_BOUND('',#934,.T.);
#1063=FACE_BOUND('',#935,.T.);
#1064=FACE_BOUND('',#936,.T.);
#1065=FACE_BOUND('',#937,.T.);
#1066=FACE_BOUND('',#938,.T.);
#1067=FACE_BOUND('',#939,.T.);
#1068=FACE_BOUND('',#940,.T.);
#1069=FACE_BOUND('',#941,.T.);
#1070=FACE_BOUND('',#942,.T.);
#1071=FACE_BOUND('',#943,.T.);
#1072=FACE_BOUND('',#944,.T.);
#1073=FACE_BOUND('',#945,.T.);
#1074=FACE_BOUND('',#946,.T.);
#1075=FACE_BOUND('',#947,.T.);
#1076=FACE_BOUND('',#948,.T.);
#1077=FACE_BOUND('',#949,.T.);
#1078=FACE_BOUND('',#950,.T.);
#1079=FACE_BOUND('',#951,.T.);
#1080=FACE_BOUND('',#952,.T.);
#1081=FACE_BOUND('',#953,.T.);
#1082=FACE_BOUND('',#954,.T.);
#1083=FACE_BOUND('',#955,.T.);
#1084=FACE_BOUND('',#956,.T.);
#1085=FACE_BOUND('',#957,.T.);
#1086=FACE_BOUND('',#958,.T.);
#1087=FACE_BOUND('',#959,.T.);
#1088=FACE_BOUND('',#960,.T.);
#1089=FACE_BOUND('',#961,.T.);
#1090=FACE_BOUND('',#962,.T.);
#1091=FACE_BOUND('',#963,.T.);
#1092=FACE_BOUND('',#964,.T.);
#1093=FACE_BOUND('',#965,.T.);
#1094=FACE_BOUND('',#966,.T.);
#1095=FACE_BOUND('',#967,.T.);
#1096=FACE_BOUND('',#968,.T.);
#1097=FACE_BOUND('',#969,.T.);
#1098=FACE_BOUND('',#970,.T.);
#1099=FACE_BOUND('',#971,.T.);
#1100=FACE_BOUND('',#972,.T.);
#1101=FACE_BOUND('',#973,.T.);
#1102=FACE_BOUND('',#974,.T.);
#1103=FACE_BOUND('',#975,.T.);
#1104=FACE_BOUND('',#976,.T.);
#1105=FACE_BOUND('',#977,.T.);
#1106=FACE_BOUND('',#978,.T.);
#1107=FACE_BOUND('',#979,.T.);
#1108=FACE_BOUND('',#980,.T.);
#1109=FACE_BOUND('',#981,.T.);
#1110=FACE_BOUND('',#982,.T.);
#1111=FACE_BOUND('',#983,.T.);
#1112=FACE_BOUND('',#984,.T.);
#1113=FACE_BOUND('',#985,.T.);
#1114=FACE_BOUND('',#986,.T.);
#1115=FACE_BOUND('',#987,.T.);
#1116=FACE_BOUND('',#988,.T.);
#1117=FACE_BOUND('',#989,.T.);
#1118=FACE_BOUND('',#990,.T.);
#1119=FACE_BOUND('',#991,.T.);
#1120=FACE_BOUND('',#992,.T.);
#1121=FACE_BOUND('',#993,.T.);
#1122=FACE_BOUND('',#994,.T.);
#1123=FACE_BOUND('',#995,.T.);
#1124=FACE_BOUND('',#996,.T.);
#1125=FACE_BOUND('',#997,.T.);
#1126=FACE_BOUND('',#998,.T.);
#1127=FACE_BOUND('',#999,.T.);
#1128=FACE_BOUND('',#1000,.T.);
#1129=CYLINDRICAL_SURFACE('',#1254,0.003);
#1130=CYLINDRICAL_SURFACE('',#1257,0.003);
#1131=CYLINDRICAL_SURFACE('',#1260,0.003);
#1132=CYLINDRICAL_SURFACE('',#1263,0.003);
#1133=CYLINDRICAL_SURFACE('',#1266,0.0111);
#1134=CYLINDRICAL_SURFACE('',#1269,0.0291);
#1135=CYLINDRICAL_SURFACE('',#1287,0.00175);
#1136=CYLINDRICAL_SURFACE('',#1290,0.00175);
#1137=CYLINDRICAL_SURFACE('',#1293,0.00175);
#1138=CYLINDRICAL_SURFACE('',#1296,0.00175);
#1139=CYLINDRICAL_SURFACE('',#1300,0.0039);
#1140=CYLINDRICAL_SURFACE('',#1311,0.0111);
#1141=CYLINDRICAL_SURFACE('',#1314,0.002);
#1142=CYLINDRICAL_SURFACE('',#1317,0.002);
#1143=CYLINDRICAL_SURFACE('',#1320,0.002);
#1144=CYLINDRICAL_SURFACE('',#1323,0.002);
#1145=CYLINDRICAL_SURFACE('',#1330,0.0111);
#1146=CYLINDRICAL_SURFACE('',#1357,0.02);
#1147=CYLINDRICAL_SURFACE('',#1360,0.0151);
#1148=ADVANCED_FACE('',(#1001,#1002),#1129,.F.);
#1149=ADVANCED_FACE('',(#1003,#1004),#1130,.F.);
#1150=ADVANCED_FACE('',(#1005,#1006),#1131,.F.);
#1151=ADVANCED_FACE('',(#1007,#1008),#1132,.F.);
#1152=ADVANCED_FACE('',(#1009,#1010),#1133,.F.);
#1153=ADVANCED_FACE('',(#1011,#1012),#1134,.F.);
#1154=ADVANCED_FACE('',(#1013,#1014,#1015),#233,.T.);
#1155=ADVANCED_FACE('',(#1016,#1017,#1018,#1019,#1020,#1021,#1022),#234,
 .F.);
#1156=ADVANCED_FACE('',(#1023),#235,.T.);
#1157=ADVANCED_FACE('',(#1024),#236,.T.);
#1158=ADVANCED_FACE('',(#1025),#237,.F.);
#1159=ADVANCED_FACE('',(#1026),#238,.F.);
#1160=ADVANCED_FACE('',(#1027),#239,.T.);
#1161=ADVANCED_FACE('',(#1028),#240,.F.);
#1162=ADVANCED_FACE('',(#1029),#241,.F.);
#1163=ADVANCED_FACE('',(#1030),#242,.T.);
#1164=ADVANCED_FACE('',(#1031,#1032,#1033,#1034,#1035,#1036),#243,.T.);
#1165=ADVANCED_FACE('',(#1037,#1038),#1135,.F.);
#1166=ADVANCED_FACE('',(#1039,#1040),#244,.F.);
#1167=ADVANCED_FACE('',(#1041,#1042),#1136,.F.);
#1168=ADVANCED_FACE('',(#1043,#1044),#245,.F.);
#1169=ADVANCED_FACE('',(#1045,#1046),#1137,.F.);
#1170=ADVANCED_FACE('',(#1047,#1048),#246,.F.);
#1171=ADVANCED_FACE('',(#1049,#1050),#1138,.F.);
#1172=ADVANCED_FACE('',(#1051,#1052),#247,.F.);
#1173=ADVANCED_FACE('',(#1053,#1054),#1139,.T.);
#1174=ADVANCED_FACE('',(#1055),#248,.T.);
#1175=ADVANCED_FACE('',(#1056),#249,.F.);
#1176=ADVANCED_FACE('',(#1057,#1058),#250,.F.);
#1177=ADVANCED_FACE('',(#1059),#251,.T.);
#1178=ADVANCED_FACE('',(#1060),#252,.T.);
#1179=ADVANCED_FACE('',(#1061,#1062),#1140,.F.);
#1180=ADVANCED_FACE('',(#1063,#1064),#1141,.F.);
#1181=ADVANCED_FACE('',(#1065,#1066),#1142,.F.);
#1182=ADVANCED_FACE('',(#1067,#1068),#1143,.F.);
#1183=ADVANCED_FACE('',(#1069,#1070),#1144,.F.);
#1184=ADVANCED_FACE('',(#1071,#1072,#1073,#1074,#1075,#1076,#1077,#1078,
#1079,#1080,#1081),#253,.F.);
#1185=ADVANCED_FACE('',(#1082),#254,.T.);
#1186=ADVANCED_FACE('',(#1083),#255,.T.);
#1187=ADVANCED_FACE('',(#1084,#1085),#1145,.F.);
#1188=ADVANCED_FACE('',(#1086,#1087,#1088,#1089,#1090,#1091,#1092,#1093,
#1094,#1095,#1096),#256,.T.);
#1189=ADVANCED_FACE('',(#1097),#257,.F.);
#1190=ADVANCED_FACE('',(#1098),#258,.F.);
#1191=ADVANCED_FACE('',(#1099),#259,.F.);
#1192=ADVANCED_FACE('',(#1100),#260,.F.);
#1193=ADVANCED_FACE('',(#1101),#261,.F.);
#1194=ADVANCED_FACE('',(#1102),#262,.F.);
#1195=ADVANCED_FACE('',(#1103),#263,.F.);
#1196=ADVANCED_FACE('',(#1104),#264,.F.);
#1197=ADVANCED_FACE('',(#1105),#265,.F.);
#1198=ADVANCED_FACE('',(#1106),#266,.F.);
#1199=ADVANCED_FACE('',(#1107),#267,.F.);
#1200=ADVANCED_FACE('',(#1108),#268,.F.);
#1201=ADVANCED_FACE('',(#1109),#269,.F.);
#1202=ADVANCED_FACE('',(#1110),#270,.F.);
#1203=ADVANCED_FACE('',(#1111),#271,.F.);
#1204=ADVANCED_FACE('',(#1112),#272,.F.);
#1205=ADVANCED_FACE('',(#1113),#273,.F.);
#1206=ADVANCED_FACE('',(#1114),#274,.F.);
#1207=ADVANCED_FACE('',(#1115),#275,.F.);
#1208=ADVANCED_FACE('',(#1116),#276,.F.);
#1209=ADVANCED_FACE('',(#1117),#277,.F.);
#1210=ADVANCED_FACE('',(#1118),#278,.F.);
#1211=ADVANCED_FACE('',(#1119),#279,.F.);
#1212=ADVANCED_FACE('',(#1120),#280,.F.);
#1213=ADVANCED_FACE('',(#1121,#1122),#1146,.T.);
#1214=ADVANCED_FACE('',(#1123,#1124),#1147,.F.);
#1215=ADVANCED_FACE('',(#1125,#1126),#281,.T.);
#1216=ADVANCED_FACE('',(#1127,#1128),#10,.T.);
#1217=CLOSED_SHELL('',(#1148,#1149,#1150,#1151,#1152,#1153,#1154,#1155,
#1156,#1157,#1158,#1159,#1160,#1161,#1162,#1163,#1164,#1165,#1166,#1167,
#1168,#1169,#1170,#1171,#1172));
#1218=CLOSED_SHELL('',(#1173,#1174,#1175));
#1219=CLOSED_SHELL('',(#1176,#1177,#1178,#1179,#1180,#1181,#1182,#1183,
#1184,#1185,#1186,#1187,#1188,#1189,#1190,#1191,#1192,#1193,#1194,#1195,
#1196,#1197,#1198,#1199,#1200,#1201,#1202,#1203,#1204,#1205,#1206,#1207,
#1208,#1209,#1210,#1211,#1212,#1213,#1214,#1215,#1216));
#1220=STYLED_ITEM('',(#1223),#1244);
#1221=STYLED_ITEM('',(#1224),#1245);
#1222=STYLED_ITEM('',(#1225),#1246);
#1223=PRESENTATION_STYLE_ASSIGNMENT((#1226));
#1224=PRESENTATION_STYLE_ASSIGNMENT((#1227));
#1225=PRESENTATION_STYLE_ASSIGNMENT((#1228));
#1226=SURFACE_STYLE_USAGE(.BOTH.,#1229);
#1227=SURFACE_STYLE_USAGE(.BOTH.,#1230);
#1228=SURFACE_STYLE_USAGE(.BOTH.,#1231);
#1229=SURFACE_SIDE_STYLE('',(#1232));
#1230=SURFACE_SIDE_STYLE('',(#1233));
#1231=SURFACE_SIDE_STYLE('',(#1234));
#1232=SURFACE_STYLE_FILL_AREA(#1235);
#1233=SURFACE_STYLE_FILL_AREA(#1236);
#1234=SURFACE_STYLE_FILL_AREA(#1237);
#1235=FILL_AREA_STYLE('',(#1238));
#1236=FILL_AREA_STYLE('',(#1239));
#1237=FILL_AREA_STYLE('',(#1240));
#1238=FILL_AREA_STYLE_COLOUR('',#1241);
#1239=FILL_AREA_STYLE_COLOUR('',#1242);
#1240=FILL_AREA_STYLE_COLOUR('',#1243);
#1241=COLOUR_RGB('',0.231372549019608,0.380392156862745,0.705882352941177);
#1242=COLOUR_RGB('',0.647058823529412,0.647058823529412,0.647058823529412);
#1243=COLOUR_RGB('',0.615686274509804,0.811764705882353,0.929411764705882);
#1244=MANIFOLD_SOLID_BREP('Part 3',#1217);
#1245=MANIFOLD_SOLID_BREP('Part 2',#1218);
#1246=MANIFOLD_SOLID_BREP('Part 1',#1219);
#1247=SHAPE_DEFINITION_REPRESENTATION(#2042,#1250);
#1248=SHAPE_DEFINITION_REPRESENTATION(#2043,#1251);
#1249=SHAPE_DEFINITION_REPRESENTATION(#2044,#1252);
#1250=SHAPE_REPRESENTATION('Part 3',(#1253),#2027);
#1251=SHAPE_REPRESENTATION('Part 2',(#1299),#2028);
#1252=SHAPE_REPRESENTATION('Part 1',(#1305),#2029);
#1253=AXIS2_PLACEMENT_3D('',#1694,#1364,#1365);
#1254=AXIS2_PLACEMENT_3D('',#1695,#1366,#1367);
#1255=AXIS2_PLACEMENT_3D('',#1696,#1368,#1369);
#1256=AXIS2_PLACEMENT_3D('',#1698,#1370,#1371);
#1257=AXIS2_PLACEMENT_3D('',#1700,#1372,#1373);
#1258=AXIS2_PLACEMENT_3D('',#1701,#1374,#1375);
#1259=AXIS2_PLACEMENT_3D('',#1703,#1376,#1377);
#1260=AXIS2_PLACEMENT_3D('',#1705,#1378,#1379);
#1261=AXIS2_PLACEMENT_3D('',#1706,#1380,#1381);
#1262=AXIS2_PLACEMENT_3D('',#1708,#1382,#1383);
#1263=AXIS2_PLACEMENT_3D('',#1710,#1384,#1385);
#1264=AXIS2_PLACEMENT_3D('',#1711,#1386,#1387);
#1265=AXIS2_PLACEMENT_3D('',#1713,#1388,#1389);
#1266=AXIS2_PLACEMENT_3D('',#1715,#1390,#1391);
#1267=AXIS2_PLACEMENT_3D('',#1716,#1392,#1393);
#1268=AXIS2_PLACEMENT_3D('',#1718,#1394,#1395);
#1269=AXIS2_PLACEMENT_3D('',#1720,#1396,#1397);
#1270=AXIS2_PLACEMENT_3D('',#1721,#1398,#1399);
#1271=AXIS2_PLACEMENT_3D('',#1723,#1400,#1401);
#1272=AXIS2_PLACEMENT_3D('',#1725,#1402,#1403);
#1273=AXIS2_PLACEMENT_3D('',#1734,#1408,#1409);
#1274=AXIS2_PLACEMENT_3D('',#1743,#1414,#1415);
#1275=AXIS2_PLACEMENT_3D('',#1749,#1419,#1420);
#1276=AXIS2_PLACEMENT_3D('',#1753,#1423,#1424);
#1277=AXIS2_PLACEMENT_3D('',#1757,#1427,#1428);
#1278=AXIS2_PLACEMENT_3D('',#1759,#1430,#1431);
#1279=AXIS2_PLACEMENT_3D('',#1765,#1435,#1436);
#1280=AXIS2_PLACEMENT_3D('',#1769,#1439,#1440);
#1281=AXIS2_PLACEMENT_3D('',#1773,#1443,#1444);
#1282=AXIS2_PLACEMENT_3D('',#1775,#1446,#1447);
#1283=AXIS2_PLACEMENT_3D('',#1776,#1448,#1449);
#1284=AXIS2_PLACEMENT_3D('',#1778,#1450,#1451);
#1285=AXIS2_PLACEMENT_3D('',#1780,#1452,#1453);
#1286=AXIS2_PLACEMENT_3D('',#1782,#1454,#1455);
#1287=AXIS2_PLACEMENT_3D('',#1784,#1456,#1457);
#1288=AXIS2_PLACEMENT_3D('',#1785,#1458,#1459);
#1289=AXIS2_PLACEMENT_3D('',#1787,#1460,#1461);
#1290=AXIS2_PLACEMENT_3D('',#1788,#1462,#1463);
#1291=AXIS2_PLACEMENT_3D('',#1789,#1464,#1465);
#1292=AXIS2_PLACEMENT_3D('',#1791,#1466,#1467);
#1293=AXIS2_PLACEMENT_3D('',#1792,#1468,#1469);
#1294=AXIS2_PLACEMENT_3D('',#1793,#1470,#1471);
#1295=AXIS2_PLACEMENT_3D('',#1795,#1472,#1473);
#1296=AXIS2_PLACEMENT_3D('',#1796,#1474,#1475);
#1297=AXIS2_PLACEMENT_3D('',#1797,#1476,#1477);
#1298=AXIS2_PLACEMENT_3D('',#1799,#1478,#1479);
#1299=AXIS2_PLACEMENT_3D('',#1800,#1480,#1481);
#1300=AXIS2_PLACEMENT_3D('',#1801,#1482,#1483);
#1301=AXIS2_PLACEMENT_3D('',#1802,#1484,#1485);
#1302=AXIS2_PLACEMENT_3D('',#1804,#1486,#1487);
#1303=AXIS2_PLACEMENT_3D('',#1806,#1488,#1489);
#1304=AXIS2_PLACEMENT_3D('',#1807,#1490,#1491);
#1305=AXIS2_PLACEMENT_3D('',#1808,#1492,#1493);
#1306=AXIS2_PLACEMENT_3D('',#1809,#1494,#1495);
#1307=AXIS2_PLACEMENT_3D('',#1810,#1496,#1497);
#1308=AXIS2_PLACEMENT_3D('',#1812,#1498,#1499);
#1309=AXIS2_PLACEMENT_3D('',#1814,#1500,#1501);
#1310=AXIS2_PLACEMENT_3D('',#1823,#1506,#1507);
#1311=AXIS2_PLACEMENT_3D('',#1832,#1512,#1513);
#1312=AXIS2_PLACEMENT_3D('',#1833,#1514,#1515);
#1313=AXIS2_PLACEMENT_3D('',#1835,#1516,#1517);
#1314=AXIS2_PLACEMENT_3D('',#1837,#1518,#1519);
#1315=AXIS2_PLACEMENT_3D('',#1838,#1520,#1521);
#1316=AXIS2_PLACEMENT_3D('',#1840,#1522,#1523);
#1317=AXIS2_PLACEMENT_3D('',#1842,#1524,#1525);
#1318=AXIS2_PLACEMENT_3D('',#1843,#1526,#1527);
#1319=AXIS2_PLACEMENT_3D('',#1845,#1528,#1529);
#1320=AXIS2_PLACEMENT_3D('',#1847,#1530,#1531);
#1321=AXIS2_PLACEMENT_3D('',#1848,#1532,#1533);
#1322=AXIS2_PLACEMENT_3D('',#1850,#1534,#1535);
#1323=AXIS2_PLACEMENT_3D('',#1852,#1536,#1537);
#1324=AXIS2_PLACEMENT_3D('',#1853,#1538,#1539);
#1325=AXIS2_PLACEMENT_3D('',#1855,#1540,#1541);
#1326=AXIS2_PLACEMENT_3D('',#1857,#1542,#1543);
#1327=AXIS2_PLACEMENT_3D('',#1858,#1544,#1545);
#1328=AXIS2_PLACEMENT_3D('',#1910,#1572,#1573);
#1329=AXIS2_PLACEMENT_3D('',#1912,#1575,#1576);
#1330=AXIS2_PLACEMENT_3D('',#1914,#1578,#1579);
#1331=AXIS2_PLACEMENT_3D('',#1915,#1580,#1581);
#1332=AXIS2_PLACEMENT_3D('',#1917,#1582,#1583);
#1333=AXIS2_PLACEMENT_3D('',#1966,#1608,#1609);
#1334=AXIS2_PLACEMENT_3D('',#1969,#1612,#1613);
#1335=AXIS2_PLACEMENT_3D('',#1971,#1615,#1616);
#1336=AXIS2_PLACEMENT_3D('',#1973,#1618,#1619);
#1337=AXIS2_PLACEMENT_3D('',#1975,#1621,#1622);
#1338=AXIS2_PLACEMENT_3D('',#1977,#1624,#1625);
#1339=AXIS2_PLACEMENT_3D('',#1978,#1626,#1627);
#1340=AXIS2_PLACEMENT_3D('',#1981,#1630,#1631);
#1341=AXIS2_PLACEMENT_3D('',#1983,#1633,#1634);
#1342=AXIS2_PLACEMENT_3D('',#1985,#1636,#1637);
#1343=AXIS2_PLACEMENT_3D('',#1987,#1639,#1640);
#1344=AXIS2_PLACEMENT_3D('',#1989,#1642,#1643);
#1345=AXIS2_PLACEMENT_3D('',#1990,#1644,#1645);
#1346=AXIS2_PLACEMENT_3D('',#1993,#1648,#1649);
#1347=AXIS2_PLACEMENT_3D('',#1995,#1651,#1652);
#1348=AXIS2_PLACEMENT_3D('',#1997,#1654,#1655);
#1349=AXIS2_PLACEMENT_3D('',#1999,#1657,#1658);
#1350=AXIS2_PLACEMENT_3D('',#2001,#1660,#1661);
#1351=AXIS2_PLACEMENT_3D('',#2002,#1662,#1663);
#1352=AXIS2_PLACEMENT_3D('',#2005,#1666,#1667);
#1353=AXIS2_PLACEMENT_3D('',#2007,#1669,#1670);
#1354=AXIS2_PLACEMENT_3D('',#2009,#1672,#1673);
#1355=AXIS2_PLACEMENT_3D('',#2011,#1675,#1676);
#1356=AXIS2_PLACEMENT_3D('',#2013,#1678,#1679);
#1357=AXIS2_PLACEMENT_3D('',#2014,#1680,#1681);
#1358=AXIS2_PLACEMENT_3D('',#2015,#1682,#1683);
#1359=AXIS2_PLACEMENT_3D('',#2017,#1684,#1685);
#1360=AXIS2_PLACEMENT_3D('',#2019,#1686,#1687);
#1361=AXIS2_PLACEMENT_3D('',#2020,#1688,#1689);
#1362=AXIS2_PLACEMENT_3D('',#2022,#1690,#1691);
#1363=AXIS2_PLACEMENT_3D('',#2023,#1692,#1693);
#1364=DIRECTION('',(0.,0.,1.));
#1365=DIRECTION('',(1.,0.,0.));
#1366=DIRECTION('',(0.,0.,-1.));
#1367=DIRECTION('',(-1.,0.,0.));
#1368=DIRECTION('',(0.,0.,1.));
#1369=DIRECTION('',(1.,0.,0.));
#1370=DIRECTION('',(0.,0.,1.));
#1371=DIRECTION('',(1.,0.,0.));
#1372=DIRECTION('',(0.,0.,-1.));
#1373=DIRECTION('',(-1.,0.,0.));
#1374=DIRECTION('',(0.,0.,1.));
#1375=DIRECTION('',(1.,0.,0.));
#1376=DIRECTION('',(0.,0.,1.));
#1377=DIRECTION('',(1.,0.,0.));
#1378=DIRECTION('',(0.,0.,-1.));
#1379=DIRECTION('',(-1.,0.,0.));
#1380=DIRECTION('',(0.,0.,1.));
#1381=DIRECTION('',(1.,0.,0.));
#1382=DIRECTION('',(0.,0.,1.));
#1383=DIRECTION('',(1.,0.,0.));
#1384=DIRECTION('',(0.,0.,-1.));
#1385=DIRECTION('',(-1.,0.,0.));
#1386=DIRECTION('',(0.,0.,1.));
#1387=DIRECTION('',(1.,0.,0.));
#1388=DIRECTION('',(0.,0.,1.));
#1389=DIRECTION('',(1.,0.,0.));
#1390=DIRECTION('',(0.,0.,-1.));
#1391=DIRECTION('',(-1.,0.,0.));
#1392=DIRECTION('',(0.,0.,1.));
#1393=DIRECTION('',(1.,0.,0.));
#1394=DIRECTION('',(0.,0.,1.));
#1395=DIRECTION('',(1.,0.,0.));
#1396=DIRECTION('',(0.,0.,-1.));
#1397=DIRECTION('',(-1.,0.,0.));
#1398=DIRECTION('',(0.,0.,1.));
#1399=DIRECTION('',(1.,0.,0.));
#1400=DIRECTION('',(0.,0.,1.));
#1401=DIRECTION('',(1.,0.,0.));
#1402=DIRECTION('',(0.,0.,1.));
#1403=DIRECTION('',(1.,0.,0.));
#1404=DIRECTION('',(1.,0.,0.));
#1405=DIRECTION('',(-1.9787549092229E-16,1.,0.));
#1406=DIRECTION('',(1.,0.,0.));
#1407=DIRECTION('',(-1.9787549092229E-16,1.,0.));
#1408=DIRECTION('',(0.,0.,1.));
#1409=DIRECTION('',(1.,0.,0.));
#1410=DIRECTION('',(0.,1.,0.));
#1411=DIRECTION('',(1.,0.,0.));
#1412=DIRECTION('',(0.,1.,0.));
#1413=DIRECTION('',(1.,0.,0.));
#1414=DIRECTION('',(0.,1.,0.));
#1415=DIRECTION('',(0.,0.,1.));
#1416=DIRECTION('',(0.,0.,-1.));
#1417=DIRECTION('',(1.,0.,0.));
#1418=DIRECTION('',(0.,0.,-1.));
#1419=DIRECTION('',(-1.,-1.9787549092229E-16,0.));
#1420=DIRECTION('',(1.9787549092229E-16,-1.,0.));
#1421=DIRECTION('',(-1.9787549092229E-16,1.,0.));
#1422=DIRECTION('',(0.,0.,-1.));
#1423=DIRECTION('',(0.,1.,0.));
#1424=DIRECTION('',(0.,0.,1.));
#1425=DIRECTION('',(0.,0.,-1.));
#1426=DIRECTION('',(1.,0.,0.));
#1427=DIRECTION('',(-1.,-1.9787549092229E-16,0.));
#1428=DIRECTION('',(1.9787549092229E-16,-1.,0.));
#1429=DIRECTION('',(-1.9787549092229E-16,1.,0.));
#1430=DIRECTION('',(-1.,0.,0.));
#1431=DIRECTION('',(0.,0.,1.));
#1432=DIRECTION('',(0.,0.,-1.));
#1433=DIRECTION('',(0.,1.,0.));
#1434=DIRECTION('',(0.,0.,-1.));
#1435=DIRECTION('',(0.,1.,0.));
#1436=DIRECTION('',(0.,0.,1.));
#1437=DIRECTION('',(0.,0.,-1.));
#1438=DIRECTION('',(1.,0.,0.));
#1439=DIRECTION('',(-1.,0.,0.));
#1440=DIRECTION('',(0.,0.,1.));
#1441=DIRECTION('',(0.,0.,-1.));
#1442=DIRECTION('',(0.,1.,0.));
#1443=DIRECTION('',(0.,1.,0.));
#1444=DIRECTION('',(0.,0.,1.));
#1445=DIRECTION('',(1.,0.,0.));
#1446=DIRECTION('',(0.,0.,1.));
#1447=DIRECTION('',(1.,0.,0.));
#1448=DIRECTION('',(0.,0.,1.));
#1449=DIRECTION('',(1.,0.,0.));
#1450=DIRECTION('',(0.,0.,1.));
#1451=DIRECTION('',(1.,0.,0.));
#1452=DIRECTION('',(0.,0.,1.));
#1453=DIRECTION('',(1.,0.,0.));
#1454=DIRECTION('',(0.,0.,1.));
#1455=DIRECTION('',(1.,0.,0.));
#1456=DIRECTION('',(0.,0.,1.));
#1457=DIRECTION('',(1.,0.,0.));
#1458=DIRECTION('',(0.,0.,1.));
#1459=DIRECTION('',(1.,0.,0.));
#1460=DIRECTION('',(0.,0.,1.));
#1461=DIRECTION('',(1.,0.,0.));
#1462=DIRECTION('',(0.,0.,1.));
#1463=DIRECTION('',(1.,0.,0.));
#1464=DIRECTION('',(0.,0.,1.));
#1465=DIRECTION('',(1.,0.,0.));
#1466=DIRECTION('',(0.,0.,1.));
#1467=DIRECTION('',(1.,0.,0.));
#1468=DIRECTION('',(0.,0.,1.));
#1469=DIRECTION('',(1.,0.,0.));
#1470=DIRECTION('',(0.,0.,1.));
#1471=DIRECTION('',(1.,0.,0.));
#1472=DIRECTION('',(0.,0.,1.));
#1473=DIRECTION('',(1.,0.,0.));
#1474=DIRECTION('',(0.,0.,1.));
#1475=DIRECTION('',(1.,0.,0.));
#1476=DIRECTION('',(0.,0.,1.));
#1477=DIRECTION('',(1.,0.,0.));
#1478=DIRECTION('',(0.,0.,1.));
#1479=DIRECTION('',(1.,0.,0.));
#1480=DIRECTION('',(0.,0.,1.));
#1481=DIRECTION('',(1.,0.,0.));
#1482=DIRECTION('',(0.,0.,-1.));
#1483=DIRECTION('',(-1.,0.,0.));
#1484=DIRECTION('',(0.,0.,1.));
#1485=DIRECTION('',(1.,0.,0.));
#1486=DIRECTION('',(0.,0.,1.));
#1487=DIRECTION('',(1.,0.,0.));
#1488=DIRECTION('',(0.,0.,1.));
#1489=DIRECTION('',(1.,0.,0.));
#1490=DIRECTION('',(0.,0.,1.));
#1491=DIRECTION('',(1.,0.,0.));
#1492=DIRECTION('',(0.,0.,1.));
#1493=DIRECTION('',(1.,0.,0.));
#1494=DIRECTION('',(0.,0.,1.));
#1495=DIRECTION('',(1.,0.,0.));
#1496=DIRECTION('',(0.,0.,1.));
#1497=DIRECTION('',(1.,0.,0.));
#1498=DIRECTION('',(0.,0.,-1.));
#1499=DIRECTION('',(-1.,0.,0.));
#1500=DIRECTION('',(-1.1311545214021E-15,1.,0.));
#1501=DIRECTION('',(-1.,-1.1311545214021E-15,0.));
#1502=DIRECTION('',(1.,0.,0.));
#1503=DIRECTION('',(0.,0.,-1.));
#1504=DIRECTION('',(1.,0.,0.));
#1505=DIRECTION('',(0.,0.,-1.));
#1506=DIRECTION('',(1.27254883657736E-15,-1.,0.));
#1507=DIRECTION('',(1.,1.27254883657736E-15,0.));
#1508=DIRECTION('',(1.,0.,0.));
#1509=DIRECTION('',(0.,0.,-1.));
#1510=DIRECTION('',(1.,0.,0.));
#1511=DIRECTION('',(0.,0.,-1.));
#1512=DIRECTION('',(0.,0.,-1.));
#1513=DIRECTION('',(-1.,0.,0.));
#1514=DIRECTION('',(0.,0.,1.));
#1515=DIRECTION('',(1.,0.,0.));
#1516=DIRECTION('',(0.,0.,1.));
#1517=DIRECTION('',(1.,0.,0.));
#1518=DIRECTION('',(0.,0.,-1.));
#1519=DIRECTION('',(-1.,0.,0.));
#1520=DIRECTION('',(0.,0.,1.));
#1521=DIRECTION('',(1.,0.,0.));
#1522=DIRECTION('',(0.,0.,1.));
#1523=DIRECTION('',(1.,0.,0.));
#1524=DIRECTION('',(0.,0.,-1.));
#1525=DIRECTION('',(-1.,0.,0.));
#1526=DIRECTION('',(0.,0.,1.));
#1527=DIRECTION('',(1.,0.,0.));
#1528=DIRECTION('',(0.,0.,1.));
#1529=DIRECTION('',(1.,0.,0.));
#1530=DIRECTION('',(0.,0.,-1.));
#1531=DIRECTION('',(-1.,0.,0.));
#1532=DIRECTION('',(0.,0.,1.));
#1533=DIRECTION('',(1.,0.,0.));
#1534=DIRECTION('',(0.,0.,1.));
#1535=DIRECTION('',(1.,0.,0.));
#1536=DIRECTION('',(0.,0.,-1.));
#1537=DIRECTION('',(-1.,0.,0.));
#1538=DIRECTION('',(0.,0.,1.));
#1539=DIRECTION('',(1.,0.,0.));
#1540=DIRECTION('',(0.,0.,1.));
#1541=DIRECTION('',(1.,0.,0.));
#1542=DIRECTION('',(0.,0.,1.));
#1543=DIRECTION('',(1.,0.,0.));
#1544=DIRECTION('',(0.,0.,1.));
#1545=DIRECTION('',(1.,0.,0.));
#1546=DIRECTION('',(1.,0.,0.));
#1547=DIRECTION('',(0.5,0.86602540378444,0.));
#1548=DIRECTION('',(-0.5,0.866025403784439,0.));
#1549=DIRECTION('',(-1.,0.,0.));
#1550=DIRECTION('',(-0.5,-0.866025403784438,0.));
#1551=DIRECTION('',(0.5,-0.866025403784439,0.));
#1552=DIRECTION('',(0.5,-0.86602540378444,0.));
#1553=DIRECTION('',(1.,-2.03703674405038E-15,0.));
#1554=DIRECTION('',(0.5,0.866025403784438,0.));
#1555=DIRECTION('',(-0.5,0.866025403784438,0.));
#1556=DIRECTION('',(-1.,1.01851837202519E-15,0.));
#1557=DIRECTION('',(-0.5,-0.866025403784438,0.));
#1558=DIRECTION('',(-1.,4.07407348810078E-15,0.));
#1559=DIRECTION('',(-0.5,-0.866025403784437,0.));
#1560=DIRECTION('',(0.5,-0.866025403784442,0.));
#1561=DIRECTION('',(1.,-4.07407348810076E-15,0.));
#1562=DIRECTION('',(0.5,0.866025403784436,0.));
#1563=DIRECTION('',(-0.5,0.86602540378444,0.));
#1564=DIRECTION('',(-0.5,0.866025403784438,0.));
#1565=DIRECTION('',(-1.,0.,0.));
#1566=DIRECTION('',(-0.499999999999994,-0.866025403784442,0.));
#1567=DIRECTION('',(0.5,-0.866025403784439,0.));
#1568=DIRECTION('',(1.,0.,0.));
#1569=DIRECTION('',(0.5,0.866025403784438,0.));
#1570=DIRECTION('',(0.,-1.,0.));
#1571=DIRECTION('',(0.,1.,0.));
#1572=DIRECTION('',(-1.,0.,0.));
#1573=DIRECTION('',(0.,0.,1.));
#1574=DIRECTION('',(0.,1.,0.));
#1575=DIRECTION('',(1.,0.,0.));
#1576=DIRECTION('',(0.,0.,-1.));
#1577=DIRECTION('',(0.,-1.,0.));
#1578=DIRECTION('',(0.,0.,-1.));
#1579=DIRECTION('',(-1.,0.,0.));
#1580=DIRECTION('',(0.,0.,1.));
#1581=DIRECTION('',(1.,0.,0.));
#1582=DIRECTION('',(0.,0.,1.));
#1583=DIRECTION('',(1.,0.,0.));
#1584=DIRECTION('',(0.5,0.86602540378444,0.));
#1585=DIRECTION('',(1.,0.,0.));
#1586=DIRECTION('',(0.5,-0.866025403784439,0.));
#1587=DIRECTION('',(-0.5,-0.866025403784438,0.));
#1588=DIRECTION('',(-1.,0.,0.));
#1589=DIRECTION('',(-0.5,0.866025403784439,0.));
#1590=DIRECTION('',(1.,-2.03703674405038E-15,0.));
#1591=DIRECTION('',(0.5,-0.86602540378444,0.));
#1592=DIRECTION('',(-0.5,-0.866025403784438,0.));
#1593=DIRECTION('',(-1.,1.01851837202519E-15,0.));
#1594=DIRECTION('',(-0.5,0.866025403784438,0.));
#1595=DIRECTION('',(0.5,0.866025403784438,0.));
#1596=DIRECTION('',(-0.5,-0.866025403784437,0.));
#1597=DIRECTION('',(-1.,4.07407348810078E-15,0.));
#1598=DIRECTION('',(-0.5,0.86602540378444,0.));
#1599=DIRECTION('',(0.5,0.866025403784436,0.));
#1600=DIRECTION('',(1.,-4.07407348810076E-15,0.));
#1601=DIRECTION('',(0.5,-0.866025403784442,0.));
#1602=DIRECTION('',(-1.,0.,0.));
#1603=DIRECTION('',(-0.5,0.866025403784438,0.));
#1604=DIRECTION('',(0.5,0.866025403784438,0.));
#1605=DIRECTION('',(1.,0.,0.));
#1606=DIRECTION('',(0.5,-0.866025403784439,0.));
#1607=DIRECTION('',(-0.499999999999994,-0.866025403784442,0.));
#1608=DIRECTION('',(0.,1.,0.));
#1609=DIRECTION('',(0.,0.,1.));
#1610=DIRECTION('',(0.,0.,1.));
#1611=DIRECTION('',(0.,0.,1.));
#1612=DIRECTION('',(-0.866025403784442,0.499999999999994,0.));
#1613=DIRECTION('',(-0.499999999999994,-0.866025403784442,0.));
#1614=DIRECTION('',(0.,0.,1.));
#1615=DIRECTION('',(-0.866025403784439,-0.5,0.));
#1616=DIRECTION('',(0.5,-0.866025403784439,0.));
#1617=DIRECTION('',(0.,0.,1.));
#1618=DIRECTION('',(0.,-1.,0.));
#1619=DIRECTION('',(0.,0.,-1.));
#1620=DIRECTION('',(0.,0.,1.));
#1621=DIRECTION('',(0.866025403784438,-0.5,0.));
#1622=DIRECTION('',(0.5,0.866025403784438,0.));
#1623=DIRECTION('',(0.,0.,1.));
#1624=DIRECTION('',(0.866025403784438,0.5,0.));
#1625=DIRECTION('',(-0.5,0.866025403784438,0.));
#1626=DIRECTION('',(-0.866025403784437,0.5,0.));
#1627=DIRECTION('',(-0.5,-0.866025403784437,0.));
#1628=DIRECTION('',(0.,0.,1.));
#1629=DIRECTION('',(0.,0.,1.));
#1630=DIRECTION('',(-0.866025403784442,-0.5,0.));
#1631=DIRECTION('',(0.5,-0.866025403784442,0.));
#1632=DIRECTION('',(0.,0.,1.));
#1633=DIRECTION('',(-4.07407348810076E-15,-1.,0.));
#1634=DIRECTION('',(1.,-4.07407348810076E-15,0.));
#1635=DIRECTION('',(0.,0.,1.));
#1636=DIRECTION('',(0.866025403784436,-0.5,0.));
#1637=DIRECTION('',(0.5,0.866025403784436,0.));
#1638=DIRECTION('',(0.,0.,1.));
#1639=DIRECTION('',(0.86602540378444,0.5,0.));
#1640=DIRECTION('',(-0.5,0.86602540378444,0.));
#1641=DIRECTION('',(0.,0.,1.));
#1642=DIRECTION('',(4.07407348810078E-15,1.,0.));
#1643=DIRECTION('',(-1.,4.07407348810078E-15,0.));
#1644=DIRECTION('',(-2.03703674405038E-15,-1.,0.));
#1645=DIRECTION('',(1.,-2.03703674405038E-15,0.));
#1646=DIRECTION('',(0.,0.,1.));
#1647=DIRECTION('',(0.,0.,1.));
#1648=DIRECTION('',(0.866025403784438,-0.5,0.));
#1649=DIRECTION('',(0.5,0.866025403784438,0.));
#1650=DIRECTION('',(0.,0.,1.));
#1651=DIRECTION('',(0.866025403784438,0.5,0.));
#1652=DIRECTION('',(-0.5,0.866025403784438,0.));
#1653=DIRECTION('',(0.,0.,1.));
#1654=DIRECTION('',(1.01851837202519E-15,1.,0.));
#1655=DIRECTION('',(-1.,1.01851837202519E-15,0.));
#1656=DIRECTION('',(0.,0.,1.));
#1657=DIRECTION('',(-0.866025403784438,0.5,0.));
#1658=DIRECTION('',(-0.5,-0.866025403784438,0.));
#1659=DIRECTION('',(0.,0.,1.));
#1660=DIRECTION('',(-0.86602540378444,-0.5,0.));
#1661=DIRECTION('',(0.5,-0.86602540378444,0.));
#1662=DIRECTION('',(0.86602540378444,-0.5,0.));
#1663=DIRECTION('',(0.5,0.86602540378444,0.));
#1664=DIRECTION('',(0.,0.,1.));
#1665=DIRECTION('',(0.,0.,1.));
#1666=DIRECTION('',(0.866025403784439,0.5,0.));
#1667=DIRECTION('',(-0.5,0.866025403784439,0.));
#1668=DIRECTION('',(0.,0.,1.));
#1669=DIRECTION('',(0.,1.,0.));
#1670=DIRECTION('',(0.,0.,1.));
#1671=DIRECTION('',(0.,0.,1.));
#1672=DIRECTION('',(-0.866025403784438,0.5,0.));
#1673=DIRECTION('',(-0.5,-0.866025403784438,0.));
#1674=DIRECTION('',(0.,0.,1.));
#1675=DIRECTION('',(-0.866025403784439,-0.5,0.));
#1676=DIRECTION('',(0.5,-0.866025403784439,0.));
#1677=DIRECTION('',(0.,0.,1.));
#1678=DIRECTION('',(0.,-1.,0.));
#1679=DIRECTION('',(0.,0.,-1.));
#1680=DIRECTION('',(0.,0.,1.));
#1681=DIRECTION('',(1.,0.,0.));
#1682=DIRECTION('',(0.,0.,1.));
#1683=DIRECTION('',(1.,0.,0.));
#1684=DIRECTION('',(0.,0.,-1.));
#1685=DIRECTION('',(-1.,0.,0.));
#1686=DIRECTION('',(0.,0.,1.));
#1687=DIRECTION('',(1.,0.,0.));
#1688=DIRECTION('',(0.,0.,-1.));
#1689=DIRECTION('',(-1.,0.,0.));
#1690=DIRECTION('',(0.,0.,-1.));
#1691=DIRECTION('',(1.,0.,0.));
#1692=DIRECTION('',(0.,0.,1.));
#1693=DIRECTION('',(1.,0.,0.));
#1694=CARTESIAN_POINT('',(0.,0.,0.));
#1695=CARTESIAN_POINT('',(0.0462517739962119,-0.122224533910501,0.04));
#1696=CARTESIAN_POINT('',(0.0462517739962119,-0.122224533910501,0.));
#1697=CARTESIAN_POINT('',(0.0492517739962119,-0.122224533910501,0.));
#1698=CARTESIAN_POINT('',(0.0462517739962119,-0.122224533910501,0.03));
#1699=CARTESIAN_POINT('',(0.0492517739962119,-0.122224533910501,0.03));
#1700=CARTESIAN_POINT('',(0.0462517739962119,-0.0457098152847401,0.04));
#1701=CARTESIAN_POINT('',(0.0462517739962119,-0.0457098152847401,0.));
#1702=CARTESIAN_POINT('',(0.0492517739962119,-0.0457098152847401,0.));
#1703=CARTESIAN_POINT('',(0.0462517739962119,-0.0457098152847401,0.03));
#1704=CARTESIAN_POINT('',(0.0492517739962119,-0.0457098152847401,0.03));
#1705=CARTESIAN_POINT('',(-0.10526294462955,-0.0457098152847401,0.04));
#1706=CARTESIAN_POINT('',(-0.10526294462955,-0.0457098152847401,0.));
#1707=CARTESIAN_POINT('',(-0.10226294462955,-0.0457098152847401,0.));
#1708=CARTESIAN_POINT('',(-0.10526294462955,-0.0457098152847401,0.03));
#1709=CARTESIAN_POINT('',(-0.10226294462955,-0.0457098152847401,0.03));
#1710=CARTESIAN_POINT('',(-0.10526294462955,-0.122224533910501,0.04));
#1711=CARTESIAN_POINT('',(-0.10526294462955,-0.122224533910501,0.));
#1712=CARTESIAN_POINT('',(-0.10226294462955,-0.122224533910501,0.));
#1713=CARTESIAN_POINT('',(-0.10526294462955,-0.122224533910501,0.03));
#1714=CARTESIAN_POINT('',(-0.10226294462955,-0.122224533910501,0.03));
#1715=CARTESIAN_POINT('',(0.0104944146833311,-0.0839671745976208,0.005));
#1716=CARTESIAN_POINT('',(0.0104944146833311,-0.0839671745976208,0.005));
#1717=CARTESIAN_POINT('',(0.0215944146833311,-0.0839671745976208,0.005));
#1718=CARTESIAN_POINT('',(0.0104944146833311,-0.0839671745976208,0.));
#1719=CARTESIAN_POINT('',(0.0215944146833311,-0.0839671745976208,0.));
#1720=CARTESIAN_POINT('',(-0.0595055853166689,-0.0839671745976208,0.005));
#1721=CARTESIAN_POINT('',(-0.0595055853166689,-0.0839671745976208,0.005));
#1722=CARTESIAN_POINT('',(-0.0304055853166689,-0.0839671745976208,0.005));
#1723=CARTESIAN_POINT('',(-0.0595055853166689,-0.0839671745976208,0.));
#1724=CARTESIAN_POINT('',(-0.0304055853166689,-0.0839671745976208,0.));
#1725=CARTESIAN_POINT('',(-0.0295055853166689,-0.0839671745976208,0.005));
#1726=CARTESIAN_POINT('',(-0.0295055853166689,-0.119034144597621,0.005));
#1727=CARTESIAN_POINT('',(-0.102072555316669,-0.119034144597621,0.005));
#1728=CARTESIAN_POINT('',(0.0430613846833311,-0.119034144597621,0.005));
#1729=CARTESIAN_POINT('',(0.0430613846833311,-0.0839671745976208,0.005));
#1730=CARTESIAN_POINT('',(0.0430613846833311,-0.0489002045976208,0.005));
#1731=CARTESIAN_POINT('',(-0.0295055853166689,-0.0489002045976208,0.005));
#1732=CARTESIAN_POINT('',(-0.102072555316669,-0.0489002045976208,0.005));
#1733=CARTESIAN_POINT('',(-0.102072555316669,-0.0839671745976208,0.005));
#1734=CARTESIAN_POINT('',(-0.0295055853166689,-0.0839671745976208,0.));
#1735=CARTESIAN_POINT('',(-0.109505585316669,-0.0839671745976208,0.));
#1736=CARTESIAN_POINT('',(-0.109505585316669,-0.126467174597621,0.));
#1737=CARTESIAN_POINT('',(-0.109505585316669,-0.0414671745976208,0.));
#1738=CARTESIAN_POINT('',(-0.0295055853166689,-0.0414671745976208,0.));
#1739=CARTESIAN_POINT('',(0.0504944146833312,-0.0414671745976208,0.));
#1740=CARTESIAN_POINT('',(0.0504944146833312,-0.0839671745976208,0.));
#1741=CARTESIAN_POINT('',(0.0504944146833311,-0.126467174597621,0.));
#1742=CARTESIAN_POINT('',(-0.0295055853166689,-0.126467174597621,0.));
#1743=CARTESIAN_POINT('',(-0.0295055853166689,-0.119034144597621,0.04));
#1744=CARTESIAN_POINT('',(-0.102072555316669,-0.119034144597621,0.04));
#1745=CARTESIAN_POINT('',(-0.102072555316669,-0.119034144597621,0.04));
#1746=CARTESIAN_POINT('',(-0.0295055853166689,-0.119034144597621,0.04));
#1747=CARTESIAN_POINT('',(0.0430613846833311,-0.119034144597621,0.04));
#1748=CARTESIAN_POINT('',(0.0430613846833311,-0.119034144597621,0.04));
#1749=CARTESIAN_POINT('',(0.0430613846833311,-0.0839671745976208,0.04));
#1750=CARTESIAN_POINT('',(0.0430613846833311,-0.0839671745976208,0.04));
#1751=CARTESIAN_POINT('',(0.0430613846833311,-0.0489002045976208,0.04));
#1752=CARTESIAN_POINT('',(0.0430613846833311,-0.0489002045976208,0.04));
#1753=CARTESIAN_POINT('',(-0.0295055853166689,-0.0489002045976208,0.04));
#1754=CARTESIAN_POINT('',(-0.102072555316669,-0.0489002045976208,0.04));
#1755=CARTESIAN_POINT('',(-0.102072555316669,-0.0489002045976208,0.04));
#1756=CARTESIAN_POINT('',(-0.0295055853166689,-0.0489002045976208,0.04));
#1757=CARTESIAN_POINT('',(-0.102072555316669,-0.0839671745976208,0.04));
#1758=CARTESIAN_POINT('',(-0.102072555316669,-0.0839671745976208,0.04));
#1759=CARTESIAN_POINT('',(-0.109505585316669,-0.0839671745976208,0.04));
#1760=CARTESIAN_POINT('',(-0.109505585316669,-0.126467174597621,0.04));
#1761=CARTESIAN_POINT('',(-0.109505585316669,-0.126467174597621,0.04));
#1762=CARTESIAN_POINT('',(-0.109505585316669,-0.0839671745976208,0.04));
#1763=CARTESIAN_POINT('',(-0.109505585316669,-0.0414671745976208,0.04));
#1764=CARTESIAN_POINT('',(-0.109505585316669,-0.0414671745976208,0.04));
#1765=CARTESIAN_POINT('',(-0.0295055853166689,-0.126467174597621,0.04));
#1766=CARTESIAN_POINT('',(0.0504944146833311,-0.126467174597621,0.04));
#1767=CARTESIAN_POINT('',(0.0504944146833311,-0.126467174597621,0.04));
#1768=CARTESIAN_POINT('',(-0.0295055853166689,-0.126467174597621,0.04));
#1769=CARTESIAN_POINT('',(0.0504944146833312,-0.0839671745976208,0.04));
#1770=CARTESIAN_POINT('',(0.0504944146833312,-0.0414671745976208,0.04));
#1771=CARTESIAN_POINT('',(0.0504944146833312,-0.0414671745976208,0.04));
#1772=CARTESIAN_POINT('',(0.0504944146833312,-0.0839671745976208,0.04));
#1773=CARTESIAN_POINT('',(-0.0295055853166689,-0.0414671745976208,0.04));
#1774=CARTESIAN_POINT('',(-0.0295055853166689,-0.0414671745976208,0.04));
#1775=CARTESIAN_POINT('',(-0.0295055853166689,-0.0839671745976208,0.04));
#1776=CARTESIAN_POINT('',(-0.10526294462955,-0.122224533910501,0.04));
#1777=CARTESIAN_POINT('',(-0.10351294462955,-0.122224533910501,0.04));
#1778=CARTESIAN_POINT('',(-0.10526294462955,-0.0457098152847401,0.04));
#1779=CARTESIAN_POINT('',(-0.10351294462955,-0.0457098152847401,0.04));
#1780=CARTESIAN_POINT('',(0.0462517739962119,-0.0457098152847401,0.04));
#1781=CARTESIAN_POINT('',(0.0480017739962119,-0.0457098152847401,0.04));
#1782=CARTESIAN_POINT('',(0.0462517739962119,-0.122224533910501,0.04));
#1783=CARTESIAN_POINT('',(0.0480017739962119,-0.122224533910501,0.04));
#1784=CARTESIAN_POINT('',(-0.10526294462955,-0.122224533910501,0.03));
#1785=CARTESIAN_POINT('',(-0.10526294462955,-0.122224533910501,0.03));
#1786=CARTESIAN_POINT('',(-0.10351294462955,-0.122224533910501,0.03));
#1787=CARTESIAN_POINT('',(-0.0295055853166689,-0.0839671745976208,0.03));
#1788=CARTESIAN_POINT('',(-0.10526294462955,-0.0457098152847401,0.03));
#1789=CARTESIAN_POINT('',(-0.10526294462955,-0.0457098152847401,0.03));
#1790=CARTESIAN_POINT('',(-0.10351294462955,-0.0457098152847401,0.03));
#1791=CARTESIAN_POINT('',(-0.0295055853166689,-0.0839671745976208,0.03));
#1792=CARTESIAN_POINT('',(0.0462517739962119,-0.0457098152847401,0.03));
#1793=CARTESIAN_POINT('',(0.0462517739962119,-0.0457098152847401,0.03));
#1794=CARTESIAN_POINT('',(0.0480017739962119,-0.0457098152847401,0.03));
#1795=CARTESIAN_POINT('',(-0.0295055853166689,-0.0839671745976208,0.03));
#1796=CARTESIAN_POINT('',(0.0462517739962119,-0.122224533910501,0.03));
#1797=CARTESIAN_POINT('',(0.0462517739962119,-0.122224533910501,0.03));
#1798=CARTESIAN_POINT('',(0.0480017739962119,-0.122224533910501,0.03));
#1799=CARTESIAN_POINT('',(-0.0295055853166689,-0.0839671745976208,0.03));
#1800=CARTESIAN_POINT('',(0.,0.,0.));
#1801=CARTESIAN_POINT('',(-0.141754537820816,0.0839780792593956,0.063));
#1802=CARTESIAN_POINT('',(-0.141754537820816,0.0839780792593956,0.063));
#1803=CARTESIAN_POINT('',(-0.137854537820816,0.0839780792593956,0.063));
#1804=CARTESIAN_POINT('',(-0.141754537820816,0.0839780792593956,0.003));
#1805=CARTESIAN_POINT('',(-0.137854537820816,0.0839780792593956,0.003));
#1806=CARTESIAN_POINT('',(-0.106551801407001,0.0544390396296978,0.063));
#1807=CARTESIAN_POINT('',(-0.106551801407001,0.0544390396296978,0.003));
#1808=CARTESIAN_POINT('',(0.,0.,0.));
#1809=CARTESIAN_POINT('',(0.0393196282270928,0.021,-0.004));
#1810=CARTESIAN_POINT('',(0.0280135485662542,0.021,-0.004));
#1811=CARTESIAN_POINT('',(0.0391135485662542,0.021,-0.004));
#1812=CARTESIAN_POINT('',(0.0280135485662542,0.021,-0.004));
#1813=CARTESIAN_POINT('',(0.0129135485662542,0.021,-0.004));
#1814=CARTESIAN_POINT('',(-0.0429116785526276,0.0635,0.));
#1815=CARTESIAN_POINT('',(-0.0119864514337458,0.0635,0.003));
#1816=CARTESIAN_POINT('',(-0.0919864514337458,0.0635,0.003));
#1817=CARTESIAN_POINT('',(0.0680135485662542,0.0635,0.003));
#1818=CARTESIAN_POINT('',(-0.0919864514337458,0.0635,0.0055));
#1819=CARTESIAN_POINT('',(-0.0919864514337458,0.0635,0.0055));
#1820=CARTESIAN_POINT('',(-0.0119864514337458,0.0635,0.0055));
#1821=CARTESIAN_POINT('',(0.0680135485662542,0.0635,0.0055));
#1822=CARTESIAN_POINT('',(0.0680135485662542,0.0635,0.0055));
#1823=CARTESIAN_POINT('',(-0.0429116785526275,-0.0215,0.));
#1824=CARTESIAN_POINT('',(-0.0119864514337458,-0.0215,0.003));
#1825=CARTESIAN_POINT('',(-0.0919864514337458,-0.0215,0.003));
#1826=CARTESIAN_POINT('',(0.0680135485662542,-0.0215,0.003));
#1827=CARTESIAN_POINT('',(0.0680135485662542,-0.0215,0.0055));
#1828=CARTESIAN_POINT('',(0.0680135485662542,-0.0215,0.0055));
#1829=CARTESIAN_POINT('',(-0.0119864514337458,-0.0215,0.0055));
#1830=CARTESIAN_POINT('',(-0.0919864514337458,-0.0215,0.0055));
#1831=CARTESIAN_POINT('',(-0.0919864514337458,-0.0215,0.0055));
#1832=CARTESIAN_POINT('',(-0.0429116785526275,0.021,0.003));
#1833=CARTESIAN_POINT('',(-0.0429116785526275,0.021,0.003));
#1834=CARTESIAN_POINT('',(-0.0318116785526276,0.021,0.003));
#1835=CARTESIAN_POINT('',(-0.0429116785526275,0.021,0.0055));
#1836=CARTESIAN_POINT('',(-0.0318116785526276,0.021,0.0055));
#1837=CARTESIAN_POINT('',(-0.0586742416855511,0.0367625631329236,0.003));
#1838=CARTESIAN_POINT('',(-0.0586742416855511,0.0367625631329236,0.003));
#1839=CARTESIAN_POINT('',(-0.0566742416855511,0.0367625631329236,0.003));
#1840=CARTESIAN_POINT('',(-0.0586742416855511,0.0367625631329236,0.0055));
#1841=CARTESIAN_POINT('',(-0.0566742416855511,0.0367625631329236,0.0055));
#1842=CARTESIAN_POINT('',(-0.0271491154197041,0.0367625631329236,0.003));
#1843=CARTESIAN_POINT('',(-0.0271491154197041,0.0367625631329236,0.003));
#1844=CARTESIAN_POINT('',(-0.025149115419704,0.0367625631329236,0.003));
#1845=CARTESIAN_POINT('',(-0.0271491154197041,0.0367625631329236,0.0055));
#1846=CARTESIAN_POINT('',(-0.025149115419704,0.0367625631329236,0.0055));
#1847=CARTESIAN_POINT('',(-0.0271491154197041,0.00523743686707646,0.003));
#1848=CARTESIAN_POINT('',(-0.0271491154197041,0.00523743686707646,0.003));
#1849=CARTESIAN_POINT('',(-0.025149115419704,0.00523743686707646,0.003));
#1850=CARTESIAN_POINT('',(-0.0271491154197041,0.00523743686707646,0.0055));
#1851=CARTESIAN_POINT('',(-0.025149115419704,0.00523743686707646,0.0055));
#1852=CARTESIAN_POINT('',(-0.0586742416855511,0.00523743686707646,0.003));
#1853=CARTESIAN_POINT('',(-0.0586742416855511,0.00523743686707646,0.003));
#1854=CARTESIAN_POINT('',(-0.0566742416855511,0.00523743686707646,0.003));
#1855=CARTESIAN_POINT('',(-0.0586742416855511,0.00523743686707646,0.0055));
#1856=CARTESIAN_POINT('',(-0.0566742416855511,0.00523743686707646,0.0055));
#1857=CARTESIAN_POINT('',(-0.0119864514337458,0.021,0.003));
#1858=CARTESIAN_POINT('',(0.0280135485662542,0.021,0.003));
#1859=CARTESIAN_POINT('',(0.0560135485662542,0.021,0.003));
#1860=CARTESIAN_POINT('',(-0.0119864514337458,0.0563073593128807,0.003));
#1861=CARTESIAN_POINT('',(0.0620677245850255,0.0563073593128807,0.003));
#1862=CARTESIAN_POINT('',(0.0654740911732444,0.0563073593128807,0.003));
#1863=CARTESIAN_POINT('',(0.0308204204687471,-0.00371455901607,0.003));
#1864=CARTESIAN_POINT('',(0.0671772744673538,0.0592573593128807,0.003));
#1865=CARTESIAN_POINT('',(0.0639522655154108,0.0648432386725104,0.003));
#1866=CARTESIAN_POINT('',(0.0654740911732444,0.0622073593128807,0.003));
#1867=CARTESIAN_POINT('',(-0.0119864514337458,0.0622073593128807,0.003));
#1868=CARTESIAN_POINT('',(0.0620677245850256,0.0622073593128807,0.003));
#1869=CARTESIAN_POINT('',(0.0257108705864186,-0.000764559016070011,0.003));
#1870=CARTESIAN_POINT('',(0.0603645412909162,0.0592573593128807,0.003));
#1871=CARTESIAN_POINT('',(0.0588427156330826,0.0618932386725104,0.003));
#1872=CARTESIAN_POINT('',(0.0257108705864189,0.04276455901607,0.003));
#1873=CARTESIAN_POINT('',(0.0603645412909162,-0.0172573593128808,0.003));
#1874=CARTESIAN_POINT('',(0.0620677245850256,-0.0202073593128808,0.003));
#1875=CARTESIAN_POINT('',(-0.0119864514337459,-0.0202073593128806,0.003));
#1876=CARTESIAN_POINT('',(0.0654740911732443,-0.0202073593128808,0.003));
#1877=CARTESIAN_POINT('',(0.0639522655154107,-0.0228432386725104,0.003));
#1878=CARTESIAN_POINT('',(0.0671772744673537,-0.0172573593128808,0.003));
#1879=CARTESIAN_POINT('',(0.0308204204687468,0.04571455901607,0.003));
#1880=CARTESIAN_POINT('',(0.0654740911732443,-0.0143073593128807,0.003));
#1881=CARTESIAN_POINT('',(-0.0119864514337458,-0.0143073593128807,0.003));
#1882=CARTESIAN_POINT('',(0.0620677245850256,-0.0143073593128807,0.003));
#1883=CARTESIAN_POINT('',(0.0588427156330826,-0.0198932386725105,0.003));
#1884=CARTESIAN_POINT('',(-0.0119864514337459,-0.014307359312881,0.003));
#1885=CARTESIAN_POINT('',(-0.0860406274525171,-0.0143073593128808,0.003));
#1886=CARTESIAN_POINT('',(-0.0894469940407359,-0.0143073593128807,0.003));
#1887=CARTESIAN_POINT('',(-0.0547933233362382,0.04571455901607,0.003));
#1888=CARTESIAN_POINT('',(-0.0911501773348453,-0.0172573593128808,0.003));
#1889=CARTESIAN_POINT('',(-0.0879251683829026,-0.0228432386725099,0.003));
#1890=CARTESIAN_POINT('',(-0.0894469940407359,-0.0202073593128808,0.003));
#1891=CARTESIAN_POINT('',(-0.0119864514337459,-0.020207359312881,0.003));
#1892=CARTESIAN_POINT('',(-0.0860406274525171,-0.0202073593128808,0.003));
#1893=CARTESIAN_POINT('',(-0.0496837734539099,0.04276455901607,0.003));
#1894=CARTESIAN_POINT('',(-0.0843374441584077,-0.0172573593128808,0.003));
#1895=CARTESIAN_POINT('',(-0.0828156185005743,-0.0198932386725102,0.003));
#1896=CARTESIAN_POINT('',(-0.0496837734539101,-0.000764559016070015,0.003));
#1897=CARTESIAN_POINT('',(-0.0843374441584077,0.0592573593128807,0.003));
#1898=CARTESIAN_POINT('',(-0.0860406274525171,0.0622073593128807,0.003));
#1899=CARTESIAN_POINT('',(-0.0119864514337458,0.0622073593128807,0.003));
#1900=CARTESIAN_POINT('',(-0.0894469940407359,0.0622073593128807,0.003));
#1901=CARTESIAN_POINT('',(-0.0879251683829026,0.0648432386725098,0.003));
#1902=CARTESIAN_POINT('',(-0.0911501773348453,0.0592573593128807,0.003));
#1903=CARTESIAN_POINT('',(-0.0547933233362385,-0.00371455901607,0.003));
#1904=CARTESIAN_POINT('',(-0.0894469940407359,0.0563073593128807,0.003));
#1905=CARTESIAN_POINT('',(-0.0119864514337458,0.0563073593128807,0.003));
#1906=CARTESIAN_POINT('',(-0.0860406274525171,0.0563073593128807,0.003));
#1907=CARTESIAN_POINT('',(-0.0828156185005741,0.0618932386725105,0.003));
#1908=CARTESIAN_POINT('',(0.0680135485662542,0.021,0.003));
#1909=CARTESIAN_POINT('',(-0.0919864514337458,0.021,0.003));
#1910=CARTESIAN_POINT('',(-0.0919864514337458,0.021,0.0055));
#1911=CARTESIAN_POINT('',(-0.0919864514337458,0.021,0.0055));
#1912=CARTESIAN_POINT('',(0.0680135485662542,0.021,0.0055));
#1913=CARTESIAN_POINT('',(0.0680135485662542,0.021,0.0055));
#1914=CARTESIAN_POINT('',(0.0280135485662542,0.021,0.0055));
#1915=CARTESIAN_POINT('',(0.0280135485662542,0.021,0.0055));
#1916=CARTESIAN_POINT('',(0.0391135485662542,0.021,0.0055));
#1917=CARTESIAN_POINT('',(-0.0119864514337458,0.021,0.0055));
#1918=CARTESIAN_POINT('',(0.0663256828202991,0.0577823593128807,0.0055));
#1919=CARTESIAN_POINT('',(0.0654740911732444,0.0563073593128807,0.0055));
#1920=CARTESIAN_POINT('',(0.0671772744673538,0.0592573593128807,0.0055));
#1921=CARTESIAN_POINT('',(0.063770907879135,0.0563073593128807,0.0055));
#1922=CARTESIAN_POINT('',(0.0620677245850255,0.0563073593128807,0.0055));
#1923=CARTESIAN_POINT('',(0.0612161329379709,0.0577823593128807,0.0055));
#1924=CARTESIAN_POINT('',(0.0603645412909162,0.0592573593128807,0.0055));
#1925=CARTESIAN_POINT('',(0.0612161329379709,0.0607323593128807,0.0055));
#1926=CARTESIAN_POINT('',(0.0620677245850256,0.0622073593128807,0.0055));
#1927=CARTESIAN_POINT('',(0.063770907879135,0.0622073593128807,0.0055));
#1928=CARTESIAN_POINT('',(0.0654740911732444,0.0622073593128807,0.0055));
#1929=CARTESIAN_POINT('',(0.0665538661144084,0.0603371342540448,0.0055));
#1930=CARTESIAN_POINT('',(0.0637709078791349,-0.0202073593128808,0.0055));
#1931=CARTESIAN_POINT('',(0.0620677245850256,-0.0202073593128808,0.0055));
#1932=CARTESIAN_POINT('',(0.0654740911732443,-0.0202073593128808,0.0055));
#1933=CARTESIAN_POINT('',(0.0612161329379709,-0.0187323593128807,0.0055));
#1934=CARTESIAN_POINT('',(0.0603645412909162,-0.0172573593128807,0.0055));
#1935=CARTESIAN_POINT('',(0.0612161329379709,-0.0157823593128808,0.0055));
#1936=CARTESIAN_POINT('',(0.0620677245850256,-0.0143073593128807,0.0055));
#1937=CARTESIAN_POINT('',(0.063770907879135,-0.0143073593128807,0.0055));
#1938=CARTESIAN_POINT('',(0.0654740911732443,-0.0143073593128807,0.0055));
#1939=CARTESIAN_POINT('',(0.066325682820299,-0.0157823593128808,0.0055));
#1940=CARTESIAN_POINT('',(0.0671772744673537,-0.0172573593128808,0.0055));
#1941=CARTESIAN_POINT('',(0.0657022744673537,-0.0198121342540448,0.0055));
#1942=CARTESIAN_POINT('',(-0.0902985856877906,-0.0157823593128808,0.0055));
#1943=CARTESIAN_POINT('',(-0.0894469940407359,-0.0143073593128807,0.0055));
#1944=CARTESIAN_POINT('',(-0.0911501773348453,-0.0172573593128808,0.0055));
#1945=CARTESIAN_POINT('',(-0.0877438107466265,-0.0143073593128807,0.0055));
#1946=CARTESIAN_POINT('',(-0.0860406274525171,-0.0143073593128807,0.0055));
#1947=CARTESIAN_POINT('',(-0.0851890358054624,-0.0157823593128808,0.0055));
#1948=CARTESIAN_POINT('',(-0.0843374441584077,-0.0172573593128808,0.0055));
#1949=CARTESIAN_POINT('',(-0.0851890358054624,-0.0187323593128807,0.0055));
#1950=CARTESIAN_POINT('',(-0.0860406274525171,-0.0202073593128808,0.0055));
#1951=CARTESIAN_POINT('',(-0.0877438107466265,-0.0202073593128808,0.0055));
#1952=CARTESIAN_POINT('',(-0.0894469940407359,-0.0202073593128808,0.0055));
#1953=CARTESIAN_POINT('',(-0.0905267689819,-0.0183371342540449,0.0055));
#1954=CARTESIAN_POINT('',(-0.0877438107466265,0.0622073593128807,0.0055));
#1955=CARTESIAN_POINT('',(-0.0860406274525171,0.0622073593128807,0.0055));
#1956=CARTESIAN_POINT('',(-0.0894469940407359,0.0622073593128807,0.0055));
#1957=CARTESIAN_POINT('',(-0.0851890358054624,0.0607323593128807,0.0055));
#1958=CARTESIAN_POINT('',(-0.0843374441584077,0.0592573593128807,0.0055));
#1959=CARTESIAN_POINT('',(-0.0851890358054624,0.0577823593128807,0.0055));
#1960=CARTESIAN_POINT('',(-0.0860406274525171,0.0563073593128807,0.0055));
#1961=CARTESIAN_POINT('',(-0.0877438107466265,0.0563073593128807,0.0055));
#1962=CARTESIAN_POINT('',(-0.0894469940407359,0.0563073593128807,0.0055));
#1963=CARTESIAN_POINT('',(-0.0902985856877906,0.0577823593128807,0.0055));
#1964=CARTESIAN_POINT('',(-0.0911501773348453,0.0592573593128807,0.0055));
#1965=CARTESIAN_POINT('',(-0.0896751773348452,0.0618121342540448,0.0055));
#1966=CARTESIAN_POINT('',(-0.0877438107466265,0.0622073593128807,-0.0195));
#1967=CARTESIAN_POINT('',(-0.0860406274525171,0.0622073593128807,-0.0195));
#1968=CARTESIAN_POINT('',(-0.0894469940407359,0.0622073593128807,-0.0195));
#1969=CARTESIAN_POINT('',(-0.0896751773348452,0.0618121342540448,-0.0195));
#1970=CARTESIAN_POINT('',(-0.0911501773348453,0.0592573593128807,-0.0195));
#1971=CARTESIAN_POINT('',(-0.0902985856877906,0.0577823593128807,-0.0195));
#1972=CARTESIAN_POINT('',(-0.0894469940407359,0.0563073593128807,-0.0195));
#1973=CARTESIAN_POINT('',(-0.0877438107466265,0.0563073593128807,-0.0195));
#1974=CARTESIAN_POINT('',(-0.0860406274525171,0.0563073593128807,-0.0195));
#1975=CARTESIAN_POINT('',(-0.0851890358054624,0.0577823593128807,-0.0195));
#1976=CARTESIAN_POINT('',(-0.0843374441584077,0.0592573593128807,-0.0195));
#1977=CARTESIAN_POINT('',(-0.0851890358054624,0.0607323593128807,-0.0195));
#1978=CARTESIAN_POINT('',(-0.0902985856877906,-0.0157823593128808,-0.0195));
#1979=CARTESIAN_POINT('',(-0.0894469940407359,-0.0143073593128807,-0.0195));
#1980=CARTESIAN_POINT('',(-0.0911501773348453,-0.0172573593128808,-0.0195));
#1981=CARTESIAN_POINT('',(-0.0905267689819,-0.0183371342540449,-0.0195));
#1982=CARTESIAN_POINT('',(-0.0894469940407359,-0.0202073593128808,-0.0195));
#1983=CARTESIAN_POINT('',(-0.0877438107466265,-0.0202073593128808,-0.0195));
#1984=CARTESIAN_POINT('',(-0.0860406274525171,-0.0202073593128808,-0.0195));
#1985=CARTESIAN_POINT('',(-0.0851890358054624,-0.0187323593128807,-0.0195));
#1986=CARTESIAN_POINT('',(-0.0843374441584077,-0.0172573593128808,-0.0195));
#1987=CARTESIAN_POINT('',(-0.0851890358054624,-0.0157823593128808,-0.0195));
#1988=CARTESIAN_POINT('',(-0.0860406274525171,-0.0143073593128808,-0.0195));
#1989=CARTESIAN_POINT('',(-0.0877438107466265,-0.0143073593128807,-0.0195));
#1990=CARTESIAN_POINT('',(0.0637709078791349,-0.0202073593128808,-0.0195));
#1991=CARTESIAN_POINT('',(0.0620677245850256,-0.0202073593128808,-0.0195));
#1992=CARTESIAN_POINT('',(0.0654740911732443,-0.0202073593128808,-0.0195));
#1993=CARTESIAN_POINT('',(0.0657022744673537,-0.0198121342540448,-0.0195));
#1994=CARTESIAN_POINT('',(0.0671772744673537,-0.0172573593128808,-0.0195));
#1995=CARTESIAN_POINT('',(0.066325682820299,-0.0157823593128808,-0.0195));
#1996=CARTESIAN_POINT('',(0.0654740911732443,-0.0143073593128807,-0.0195));
#1997=CARTESIAN_POINT('',(0.063770907879135,-0.0143073593128807,-0.0195));
#1998=CARTESIAN_POINT('',(0.0620677245850256,-0.0143073593128807,-0.0195));
#1999=CARTESIAN_POINT('',(0.0612161329379709,-0.0157823593128808,-0.0195));
#2000=CARTESIAN_POINT('',(0.0603645412909162,-0.0172573593128808,-0.0195));
#2001=CARTESIAN_POINT('',(0.0612161329379709,-0.0187323593128807,-0.0195));
#2002=CARTESIAN_POINT('',(0.0663256828202991,0.0577823593128807,-0.0195));
#2003=CARTESIAN_POINT('',(0.0654740911732444,0.0563073593128807,-0.0195));
#2004=CARTESIAN_POINT('',(0.0671772744673538,0.0592573593128807,-0.0195));
#2005=CARTESIAN_POINT('',(0.0665538661144084,0.0603371342540448,-0.0195));
#2006=CARTESIAN_POINT('',(0.0654740911732444,0.0622073593128807,-0.0195));
#2007=CARTESIAN_POINT('',(0.063770907879135,0.0622073593128807,-0.0195));
#2008=CARTESIAN_POINT('',(0.0620677245850256,0.0622073593128807,-0.0195));
#2009=CARTESIAN_POINT('',(0.0612161329379709,0.0607323593128807,-0.0195));
#2010=CARTESIAN_POINT('',(0.0603645412909162,0.0592573593128807,-0.0195));
#2011=CARTESIAN_POINT('',(0.0612161329379709,0.0577823593128807,-0.0195));
#2012=CARTESIAN_POINT('',(0.0620677245850255,0.0563073593128807,-0.0195));
#2013=CARTESIAN_POINT('',(0.063770907879135,0.0563073593128807,-0.0195));
#2014=CARTESIAN_POINT('',(0.0280135485662542,0.021,-0.004));
#2015=CARTESIAN_POINT('',(0.0280135485662542,0.021,-0.005));
#2016=CARTESIAN_POINT('',(0.0480135485662542,0.021,-0.005));
#2017=CARTESIAN_POINT('',(0.0280135485662542,0.021,-0.029));
#2018=CARTESIAN_POINT('',(0.00801354856625425,0.021,-0.029));
#2019=CARTESIAN_POINT('',(0.0280135485662542,0.021,-0.029));
#2020=CARTESIAN_POINT('',(0.0280135485662542,0.021,-0.029));
#2021=CARTESIAN_POINT('',(0.0129135485662542,0.021,-0.029));
#2022=CARTESIAN_POINT('',(0.0280135485662542,0.021,-0.029));
#2023=CARTESIAN_POINT('',(0.0280135485662542,0.021,-0.005));
#2024=MECHANICAL_DESIGN_GEOMETRIC_PRESENTATION_REPRESENTATION('',(#1220),
#2027);
#2025=MECHANICAL_DESIGN_GEOMETRIC_PRESENTATION_REPRESENTATION('',(#1221),
#2028);
#2026=MECHANICAL_DESIGN_GEOMETRIC_PRESENTATION_REPRESENTATION('',(#1222),
#2029);
#2027=(
GEOMETRIC_REPRESENTATION_CONTEXT(3)
GLOBAL_UNCERTAINTY_ASSIGNED_CONTEXT((#2030))
GLOBAL_UNIT_ASSIGNED_CONTEXT((#2039,#2036,#2033))
REPRESENTATION_CONTEXT('Part 3','TOP_LEVEL_ASSEMBLY_PART')
);
#2028=(
GEOMETRIC_REPRESENTATION_CONTEXT(3)
GLOBAL_UNCERTAINTY_ASSIGNED_CONTEXT((#2031))
GLOBAL_UNIT_ASSIGNED_CONTEXT((#2040,#2037,#2034))
REPRESENTATION_CONTEXT('Part 2','TOP_LEVEL_ASSEMBLY_PART')
);
#2029=(
GEOMETRIC_REPRESENTATION_CONTEXT(3)
GLOBAL_UNCERTAINTY_ASSIGNED_CONTEXT((#2032))
GLOBAL_UNIT_ASSIGNED_CONTEXT((#2041,#2038,#2035))
REPRESENTATION_CONTEXT('Part 1','TOP_LEVEL_ASSEMBLY_PART')
);
#2030=UNCERTAINTY_MEASURE_WITH_UNIT(LENGTH_MEASURE(1.E-8),#2039,
'DISTANCE_ACCURACY_VALUE','Maximum Tolerance applied to model');
#2031=UNCERTAINTY_MEASURE_WITH_UNIT(LENGTH_MEASURE(1.E-8),#2040,
'DISTANCE_ACCURACY_VALUE','Maximum Tolerance applied to model');
#2032=UNCERTAINTY_MEASURE_WITH_UNIT(LENGTH_MEASURE(1.E-8),#2041,
'DISTANCE_ACCURACY_VALUE','Maximum Tolerance applied to model');
#2033=(
NAMED_UNIT(*)
SI_UNIT($,.STERADIAN.)
SOLID_ANGLE_UNIT()
);
#2034=(
NAMED_UNIT(*)
SI_UNIT($,.STERADIAN.)
SOLID_ANGLE_UNIT()
);
#2035=(
NAMED_UNIT(*)
SI_UNIT($,.STERADIAN.)
SOLID_ANGLE_UNIT()
);
#2036=(
NAMED_UNIT(*)
PLANE_ANGLE_UNIT()
SI_UNIT($,.RADIAN.)
);
#2037=(
NAMED_UNIT(*)
PLANE_ANGLE_UNIT()
SI_UNIT($,.RADIAN.)
);
#2038=(
NAMED_UNIT(*)
PLANE_ANGLE_UNIT()
SI_UNIT($,.RADIAN.)
);
#2039=(
LENGTH_UNIT()
NAMED_UNIT(*)
SI_UNIT($,.METRE.)
);
#2040=(
LENGTH_UNIT()
NAMED_UNIT(*)
SI_UNIT($,.METRE.)
);
#2041=(
LENGTH_UNIT()
NAMED_UNIT(*)
SI_UNIT($,.METRE.)
);
#2042=PRODUCT_DEFINITION_SHAPE('','',#2045);
#2043=PRODUCT_DEFINITION_SHAPE('','',#2046);
#2044=PRODUCT_DEFINITION_SHAPE('','',#2047);
#2045=PRODUCT_DEFINITION('','',#2051,#2048);
#2046=PRODUCT_DEFINITION('','',#2052,#2049);
#2047=PRODUCT_DEFINITION('','',#2053,#2050);
#2048=PRODUCT_DEFINITION_CONTEXT('',#2069,'design');
#2049=PRODUCT_DEFINITION_CONTEXT('',#2070,'design');
#2050=PRODUCT_DEFINITION_CONTEXT('',#2071,'design');
#2051=PRODUCT_DEFINITION_FORMATION_WITH_SPECIFIED_SOURCE('','',#2057,
 .NOT_KNOWN.);
#2052=PRODUCT_DEFINITION_FORMATION_WITH_SPECIFIED_SOURCE('','',#2058,
 .NOT_KNOWN.);
#2053=PRODUCT_DEFINITION_FORMATION_WITH_SPECIFIED_SOURCE('','',#2059,
 .NOT_KNOWN.);
#2054=PRODUCT_RELATED_PRODUCT_CATEGORY('','',(#2057));
#2055=PRODUCT_RELATED_PRODUCT_CATEGORY('','',(#2058));
#2056=PRODUCT_RELATED_PRODUCT_CATEGORY('','',(#2059));
#2057=PRODUCT('Part 3','Part 3','Part 3',(#2063));
#2058=PRODUCT('Part 2','Part 2','Part 2',(#2064));
#2059=PRODUCT('Part 1','Part 1','Part 1',(#2065));
#2060=PRODUCT_CATEGORY('','');
#2061=PRODUCT_CATEGORY('','');
#2062=PRODUCT_CATEGORY('','');
#2063=PRODUCT_CONTEXT('',#2069,'mechanical');
#2064=PRODUCT_CONTEXT('',#2070,'mechanical');
#2065=PRODUCT_CONTEXT('',#2071,'mechanical');
#2066=APPLICATION_PROTOCOL_DEFINITION('international standard',
'ap242_managed_model_based_3d_engineering',2020,#2069);
#2067=APPLICATION_PROTOCOL_DEFINITION('international standard',
'ap242_managed_model_based_3d_engineering',2020,#2070);
#2068=APPLICATION_PROTOCOL_DEFINITION('international standard',
'ap242_managed_model_based_3d_engineering',2020,#2071);
#2069=APPLICATION_CONTEXT('managed model based 3d engineering');
#2070=APPLICATION_CONTEXT('managed model based 3d engineering');
#2071=APPLICATION_CONTEXT('managed model based 3d engineering');
ENDSEC;
END-ISO-10303-21;
